<?xml version="1.0" encoding="UTF-8"?>
<svg id="Layer_1" data-name="Layer 1" xmlns="http://www.w3.org/2000/svg" viewBox="0 0 38 60">
  <defs>
    <style>
      .cls-1 {
        fill: #fff;
      }
    </style>
  </defs>
  <path class="cls-1" d="M14.52,5.53l-.34-.36c1.91-2.05,4.9-3.17,7.74-2.86,.32,.04,.65,.08,.97,.15l-.07,.49c-1.86-.14-3.66,.15-5.32,.89-1.37,.61-2.34,1.16-2.98,1.69Z"/>
  <path class="cls-1" d="M27.72,9.1c-1.04,0-1.19-.17-1.26-.33-.02-.06-.06-.22,.1-.39l.08-.07c.18-.17,.35-.34,.44-.54,.21-.46,.11-.75-.37-1.03-.54-.32-1.69-.07-2.5,.16l-.29,.08c-.21,.06-1.17,.28-1.7,.28-.12,0-.45,0-.53-.26-.08-.27,.2-.48,.46-.66,.1-.06,.2-.12,.31-.19,.2-.12,.41-.23,.54-.38,.26-.29,.54-.72,.38-1.1-.18-.4-.83-.67-1.62-.67-2.3,0-4.67,.86-6.24,1.58l-.23-.44c.34-.2,.69-.38,1.01-.55,.23-.12,.44-.23,.6-.32,1.3-.75,2.84-1.13,4.83-1.18h.17c3.35,0,6.31,2.69,6.34,5.76v.24s-.24,0-.24,0c-.08,0-.18,0-.28,0Zm-.63-.53c.14,.02,.35,.04,.64,.03-.02-.27-.06-.54-.13-.81-.02,.06-.04,.12-.07,.18-.11,.24-.27,.43-.45,.6Zm-4.28-4.92c.5,.16,.87,.45,1.04,.82,.15,.34,.2,.91-.46,1.64-.18,.2-.43,.34-.66,.48-.09,.05-.19,.11-.27,.16,.47-.04,1.14-.2,1.35-.25l.28-.08c.55-.16,1.23-.35,1.87-.35,.39,0,.73,.08,1,.23-.88-1.36-2.41-2.37-4.13-2.64Z"/>
  <path class="cls-1" d="M21.79,8.38c-.58,0-1.04-.1-1.41-.31-.34-.19-.51-.43-.52-.71-.02-.63,.83-1.18,1.5-1.62,.1-.06,.19-.12,.27-.17l.06-.04h.23c.06,0,.09-.02,.12-.07,.04-.06,.05-.13,.05-.15h-.09s-.12-.05-.12-.05l-.13,.08c-.78,.05-1.56,.37-2.32,.67-.25,.1-.49,.2-.74,.29-.87,.32-1.75,.6-2.57,.87-.02,0-1.78,.55-2.6,.55-.18,0-.44-.02-.56-.21-.04-.07-.09-.21,0-.4l-.06-.12,.09-.16c.03-.05,.06-.1,.1-.15l.48-.8,.05,.82c1.38-.79,2.91-1.4,4.69-1.88,.44-.12,.89-.21,1.33-.3,.21-.04,.42-.09,.62-.13,.44-.1,.9-.17,1.36-.2,.13-.04,.29-.05,.43-.05,.31,0,.55,.1,.7,.3,.21,.28,.23,.71,.06,1.32l-.02,.08-.07,.05c-.09,.07-.22,.14-.36,.23-.41,.25-1.09,.67-1.13,1.02,0,.06,0,.16,.14,.3,.22,.22,1.13,.06,1.68-.08,.1-.02,.18-.05,.25-.06l1.09-.29c.26-.14,.56-.22,.83-.22,.44,0,.82,.21,1.12,.62l.25,.34-.42,.05c-.17,.02-.34,.06-.51,.12h-.07c-.55,.02-1.12,.12-1.68,.22-.37,.07-.73,.13-1.08,.17-.36,.04-.68,.07-1.02,.07Zm-.94-1.67c-.28,.22-.5,.46-.5,.63,0,.12,.15,.22,.27,.29,.11,.06,.23,.11,.36,.15-.21-.21-.3-.45-.27-.7,.02-.13,.06-.26,.14-.37Zm4.35,.57c-.19,0-.41,.06-.65,.19l-.47,.13c.48-.08,.96-.16,1.44-.16,.03,0,.06-.02,.09-.03-.13-.08-.26-.12-.41-.12Zm-11.75-.07h.06c.65,0,2.18-.44,2.45-.52,.82-.26,1.69-.54,2.55-.86,.24-.09,.48-.19,.72-.29,.77-.31,1.57-.64,2.41-.71,.16-.09,.35-.09,.49,0,.11,.01,.2,.05,.28,.11-.01-.11-.04-.17-.07-.2-.02-.03-.08-.1-.3-.1-.1,0-.22,.02-.36,.05-.47,.03-.9,.09-1.32,.19-.21,.05-.42,.09-.63,.13-.44,.09-.87,.18-1.3,.29-1.74,.46-3.23,1.06-4.56,1.82-.14,.08-.28,.11-.4,.08,0,0,0,.01,0,.02Z"/>
  <path class="cls-1" d="M28.8,10.83l-.32-.09c-.33-.09-.7-.14-1.2-.14-.2,0-.41,0-.62,.01-.21,0-.43,.01-.65,.01-.46,0-1.51-.19-1.83-.78-.1-.19-.17-.49,.07-.87,.23-.36,.66-.67,1.18-.86l.04-.02h.05c.21,0,.41,.04,.61,.08l.39,.09-.25,.31c-.05,.07-.11,.14-.14,.22-.07,.16-.03,.22-.02,.24,.09,.13,.44,.27,1.19,.27,.23,0,.44-.01,.62-.03l.32-.03-.06,.44c0,.08-.02,.16-.03,.23,.02,.02,.12-.04,.13-.12l.02-.06,.19,.1h.28c.01,.23,.03,.44,.03,.65v.33Zm-3.24-2.22c-.39,.15-.72,.38-.88,.63-.14,.22-.08,.33-.05,.37,.17,.31,.95,.52,1.39,.52,.21,0,.42,0,.63-.01,.33,0,.63-.02,1.01,0-.02-.08-.03-.17,0-.28,0,0,0-.01,0-.02-.11,0-.23,0-.35,0-.85,0-1.39-.17-1.61-.5-.09-.14-.17-.37-.02-.7-.04,0-.07,0-.11,0Z"/>
  <path class="cls-1" d="M27.76,14.06l-.45-.32c-.11-.08-.22-.16-.35-.22l-.21-.1v-.04c-.18-.1-.36-.21-.55-.31-.91-.5-1.76-.98-2.88-1.04-.41-.02-.68,0-.9,0-.6,.03-.88-.02-1.52-.44-1.14-.75-2.6-1.17-4.01-1.17-.41,0-.8,.04-1.17,.11-.47,.09-.94,.26-1.39,.43-.25,.09-.5,.18-.75,.26-.02,.08-.05,.16-.1,.24-.13,.2-.33,.5-.63,.6-.17,.1-.36,.09-.49-.02-.11-.05-.19-.13-.23-.22l-.17,.03,.13-.41s.03-.09,.06-.13c-.15-1.17-.02-2.33,.38-3.44l.11-.32,.27,.2c.24,.18,.74,.25,1.15,.18,1-.19,2.01-.55,2.98-.89,.28-.1,.57-.2,.85-.3,.35-.12,.7-.27,1.06-.42,.38-.16,.76-.32,1.14-.45l1.38-.48-1.14,.91c-.33,.27-.5,.54-.53,.89-.06,.64,.16,1,.74,1.24,.8,.33,1.9,.17,2.94-.05,.25-.05,.49-.1,.74-.15l.77-.14-.55,.56c-.36,.37-.52,.76-.48,1.15,.07,.55,.76,.87,1.38,.99,.36,.07,.83,.06,1.31,.04,.2,0,.4-.02,.6-.02,.5,0,.88,.06,1.23,.19l.3,.11-.57,.83c-.17,.24-.35,.49-.43,.75-.08,.25-.11,.56-.08,.83l.06,.55Zm-4.84-2.54c.13,0,.27,0,.43,.01,1.23,.07,2.13,.57,3.09,1.11,.24,.13,.49,.27,.75,.41h.01c.02-.18,.05-.36,.11-.53,.11-.32,.32-.62,.5-.88l.19-.27c-.36-.07-.84-.07-1.32-.05-.52,.02-1.03,.03-1.43-.05-.39-.08-1.66-.4-1.78-1.43-.04-.34,.03-.68,.21-1.01-.03,0-.06,.01-.09,.02-1.1,.23-2.31,.4-3.23,.02-.79-.32-1.13-.89-1.05-1.75,.02-.17,.06-.33,.12-.47-.09,.04-.18,.08-.27,.11-.37,.15-.74,.31-1.09,.43-.28,.1-.56,.2-.84,.3-.99,.35-2.01,.72-3.06,.92-.41,.08-.9,.03-1.25-.11-.28,.91-.38,1.84-.27,2.79l.17-.08-.13,.36v.04s-.08,.18-.08,.18l.04,.02,.05-.03c.14-.04,.29-.26,.39-.41,.02-.04,.03-.06,.02-.11l-.03-.21,.21-.06c.3-.09,.59-.19,.89-.3,.47-.17,.96-.35,1.47-.45,1.79-.34,3.98,.11,5.55,1.14,.64,.42,.8,.39,1.22,.36,.15,0,.31-.02,.53-.02Z"/>
  <path class="cls-1" d="M13.48,22.19c-.56,0-.84-.23-.98-.43-.27-.39-.24-1,.1-1.85,.76-1.93,2.46-3.43,4.04-4.63,.04-.03,.06-.13,.04-.17-1.27,.41-2.4,1.04-3.61,1.7l-.56,.31c-.19,.11-2.41,1.09-3.79,1.09h0c-.49,0-.83-.13-1.03-.37-.18-.22-.22-.52-.13-.89l.03-.08c.18-.28,.38-.56,.64-.89l.54-.68-.1,.87c-.05,.47,.08,.81,.41,1.05,.1,.07,.23,.11,.4,.11,.48,0,1.09-.28,1.46-.44l.12-.06c1.83-.83,3.73-1.68,5.65-2.35,.28-.15,.59-.14,.76,.07,.17,.2,.2,.55,.11,1.11l-.05,.11c-.25,.34-.54,.66-.86,.95-.28,.27-.59,.53-.88,.78-.22,.18-.44,.37-.65,.56-.27,.25-.54,.51-.8,.78l-.05,.05-.07,.02c-.28,.14-.49,.43-.59,.79l-.03,.07c-.14,.23-.23,.4-.3,.58-.13,.32-.15,.56-.07,.68,.08,.11,.28,.13,.44,.13,.65,0,1.67-.4,2.06-.59,.05-.02,.07-.07,.07-.11l.02-.12,.11-.06c.5-.25,.98-.59,1.45-.91,.17-.12,.34-.24,.51-.35l.31,.39c-.24,.23-.45,.44-.67,.63-.47,.42-.97,.81-1.52,1.21-.26,.18-.53,.35-.8,.49-.34,.2-1.09,.5-1.74,.5Zm-.63-.88c.02,.07,.04,.12,.07,.17,.17,.25,.74,.25,1.28,.09-.61,.11-1.12,.04-1.35-.27Zm4.12-5.66s-.02,.01-.03,.02c-1,.77-2.06,1.66-2.87,2.7,.23-.24,.48-.48,.73-.7,.22-.2,.44-.39,.66-.58,.29-.25,.59-.5,.86-.77,.23-.21,.45-.44,.64-.68Zm-8.94,1.44c-.04,.2-.02,.34,.05,.43,.12,.15,.43,.21,.86,.18-.05-.03-.1-.05-.15-.09-.28-.21-.47-.48-.56-.8-.07,.1-.13,.19-.19,.28Z"/>
  <path class="cls-1" d="M19.01,25.54c-.96,0-1.89-.31-2.63-.89-1.85,.8-4.14,.91-5.47,.2-.59-.31-1.04-.73-1.31-1.21-.11,.13-.22,.25-.34,.34-.51,.42-1.19,.56-2.04,.39-.38-.07-.91-.29-1.19-.68-.32-.29-.41-.7-.23-1.07,.12-.25,.33-.43,.63-.54,0,0,.01-.02,.02-.03-.29-1.3-.07-2.75,.61-4.21l.2-.42,.24,.39c.31,.5,1.21,.58,1.71,.58,1.52,0,2.99-.84,4.41-1.66,.37-.21,.73-.42,1.1-.62l1.76-.94-1.48,1.35c-1.51,1.38-2.38,2.65-2.68,3.88-.15,.62-.08,1.13,.18,1.47,.34,.44,1.03,.56,1.84,.34,1.53-.43,2.91-1.76,4.12-2.94,.26-.25,.52-.5,.77-.73,.45-.42,.93-.8,1.46-1.19l.79-.57-.42,.88c-.07,.14-.13,.29-.17,.44-.46,1.53-.21,2.1,.08,2.31,.26,.19,.57,.28,.93,.28,.58,0,1.22-.24,1.79-.45l.17-.06c.06-.02,.14-.06,.25-.1,.42-.18,1.12-.49,1.69-.49,.32,0,.57,.1,.74,.29,.19,.21,.27,.54,.23,.96-.07,.73-.45,1.43-.79,2.06l-.07,.13s-.02,.06-.02,.06c.04-.04,.11-.06,.15-.14,.04-.08,.43-.82,.69-1.66l.57-1.85-.08,1.89c.06-.02,.12-.07,.13-.13,.12-.49,.49-1.97-.01-2.62-.18-.23-.45-.34-.85-.34-.63,.01-1.2,.23-1.81,.46-.78,.29-1.6,.6-2.45,.45-.38-.07-.52-.28-.57-.45-.23-.82,1.3-2.29,1.32-2.3,.17-.16,.36-.31,.54-.46,.24-.2,.49-.4,.72-.62,.06-.06,.06-.12,.05-.15,0,0-.02,.02-.03,.03l-.27,.26-.21-.21s-.05,0-.09,.05l-.17,.17-.21-.13s-.02,0-.07,.03c-.37,.28-.85,.65-1.28,1.08l-.07,.05-.11,.05c-.3,.15-.59,.28-.81,.42-.76,.47-1.44,1.11-2.12,1.77l-.51,.49,.09-.7s0-.01,0-.02c-.38,.22-.7,.44-1.02,.66-.34,.23-.69,.47-1.05,.68-.4,.23-.81,.41-1.24,.53-.34,.1-.72,.08-1-.04l-.06-.03-.4-.59,.11-.14c.26-.35,.55-.67,.86-.96,.46-.46,.96-.89,1.44-1.31l.28-.24c.91-.79,1.86-1.72,1.67-2.85,0-.06-.03-.17-.36-.17-.84,0-2.45,.77-2.97,1.03-.09,.04-.16,.08-.19,.09-.31,.13-.62,.26-.93,.39-.6,.25-1.2,.5-1.79,.77-.46,.21-.95,.43-1.46,.6-.27,.09-.49,.14-.68,.14-.37,0-.55-.17-.63-.32-.29-.5,.12-1.42,.51-2.11l.06-.07,.11-.1c1.64-1.32,4.5-2.87,7.18-2.87,.93,0,1.77,.19,2.5,.55,.11,.06,.2,.13,.27,.24,.57,.29,.99,.65,1.26,1.1,.41-.06,.86-.1,1.35-.1,1.11,0,2.11,.16,2.61,.26,.41,.08,.88,.26,1.33,.5,.02-.03,.04-.06,.06-.08,.09-.12,.22-.18,.35-.19l.12-.3,.24,.13c.41,.22,.72,.52,.92,.9l.04,.08-.04,.16c-.03,.07-.07,.13-.12,.18,.8,1.3,1.05,3.1,.69,4.85,1.48-.12,2.52,.72,2.79,2.26,.08,.47-.15,1.09-.62,1.66-.51,.6-1.14,.96-1.68,.96h0c-.14,0-.27-.02-.39-.07-.43-.15-.71-.28-1.03-.74-.23-.33-.32-.35-.32-.35-.04,0-.16,.12-.24,.2-.09,.09-.19,.19-.31,.28-.58,.46-1.55,.71-2.45,.66-.87-.05-1.58-.28-2.14-.66-.61,.69-1.48,1.22-2.22,1.35-.26,.05-.52,.07-.78,.07Zm-2.55-1.47l.12,.1c.84,.71,2,1.01,3.12,.81,.7-.12,1.53-.66,2.07-1.35l.16-.2,.2,.16c.5,.4,1.18,.64,2.05,.69,.78,.05,1.62-.17,2.11-.55,.11-.08,.19-.17,.27-.25,.18-.17,.35-.34,.59-.34,.3,0,.53,.27,.73,.56,.23,.33,.39,.41,.79,.56,.4,.15,1.04-.17,1.52-.75,.37-.44,.57-.93,.51-1.25-.25-1.39-1.21-2.05-2.58-1.8l-.11,.02c-.05,.31-.12,.61-.18,.87-.1,.38-.49,.56-.76,.5-.19,.54-.43,1.04-.6,1.35-.21,.39-.83,.46-1.02,.13-.05-.09-.12-.27,.02-.53l.07-.14c.31-.58,.67-1.24,.73-1.87,.03-.27,0-.47-.1-.58-.07-.08-.2-.12-.37-.12-.47,0-1.11,.28-1.49,.45-.11,.05-.21,.09-.27,.11l-.17,.06c-.6,.22-1.29,.48-1.96,.48-.47,0-.88-.13-1.23-.38-.79-.57-.54-1.86-.35-2.56-.26,.21-.51,.42-.75,.65-.25,.23-.5,.47-.76,.72-1.26,1.22-2.69,2.6-4.33,3.06-1,.28-1.89,.08-2.36-.51-.26-.32-.51-.91-.28-1.89,.23-.94,.75-1.89,1.59-2.87-1.34,.76-2.73,1.47-4.21,1.47-.62,0-1.38-.1-1.86-.5-.4,.96-.73,2.29-.4,3.65l.03,.12-.08,.1s-.07,.1-.11,.15l-.05,.08-.09,.03c-.21,.07-.35,.17-.43,.32-.11,.22,.01,.38,.13,.49l.04,.05c.17,.25,.58,.44,.9,.5,.7,.14,1.24,.04,1.63-.28,.16-.14,.34-.34,.51-.59l.29-.42,.16,.48c.17,.52,.62,.99,1.26,1.33,1.23,.65,3.45,.52,5.17-.28l.14-.07Zm-2.09-4.13c.16,.05,.39,.05,.6,0,.39-.11,.76-.27,1.12-.48,.35-.21,.68-.43,1.02-.66,.34-.23,.69-.47,1.05-.68,.22-.13,.46-.12,.61,.03,.61-.58,1.23-1.13,1.93-1.56,.24-.15,.54-.29,.85-.45l.07-.03c.44-.44,.92-.82,1.3-1.1,.16-.12,.33-.16,.49-.12,.15-.12,.37-.15,.55-.07,.14-.11,.25-.13,.33-.13,.2,0,.36,.12,.44,.32,.1,.24,.03,.52-.17,.71-.24,.23-.49,.44-.74,.65-.18,.15-.35,.29-.52,.44-.39,.34-1.27,1.43-1.17,1.79,0,.02,.02,.07,.17,.09,.74,.12,1.44-.14,2.19-.42,.62-.23,1.26-.47,1.94-.49h0c.6,0,1.01,.18,1.29,.53,.16,.2,.25,.45,.31,.71,.13-1.43-.17-2.84-.86-3.85l-.14-.21,.21-.14s.05-.04,.07-.05c-.11-.16-.24-.3-.4-.42l-.12,.29-.22-.19s-.01,.02-.01,.03c.01,.03,.02,.05,.02,.08l.14,.59-.51-.33c-.5-.31-1.04-.54-1.49-.63-.48-.09-1.45-.25-2.51-.25-.53,0-1.01,.04-1.43,.12l-.18,.03-.09-.16c-.23-.44-.62-.79-1.2-1.08l-.08-.04-.04-.08s-.05-.07-.09-.09c-.66-.33-1.42-.5-2.27-.5-2.54,0-5.29,1.49-6.86,2.76l-.07,.06c-.47,.85-.59,1.41-.49,1.57,.01,.02,.04,.07,.2,.07,.13,0,.31-.04,.52-.11,.49-.17,.97-.38,1.42-.58,.6-.27,1.2-.53,1.81-.78,.31-.13,.62-.26,.93-.39,.03-.01,.09-.04,.17-.08,.96-.46,2.34-1.08,3.19-1.08,.66,0,.82,.37,.86,.59,.23,1.39-.83,2.44-1.84,3.31l-.28,.24c-.48,.41-.97,.83-1.42,1.29-.25,.24-.48,.49-.7,.76l.11,.17Z"/>
  <path class="cls-1" d="M22.5,20.33c-.58,0-1.06-.19-1.34-.54-.2-.24-.4-.67-.26-1.39,.13-.67,.49-1.27,1.12-1.89l.18-.12,1.84-1.2-1.53,1.58c-.2,.21-.45,.48-.66,.81-.22,.37-.56,1.23-.16,1.57,.2,.17,.46,.26,.8,.26,.5,0,1.04-.18,1.53-.34l.29-.09c.1-.03,.22-.07,.35-.12,.48-.17,1.08-.38,1.6-.38,.66,0,1.07,.34,1.18,.97l.03,.18-.17,.08s-.05,.03-.06,.05l-.25,.28-.16-.34c-.07-.14-.2-.33-.64-.33-.65,0-1.23,.23-1.84,.47-.31,.12-.64,.25-.97,.35-.31,.09-.61,.13-.9,.13Z"/>
  <g>
    <g>
      <path class="cls-1" d="M13.46,35.78l-.09-.28c-.26-.78-.52-1.56-.78-2.34l-.07-.21,.2-.09c.43-.2,.87-.35,1.31-.5l.48-.16,.08,.24c.23,.71,.47,1.43,.71,2.14l.07,.21-.2,.1c-.18,.09-.36,.18-.54,.28l-1.16,.62Zm-.33-2.56c.21,.61,.41,1.23,.62,1.84l.63-.34c.12-.07,.24-.13,.36-.19-.19-.56-.38-1.13-.56-1.69-.35,.12-.71,.24-1.05,.38Z"/>
      <path class="cls-1" d="M11.76,36.84l-.21-.61c-.25-.73-.5-1.46-.75-2.18l-.07-.19,.18-.11c.42-.25,.86-.45,1.29-.65l.46-.21,.08,.27c.17,.56,.35,1.11,.53,1.66l.29,.91-.18,.1c-.34,.19-.74,.42-1.13,.69-.07,.05-.15,.1-.22,.14l-.27,.17Zm-.42-2.76c.23,.66,.46,1.32,.69,1.99,.32-.22,.65-.42,.94-.58l-.16-.52c-.15-.46-.3-.93-.44-1.4-.35,.16-.69,.32-1.02,.5Z"/>
      <path class="cls-1" d="M14.45,38.87l-.2-.62c-.26-.84-.52-1.67-.8-2.5l-.07-.2,.19-.1c.41-.22,.83-.42,1.25-.62l.48-.23,1.1,3.3-.4,.16c-.48,.2-.92,.44-1.29,.65l-.27,.15Zm-.45-3.07c.25,.77,.5,1.54,.74,2.31v.03c.32-.17,.67-.35,1.05-.51l-.77-2.32c-.34,.16-.68,.32-1.01,.49Z"/>
      <path class="cls-1" d="M10.83,34.12l-.11-.31c-.4-1.1-.73-1.99-1.05-2.79l-.07-.17,.15-.12c.48-.37,1.02-.73,1.62-1.06l.27-.15,.09,.3c.27,.92,.56,1.83,.85,2.75l.15,.48-.2,.09c-.16,.08-.3,.16-.45,.23-.35,.18-.67,.35-.97,.56l-.27,.19Zm-.63-3.11c.27,.68,.56,1.44,.88,2.33,.25-.15,.5-.28,.76-.41,.09-.05,.18-.09,.27-.14l-.02-.07c-.26-.82-.51-1.63-.76-2.45-.41,.24-.79,.49-1.13,.75Z"/>
      <path class="cls-1" d="M16.15,44.11l-.1-.31c-.19-.6-.39-1.21-.59-1.81l-.07-.22,.21-.09c.49-.21,1.01-.39,1.58-.58l.24-.08,.08,.24c.1,.31,.2,.62,.29,.93l.27,.85-.2,.09c-.51,.24-.99,.5-1.43,.79l-.28,.18Zm-.14-2.06c.14,.43,.28,.86,.42,1.29,.32-.2,.67-.39,1.02-.56l-.14-.44c-.07-.23-.14-.46-.22-.69-.38,.13-.74,.26-1.09,.4Z"/>
      <path class="cls-1" d="M15.13,34.89l-.09-.26c-.24-.7-.48-1.4-.72-2.1l-.06-.17c-.48,.18-.95,.38-1.43,.63l-.26,.13-.09-.28c-.34-1-.67-2-1-3l-.07-.2,.19-.1c1.18-.63,2.46-1.12,3.31-1.44l.23-.09,.09,.23c.38,1.02,.73,2.06,1.07,3.07,.28,.82,.56,1.64,.85,2.46l.08,.23-.23,.08c-.61,.22-1.14,.44-1.62,.67l-.25,.12Zm-.26-2.3c.19,.54,.37,1.07,.55,1.61,.36-.16,.75-.32,1.18-.48-.26-.74-.52-1.49-.77-2.24-.31-.93-.64-1.88-.98-2.82-.78,.29-1.83,.71-2.83,1.23,.27,.84,.55,1.68,.84,2.52,.34-.17,.69-.32,1.03-.45l-.15-.45c-.04-.11-.01-.22,.05-.32,.16-.21,.51-.18,.6,.06,.05,.14,.1,.28,.15,.42v.03c.29-.09,.52-.16,.75-.22h.11c.17-.01,.31,.09,.35,.26,.05,.21-.05,.45-.24,.54-.22,.12-.44,.21-.66,.29Z"/>
      <path class="cls-1" d="M15.42,41.85l-.17-.51c-.27-.82-.54-1.63-.8-2.45l-.06-.2,.18-.1c.18-.1,.36-.19,.54-.28,.33-.16,.66-.29,1-.43l.25-.1,.08,.25c.31,.92,.61,1.84,.91,2.76l.08,.25-.26,.07c-.47,.12-.96,.32-1.49,.59l-.26,.13Zm-.43-2.91c.23,.73,.48,1.47,.72,2.2,.38-.18,.73-.32,1.08-.43-.24-.75-.49-1.5-.74-2.25-.24,.1-.49,.2-.73,.32-.11,.05-.22,.11-.33,.17Z"/>
      <path class="cls-1" d="M12.79,39.87l-1.11-3.31,.16-.11c.27-.18,.56-.34,.82-.49,.11-.06,.21-.12,.3-.17,.06-.04,.12-.07,.18-.1l.36-.2,1.05,3.32-.17,.1c-.41,.24-.82,.49-1.23,.74l-.35,.21Zm-.52-3.1l.79,2.35c.3-.18,.59-.36,.89-.53l-.05-.17-.7-2.19c-.09,.05-.2,.11-.31,.17-.19,.11-.41,.23-.62,.36Z"/>
      <path class="cls-1" d="M16.19,38l-.09-.25c-.32-.94-.64-1.87-.96-2.81l-.07-.21,.2-.09c.6-.28,1.23-.49,1.7-.64l.23-.07,.18,.49c.09,.25,.18,.49,.27,.74,.23,.59,.46,1.19,.68,1.78l.09,.24-.25,.08c-.56,.19-1.15,.4-1.75,.65l-.25,.1Zm-.5-3.01c.26,.78,.53,1.57,.8,2.35,.44-.18,.87-.34,1.29-.48-.19-.51-.39-1.02-.59-1.53-.1-.25-.19-.5-.28-.75v-.04c-.38,.12-.8,.27-1.22,.45Z"/>
      <path class="cls-1" d="M13.79,42.9l-.2-.62c-.19-.58-.38-1.17-.58-1.75l-.31-.92,.2-.1c.38-.18,.75-.39,1.12-.6l.48-.27,.09,.3c.25,.85,.49,1.71,.73,2.57l.1,.35-.17,.1c-.37,.21-.75,.46-1.17,.75l-.28,.19Zm-.48-3.04l.17,.51c.2,.58,.39,1.16,.58,1.74,.27-.18,.52-.34,.76-.49-.21-.75-.41-1.5-.63-2.24-.29,.17-.58,.33-.88,.48Z"/>
      <path class="cls-1" d="M17.12,58.04c-.55,0-1.01-.46-1.17-1.18-1.89-5.43-3.71-11.09-5.26-15.97-.14-.43-.34-1.08-.6-1.86-1.27-3.92-3.61-11.19-4.1-13.52-.03-.04-.04-.09-.05-.14-.1-.03-.18-.05-.25-.08-.34-.13-.7-.3-.99-.64-.63-.73-.78-1.55-.4-2.25,.31-.57,.64-.83,1.1-1.01-.13-.9,.01-2.12,.13-2.56,.54-1.97,1.65-3.81,3.12-5.17,.9-.84,1.98-1.58,3.13-2.16-.33-1.14-.11-2.55,.19-3.45,.48-1.45,1.23-2.71,2.17-3.65,1.58-1.58,3.97-2.52,6.39-2.52,.64,0,1.26,.06,1.87,.19l.39,.08c1.36,.28,2.91,.6,3.99,1.66,1,.97,1.79,2.14,2.29,3.38,1.19,2.93,1.12,6.32-.16,8.69,.6,1.13,.83,2.42,.68,3.74,1.24,.03,2.33,.52,3.01,1.35,.64,.8,.85,1.83,.6,2.98-.25,1.16-1.53,1.88-2.57,1.88h0c-.13,0-.26-.01-.38-.03-.06,.06-.25,.57-.35,.81-.11,.29-.18,.46-.26,.55-.39,.47-.76,.7-1.28,.78h-.01c-.2,.05-.37,.07-.52,.05-.93,3.23-2.51,8.12-3.46,11.07-.25,.76-.45,1.39-.59,1.82-1.58,4.96-3.29,10.27-5.09,15.48-.21,.94-.69,1.52-1.37,1.66-.07,.01-.14,.02-.2,.02ZM6.47,25.36c.46,2.25,2.82,9.57,4.09,13.51,.25,.78,.46,1.43,.6,1.86,1.55,4.88,3.37,10.54,5.26,15.99,.1,.46,.38,.89,.79,.8,.6-.11,.87-.77,.99-1.3,1.81-5.23,3.52-10.53,5.09-15.49,.14-.42,.34-1.05,.59-1.82,.98-3.02,2.61-8.08,3.52-11.29l.08-.29,.27,.13c.1,.05,.27,.04,.47-.01h.07c.37-.07,.63-.23,.95-.61,.01-.02,.04-.07,.06-.13-.13,.18-.29,.35-.5,.51l-.09,.04-.37,.09c-.06,.01-.26,.04-.36,.04h-.12l-.19-.19,.03-.12c.02-.09,.06-.17,.09-.25,.01-.03,.03-.06,.04-.09,.14-.37,.21-.72,.23-1.07v-.28s.29,.04,.29,.04c.17,.03,.33,.02,.46-.02,.04-.01,.07-.05,.07-.07-.11-.09-.28-.12-.47-.15-.1-.02-.19-.03-.29-.06-.25-.07-.47-.23-.62-.43,0,.05,.01,.09,.03,.14l.06,.2-.19,.09c-.54,.27-1.23,.41-1.98,.41-.87,0-1.71-.18-2.41-.5l.39,.33-.91-.11c-.29,0-.62,.21-.9,.39-.09,.05-.17,.11-.25,.15-.35,.2-.77,.35-1.25,.43-.33,.02-.63,.03-.93,.04l-.47,.02c-.79-.07-1.51-.29-2.08-.63l.09,.14h-.43c-.19,.02-.38,.06-.65,.14-.73,.2-1.4,.23-2.39,.08-.18-.03-.4-.04-.65-.07-1-.09-2.4-.21-3.07-.91,.02,.04,.03,.08,.05,.11l.2,.39-.44-.03c-.3-.02-.61-.04-.91-.05-.39-.02-.67-.19-.92-.34-.15-.09-.29-.17-.45-.23-.18-.06-.36-.11-.54-.15-.34-.08-.69-.17-1.02-.37-.28-.19-.49-.42-.66-.7-.12-.16-.2-.33-.24-.5,0,.47,.28,.88,.49,1.12,.21,.24,.47,.37,.79,.5,.11,.04,.26,.08,.42,.11l.67,.16-.49,.27Zm22.09,.6c-.03,.29-.1,.58-.21,.88l.2-.05c.32-.25,.51-.54,.68-1.05-.07,.07-.15,.12-.24,.15-.13,.04-.29,.07-.43,.06Zm-12.36-1.14h.1l.12,.08c.54,.49,1.38,.82,2.32,.9l.44-.02c.3,0,.6-.02,.89-.03,.39-.07,.75-.2,1.05-.37,.07-.04,.15-.09,.23-.14,.22-.14,.47-.29,.73-.38-.13-.14-.25-.29-.35-.43-.07-.11-.08-.24-.01-.37,.07-.13,.2-.21,.33-.21h.11l.13,.1c.65,.67,1.89,1.11,3.16,1.11,.6,0,1.14-.1,1.59-.28-.02-.23,.02-.48,.13-.77,.05-.13,.18-.22,.33-.22,.18,0,.32,.14,.32,.32,0,.23,.22,.48,.47,.55,.08,.02,.16,.04,.24,.05,.24,.04,.51,.09,.73,.3,.09,.09,.15,.2,.15,.32,.05-.09,.12-.17,.18-.25,.15-.18,.39-.24,.46-.25,.19-.04,.35-.04,.46-.04h.26c.2,0,.39-.02,.74-.3,.38-.3,.6-.84,.61-1.46,.01-.73-.27-1.44-.73-1.83-.69-.6-1.6-.86-2.63-.78-.22,.01-.37-.14-.38-.32-.01-.2,.12-.38,.32-.41-.13-2.06-.92-3.81-2.17-4.8-1-.79-2.6-1.59-3.93-1.59-.42,0-.8,.08-1.12,.24l-.05,.03-.12,.02c-.13,0-.25-.08-.3-.2-.06-.15-.02-.32,.09-.44,.47-.46,1.12-.69,1.94-.69,1.41,0,3.08,.73,4,1.45,.5,.39,.93,.83,1.3,1.31,.58-2.14,.94-4.42,.11-6.71-.48-1.33-1.25-2.51-2.17-3.32-1-.89-2.02-1.23-3.36-1.5-.84-.17-1.68-.26-2.49-.26-1.43,0-3.45,.28-4.95,1.61-1.56,1.37-3.06,3.89-2.83,6.29,2.85-1.17,5.7-1.16,7.83,.07,.16,.09,.23,.27,.18,.45-.05,.2-.25,.4-.5,.4l-.13-.02c-.92-.31-1.92-.46-2.96-.46-2.48,0-5.01,.88-6.94,2.41-1.4,1.11-2.46,2.47-3.15,4.03-.39,.88-.53,1.66-.63,2.64l-.02,.21c-.05,.36-.13,1.02,.09,1.23,.1,.09,.13,.24,.08,.37-.05,.13-.18,.22-.32,.22l-.12-.02c-.2-.08-.35-.24-.47-.49-.28,.19-.47,.41-.52,.63-.05,.21,0,.43,.18,.67,.14,.23,.32,.41,.52,.55,.25,.15,.55,.22,.87,.3,.2,.05,.4,.1,.59,.17,.21,.07,.37,.17,.54,.27,.23,.14,.43,.26,.69,.27,.17,0,.35,.02,.52,.03-.06-.23-.08-.45-.06-.68,.02-.19,.22-.37,.41-.37,.16,0,.29,.11,.32,.28,.17,.99,1.87,1.14,2.99,1.23,.26,.02,.5,.04,.68,.07,.91,.13,1.52,.11,2.18-.07,.14-.04,.26-.07,.38-.09-.01-.03-.02-.05-.03-.08-.04-.1-.02-.22,.04-.32,.07-.1,.18-.16,.3-.16Zm14.07,.48h.07c.91,.17,2.17-.46,2.38-1.45,.22-1,.04-1.89-.5-2.56-.13-.16-.29-.31-.46-.45,.55,.49,.88,1.33,.87,2.19-.01,.77-.3,1.44-.79,1.84-.43,.35-.72,.42-1.05,.42h-.26c-.08,0-.17,0-.27,.01,0,0,.01,0,.02,0ZM12.26,11.82l-.07,.03c-1.19,.57-2.29,1.32-3.21,2.17-1.4,1.31-2.46,3.06-2.97,4.94-.07,.25-.18,1.02-.16,1.77l.02-.16c.11-1.03,.26-1.85,.67-2.79,.72-1.63,1.83-3.05,3.3-4.22,2.02-1.6,4.66-2.52,7.25-2.52,.99,0,1.94,.13,2.84,.4-2.02-1.02-4.72-.92-7.37,.25l-.3,.13h0Zm10.35,.96c1.45,0,3.17,.85,4.24,1.7,1.24,.99,2.06,2.64,2.3,4.6,.03-1.08-.22-2.14-.74-3.09l-.07-.12h0s-.1-.16-.1-.16c-.39-.62-.89-1.17-1.49-1.63-.85-.67-2.39-1.34-3.69-1.34-.21,0-.4,.02-.57,.05,.04,0,.08,0,.13,0Zm6.78-.5c-.06,.57-.15,1.13-.27,1.68,.14-.54,.23-1.1,.27-1.68ZM20.53,2.38c-2.29,0-4.54,.89-6.04,2.38-.88,.88-1.59,2.08-2.05,3.45-.23,.7-.38,1.63-.31,2.47-.04-2.43,1.42-4.83,3.02-6.24,1.28-1.13,3.11-1.73,5.28-1.73,.85,0,1.72,.09,2.59,.27,1.42,.29,2.51,.66,3.59,1.62,.7,.62,1.32,1.43,1.8,2.36-.48-1.01-1.16-1.97-1.99-2.78-.98-.96-2.39-1.25-3.75-1.52l-.39-.08c-.57-.12-1.16-.18-1.76-.18Zm-3.59,50.53c-.14,0-.25-.08-.31-.21-.23-.53-.46-1.11-.69-1.81-.1,.06-.18,.11-.27,.17l-.06,.05-.13,.02c-.12,0-.23-.06-.29-.17-.06-.1-.05-.23,.01-.33,.12-.19,.29-.37,.5-.51-.15-.5-.3-1-.44-1.5-.08,.06-.16,.12-.24,.17l-.07,.05h-.12c-.11,.01-.21-.05-.26-.15-.05-.1-.04-.23,.02-.32,.13-.18,.28-.35,.44-.51-.12-.42-.25-.84-.38-1.26-.35-1.12-.71-2.23-1.07-3.34-.05,.02-.1,.05-.15,.07l-.14,.03c-.14,0-.26-.09-.3-.22-.05-.14,0-.3,.13-.38l.24-.17c-.21-.64-.42-1.29-.64-1.93l-.15-.46c-.12,.05-.24,.09-.36,.13l-.1,.02h-.19l-.09-.21c-.04-.14,.03-.3,.15-.38,.13-.07,.25-.14,.36-.21-.25-.75-.51-1.51-.76-2.27-.07,.07-.12,.14-.16,.2-.12,.21-.47,.25-.6,.06-.06-.08-.07-.19-.04-.3,.11-.32,.33-.55,.55-.71l-.08-.24c-.2-.6-.4-1.19-.6-1.79-.06,.04-.11,.09-.17,.13l-.07,.06-.13,.02c-.12,0-.22-.07-.27-.18-.05-.11-.04-.24,.04-.34,.11-.14,.24-.26,.37-.38-.27-.78-.54-1.56-.82-2.34-.2,.18-.39,.35-.56,.53l-.07,.08-.16,.02c-.12,0-.23-.07-.28-.18-.05-.11-.03-.24,.05-.33,.23-.26,.49-.51,.78-.76l-.1-.27c-.14-.39-.29-.79-.44-1.18l-.05-.12,.08-.16c.06-.08,.16-.14,.26-.14h.16l.11,.18c.18,.41,.36,.82,.53,1.24,.36-.28,.76-.55,1.18-.8l-.08-.26c-.09-.29-.17-.58-.26-.87-.03-.11,0-.23,.06-.32,.17-.22,.54-.18,.63,.08,.09,.3,.19,.59,.29,.89l.03,.1c.82-.44,1.76-.86,2.79-1.25-.04-.12-.09-.24-.14-.36-.04-.11-.03-.22,.04-.32,.14-.21,.47-.21,.59,0,.08,.14,.15,.29,.22,.43,.5-.17,.99-.33,1.47-.47l.1-.02c.16,0,.29,.11,.32,.28,.03,.18-.07,.37-.23,.42l-.38,.14c-.31,.11-.63,.23-.96,.34,.24,.59,.44,1.2,.64,1.79l.2,.6c.29,.85,.61,1.68,.99,2.64,.5-.17,1.01-.34,1.52-.49-.21-.52-.41-1.04-.61-1.56-.22,.07-.47,.13-.71,.17-.2,0-.32-.1-.34-.25-.03-.16,.06-.31,.2-.36,.19-.07,.39-.16,.6-.25-.38-1.04-.67-1.96-.9-2.81-.03-.11,0-.23,.07-.32,.05-.07,.13-.12,.21-.14-.32-.1-.63-.22-.93-.37-.2-.1-.3-.31-.24-.54,.06-.27,.34-.56,.67-.56,.08,0,.16,.02,.24,.06,.69,.35,1.53,.54,2.36,.54,1.11,0,2.09-.33,2.77-.94,.06-.05,.35-.24,.58-.13,.84,.38,1.65,.57,2.49,.57h0c.5,0,1.02-.07,1.54-.21,.32-.08,.58,.09,.62,.4,.04,.29-.15,.67-.48,.75-1.2,.31-2.17,.36-3.04,.17-.11-.02-.25-.07-.42-.13-.3-.1-.67-.23-.91-.23-.09,0-.12,.02-.12,.02-.3,.19-.55,.36-.86,.47-1.3,.47-2.69,.56-3.93,.25,.03,.04,.05,.08,.07,.12,.29,.81,.61,1.67,1.02,2.7,.4-.17,.82-.32,1.25-.4-.17-.5-.34-1.01-.49-1.51-.03-.11-.01-.23,.06-.33,.17-.22,.53-.19,.63,.07,.23,.59,.48,1.18,.73,1.75,.12,.03,.21,.12,.25,.23,.03,.09,.02,.2-.01,.29,.43,.99,.81,1.89,1.08,2.85,.03,.12,0,.25-.08,.36-.18,.24-.54,.23-.66-.01-.41-.83-.81-1.75-1.2-2.82-.41,.08-.81,.16-1.21,.28-.01,0-.02,0-.04,.01,.21,.52,.43,1.04,.64,1.57l.32-.08c.16,0,.3,.11,.34,.27,.04,.18-.03,.42-.23,.52-.04,.02-.07,.03-.11,.05l.15,.37c.32,.78,.65,1.55,.97,2.32,.05,.13,.03,.27-.05,.39-.19,.27-.61,.29-.74,0-.4-.89-.81-1.81-1.2-2.73-.5,.19-1.02,.35-1.53,.5l.28,.69c.22,.54,.42,1.08,.63,1.62,.33-.09,.63-.17,.92-.24h.09c.19-.01,.33,.12,.37,.3,.04,.21-.08,.43-.27,.5-.26,.1-.53,.19-.79,.28,.49,1.34,.96,2.75,1.43,4.29,.35-.09,.71-.18,1.06-.25h.09c.17,0,.31,.1,.35,.27,.05,.2-.06,.42-.23,.51-.32,.16-.65,.29-.98,.41l.03,.08c.03,.12,0,.25-.08,.36-.18,.24-.53,.23-.65-.01-.03-.06-.05-.11-.08-.17l-.28,.09c-.38,.12-.76,.23-1.13,.37,.09,.28,.18,.56,.28,.83,.19,.52,.36,1.05,.51,1.56,.26-.04,.51-.04,.76-.02,.2,.02,.34,.17,.35,.36,0,.23-.16,.44-.37,.48-.16,.03-.32,.06-.48,.1,.13,.5,.23,.93,.29,1.32,.02,.12-.02,.25-.1,.35-.2,.24-.58,.18-.66-.11-.11-.4-.23-.8-.35-1.2l-.04-.13c-.39,.12-.76,.26-1.13,.41,.05,.19,.09,.37,.14,.56,.03,.11,0,.23-.08,.33-.17,.22-.5,.2-.6-.03-.08-.16-.15-.32-.22-.49-.28,.15-.56,.31-.84,.48,.12,.38,.24,.76,.35,1.15l.14,.45c.24-.09,.48-.15,.72-.21h.1c.17-.01,.31,.11,.34,.29,.03,.2-.08,.39-.26,.45-.26,.09-.47,.17-.66,.24l.59,1.92c.03,.11,.01,.23-.06,.32-.07,.1-.18,.15-.3,.15Zm-1.39-5.09h0c.42-.26,.85-.5,1.29-.72l.24-.11h0s.12-.06,.12-.06c.51-.23,1.06-.43,1.62-.59l.14-.04h0s0,0,0,0l-.06-.2c-.17-.57-.35-1.16-.56-1.74-.11-.3-.21-.6-.3-.9l-.13-.39,.42-.17c.38-.14,.78-.26,1.18-.39l.59-.18h0s.15-.05,.15-.05l-.15,.04-.07-.23c-.52-1.72-1.04-3.27-1.58-4.74l-.09-.24h0s-.05-.14-.05-.14c-.23-.61-.46-1.22-.71-1.82l-.48-1.19h0l-.05-.11c-.43-1.06-.77-1.96-1.09-2.89l-.2-.6c-.22-.66-.45-1.35-.73-2v-.02s-.06,.02-.06,.02c-1.21,.44-2.29,.93-3.21,1.45l-.25,.14c-.56,.33-1.08,.69-1.53,1.06h-.01c.33,.91,.65,1.82,.96,2.74h0s.1,.3,.1,.3c.24,.7,.47,1.4,.7,2.11l.1,.3h0s.11,.33,.11,.33c.31,.94,.62,1.88,.94,2.81l.06,.19h0l.24,.73c.23,.68,.45,1.36,.67,2.04v.02s0,0,0,0l.09,.28c.39,1.21,.78,2.41,1.16,3.62,.14,.45,.28,.9,.41,1.36h0Zm1.42-21.4s-.07,.02-.11,.07c-.05,.06-.07,.11-.07,.12,1.39,.66,3.16,.75,4.79,.16,.25-.09,.47-.23,.7-.39,.15-.1,.29-.14,.45-.14,.33,0,.74,.15,1.08,.26,.15,.05,.27,.1,.37,.12,.79,.18,1.69,.13,2.81-.16,.03,0,.06-.04,.08-.08,.03-.06,.03-.12,.02-.13-.56,.18-1.12,.26-1.66,.26h0c-.91,0-1.79-.2-2.7-.61,.02,0-.02,.03-.04,.05-.77,.69-1.87,1.07-3.1,1.07-.91,0-1.82-.21-2.58-.59h-.01Zm-4.34,1c-.68,0-1.27-.13-1.76-.4-.2-.11-.29-.32-.23-.56,.07-.26,.34-.55,.66-.55,.09,0,.17,.02,.25,.06,.48,.27,1.21,.33,2.04,.19,.35-.06,.58,.14,.61,.46,.02,.29-.16,.64-.51,.7-.37,.06-.73,.09-1.06,.09Zm-1.33-1.01s-.07,.02-.11,.07c-.05,.06-.06,.11-.06,.12,.6,.3,1.45,.4,2.48,.23,.04,0,.06-.05,.07-.07,.03-.06,.02-.11,.02-.12-1.01,.21-1.8,.09-2.39-.23h-.01Zm-2.27,.6c-.65,0-1.29-.17-2.07-.55-.21-.1-.3-.31-.25-.54,.06-.27,.34-.57,.67-.57,.08,0,.16,.02,.23,.05,.77,.38,1.39,.49,1.98,.38,.36-.07,.58,.13,.61,.44,.03,.29-.16,.65-.5,.71-.23,.04-.45,.06-.68,.06Zm-1.65-1.16s-.07,.02-.12,.07c-.05,.06-.07,.11-.07,.12,.92,.42,1.64,.55,2.42,.41,.04,0,.07-.05,.07-.07,.03-.06,.03-.11,.02-.12-.19,.05-.36,.07-.54,.07-.55,0-1.11-.15-1.77-.47h-.01Z"/>
      <path class="cls-1" d="M17.92,43.1l-.65-2h0s-.07-.21-.07-.21c-.1-.3-.2-.6-.31-.9-.23-.63-.44-1.26-.66-1.89l-.08-.23,.23-.09c.59-.23,1.19-.43,1.8-.63l.23-.08,.08,.23c.23,.61,.45,1.23,.66,1.85,.11,.32,.21,.63,.31,.95,.2,.63,.41,1.29,.66,1.91l.1,.25-.26,.08c-.6,.18-1.2,.39-1.77,.64l-.25,.11Zm-.03-1.71l.33,1.04c.43-.18,.87-.34,1.32-.48-.21-.56-.39-1.13-.57-1.69-.1-.31-.2-.63-.3-.94-.18-.54-.37-1.07-.57-1.61-.44,.15-.88,.3-1.32,.46,.19,.55,.38,1.1,.58,1.65,.08,.23,.16,.46,.24,.7,.03,0,.05,0,.08-.01h.08c.21,0,.38,.13,.41,.34,.03,.22-.09,.44-.28,.55Z"/>
      <path class="cls-1" d="M15.46,48.13l-.11-.34c-.51-1.65-1.04-3.3-1.58-4.95l-.06-.2,.5-.28c.3-.17,.59-.33,.9-.48l.27-.13,.08,.29c.18,.65,.37,1.31,.57,1.95l.09,.29c.3,.96,.6,1.8,.92,2.59l.09,.21-.2,.11c-.39,.21-.81,.43-1.17,.72l-.28,.22Zm-1.15-5.25c.48,1.47,.95,2.95,1.41,4.43,.25-.17,.5-.32,.76-.45-.26-.66-.51-1.36-.76-2.13l-.14,.08-.12,.02c-.14,0-.26-.09-.31-.22-.06-.15,0-.33,.12-.44,.07-.06,.15-.12,.22-.17-.15-.5-.29-1-.44-1.51-.2,.11-.4,.22-.6,.33l-.14,.08Z"/>
      <path class="cls-1" d="M17.04,47.13l-.08-.3c-.22-.83-.48-1.7-.79-2.68l-.06-.2,.18-.1c.44-.24,.96-.51,1.51-.75l.25-.11,.08,.26c.29,.92,.58,1.85,.86,2.78l.07,.24-.24,.07c-.54,.15-1.06,.41-1.51,.64l-.28,.14Zm-.33-2.93c.25,.79,.46,1.52,.65,2.21,.33-.16,.7-.33,1.08-.46-.23-.76-.46-1.51-.7-2.27-.37,.17-.72,.35-1.03,.52Z"/>
    </g>
    <path class="cls-1" d="M28.64,13h0c-.22,0-.42-.09-.54-.24-.08-.11-.17-.31-.08-.62,.03-.09,.06-.2,.11-.32,.1-.29,.3-.85,.18-1.01-.03-.05-.12-.06-.19-.06h-.18c-.2,0-.4,0-.61,.01-.37,.01-.73,.02-1.09,0h-.19c-.62-.05-1.57-.1-1.96-.7-.2-.32-.26-.63-.17-.93,.13-.44,.55-.77,1.03-1.05-.78,.12-1.67,.35-2.33,.51-.4,.1-.68,.17-.84,.2-.1,.01-.23,.02-.36,.02-.29,0-1-.05-1.33-.48-.28-.37-.4-.74-.34-1.09,.1-.63,.72-1.07,1.34-1.49-.87,.14-1.92,.52-2.73,.81-.43,.16-.81,.29-1.08,.36-.29,.08-.59,.17-.9,.27-1.09,.34-2.24,.68-3.34,.57-.38-.04-.63-.3-.68-.72-.21-1.59,1.79-2.54,2.99-3.11l.15-.07c1.62-.77,3.51-1.6,5.58-1.69h0c.21,0,.36,.13,.38,.31,.02,.2-.11,.47-.35,.52-1.43,.35-2.98,.98-4.59,1.89-.27,.15-.56,.37-.87,.6-.04,.03-.08,.06-.12,.09l.29-.07c.62-.16,1.23-.34,1.84-.52,1.09-.32,2.21-.65,3.35-.84,.4-.07,.77-.13,1.14-.13,.54,0,.97,.14,1.32,.44,.37,.31,.3,.82,.05,1.14-.37,.47-.84,.75-1.29,1.02-.26,.16-.53,.32-.77,.51-.06,.04-.09,.08-.12,.11,.09,.03,.31,.08,.78,.08,.43,0,.85-.04,.91-.05,.44-.11,.9-.2,1.35-.28l.17-.04c.44-.11,1.05-.25,1.62-.25,.67,0,1.14,.21,1.37,.63,.16,.29,.09,.64-.19,.9-.1,.1-.28,.21-.48,.35-.17,.12-.48,.33-.64,.48,.04,0,.1,0,.17,0h.14c.21-.01,.44-.04,.69-.06,.36-.04,.73-.07,1.1-.07,.42,0,.75,.05,1.03,.16,.42,.16,.7,.42,.83,.78,.3,.84-.31,1.94-.72,2.66-.16,.28-.48,.46-.81,.46Zm-.69-2.76h.19c.33,.01,.5,.16,.59,.28,.26,.38,.05,.98-.12,1.46-.04,.11-.07,.21-.1,.29-.02,.08-.02,.15,0,.18,.02,.03,.07,.04,.14,.04h0c.13,0,.3-.07,.38-.21,.34-.61,.92-1.63,.69-2.25-.08-.22-.25-.37-.54-.48-.43-.16-1.2-.12-1.9-.05-.26,.03-.5,.05-.72,.06-.06,0-.11,0-.16,0-.2,0-.65,0-.74-.32-.11-.35,.29-.64,.94-1.08,.17-.12,.33-.23,.42-.3,.05-.05,.16-.17,.1-.29-.14-.26-.45-.38-.94-.38s-1.08,.14-1.5,.24l-.19,.05c-.45,.07-.9,.16-1.34,.27-.09,.02-.56,.06-1.02,.06-.81,0-1.19-.12-1.3-.41-.11-.32,.21-.58,.32-.66,.27-.21,.55-.38,.82-.55,.43-.26,.85-.51,1.16-.9,.09-.12,.16-.34,.02-.46-.26-.22-.57-.32-1-.32-.33,0-.67,.06-1.01,.12-1.15,.2-2.26,.52-3.33,.84-.62,.18-1.24,.36-1.86,.52l-.53,.14c-.51,.13-1.01,.26-1.53,.37,0,0,0,0,0,0h0l-.1-.49c.48-.1,1.04-.52,1.58-.92,.32-.24,.63-.47,.93-.64,1.31-.74,2.58-1.3,3.79-1.68-1.4,.23-2.79,.79-4.35,1.53l-.16,.07c-1.07,.51-2.86,1.36-2.71,2.59,.03,.27,.17,.28,.23,.29,1.01,.1,2.1-.23,3.15-.55,.31-.1,.62-.19,.92-.27,.25-.07,.62-.2,1.04-.35,1.14-.41,2.74-.97,3.78-.89l.63,.05-.49,.39c-.19,.15-.41,.3-.64,.45-.56,.38-1.15,.77-1.22,1.23-.03,.21,.04,.44,.24,.7,.13,.17,.49,.28,.93,.28,.11,0,.2,0,.29-.02,.13-.02,.44-.1,.79-.19,1.08-.28,2.8-.71,3.68-.58l.82,.12-.96,.45c-.63,.29-1.5,.69-1.64,1.17-.05,.16,0,.33,.11,.52,.25,.39,1.04,.43,1.56,.46h.2c.34,.04,.69,.02,1.04,.01,.21,0,.42-.01,.62-.01Z"/>
    <path class="cls-1" d="M25.84,23.96h0c-.21,0-.38-.08-.48-.22-.08-.1-.15-.29-.07-.58,.03-.11,.12-.29,.27-.63,.31-.66,1.12-2.41,.86-2.83-.01-.02-.04-.06-.15-.06h0c-.51,0-.93,.21-1.37,.44-.32,.17-.66,.34-1.02,.44-.78,.21-1.45,.31-1.99,.31-1.2,0-1.53-.53-1.6-.98-.18-1.23,.62-2.22,1.34-2.94,.08-.08,.19-.2,.31-.33,.02-.03,.05-.05,.07-.07-1.2,.75-2.25,1.68-3.28,2.58-.77,.68-1.57,1.37-2.42,2l-.08,.06c-.58,.43-1.79,1.32-2.76,1.32-.37,0-.67-.12-.9-.37-.76-.8-.72-1.94,.12-3.21,.55-.83,1.19-1.56,1.94-2.24,.11-.1,.28-.23,.48-.38,.01,0,.03-.02,.04-.03-.29,.13-.58,.26-.89,.4-1.96,.89-4.19,1.89-5.6,1.89-.54,0-.94-.15-1.19-.45-.27-.32-.35-.81-.24-1.46,.58-3.27,5.64-6.15,8.81-5.82,.19,.02,.32,.17,.32,.36,0,.21-.16,.39-.35,.41-1.41,.15-3.59,1.44-4.72,2.27-.59,.44-1.27,.97-1.72,1.64-.44,.66-.63,1.24-.56,1.35,.13,0,.27-.02,.52-.12,1.45-.6,2.99-1.25,4.51-1.98l.25-.12c1.02-.5,2.22-1.08,3.39-.88,.41,.07,.67,.36,.68,.76,.02,1.2-1.2,2.2-2.18,3.01-.22,.18-.42,.34-.59,.5-.59,.54-1.02,1.01-1.31,1.44-.52,.57-.65,1.03-.59,1.19,.02,.04,.08,.28,1.05-.18,.86-.46,1.64-1.11,2.39-1.74l.15-.13c1.61-1.33,3.28-2.71,5.21-3.64l.19-.1c.41-.21,.98-.49,1.48-.49,.19,0,.36,.04,.5,.12,.2,.11,.31,.29,.3,.49-.04,.83-.85,1.46-1.51,1.97-.22,.17-.42,.32-.58,.47l-.05,.05c-.41,.39-1.01,.97-1.12,1.52,.12,.21,.28,.31,.53,.31,.28,0,.62-.13,.91-.24,.29-.09,.57-.2,.85-.3,.57-.21,1.16-.43,1.76-.54,1.1-.19,1.82,.03,2.15,.62,.72,1.3-.8,3.94-1.28,4.72-.15,.25-.46,.41-.76,.41Zm.37-4.82h.07c.31,.01,.48,.17,.56,.3,.37,.61-.2,1.97-.83,3.31-.11,.25-.22,.48-.24,.55-.03,.09-.01,.13-.01,.14,0,0,.03,.02,.08,.02h0c.11,0,.27-.06,.33-.17,.95-1.53,1.71-3.43,1.27-4.22-.22-.4-.77-.52-1.63-.37-.55,.09-1.12,.31-1.67,.51-.29,.11-.57,.21-.85,.3-.32,.13-.71,.27-1.08,.27-.47,0-.82-.23-1.02-.67l-.03-.06v-.07c.1-.75,.82-1.44,1.29-1.89l.05-.05c.17-.16,.39-.33,.62-.51,.6-.47,1.29-.99,1.32-1.59-.11-.07-.2-.09-.3-.09-.39,0-.89,.25-1.26,.44l-.2,.1c-1.88,.9-3.52,2.26-5.11,3.57l-.15,.12c-.77,.64-1.57,1.31-2.48,1.8-.44,.21-.79,.32-1.08,.32-.43,0-.6-.24-.66-.38-.18-.42,.07-1.07,.65-1.7,.29-.43,.74-.93,1.36-1.5,.17-.16,.38-.33,.61-.51,.9-.74,2.02-1.66,2-2.61,0-.06,0-.23-.26-.28-1.02-.18-2.13,.37-3.09,.84l-.26,.12c-1.53,.74-3.08,1.39-4.54,1.99-.27,.11-.48,.16-.65,.16-.31,0-.44-.17-.5-.27-.27-.51,.38-1.55,.59-1.87,.5-.74,1.21-1.3,1.84-1.76,.93-.69,2.57-1.68,3.96-2.14-2.93,.29-6.76,2.78-7.23,5.41-.09,.49-.04,.84,.13,1.05,.15,.18,.42,.27,.81,.27,1.31,0,3.57-1.02,5.39-1.85,.88-.4,1.72-.78,2.33-.99l.96-.33-.69,.74c-.35,.37-.84,.75-1.23,1.06-.19,.15-.35,.27-.45,.36-.72,.65-1.33,1.35-1.86,2.14-.49,.74-.93,1.8-.17,2.59,.14,.14,.31,.21,.54,.21,.81,0,1.97-.85,2.47-1.22l.08-.06c.84-.61,1.62-1.3,2.39-1.97,1.09-.96,2.22-1.95,3.53-2.74,.46-.28,.96-.53,1.54-.76l.19,.46h0c-.28,.11-.98,.85-1.35,1.25-.13,.14-.24,.25-.32,.34-.64,.64-1.35,1.5-1.2,2.51,.02,.13,.08,.55,1.1,.55,.5,0,1.12-.1,1.86-.3,.32-.08,.61-.24,.92-.4,.47-.25,.97-.5,1.55-.5Z"/>
  </g>
</svg>