<?xml version="1.0" encoding="UTF-8"?>
<svg id="Layer_1" data-name="Layer 1" xmlns="http://www.w3.org/2000/svg" viewBox="0 0 59 54">
  <defs>
    <style>
      .cls-1 {
        fill: #fff;
      }
    </style>
  </defs>
  <path class="cls-1" d="M13.54,47.4h-.01c-3.05-.17-6.1-.93-8.59-2.13-.4-.19-1.17-.6-1.85-1.15l-.05-.06c-.3-.47-.48-.98-.55-1.54-.06-.49,.06-.95,.34-1.36l.06-.06c1.51-1.03,3.4-1.27,5.42-1.53,.39-.05,.78-.1,1.18-.16,1.34-.19,2.65-.65,3.92-1.09,.35-.12,.7-.25,1.05-.36,.7-.23,4.52-1.86,4.82-2.22-.03,.04-.05,.15,.02,.24h0l.38-.32h0s.05,0,.09-.04l.07-.06h.1c1.3,.02,2.47,.33,3.72,.65l.52,.13c.76,.2,1.54,.3,2.21,.37l.49,.05h.02s.13,.01,.13,.01c.44,.04,.89,.08,1.33,.13,1.52,.17,3.02,.51,4.46,.83,1.13,.25,2.3,.51,3.46,.69l1.2,.18-1.18,.3c-1.02,.26-2.07,.46-3.09,.65-1.35,.25-2.74,.51-4.06,.93-1.19,.37-2.38,.79-3.54,1.19l-.34,.12c-.15,.05-.32,.1-.5,.15-.56,.16-1.25,.36-1.55,.72-.24,.29-.28,.59-.33,1v.12c-.26,1.97-3.05,2.58-4.71,2.94l-.44,.1c-1.4,.32-2.81,.51-4.18,.56h-.01Zm-10.11-3.64c.63,.51,1.35,.88,1.72,1.06,2.43,1.17,5.41,1.91,8.39,2.08,1.34-.05,2.71-.23,4.08-.54l.45-.1c1.53-.33,4.1-.89,4.31-2.51v-.12c.07-.45,.12-.87,.46-1.27,.4-.48,1.18-.7,1.8-.88,.17-.05,.34-.1,.48-.15l.34-.12c1.16-.4,2.36-.82,3.55-1.19,1.36-.43,2.76-.69,4.12-.94,.61-.12,1.24-.23,1.87-.37-.77-.15-1.53-.32-2.28-.49-1.43-.32-2.92-.65-4.41-.82-.38-.04-.77-.08-1.15-.12-.01,.16-.09,.32-.22,.43-.2,.18-.42,.32-.69,.42-.22,.09-.46,.01-.58-.18-.11-.17-.12-.4-.03-.58,.04-.09,.09-.17,.15-.24-.54-.07-1.14-.17-1.72-.32l-.52-.13c-1.19-.31-2.31-.61-3.52-.63-.15,.1-.32,.13-.47,.09-.94,.75-4.88,2.27-4.93,2.29-.35,.12-.7,.24-1.05,.36-1.29,.45-2.63,.92-4.01,1.12-.4,.06-.8,.11-1.19,.16-2.01,.26-3.76,.48-5.16,1.42-.2,.3-.27,.62-.23,.98,.05,.46,.2,.9,.45,1.29Zm23.2-6.67l-.14,.09c-.2,.12-.32,.23-.42,.43-.01,.03,0,.08,0,.1,.19-.1,.36-.21,.51-.35,.06-.06,.06-.12,.05-.14v-.05s0-.05,0-.05v-.03Zm-12.75,7.73c-.09,0-.18-.02-.27-.05-.46-.19-.68-.59-.59-1.08,.11-.56,.66-1.16,1.31-1.16h.07c.08,0,.16,.03,.23,.07,.23-.03,.44,.11,.52,.33,.15,.41,.03,.91-.32,1.34-.07,.09-.47,.55-.95,.55Zm.46-1.79c-.38,0-.75,.4-.82,.75-.05,.25,.05,.42,.29,.52,.17,.07,.47-.14,.63-.35,.09-.11,.37-.5,.24-.86l-.16,.06-.18-.12Zm-7.58-.28c-.09,0-.18-.01-.26-.04h-.03c-.17,0-.31-.09-.39-.24-.03-.06-.05-.11-.06-.17-.18-.29-.17-.66,.03-.92,.19-.25,.48-.37,.8-.33,.17-.03,.35-.03,.51,0,.26,.05,.4,.31,.36,.62-.09,.57-.36,.95-.74,1.05-.07,.02-.14,.03-.21,.03Zm-.16-.54h.03c.07,.04,.14,.05,.21,.03,.27-.07,.36-.51,.38-.65,0-.04,0-.07,0-.08-.02,.01-.07,0-.13,0-.06,0-.12,0-.18,.02h-.04s-.05,0-.05,0c-.16-.02-.28,.01-.38,.13-.09,.12-.05,.28,.02,.38l.04,.1s.01,.05,.03,.07l.08-.02Zm4.71,.45c-.14,0-.26-.05-.36-.14-.24-.21-.32-.5-.2-.79,.07-.16,.16-.27,.3-.37,.04-.03,.08-.07,.13-.08,.13-.09,.28-.12,.42-.1,.29-.34,.78-.29,.95,.04,.09,.19,.06,.42-.09,.62-.24,.31-.71,.82-1.14,.82Zm.08-.93l-.05,.04c-.07,.05-.1,.09-.13,.15-.03,.07-.03,.14,.07,.22,.17,.02,.46-.2,.78-.61,.04-.05,.04-.08,.04-.09-.05-.01-.08,.02-.11,.06-.03,.04-.08,.09-.12,.14l-.15,.17-.18-.14s-.08,.02-.12,.06c0,0,0,0,0,0h-.01Zm10.18,.5c-.64,0-.88-.31-.96-.58-.24-.76,.36-1.5,1.08-1.78,.17-.11,.42-.17,.66-.15-.06-.06-.1-.14-.12-.23-.02-.13-.03-.26-.02-.4-.02-.04-.03-.07-.04-.12-.09-.56,.2-1.14,.69-1.37,.18-.09,.39-.13,.58-.13,.37,0,.67,.17,.81,.48,.17,.37,.14,.78-.09,1.15-.29,.45-.82,.76-1.34,.77,.3,.17,.51,.45,.59,.77,.08,.34,0,.69-.23,.96-.28,.34-.72,.54-1.32,.61-.09,0-.2,.02-.3,.02Zm.67-2.02c-.11,0-.22,.03-.33,.1-.54,.21-.98,.71-.83,1.19,.02,.07,.07,.23,.48,.23,.08,0,.17,0,.25-.02,.46-.05,.8-.2,.99-.43,.13-.16,.17-.34,.13-.53-.05-.21-.21-.39-.42-.48-.09-.04-.18-.06-.27-.06Zm1.21-2.24c-.12,0-.25,.03-.37,.09-.29,.13-.46,.49-.41,.84l.07,.08-.02,.08c-.01,.13-.01,.24,0,.36l.06-.04c.35,0,.75-.23,.95-.54,.1-.16,.19-.4,.06-.67-.06-.12-.18-.19-.36-.19Zm-6.22,3.1c-.18,0-.3-.06-.39-.17-.1-.13-.14-.31-.11-.47,.14-.66,.62-1.09,1.25-1.13h.04c.19,0,.35,.09,.42,.25,.1,.21,.02,.46-.1,.64-.01,.16-.08,.3-.2,.41-.21,.21-.49,.43-.91,.46h0Zm.75-1.27c-.39,.04-.67,.3-.76,.73,.2,.03,.36-.06,.58-.28,.04-.04,.05-.08,.05-.13v-.1s.06-.08,.06-.08c.04-.05,.06-.1,.07-.14Zm11.75-.33c-.18,0-.32-.07-.41-.19-.1-.13-.13-.31-.09-.47,.18-.62,.62-.78,1.07-.86h.04c.07-.01,.15-.01,.22,0,.06,.01,.11,.04,.16,.08l.13,.04v.08c.07,.11,.12,.28,.03,.52-.04,.14-.14,.28-.27,.36-.22,.23-.48,.41-.88,.44h0Zm.67-1.04h0c-.43,.08-.59,.21-.69,.52,.23,0,.39-.11,.59-.31,.07-.05,.09-.09,.11-.13,0-.02,.02-.05,.02-.07h-.01s-.02,0-.02,0Zm-14.88,.99s-.1,0-.15-.01c-.24-.04-.37-.27-.38-.48-.02-.48,.43-.72,.6-.81,.3-.16,.61-.06,.72,.22,.09,.22,.03,.5-.13,.68-.1,.22-.3,.36-.54,.39-.04,0-.08,0-.12,0Zm.33-.87s-.02,0-.03,.01c-.23,.12-.34,.23-.33,.34-.01,.01,0,.01,.03,.01,.13-.01,.19-.06,.22-.13l.06-.09s.06-.11,.05-.15Z"/>
  <path class="cls-1" d="M38.62,38.73l-.3-.07c-.35-.08-.7-.15-1.06-.22l-.11-.02-.06-.09c-1.46-.18-2.9-.5-4.29-.81-.65-.14-1.3-.29-1.96-.42l-.1-.02-.06-.08c-1.18-.19-2.38-.52-3.54-.83-.87-.24-1.77-.48-2.67-.67-1.3-.28-2.67-.4-3.99-.52-.52-.05-1.03-.09-1.55-.15l-.29,.04v-.29c.03-1.82,.18-3.66,.32-5.43,.04-.51,.08-1.02,.12-1.54,.03-.38,.06-.76,.1-1.14,.14-1.55,.29-3.16,0-4.68l-.07-.05c-.17-.11-.35-.21-.52-.31-.85-.49-1.65-.96-2.15-2.09-.49-1.12-.3-2.43-.08-3.45,.01-.05,.03-.1,.04-.15l.02-.08c.44-.98,1.03-1.8,1.8-2.56,.53-.33,1.02-.58,1.45-.81l.44-.23c2.64-1.42,5.59-2.22,8.44-3l.65-.18s.07-.05,.1-.12l.06-.13,.14-.02c.79-.1,1.51-.15,2.18-.16h.09c3.29,0,6.83,1.78,9.26,4.64,.69,1.17,1.11,2.09,1.41,3.02,1.18,3.67-1.98,4.96-4.52,5.99-.22,.09-.45,.18-.66,.27-.09,.04-.17,.17-.16,.21,.35,.15,.7,.26,1.13,.37,1.32,.33,.97,2.05,.78,2.97-.02,.12-.04,.22-.06,.31-.05,.31-.11,.62-.17,.93-.15,.83-.3,1.61-.36,2.42-.13,1.76-.04,3.59,.05,5.35,.06,1.14,.12,2.32,.12,3.47v.31Zm-1.18-.76c.23,.04,.46,.09,.68,.14,0-1.04-.06-2.1-.12-3.13-.07-1.32-.14-2.68-.11-4.03-.03,.07-.08,.15-.14,.23-.11,.14-.32,.28-.53,.28-.16,0-.31-.08-.39-.23-.14-.23-.14-.42-.13-.55-.01-.05,0-.15,.04-.26l.02-.11c.07-.53,.75-.7,1.01-.4,.07,.08,.15,.22,.12,.45,0,0,0,0,0,0,0,.02,.02,.03,.02,.05,.01-.29,.03-.58,.05-.86,.06-.85,.22-1.68,.37-2.48,.06-.31,.12-.62,.17-.93,.02-.09,.04-.2,.06-.33,.21-1.05,.38-2.19-.41-2.39-.46-.11-.83-.23-1.19-.38-.21-.09-.33-.26-.32-.47,0-.29,.24-.57,.47-.67,.22-.09,.44-.18,.67-.27,2.59-1.05,5.27-2.15,4.23-5.38-.29-.9-.7-1.79-1.34-2.89-2.31-2.72-5.71-4.43-8.85-4.43h-.08c-.62,0-1.27,.05-2,.14-.09,.14-.22,.24-.36,.27l-.65,.18c-2.83,.77-5.75,1.56-8.34,2.96l-.44,.23c-.43,.23-.91,.48-1.38,.76-.68,.67-1.23,1.45-1.64,2.33v.06s-.04,.08-.05,.12c-.21,.94-.39,2.15,.05,3.14,.43,.98,1.1,1.37,1.94,1.86,.19,.11,.38,.22,.57,.34l.03,.02c.11,.06,.19,.18,.22,.33,.06,.33,.11,.66,.14,.98,.02-.26,.06-.51,.18-.73,.13-.24,.35-.4,.58-.4h.09c.07,0,.16,.03,.24,.07l.06,.04c.28,.12,.49,.36,.65,.72,.03,.07,.04,.14,.04,.21,.09,.25,.14,.49,.13,.72-.01,.56-.38,1.33-1.04,1.33-.07,0-.14,0-.22-.03-.46-.12-.61-.59-.67-.95,0,.96-.08,1.92-.17,2.86-.03,.38-.07,.76-.1,1.13-.04,.51-.08,1.03-.12,1.54-.14,1.69-.28,3.43-.32,5.16,.48,.05,.93,.09,1.38,.13,1.33,.12,2.72,.24,4.05,.53,.91,.2,1.81,.44,2.69,.68,1.15,.31,2.33,.63,3.52,.84,.08,.01,.16,.05,.22,.1,.63,.13,1.26,.27,1.89,.41,1.38,.31,2.8,.62,4.22,.8,.12,.01,.22,.06,.3,.14Zm-.05-7.71s-.12,.05-.13,.12l-.04,.21s-.02,.05-.01,.07c0,.15,0,.21,.06,.31-.01-.02,.06-.06,.1-.11,.15-.19,.09-.28,.05-.32l-.07-.1,.05-.19Zm-16.79-8.21s-.1,.05-.14,.13c-.16,.31-.13,.82-.11,1.12,.03,.5,.14,.78,.33,.83,.36,.1,.62-.46,.63-.83,0-.17-.04-.37-.12-.57l-.02-.06v-.06c-.1-.27-.23-.42-.42-.5l-.07-.05h-.08Zm8.6,10.06c-.59,0-1.06-.59-1.16-1.13-.08-.43-.13-1.24,.37-1.87,.11-.14,.27-.24,.44-.26,.36-.18,.88-.02,1.23,.47,.34,.47,.41,1.36,.16,1.99-.17,.43-.48,.71-.86,.79-.06,.01-.12,.02-.18,.02Zm-.13-2.82l-.15,.05s-.08,.03-.12,.07c-.28,.36-.38,.9-.27,1.48,.07,.37,.4,.79,.75,.71,.22-.04,.39-.21,.49-.48,.21-.52,.11-1.22-.1-1.52-.2-.27-.41-.39-.6-.31Zm3.21,1.88c-.66-.05-1.11-.65-1.21-1.2-.1-.53,.11-.96,.55-1.17,.06-.03,.12-.05,.19-.07,.12-.17,.31-.33,.52-.33,.17,0,.31,.1,.39,.26,.03,.06,.05,.12,.07,.18h0s.49,.27,.49,.27l-.26,.1c.02,.11,0,.22-.04,.33,.07,.45,.02,.85-.14,1.21-.09,.21-.32,.42-.57,.42Zm.01-2.24s-.07,.07-.1,.13l-.06,.12-.13,.02c-.06,0-.11,.03-.17,.05-.31,.15-.31,.46-.27,.63,.07,.36,.37,.76,.72,.79,.02,0,.09-.06,.11-.12,.13-.3,.16-.63,.09-1.01l-.02-.09,.05-.08s.04-.07,.02-.09h0s-.06-.04-.08-.06l-.13-.12,.02-.02-.02-.07s-.02-.05-.03-.08Zm-9.04,1.85c-.11,0-.22-.04-.31-.12-.4-.35-.33-.7-.22-1.07,.09-.32,.34-.53,.62-.54h.01c.24,0,.44,.18,.48,.41,.14,.21,.11,.52,.06,.75-.06,.23-.32,.56-.64,.56Zm.09-1.23c-.06,0-.12,.1-.14,.18-.1,.33-.08,.42,.07,.56,.02-.01,.11-.12,.13-.19,.05-.21,.03-.33,.01-.36l-.08-.07v-.12Zm9.88-5.15c-.1,0-.2-.03-.29-.1-.37-.29-.56-.76-.49-1.22-.03-.16-.03-.29,0-.42,.09-.35,.4-.72,.79-.72,.09,0,.18,.02,.27,.06,.31,.15,.52,.42,.59,.78,.09,.46-.05,1-.37,1.36-.09,.1-.27,.27-.51,.27Zm.01-1.97c-.11,0-.26,.19-.3,.35-.02,.06-.01,.13,.01,.23v.05s0,.05,0,.05c-.06,.29,.05,.6,.29,.78,0,0,.05-.03,.12-.1,.21-.24,.32-.62,.25-.93-.04-.2-.15-.35-.32-.43h-.05Zm-8.73,1.72c-.18,0-.34-.06-.48-.17-.24-.19-.41-.47-.51-.79-.04-.03-.09-.07-.13-.13-.33-.49,.04-1.09,.24-1.41,.05-.08,.12-.15,.2-.2,.11-.13,.33-.31,.59-.26,.03-.01,.06-.02,.1-.03,.41-.08,.8,.06,1.07,.34,.22,.23,.32,.54,.3,.86-.03,.54-.26,1.08-.61,1.44-.22,.22-.5,.36-.77,.36Zm-.18-2.48s-.07,.03-.11,.09l-.1,.1s-.04,.02-.06,.05c-.15,.24-.4,.64-.25,.87l.1,.05,.07,.14c.04,.18,.13,.44,.36,.62,.15,.12,.4,.04,.58-.14,.27-.28,.45-.7,.47-1.12,.01-.19-.05-.36-.17-.49-.15-.16-.37-.23-.61-.19l-.17,.07-.11-.04Zm12.38-.3s-.08,0-.12,0c-.26-.03-.48-.16-.63-.37-.41-.6-.14-1.68-.11-1.8,.1-.38,.25-.81,.57-1.05,.35-.26,.77-.21,1.03,.11,.13,.07,.25,.18,.32,.33,.29,.53,.33,1.28,.1,1.91-.16,.44-.62,.89-1.18,.89Zm.2-2.9c-.05,0-.11,.03-.18,.07-.2,.15-.31,.48-.39,.78-.13,.48-.15,1.11,.04,1.39,.06,.09,.15,.14,.27,.16h0c.37,0,.66-.28,.76-.56,.18-.49,.15-1.09-.07-1.5-.04-.07-.08-.11-.14-.13l-.07-.03-.04-.06c-.04-.06-.1-.12-.19-.12Zm-3.65,1.37c-.1,0-.2-.02-.31-.05-.45-.14-.73-.59-.74-1.18,0-.54,.11-1.05,.33-1.46,.03-.05,.28-.49,.67-.59,.07-.06,.14-.12,.22-.15,.15-.08,.32-.12,.48-.12,.46,0,.84,.3,.94,.76,.14,.64-.11,1.39-.39,1.88-.35,.61-.75,.91-1.2,.91Zm.66-3.05c-.08,0-.17,.02-.25,.06-.05,.02-.1,.06-.15,.12l-.07,.07h-.09c-.1,.02-.27,.18-.37,.35-.18,.33-.28,.76-.27,1.21,0,.18,.05,.61,.39,.72,.39,.12,.72-.29,.92-.63,.24-.42,.44-1.06,.34-1.53-.05-.22-.22-.37-.45-.37Zm-8.56,2.87c-.14,0-.28-.04-.4-.12-.27-.17-.42-.42-.43-.71,0-.45,.33-.89,.65-1.1,.18-.12,.44-.12,.6,0,.25,.18,.34,.4,.41,.6,.03,.09,.03,.18,0,.28,.05,.47-.14,.72-.3,.86-.16,.13-.35,.2-.53,.2Zm.12-1.53h0s-.02,0-.03,.01c-.25,.17-.43,.46-.43,.68,0,.08,.02,.19,.19,.29,.13,.08,.28,.02,.36-.05,.1-.08,.14-.23,.11-.45v-.05s0-.05,0-.05c-.05-.22-.1-.3-.22-.39Zm-2.28,1.1c-.22,0-.4-.13-.46-.34-.09-.3-.08-.6,.05-.92,.04-.32,.2-.57,.51-.76,.28-.17,.68-.04,.77,.27,.04,.15,.06,.3,.06,.46h0c.02,.13,0,.24-.05,.35-.05,.27-.21,.55-.46,.78-.11,.1-.27,.16-.42,.16Zm.39-1.61s-.02,0-.03,0c-.18,.11-.26,.24-.28,.42l-.02,.08c-.09,.22-.11,.42-.05,.62,0-.01,.04-.02,.07-.05,.17-.16,.28-.34,.32-.56,.03-.09,.04-.11,.04-.13v-.07c-.01-.11-.02-.21-.05-.32Zm-3.68,.54c-.42,0-.83-.29-1.04-.74-.18-.39-.2-.99,.12-1.35,.25-.29,.57-.39,.87-.29,.53-.13,.99,.11,1.11,.61,.13,.56-.04,1.18-.42,1.52-.19,.17-.41,.25-.64,.25Zm-.27-1.92c-.08,0-.18,.06-.27,.16-.16,.18-.15,.58-.04,.81,.18,.39,.6,.58,.89,.32,.28-.25,.34-.71,.26-1.03-.06-.26-.27-.32-.56-.22l-.1,.03-.09-.04s-.06-.02-.09-.02Zm7.1,.59c-.35,0-.72-.21-.93-.54-.09-.14-.15-.29-.19-.47-.06-.09-.11-.18-.14-.27-.23-.61,.08-1.28,.74-1.57,.26-.11,.52-.12,.76-.04,.02,0,.06,.02,.09,.04,.01,0,.02,0,.03,.01,.21,.04,.41,.15,.6,.31,.12,.05,.21,.14,.25,.27,.16,.23,.12,.51-.07,.73-.02,.06-.05,.13-.1,.19h0c-.02,.06-.04,.11-.06,.16-.05,.52-.24,.87-.56,1.06-.13,.08-.27,.11-.43,.11Zm-.1-2.43c-.08,0-.15,.02-.23,.05-.35,.15-.62,.52-.47,.93,.03,.07,.07,.14,.12,.2l.05,.11c.02,.13,.06,.23,.12,.33,.16,.25,.48,.38,.69,.26,.18-.11,.29-.35,.32-.71l.03-.1s.04-.09,.06-.13l.03-.07c.05-.08,.06-.11,.07-.14l.02-.07,.05-.05c.06-.06,.07-.12,.07-.13l-.07-.13-.08-.03c-.14-.12-.28-.2-.42-.23l-.17-.06c-.05-.02-.11-.03-.17-.03Zm4.85,.61s-.1,0-.15-.01c-.72-.1-1.06-.96-1.03-1.54,.01-.23,.05-.47,.1-.71,0-.02,0-.05,.02-.09,.01-.06,.02-.09,.03-.12l.26,.02-.24-.08c.03-.08,.05-.17,.1-.25,.09-.21,.18-.37,.3-.5,.41-.46,.95-.54,1.36-.19,.07,.03,.16,.1,.24,.18,.52,.55,.67,1.41,.38,2.15-.21,.52-.69,1.13-1.36,1.13Zm-.81-2.32l.24,.09-.02,.08c-.05,.21-.08,.43-.09,.62-.02,.38,.2,.96,.6,1.02,.42,.06,.8-.38,.98-.81,.23-.56,.12-1.21-.27-1.61-.04-.05-.09-.08-.16-.12-.13-.1-.21-.13-.3-.13-.13,0-.27,.08-.41,.24-.08,.09-.15,.21-.22,.38-.04,.07-.05,.13-.07,.18l-.02,.06h-.26Zm5.53,1.33c-.16,0-.31-.08-.4-.21-.3-.46-.17-.88-.03-1.25,.13-.34,.55-.5,.83-.34,.17-.04,.32,0,.43,.11,.06,.06,.13,.18,.13,.37-.02,.48-.19,.86-.53,1.15-.12,.1-.28,.16-.42,.16Zm.14-1.37s-.07,0-.1,.09c-.13,.34-.17,.55-.01,.79,0-.01,.04-.03,.07-.06,.22-.19,.33-.43,.35-.74l-.11,.05-.2-.14Z"/>
  <g>
    <g>
      <polygon class="cls-1" points="46.48 26.99 46.23 26.99 46.21 26.48 46.74 26.45 46.75 26.96 46.48 26.99"/>
      <path class="cls-1" d="M33.15,19.46h0c-.4,0-.69-.29-.69-.69,0-.19,.04-.4,.12-.59-.03-.59,.28-1.23,.85-1.33,.48-.09,.8,.1,.92,.48,.2,.61-.21,1.63-.65,1.96-.16,.12-.35,.18-.54,.18Zm.49-2.13s-.08,0-.13,.01c-.3,.05-.47,.49-.44,.86v.07s-.02,.06-.02,.06c-.07,.14-.1,.29-.1,.43,0,.09,.02,.2,.19,.2,.08,0,.18-.03,.25-.09,.29-.21,.59-1.02,.47-1.4-.03-.09-.08-.15-.23-.15Z"/>
      <path class="cls-1" d="M33.31,23.64h0c-.12,0-.24-.06-.32-.16l-.11-.13c-.16-.19-.13-.43,.03-.59,.09-.12,.23-.21,.38-.24h.09c.16,0,.3,.07,.36,.2,.11,.22,.14,.4-.02,.66-.1,.15-.25,.25-.41,.25Z"/>
      <path class="cls-1" d="M36.53,20.83c-.16,0-.32-.06-.46-.18-.21-.18-.29-.47-.23-.86-.04-.25,.03-.52,.2-.78,.25-.37,.85-.46,1.18-.17,.29,.24,.34,.7,.25,1.02-.1,.34-.42,.97-.95,.97Zm.2-1.67c-.11,0-.21,.05-.27,.13-.08,.11-.16,.28-.12,.43v.05s0,.05,0,.05c-.04,.22-.02,.38,.05,.44,.05,.04,.1,.06,.14,.06,.16,0,.38-.33,.47-.61,.05-.16,.02-.41-.09-.5-.05-.04-.11-.06-.18-.06Z"/>
      <path class="cls-1" d="M24.51,23.55h0c-.09,0-.17-.02-.26-.05-.34-.15-.56-.49-.55-.89-.04-.21-.02-.42,.08-.61l.24,.09-.2-.15c.02-.06,.09-.23,.24-.33,.18-.12,.38-.13,.56-.05,.15,.02,.28,.09,.39,.2,.23,.23,.41,.75,.3,1.08-.11,.32-.39,.7-.79,.7Zm-.11-1.53l-.07,.02s-.03,.02-.06,.12l-.04,.07c-.04,.08-.05,.17-.03,.26v.04s0,.07,0,.07c0,.2,.09,.37,.25,.43h.06c.12,.01,.26-.17,.32-.35,.04-.12-.06-.45-.18-.57-.04-.04-.08-.06-.14-.06l-.12-.04Z"/>
      <path class="cls-1" d="M25.31,19.4c-.23,0-.4-.14-.44-.36-.05-.32,.09-.58,.32-.67l.17,.2-.1-.23,.15-.03c.11,0,.21,.05,.28,.13,.07,.07,.13,.14,.18,.25,.08,.23-.04,.5-.21,.61-.12,.07-.24,.11-.36,.11Z"/>
      <path class="cls-1" d="M19.97,17.77h0c-.09,0-.23-.03-.36-.17-.06-.07-.11-.15-.16-.24-.19-.18-.3-.44-.27-.69,.03-.24,.17-.44,.4-.54,.09-.04,.18-.06,.27-.06,.44,0,.68,.49,.73,.82,.03,.21-.07,.52-.22,.71-.14,.16-.28,.19-.38,.19Zm-.13-1.21c-.12,.05-.16,.09-.16,.16-.01,.1,.04,.22,.13,.29l.05,.04,.03,.06c.03,.06,.05,.11,.09,.14,.06-.07,.12-.23,.11-.3-.03-.19-.15-.39-.24-.39Z"/>
      <path class="cls-1" d="M26.21,16.21h0c-.17,0-.32-.1-.42-.27-.2-.16-.27-.42-.18-.69,.1-.31,.4-.64,.74-.64,.12,0,.29,.04,.44,.22,.15,.17,.18,.43,.1,.7,.02,.16-.05,.33-.18,.44-.05,.04-.11,.08-.16,.1-.11,.09-.23,.13-.35,.13Zm.14-1.09c-.08,0-.22,.14-.26,.29-.04,.12,.02,.15,.04,.17l.06,.04,.03,.07v.03s0,0,0,0l.02-.06,.13-.03-.02-.08,.06-.1c.04-.12,.05-.23,0-.28-.02-.02-.04-.04-.06-.04Z"/>
      <path class="cls-1" d="M20.44,23.97c-.2,0-.37-.12-.44-.32-.04-.11-.06-.25-.07-.39-.15-.24-.18-.53-.19-.74,0-.16,.07-.33,.19-.45,.11-.12,.26-.18,.41-.18,.44,.04,.73,.32,.83,.74,.12,.49-.05,1-.4,1.23-.1,.07-.22,.11-.33,.11Zm-.1-1.58c-.08,.06-.1,.1-.1,.12,0,.22,.05,.41,.14,.52l.05,.07v.08c0,.1,0,.2,.03,.28,0,0,.02,0,.02-.01,.18-.12,.26-.43,.2-.7-.03-.12-.12-.33-.34-.36Z"/>
      <path class="cls-1" d="M23.12,18.71c-.18,0-.33-.11-.39-.3-.05-.17-.04-.31,.05-.46,.17-.29,.58-.34,.76-.09l.04,.07s.02,.05,.03,.06c.03,.08,.03,.15,.03,.22,.02,.07-.02,.2-.12,.31-.1,.12-.25,.19-.39,.19Z"/>
      <path class="cls-1" d="M31.14,13.62h0c-.07,0-.15-.02-.22-.04-.23-.09-.35-.28-.33-.54-.09-.29-.04-.69,.24-.91,.27-.21,.63-.18,.85,.06,.14,.15,.21,.36,.19,.57-.03,.34-.28,.85-.73,.85Zm.08-1.13s-.07,.02-.09,.04c-.08,.07-.11,.26-.06,.39l.03,.07v.07s0,.06,0,.06h.04c.09,0,.21-.21,.23-.39,0-.07-.02-.14-.06-.19-.02-.02-.05-.05-.09-.05Z"/>
      <path class="cls-1" d="M36.37,13.61c-.11,0-.21-.04-.28-.12-.1-.11-.14-.24-.12-.37,.02-.16,.13-.3,.31-.4,.25-.15,.55,0,.61,.28,.05,.23-.07,.46-.28,.55-.11,.05-.18,.06-.25,.06Z"/>
      <path class="cls-1" d="M29.24,30.89h0c-.15,0-.28-.07-.37-.18-.19-.25-.3-.77-.15-1.11,.08-.18,.22-.3,.4-.33,.16-.06,.33-.03,.46,.08l.04,.05s.04,.06,.06,.09c.28,.39,.23,.97-.12,1.28-.09,.08-.2,.12-.32,.12Zm0-1.14h-.04c-.09,.18-.05,.49,.04,.63,.14-.15,.15-.44,0-.61v-.02Z"/>
      <path class="cls-1" d="M31.83,29.91h-.11l-.2-.17-.02-.15c0-.19,.15-.39,.38-.39h.11l.2,.17,.02,.15c0,.19-.15,.39-.38,.39Zm0-.5s-.12,0-.12,.11c0,.04,.02,.09,.05,.12,.04,.04,.09,.06,.12,.06,0,0,.12,0,.12-.11,0-.04-.02-.09-.05-.12-.04-.04-.09-.06-.12-.06Z"/>
      <path class="cls-1" d="M23.34,30.28c-.22,0-.38-.13-.44-.34-.03-.13,0-.28,.09-.39,.17-.22,.5-.25,.66-.07,.13,.09,.19,.21,.19,.35,0,.18-.12,.34-.28,.41-.07,.03-.15,.04-.22,.04Z"/>
      <path class="cls-1" d="M15.69,39.44h0c-.19,0-.34-.08-.43-.22-.14-.21-.08-.49,.14-.7,.17-.25,.57-.33,.89-.21,.24,.09,.34,.35,.23,.62-.1,.26-.5,.5-.83,.5Z"/>
      <path class="cls-1" d="M22.56,39.41h0c-.25,0-.4-.12-.47-.22-.15-.21-.09-.49,.07-.69,0-.04,.02-.07,.03-.1,.21-.48,.88-.65,1.28-.51,.29,.1,.35,.3,.36,.42,.04,.36-.32,.72-.49,.83-.13,.08-.47,.28-.78,.28Zm-.05-.5s.02,0,.05,0c.14,0,.36-.1,.51-.2,.13-.08,.27-.28,.26-.35-.07-.02-.12-.02-.17-.02-.22,0-.46,.12-.52,.26v.1s-.08,.09-.08,.09c-.03,.03-.06,.09-.06,.12h0Z"/>
      <path class="cls-1" d="M17.55,40.86h0c-.15,0-.28-.09-.34-.23-.05-.13-.04-.28,.05-.39,.02-.05,.05-.09,.08-.12,.02-.03,.04-.06,.06-.09,.07-.1,.2-.16,.34-.16,.22,0,.38,.16,.39,.38,.01,.27-.19,.42-.31,.5-.06,.04-.11,.07-.15,.09v.02s-.01-.01-.01-.01c-.04,.01-.08,.02-.11,.02Z"/>
      <path class="cls-1" d="M21.58,41.51c-.08,0-.16-.01-.25-.04-.13-.04-.24-.13-.3-.26-.07-.16-.07-.37,.01-.53,.07-.14,.17-.24,.32-.31,.16-.19,.57-.4,.9-.4,.29,0,.51,.16,.59,.43,.06,.2,.02,.4-.12,.58-.19,.26-.54,.43-.81,.47-.06,.02-.14,.03-.2,.04-.06,0-.11,.01-.15,.01Zm.2-.53l.02,.09v-.11s0,0,0,0h0c.16,0,.42-.13,.53-.28,.06-.08,.04-.13,.04-.15-.01-.04-.02-.07-.11-.07-.17,0-.42,.13-.52,.22l-.09,.1-.05,.02c-.08,.03-.1,.06-.12,.09-.02,.03-.01,.09,0,.11,.02,0,.06,0,.09,0,.02,0,.03,0,.05,0,.06,0,.13-.02,.16-.03Z"/>
      <path class="cls-1" d="M11.56,42.34c-.06,0-.11,0-.17-.02-.05-.01-.1-.04-.13-.07-.16-.05-.27-.2-.27-.38,0-.35,.3-.63,.66-.63,.15,0,.29,.05,.4,.14,.15,.12,.2,.32,.11,.52-.11,.26-.35,.44-.61,.44Z"/>
      <path class="cls-1" d="M6.9,42.49c-.13,0-.24-.04-.33-.11-.18-.11-.26-.29-.22-.5,.1-.43,.57-.71,1-.6,.3,.08,.36,.29,.37,.38,.04,.32-.27,.64-.44,.73-.12,.07-.25,.1-.37,.1Zm-.05-.53l.04,.04h.01s.09-.02,.13-.04c.06-.03,.14-.12,.17-.19-.02,0-.03,0-.05,0-.13,0-.26,.09-.31,.2Z"/>
      <path class="cls-1" d="M14.01,44.38h-.02c-.22,0-.34-.14-.37-.26-.04-.12,0-.25,.06-.36l-.04-.05,.25-.17s.04-.04,.09-.06c.31-.22,.62-.09,.71,.18,.07,.2,0,.41-.17,.55-.04,.04-.11,.08-.18,.1-.08,.05-.19,.07-.32,.07Z"/>
      <path class="cls-1" d="M30.31,39.28c-.17,0-.47-.03-.62-.25-.09-.13-.11-.29-.05-.45,.04-.12,.11-.22,.2-.28,.03-.04,.07-.07,.11-.1,.06-.04,.28-.16,.53-.16,.26,0,.46,.15,.54,.39,.05,.18,.02,.38-.09,.55-.12,.17-.31,.28-.51,.3-.03,0-.07,0-.1,0Zm-.2-.52s.1,.02,.2,.02h.06c.05,0,.11-.04,.14-.09,.02-.02,.04-.07,.03-.12-.02-.07-.19-.04-.32,.05l-.11,.14s0,0,.01,0Z"/>
      <path class="cls-1" d="M26.36,37.81c-.11,0-.21-.04-.28-.12-.06-.07-.1-.16-.1-.26,0-.23,.19-.49,.46-.49,.11,0,.21,.04,.28,.12,.06,.07,.1,.16,.1,.26,0,.23-.19,.48-.46,.48Z"/>
      <path class="cls-1" d="M14.4,51.05c-1.8,0-3.62-.19-5.27-.56-2.16-.48-5.77-1.28-7.38-3.66-.54-.8-.56-1.55-.58-2.35,0-.28-.01-.57-.05-.88-.03-.3-.06-.64-.05-.96-.08-.39-.02-.76,.16-1.1,.64-1.23,2.08-2.07,4.28-2.51,.6-.12,1.19-.22,1.78-.33,1.92-.34,3.73-.67,5.56-1.35l.34-.13c1.38-.52,2.79-1.05,4.21-1.53-.03-.98,0-1.98,.02-2.94,.01-.61,.03-1.22,.03-1.8,0-.42,0-.85,0-1.27-.01-1.15-.03-2.33,.06-3.49l.05-.62c.09-1.06,.19-2.25,.01-3.27-.12-.07-.42-.18-.61-.25-.34-.13-.53-.2-.62-.27-.36-.28-.8-.62-1.07-1.07-.55-.91-.82-1.83-.79-2.73,.05-2.07,.83-3.97,2.25-5.5,.05-.06,.11-.12,.17-.17l.05-.05c.44-.9,1.82-1.6,2.75-2.06,.17-.08,.32-.16,.45-.23,1.96-1.05,4.09-1.98,6.51-2.86,3.46-1.25,8.02-2.79,12.72-3.66,4.8-.89,8.71-.7,12.38,.57,1.38,.48,3.31,1.3,4.15,2.88,.18,.34,.32,.68,.42,1.06,1.1,2.35,.68,5.18-1.08,7.17-.05,.06-.12,.11-.19,.14-.88,1.28-.84,3.27-.74,5.04,.11,1.92,.12,3.42,.02,4.88-.02,.31,0,.68,.01,1.07,.04,.82,.08,1.74-.24,2.42-.19,.99-1.35,1.68-2.58,2.26-.91,.67-1.98,1.26-3.01,1.83-.92,.5-1.78,.98-2.57,1.53-1.14,.79-2.22,1.62-3.21,2.48,0,.08-.04,.16-.08,.23-.18,.27-.44,.38-.67,.49l-.07,.03-.19,.19c-.64,.63-1.25,1.23-2.12,1.62,0,.37-.07,.73-.13,1.09-.07,.4-.14,.77-.12,1.14,0,.14-.05,.29-.16,.41-.1,.11-.24,.17-.38,.17h0c-.09,0-.17-.03-.25-.07-.25-.16-.87,.07-1.27,.24l-.19,.08c-.34,.14-.72,.19-1.09,.25-.17,.02-.34,.05-.49,.08-1.08,.22-2.22,.47-3.32,.8l-.9,.27c-1.75,.53-3.57,1.08-5.28,1.73-.23,.14-.48,.34-.71,.58-.05,.12-.1,.25-.15,.38l-.09,.24c-.26,.68-.77,1.09-1.26,1.5l-.08,.07c-1.35,1.28-3.27,2.13-5.68,2.51-1.16,.18-2.39,.28-3.66,.28Zm-9.64-11.33c-1.22,.34-2.52,.95-3.08,2.04-.13,.25-.17,.52-.11,.8v.03s0,.03,0,.03c-.01,.29,.02,.61,.05,.92,.03,.32,.04,.62,.05,.92,.02,.75,.04,1.41,.5,2.08,1.5,2.22,4.99,2.99,7.07,3.46,2.74,.61,5.98,.71,8.74,.28,2.29-.36,4.1-1.15,5.39-2.35,0,0-.01,0-.02,0h-.13l-.11-.13c-.09-.13-.08-.32,.05-.66,.52-1.37,.19-3.48,.19-3.5l-.03-.22,.34-.08c.29,0,.81,.19,1.1,1.46,.2,.86-.31,1.95-.76,2.58,.27-.25,.49-.52,.62-.87l.08-.23c.06-.15,.11-.31,.18-.46l.05-.07c.27-.29,.56-.52,.88-.71,1.77-.68,3.59-1.23,5.35-1.76l.9-.27c1.11-.34,2.27-.59,3.36-.81,.16-.03,.34-.06,.52-.09,.34-.05,.7-.1,.98-.22l.18-.08c.5-.21,1.29-.48,1.73-.2-.01,0,.02-.04,.02-.06-.02-.42,.05-.84,.13-1.25,.07-.4,.14-.78,.12-1.15v-.18s.16-.07,.16-.07c.86-.35,1.47-.95,2.12-1.58l.29-.26,.12-.05c.2-.09,.35-.16,.45-.3l-.02-.14,.11-.12c1.03-.9,2.15-1.77,3.35-2.59,.81-.56,1.73-1.06,2.61-1.55,1.02-.56,2.07-1.14,3-1.82,1.1-.53,2.2-1.16,2.36-1.99,.29-.63,.25-1.45,.21-2.25-.02-.4-.04-.78-.01-1.12,.1-1.43,.09-2.91-.02-4.81-.06-.97-.09-2,.02-2.97-.12,.66-.14,1.37-.17,2.06-.01,.36-.03,.71-.05,1.05-.05,.7-.04,1.43-.02,2.13,.02,.72,.03,1.46-.02,2.2l-.05,.6c-.04,.51-.08,1.02-.1,1.53,0,.15,0,.29,0,.43v.08s-.05,.07-.05,.07c-.02,.03-.03,.05-.03,.06,0,.51-.14,.94-.39,1.3-.16,.16-.29,.27-.44,.37l-.02,.09-.06,.07c-.28,.21-.61,.38-.96,.56-.17,.09-.36,.19-.54,.29-.84,.48-1.69,.96-2.52,1.46-.05,.06-.11,.1-.17,.13-.32,.18-.66,.38-1.08,.65l-.42,.31h0c-.22,.16-.44,.33-.65,.51l-.08,.05c-.46,.29-.93,.61-1.45,.99l-.35,.25c-.69,.52-1.43,1.11-2.26,1.82l-.3,.26c-.61,.53-1.22,1.06-1.81,1.6l-.3,.27-.11-.38c-.62-2.16-.41-4.74-.22-7.01l.05-.61c.04-.55,.09-1.11,.14-1.67,.16-1.84,.33-3.75,.37-5.61l.02-.09c.12-.3,.3-.57,.56-.82,.21-.2,.45-.4,.69-.6,.22-.25,.51-.52,.88-.83,.39-.33,.72-.69,1.07-1.19,.05-.12,.12-.29,.18-.47,.74-2.27-.4-4.38-1.14-5.43-1.35-1.93-3.34-3.42-5.63-4.33,2.39,1.1,4.55,2.98,5.9,5.29,.88,1.5,1.25,3.88,.21,5.33-.36,.38-.77,.69-1.08,.91-.31,.17-.54,.32-.74,.48-.59,.37-1.13,.68-1.66,.94h.33l-.38,.26c.55,.67,.45,2.04,.39,2.8l-.05,.75c-.06,.85-.12,1.73-.12,2.59h0s.02,.11,.02,.11l-.04,.54c-.05,.59-.09,1.19-.14,1.78-.12,1.37-.14,2.82-.07,4.54,0,.15,0,.3,.01,.45,.02,.78,.04,1.52,.39,2.16l.09,.17-.25,.22-.15-.02c-.91-.25-1.87-.42-2.8-.59-.6-.11-1.2-.21-1.79-.34-.69-.15-1.38-.28-2.07-.42-.73-.14-1.47-.28-2.21-.44,.77,.18,1.55,.33,2.31,.49,.62,.12,1.24,.25,1.86,.39,.57,.12,1.15,.23,1.74,.34,.55,.1,1.09,.2,1.63,.32l-.06,.5c-1.04,0-9.84,2.09-13.5,3.66-.39,.13-.81,.27-1.01,.55-.19,.26-.2,.51-.21,.8-.02,.41-.04,.87-.56,1.36-1.38,1.3-3.78,1.7-5.47,1.88-.69,.08-1.41,.11-2.14,.11-3.39,0-6.97-.79-9.82-2.17-.89-.43-2.97-1.58-3.06-2.99-.04-.64,.34-1.22,1.12-1.73,.56-.36,1.15-.63,1.76-.83Zm15.44-4.08c-.07,.03-.13,.05-.2,.08l-.14,.05c-1.06,.27-1.97,.61-2.74,1.02l-.17,.07c-.81,.29-1.63,.58-2.43,.88l-.66,.25c-1.51,.58-3.06,1.18-4.69,1.41l-.74,.1c-1.79,.23-3.64,.48-5.16,1.47-.62,.4-.92,.83-.89,1.28,.06,.93,1.47,1.94,2.78,2.57,2.79,1.35,6.29,2.12,9.61,2.12,.72,0,1.42-.04,2.09-.11,2.54-.28,4.23-.85,5.18-1.75,.37-.35,.39-.65,.4-1.02,.01-.32,.03-.68,.3-1.07,.29-.41,.82-.59,1.24-.73,2.86-1.22,9.22-2.89,12.21-3.47-.06-.01-.13-.02-.19-.04-.59-.11-1.17-.22-1.75-.34-.62-.13-1.23-.26-1.85-.38-1.05-.21-2.13-.43-3.19-.7l-.96-.25c-1.29-.33-2.63-.67-3.96-.93-.66-.13-1.35-.19-2.02-.26-.68-.07-1.38-.13-2.06-.26Zm3.7,8.37c.06,.62,.13,1.78-.11,2.79,.31-.54,.61-1.31,.48-1.88-.11-.48-.25-.76-.37-.92Zm-12.01-5.81c-1.15,.35-2.29,.59-3.47,.8l.69-.09c.94-.13,1.87-.4,2.78-.71Zm8.63-3.27c3.08,.12,6.01,.76,8.99,1.46,.98,.23,1.99,.43,2.96,.62,.7,.13,1.39,.27,2.08,.42,.58,.13,1.18,.23,1.77,.34,.78,.14,1.59,.28,2.37,.47-.21-.62-.23-1.28-.24-1.92,0-.15,0-.3-.01-.44-.07-1.75-.05-3.21,.07-4.61,.05-.59,.1-1.18,.14-1.78l.04-.46h-.01s0-.11,0-.11c0-.9,.06-1.8,.12-2.68l.05-.75c.05-.68,.15-2.07-.34-2.52-.01,0-.02,0-.03,0l-.62-.1,.31-.21c-.03-.19,.07-.38,.24-.46,.63-.28,1.28-.63,1.97-1.07,.2-.16,.46-.33,.77-.49,.27-.19,.65-.48,.96-.8,.9-1.25,.55-3.4-.25-4.76-2.1-3.6-6.24-6.11-10.05-6.11h-.08c-2.27,.02-4.55,.53-6.69,1.07-1.99,.5-3.91,1.03-5.55,1.96-1.97,1.1-3.23,2.77-3.56,4.69-.18,1.06-.12,1.96,.17,2.67,.64,1.06,1.9,2.03,3.04,2.31,.17,.04,.28,.19,.27,.36,0,.18-.15,.39-.36,.43-.07,.01-.14,.02-.21,.02,0,.06-.01,.12-.02,.19,.25,1.51,.07,3.16-.07,4.49-.02,.21-.04,.43-.06,.64v.18s0,.12,0,.12c.02,.55,.04,1.1,.05,1.65,.04,1.78,.07,3.55,.09,5.33,0,.05,0,.1,0,.15,.45-.14,.89-.27,1.34-.4l.11-.02c.1,0,.2,.04,.26,.11Zm19.74-11.59c-.04,1.85-.21,3.75-.37,5.59-.05,.56-.1,1.11-.14,1.67l-.05,.62c-.18,2.09-.37,4.45,.1,6.45,.48-.42,.95-.85,1.44-1.27v-.09s.1-.1,.1-.1l.68-.55v.08c.64-.53,1.22-1,1.78-1.42v-.04s.24-.19,.24-.19l.54-.38v.05c.41-.28,.77-.53,1.12-.75,.21-.17,.4-.32,.58-.46l-.02-.04,.3-.19c.05-.04,.11-.07,.16-.11l.27-.17h0c.38-.24,.7-.43,1-.6,.02,0,.03-.02,.05-.04l.07-.06c.85-.51,1.71-1,2.57-1.48,.19-.11,.38-.21,.56-.3,.3-.16,.59-.31,.83-.47,.04-.09,.09-.17,.17-.21,.12-.08,.23-.17,.33-.28,.17-.25,.26-.57,.27-1,0-.11,.04-.2,.08-.28,0-.12,0-.24,0-.37,.02-.52,.06-1.04,.1-1.55l.05-.6c.05-.71,.04-1.44,.02-2.15-.02-.72-.03-1.46,.02-2.18,.03-.34,.04-.68,.05-1.04,.06-1.51,.13-3.21,1.18-4.41-.04-.12-.03-.25,.03-.39,.13-.29,.26-.58,.4-.86,.39-.81,.75-1.59,.9-2.43-.04-.06-.05-.13-.05-.21,.09-1.64-.05-3.48-1.81-4.64-1.14-.75-2.55-1.3-4.44-1.74-2.54-.58-5.13-.68-8.09-.31-.12,0-.19,0-.27,0-.9,0-1.86,.19-2.84,.57l-.16,.02h-.12c-3.81,.87-7.47,1.93-10.91,3.16-.67,.24-1.28,.47-1.85,.69,1.81-.38,3.46-.63,4.99-.75,.37-.03,.75-.05,1.13-.05,4.51,0,8.79,2.11,11.18,5.51,1.37,1.95,1.8,4.04,1.2,5.87-.07,.2-.15,.39-.23,.56-.39,.56-.76,.97-1.18,1.32-.36,.3-.63,.55-.86,.81-.26,.22-.49,.41-.69,.6-.19,.19-.33,.38-.42,.61ZM44.85,3.4c-1.69,0-3.46,.17-5.4,.53-4.66,.86-9.2,2.4-12.64,3.64-2.4,.87-4.5,1.79-6.44,2.83-.13,.07-.29,.15-.46,.24-.88,.44-2.2,1.1-2.54,1.86l-.05,.08-.09,.08s-.1,.09-.15,.14c-1.33,1.44-2.06,3.23-2.11,5.18-.02,.8,.22,1.63,.72,2.46,.23,.37,.63,.68,.95,.93,.05,.03,.3,.13,.49,.2,.66,.25,.84,.33,.9,.5,.22,1.14,.11,2.41,.02,3.53l-.05,.62c-.08,1.14-.07,2.32-.06,3.45,0,.43,0,.85,0,1.28,0,.59-.01,1.2-.03,1.82-.02,1.02-.05,2.07,0,3.09v.02c.14-.05,.27-.11,.42-.16v-.14c-.02-.17-.03-.34-.03-.5-.02-1.78-.05-3.55-.09-5.33-.01-.55-.03-1.1-.05-1.64v-.15s0-.21,0-.21c.02-.22,.03-.44,.06-.66,.14-1.31,.31-2.94,.06-4.39v-.04s0-.04,0-.04c.01-.13,.03-.26,.03-.38v-.02h0s.25,0,.25,0l-.13-.21,.04-.03c-1.11-.43-2.21-1.35-2.85-2.41-.34-.83-.41-1.83-.21-2.98,.35-2.08,1.7-3.87,3.81-5.04,1.7-.95,3.65-1.49,5.67-2,1.05-.27,2.14-.53,3.25-.72-1.71,.24-3.58,.62-5.66,1.16l-.24,.07-.17-.47c1.35-.62,2.81-1.2,4.73-1.88,3.45-1.24,7.14-2.31,10.95-3.17l.27-.03c1.12-.43,2.19-.62,3.23-.59,2.92-.38,5.63-.28,8.23,.32,1.94,.45,3.41,1.02,4.6,1.81,1.93,1.28,2.12,3.23,2.04,4.99l.09,.04-.03,.19c-.14,.97-.56,1.85-.96,2.7-.13,.28-.27,.56-.39,.85h0c1.66-1.87,2.04-4.48,1.02-6.68-.11-.38-.24-.69-.4-1-.76-1.43-2.57-2.19-3.87-2.64-2.11-.73-4.31-1.09-6.72-1.09Z"/>
    </g>
    <path class="cls-1" d="M42.47,20.73l.37-.72c.13-.24,.23-.47,.32-.73,.18-.57,.26-1.16,.22-1.81v-.12c.26-1.78-1.03-3.32-2.17-4.67l-.33-.4c-2.05-2.49-4.99-3.75-8.72-3.75-.22,0-.44,0-.66,.01h-.31c-.37,0-.71,0-1.02,.04-2.24,.18-4.75,.64-7.66,1.38l-.24,.07-.17-.47c1.35-.62,2.81-1.2,4.73-1.88,3.45-1.24,7.14-2.31,10.95-3.17l.11-.02h.43c.2-.02,.4-.03,.58-.04,.44-.02,.87-.03,1.32-.02l-.04-.39c1.55-.25,2.98-.37,4.39-.37s2.82,.13,4.15,.38c1.76,.52,3.42,1.39,4.83,2.53,1.11,.9,1.76,2.18,1.89,3.71,.16,1.85-.51,3.87-1.74,5.27l-.05,.06-.07,.02c-.4,.11-.82,.25-1.28,.42l-.32,.12c-.7,.26-1.45,.59-2.3,.99l-1.35,.65c-.62,.3-1.24,.6-1.86,.88-.89,.41-2.07,.96-3.23,1.61l-.76,.42Zm-10.32-12.69c3.89,0,6.96,1.32,9.11,3.93l.33,.39c1.14,1.36,2.57,3.06,2.3,5.02l-.02,.12c.04,.65-.04,1.32-.24,1.93-.01,.04-.03,.08-.04,.12,.99-.52,1.92-.96,2.67-1.3,.16-.07,.32-.15,.47-.22-.03-.02-.06-.05-.09-.09-.06-.09-.08-.21-.03-.33,.56-1.42,1.2-3.04,.72-4.72-.38-1.32-.88-2.69-2-3.72-1.9-1.75-4.34-2.85-6.86-3.1l-.24-.02v-.26s0-.24,0-.24l.28-.04h.01c2.1,.16,5.94,.85,8.18,3.74,1.94,2.51,2.15,5.52,.61,8.5,.26-.13,.52-.25,.79-.38l.38-.18c.13-.21,.26-.36,.37-.5,.24-.3,.41-.51,.59-1.15,.19-.66,.39-1.46,.45-2.36,.02-.18,.17-.32,.34-.32s.3,.13,.3,.31c0,1.19-.13,2.23-.44,3.27,.57-.25,1.09-.48,1.59-.67,.11-.41,.33-.74,.57-1.07l.11-.17c.61-.89,.97-1.92,1.11-3.15,.33-2.94-1.88-5.22-4.22-6.19-.13-.05-.21-.19-.18-.34,0-.05,.03-.09,.06-.13-.17-.06-.35-.11-.52-.17-1.56-.29-3.24-.42-4.95-.35,.14,.02,.28,.05,.42,.08,2.29,.5,6.27,1.91,7.15,5.78,.02,.1,0,.2-.07,.28-.15,.18-.45,.14-.54-.07-1.19-2.89-4.14-4.88-7.7-5.19-1.55-.14-2.79-.18-3.99-.13-.19,0-.38,.01-.59,.02l-.43,.02c-3.81,.86-7.47,1.92-10.91,3.16-.67,.24-1.28,.47-1.85,.69,1.81-.38,3.46-.63,4.99-.75,.33-.03,.67-.04,1.06-.04h.31c.21,0,.44-.01,.67-.01Zm19.91-1.89c1.12,.98,1.87,2.21,2.2,3.65,.21,.93,.1,2.08-.32,3.53-.16,.56-.5,1.03-.82,1.48-.15,.2-.29,.4-.41,.6,.23-.07,.45-.14,.66-.2,1.11-1.29,1.71-3.14,1.56-4.84-.08-.97-.44-2.34-1.71-3.36-.37-.3-.76-.58-1.16-.84Zm-4.8,5c.1,.25,.2,.5,.28,.75-.08-.25-.17-.5-.28-.75Zm-2.39,7.6c-.13,0-.25-.06-.32-.16-.07-.11-.09-.25-.04-.39,.74-2,.55-3.88-.58-5.6-2.06-3.16-6.74-5.01-10.28-5.21h-.24s-.03-.3-.03-.3c0-.17,.14-.31,.31-.31h0c3.68,.04,7.16,1.34,9.79,3.68,1.99,1.78,3.29,5.2,1.77,8.05-.08,.15-.22,.24-.38,.24Zm-2.09-8.23c.61,.55,1.15,1.15,1.58,1.81,.1,.15,.19,.3,.27,.45-.39-.75-.9-1.42-1.48-1.93-.12-.11-.25-.22-.37-.32Z"/>
    <path class="cls-1" d="M38.55,39.23l.89-1.81s.02-.05,.02-.06c-.7-1.99-.39-4.3-.09-6.52,.12-.93,.24-1.8,.29-2.63,.03-.57,.04-1.15,.05-1.73v-.3c.17-.99,.33-1.95,.5-2.9l.17-.93,.06-.06c.18-.16,.37-.33,.57-.49,.16-.13,.32-.27,.47-.41,.17-.12,.32-.24,.46-.35,.25-.2,.48-.38,.72-.52,.66-.38,1.39-.74,2.38-1.18l.84-.37h0s1.35-.55,1.35-.55h0s1.47-.61,1.47-.61l-.02,.12s0-.02,.01-.03l.04-.1,.1-.04c.96-.41,1.74-.76,2.47-1.09l.37-.18c.58-.28,1.14-.57,1.68-.86l.21-.12,.23,.34-.09,.16c-.71,1.17-.74,2.77-.77,4.19v.38c-.05,1.77-.02,3.52,.09,5.19,.02,.28,.06,.6,.11,.93l.05,.4c-.03,.5-.08,.94-.13,1.36v.11s-.36,.24-.36,.24c-2.01,1.1-3.92,2.32-5.71,3.62l-.11,.08h0s-.16,.12-.16,.12c-.39,.28-.77,.57-1.14,.86l-.36,.23c-.23,.15-.46,.29-.69,.44l-.31,.2h0s-.3,.2-.3,.2c-.64,.41-1.3,.83-1.93,1.28l-.25,.19c-.75,.56-1.35,1.11-1.83,1.67l-1.3,1.54Zm2.28-16.64l-.14,.76c-.17,.95-.33,1.91-.48,2.86v.26c-.01,.58-.03,1.17-.05,1.75-.05,.86-.16,1.74-.29,2.68-.28,2.08-.57,4.22-.01,6.05,.41-.43,.89-.85,1.45-1.27v-.03c.01-.28,.33-.43,.53-.36,.58-.41,1.18-.8,1.77-1.17l.18-.11c0-.12-.01-.23-.04-.33-.03-.12,0-.24,.08-.34,.18-.22,.55-.18,.64,.08,.01,.04,.03,.08,.04,.12,.13-.09,.27-.17,.4-.26l.34-.21c.31-.25,.65-.5,.98-.75-.45-1.24-.31-2.73-.19-4.05,.04-.4,.07-.79,.09-1.16,0-.17,.16-.32,.34-.32,.17,0,.29,.13,.3,.3,0,.45,0,.91-.01,1.38-.02,1.11-.05,2.25,.2,3.31,1.72-1.23,3.55-2.38,5.44-3.42l.14-.1c.05-.39,.09-.78,.12-1.17l-.05-.35c-.05-.35-.09-.68-.11-.97-.11-1.69-.15-3.45-.1-5.24v-.37c.03-1.24,.06-2.62,.52-3.78-.31,.16-.62,.32-.94,.47-.48,3.14-.59,6.46-.34,10.43v.11s-.15,.18-.15,.18h-.35s-.05-.23-.05-.23c-.28-2.33-.39-4.33-.35-6.29,0-.22,0-.45,0-.67,.01-1.01,.02-2.06,.25-3.05-.57,.26-1.18,.53-1.89,.83-.13,.42-.11,.86-.09,1.33,.01,.25,.02,.51,.01,.78-.12,3.02-.15,6-.11,9.11,0,.09-.03,.17-.1,.24-.18,.19-.51,.1-.56-.14-.39-2.24-.3-4.52-.21-6.73,.03-.8,.06-1.61,.07-2.41,0-.27-.01-.53-.03-.79-.02-.31-.04-.63-.03-.94l-.81,.34c-.19,.59-.18,1.38-.17,2.08,0,.27,0,.53,0,.75,0,.23-.01,.46-.02,.69-.02,.71-.03,1.44-.13,2.17-.03,.17-.17,.3-.34,.3s-.3-.12-.33-.29c-.17-1.26-.08-2.56,.01-3.83l.06-.83c.02-.24,.03-.47,.07-.69l-.7,.3c-.4,.6-.48,1.3-.57,2.04-.02,.16-.04,.33-.06,.49-.06,.43-.14,.87-.21,1.3-.09,.51-.18,1.01-.24,1.52-.27,2.15-.57,4.59-.32,7.02,.01,.11-.03,.21-.1,.29-.19,.21-.57,.15-.64-.12-.52-1.94-.15-4.21,.17-6.21,.09-.55,.18-1.09,.24-1.6,.05-.36,.07-.78,.09-1.21,.05-1.01,.11-2.12,.49-3.03-.64,.3-1.17,.57-1.65,.85-.21,.12-.43,.29-.66,.48-.15,.12-.3,.24-.46,.35-.14,.13-.3,.26-.46,.4-.17,.14-.33,.28-.49,.42Zm.4,11.38c-.18,0-.32-.12-.35-.3-.14-.94-.03-1.87,.08-2.77,.03-.27,.06-.53,.09-.8,.09-.98,.16-1.97,.22-2.93,.03-.41,.05-.82,.08-1.22,.02-.29,.03-.61,.03-.93,.02-1.31,.04-2.79,1.08-3.69l.07-.06,.14-.02c.13,0,.24,.08,.29,.2,.05,.12,.03,.26-.06,.35-.53,.56-.57,1.39-.6,2.2,0,.15-.01,.3-.02,.45-.03,.42-.07,.84-.11,1.26-.06,.59-.12,1.19-.14,1.78l-.02,.86c-.04,1.74-.08,3.54-.34,5.28-.03,.22-.26,.36-.45,.36Zm.17-2.54c-.04,.32-.07,.64-.08,.96,.03-.32,.06-.64,.08-.96Z"/>
    <polygon class="cls-1" points="46.48 26.99 46.23 26.99 46.21 26.48 46.74 26.45 46.75 26.96 46.48 26.99"/>
  </g>
</svg>