<?xml version="1.0" encoding="UTF-8"?>
<svg id="Layer_1" data-name="Layer 1" xmlns="http://www.w3.org/2000/svg" viewBox="0 0 62 44">
  <defs>
    <style>
      .cls-1 {
        fill: #fff;
      }
    </style>
  </defs>
  <path class="cls-1" d="M35.03,31.44c-1.54,0-3.09,0-4.63,0-1.89,0-3.78-.02-5.67-.04-2.44-.02-4.88-.03-7.33-.04h-.32c-1.07,0-2.14,.01-3.21,.03-1.08,.01-2.16,.03-3.24,.03-2.11,0-3.81-.06-5.35-.18-.09,.04-.17,.05-.25,.05h-.08c-.11-.01-.23-.07-.31-.16-.06-.07-.13-.19-.11-.38,.05-.64,.1-1.29,.16-1.93l.02-.19,.19-.03c.61-.11,1.1-.23,1.55-.39,.16-.06,.32-.13,.48-.2l.08-.02c.32-.04,.6-.05,.88-.05,.49,0,.9,.09,1.3,.16,.46,.09,.9,.18,1.39,.14,.39-.03,.8-.2,1.21-.37,.17-.07,.34-.14,.5-.2,.75-.27,1.39-.17,2.07,.34,.16,.15,.32,.28,.48,.41l.46,.42c.51,.47,1.11,.69,1.82,.69,1.11,0,2.34-.55,3.52-1.08,.62-.28,1.21-.54,1.78-.73h.07s0-.01,0-.01c.75,0,1.4,.17,2.04,.33,.64,.16,1.25,.32,1.9,.32,.24,0,.47-.02,.7-.06,.21-.04,.43-.13,.67-.23,.35-.15,.7-.3,1.06-.3,.4,0,.73,.2,.98,.59,.28,.44,.84,.67,1.39,.88,1.1,.4,2.52,.27,3.92-.35,.24-.11,.43-.27,.61-.43,.3-.26,.6-.52,1.08-.52,.23,0,.47,.06,.74,.18,.05,.02,.14,.05,.32,.05h.16s.04,0,.04,0c.52,0,1,.1,1.45,.19,.27,.05,.53,.11,.81,.14,.33,.04,.62,.04,.9,.05,.61,0,1.19,0,1.98,.46,.62,.35,1.35,.44,2.14,.27,.78-.02,1.51-.25,2.1-.63,.23-.15,.42-.4,.63-.67,.38-.49,.82-1.07,1.57-1l.08-.09,.15-.02c.4,.02,.8,.06,1.2,.11,.3,.03,.6,.06,.89,.09h.17s.05,.18,.05,.18c.12,.44,.48,.89,.99,.9h0c.26,0,.48-.04,.71-.08,.54-.1,1.13-.14,1.56,.12,.19,.12,.36,.26,.52,.39l.18,.15v.12c-.01,.3-.03,.7-.1,1.08,0,.27-.09,.83-.41,1.14-.15,.15-.34,.23-.54,.23-.58,0-1.15-.01-1.72-.01-1.77,0-3.58,.04-5.33,.08-1.75,.04-3.55,.08-5.33,.08h-7.74Zm-17.94-.58h.32c2.44,0,4.89,.02,7.33,.04,1.89,.01,3.78,.03,5.66,.04,1.54,0,3.08,0,4.63,0h3.54c-.1-.12-.18-.26-.21-.42-.05-.26,.02-.52,.18-.72,.17-.21,.44-.33,.72-.33h.03c.12,0,.23,.05,.31,.12,.17,.03,.33,.12,.45,.26,.17,.2,.24,.46,.17,.72-.04,.14-.11,.27-.21,.38h2.76c.65,0,1.31,0,1.96-.02-.03-.06-.04-.13-.04-.21,0-.31,.25-.65,.59-.65,.18,0,.29,.08,.35,.14,.07,.08,.11,.19,.11,.31,0,.13-.05,.27-.13,.39,.83-.01,1.66-.03,2.47-.05,2.31-.05,4.71-.1,7.05-.07h0s.12,0,.19-.09c.18-.18,.26-.57,.26-.74v-.1c.06-.34,.08-.66,.09-.92-.15-.13-.29-.25-.45-.34-.31-.19-.73-.15-1.21-.06-.25,.05-.5,.09-.76,.09-.15,0-.3-.03-.43-.07,.06,.13,.08,.28,.05,.44-.07,.36-.34,.65-.56,.79-.4,.26-.96,0-1.07-.47,0-.03-.01-.06-.01-.09-.12-.23-.03-.51,.14-.69,.03-.03,.06-.06,.09-.08,.12-.16,.29-.3,.47-.39,.05-.02,.09-.04,.13-.05-.11-.15-.2-.31-.27-.48-.25-.02-.49-.05-.74-.08-.36-.04-.71-.08-1.06-.1-.09,.07-.2,.11-.31,.11h-.11c-.44,0-.75,.39-1.07,.81-.22,.29-.45,.58-.75,.78-.67,.44-1.49,.69-2.31,.71-.25,.06-.55,.1-.83,.1-.58,0-1.13-.14-1.62-.42-.68-.39-1.14-.39-1.74-.4-.28,0-.6,0-.96-.05-.29-.04-.57-.09-.85-.15-.45-.09-.88-.18-1.36-.18h-.09c-.26,0-.47-.03-.63-.1-.6-.27-.9-.08-1.29,.26-.2,.17-.43,.37-.74,.51-1.52,.68-3.06,.82-4.29,.37-.61-.22-1.28-.51-1.64-1.08-.2-.31-.4-.35-.56-.35-.26,0-.57,.13-.87,.26-.25,.1-.5,.21-.76,.26,.04,.05,.07,.1,.08,.16,.05,.02,.1,.05,.14,.07,.16,.08,.24,.19,.26,.33,.04,.23-.1,.47-.21,.57-.21,.21-.61,.43-.93,.33-.04,0-.08,0-.12-.02-.12-.03-.21-.1-.27-.2-.06-.1-.08-.23-.05-.37-.04-.33,.14-.63,.26-.79-.7,0-1.36-.17-1.99-.33-.64-.16-1.24-.31-1.88-.31-.5,.16-1.08,.42-1.69,.7-.58,.26-1.18,.53-1.77,.73-.05,.04-.12,.06-.18,.06-.79,.26-1.61,.39-2.34,.28,.07,.08,.11,.19,.11,.31,0,.21-.12,.44-.3,.56,.25,0,.49,0,.74,0Zm-11.9-.13h.07c1.54,.13,3.25,.19,5.38,.19,1.08,0,2.16-.01,3.24-.03,.64,0,1.27-.02,1.91-.02-.02-.02-.05-.04-.06-.06-.07-.08-.11-.19-.11-.31,0-.26,.18-.54,.44-.62-.4-.13-.76-.35-1.09-.66l-.44-.41c-.16-.12-.32-.26-.48-.4-.52-.39-.98-.46-1.58-.25-.16,.05-.32,.12-.48,.19-.44,.18-.89,.37-1.36,.4-.55,.04-1.05-.06-1.52-.15-.39-.08-.76-.15-1.16-.15h0c-.28,0-.54,.02-.82,.04-.16,.07-.32,.14-.49,.2-.43,.15-.89,.27-1.44,.37-.05,.58-.1,1.15-.14,1.73,0,0,.04,0,.1-.03l.06-.03Zm34.06-.79v.03c-.12,0-.24,.06-.32,.15-.05,.06-.1,.16-.08,.31,.06,.32,.4,.36,.64,.28,.12-.04,.22-.15,.25-.27,.02-.07,.02-.17-.06-.26-.06-.07-.13-.1-.21-.11h-.15s-.07-.13-.07-.13Zm-12.43-.81s-.02,.01-.02,.03c-.13,.17-.2,.35-.17,.47v.06s0,.06,0,.06l.09,.03c.16,0,.34-.1,.44-.2,.02-.02,.05-.07,.06-.1-.09-.04-.15-.08-.21-.1l-.2-.06,.02-.17Zm25.32-.6c-.13,.07-.23,.16-.3,.26l-.05,.05s-.05,.04-.07,.06c-.04,.04-.05,.09-.05,.11l.05,.06v.07s0,.05,0,.08c.03,.14,.18,.24,.31,.16,.15-.09,.31-.29,.34-.47,.02-.1-.01-.15-.04-.19,0-.01-.02-.03-.06-.04l-.13-.06v-.09Zm-23.17,2.27c-.18,0-.33-.11-.41-.29-.09-.22-.04-.49,.14-.66l.23,.12-.18-.18c.14-.14,.28-.18,.37-.18,.18,0,.33,.11,.41,.29,.09,.22,.04,.48-.14,.66l-.05,.05c-.14,.14-.28,.17-.37,.17Zm-21.8-.02c-.08,0-.17-.02-.24-.06-.17-.08-.28-.23-.33-.42-.05-.21,0-.44,.12-.62,.12-.16,.28-.26,.48-.28h.04c.11,0,.2,.04,.26,.08h.02s.09,.05,.12,.08h.01s.04,.05,.06,.07c0-.15,.07-.38,.38-.55l.07-.03s.1-.07,.15-.1c.19-.12,.43-.1,.59,.04,.12,.02,.21,.06,.28,.12,.11,.08,.19,.19,.22,.3,.1-.18,.28-.33,.5-.33,.18,0,.29,.08,.35,.14,.07,.08,.11,.19,.11,.31,0,.31-.25,.65-.59,.65-.18,0-.29-.08-.35-.14-.05-.06-.09-.13-.1-.21-.08,.13-.19,.23-.28,.3-.08,.12-.19,.2-.32,.24-.02,.01-.04,.02-.06,.03-.02,.02-.06,.04-.1,.06-.35,.13-.65-.04-.76-.39,0,.02-.01,.04-.02,.07,0,.08-.03,.16-.06,.25-.09,.23-.31,.38-.54,.38Zm1.41-1.4s-.08,.06-.12,.09l-.07,.04c-.19,.1-.17,.16-.16,.19,.02,.23,.08,.33,.1,.33,.03,0,.06-.03,.09-.05l.16-.07s.04-.02,.06-.06l.07-.08c.15-.11,.2-.2,.21-.23-.04-.03-.07-.05-.18-.06l-.12-.02-.05-.08Zm13.41,1.21c-.21,0-.41-.09-.56-.24-.15-.16-.23-.38-.22-.61,.02-.36,.21-.66,.5-.81,.35-.27,.75-.28,1.05-.01,.2,.18,.29,.42,.26,.67-.05,.4-.36,.74-.66,.9-.12,.06-.25,.1-.38,.1Zm.28-1.37c-.08,0-.17,.04-.26,.12l-.06,.04c-.14,.06-.23,.21-.24,.39,0,.09,.02,.17,.08,.24,.09,.09,.22,.11,.34,.05,.21-.11,.38-.34,.4-.52,.01-.1-.02-.17-.1-.24-.07-.06-.13-.07-.16-.07Zm-10.13,1.26c-.21,0-.42-.08-.57-.23-.13-.13-.2-.31-.2-.49l.02-.12s.01-.14,.06-.23c.03-.07,.06-.11,.08-.14,.14-.23,.39-.4,.69-.48h.05c.34-.12,.62-.1,.82,.04,.22,.15,.3,.39,.24,.64-.12,.48-.77,.98-1.11,1.02-.03,0-.06,0-.1,0Zm-.23-.88h0s0,.04,0,.04l-.03,.13s.02,.09,.05,.13c.05,.05,.13,.08,.21,.08,.19-.02,.65-.38,.72-.64,.01-.06,0-.08-.04-.11-.06-.04-.23-.03-.41,.03h-.08c-.17,.06-.3,.16-.38,.28l-.04,.06Zm29.68,.76c-.18,0-.29-.08-.35-.14-.07-.08-.11-.19-.11-.31,0-.31,.25-.65,.59-.65,.18,0,.29,.08,.35,.14,.08,.08,.11,.19,.11,.31,0,.31-.25,.65-.59,.65Zm-16.61-.11c-.18,0-.29-.08-.35-.14-.08-.08-.12-.19-.12-.31,0-.31,.25-.65,.59-.65,.18,0,.29,.08,.35,.14,.08,.08,.12,.19,.12,.31,0,.31-.25,.65-.59,.65Zm29.4-.02c-.14,0-.26-.05-.34-.15-.06-.07-.13-.21-.1-.42,.05-.31,.27-.53,.55-.57,.08-.01,.1-.01,.13-.01,.15,0,.28,.07,.35,.19,.09,.15,.08,.37-.03,.57-.05,.2-.29,.39-.55,.39Zm-4.99-.05c-.2,0-.42-.14-.42-.46,0-.4,.35-.68,.63-.68,.2,0,.42,.14,.42,.46,0,.4-.35,.68-.63,.68Zm.26-1.19c-.08,0-.14,0-.18-.02-.07,0-.15,0-.24-.04-.24-.1-.32-.27-.34-.39-.06-.32,.22-.66,.46-.88,.08-.08,.21-.14,.33-.15,.07-.04,.15-.05,.23-.05,.11,0,.27,.04,.42,.22,.24,.29,.26,.74,.05,1.04-.19,.28-.4,.26-.57,.25-.05,.02-.1,.02-.15,.02Zm.1-.98s-.05,.01-.06,.02c-.24,.22-.31,.38-.3,.43l.23,.04-.1,.23,.11-.23,.06-.03h.1s.12,0,.12,0l.27,.11-.21-.14c.08-.12,.07-.33-.02-.45l-.06,.04-.13-.02Z"/>
  <path class="cls-1" d="M9.23,25.04c-2.26,0-4.06-.12-5.66-.38-.22-.04-.37-.21-.37-.43,0-.25,.19-.47,.42-.51,.69-.11,1.41-.19,2.18-.25-.24-.01-.48-.03-.73-.04-.31,.08-.47,.04-.63-.04l-.36-.02c-.22-.01-.44-.03-.65-.04-.22-.02-.37-.18-.37-.4,0-.22,.15-.45,.41-.47,.13,0,.27-.02,.4-.03h.06c0-.14,.05-.29,.13-.41-.02,0-.04,0-.06,0h0s-.08,0-.13,0c-.36-.04-.63-.23-.78-.54-.15-.18-.24-.4-.26-.65-.03-.33,.07-.67,.28-.97-.03-.09-.04-.19-.03-.3,.02-.22,.14-.42,.31-.53,1.44-1,3.19-1.64,4.88-2.25,.88-.32,1.7-.62,2.49-.97,1.04-.46,2.06-.93,3.09-1.4,1.71-.78,3.47-1.58,5.24-2.32,2.02-.84,4.11-1.63,6.14-2.4,3.4-1.28,6.91-2.61,10.19-4.22,.06-.12,.16-.21,.28-.26l.15-.06,.12,.11c.46,.4,.9,.72,1.37,.99,.89,.7,1.82,1.34,2.72,1.95,.39,.27,.79,.54,1.17,.81,1.02,.72,2.03,1.47,3.02,2.19,.83,.61,1.66,1.23,2.5,1.83,1.69,1.21,3.47,2.33,5.19,3.42l.26,.17c.05,.03,4.95,3.4,4.81,3.91h0c.09,.27,.07,.55-.06,.81-.26,.51-.81,.82-1.36,.77-.15-.01-.28-.05-.4-.11l-.03,.17c.23,.04,.45,.08,.65,.14,.24,.06,.39,.25,.39,.49,0,.32-.27,.67-.57,.74-.05,.01-.1,.02-.14,.03,.04,0,.08,.01,.12,.02,.3,.04,.49,.26,.49,.56,0,.3-.22,.65-.58,.7-.85,.12-1.8,.17-2.98,.17-.62,0-1.25-.01-1.87-.03-.61-.01-1.21-.03-1.81-.03H26.99c-3.5,0-7.01,0-10.51-.02h-.15c-1.14,0-2.34,.03-3.49,.06-1.18,.03-2.4,.06-3.61,.06Zm-5.4-.85c1.53,.24,3.25,.35,5.4,.35,1.2,0,2.42-.03,3.59-.06,1.16-.03,2.35-.06,3.5-.06h.16c3.5,0,7.01,0,10.51,.01h21.84c.61,0,1.21,.02,1.82,.03,.62,.01,1.24,.03,1.86,.03,1.16,0,2.08-.05,2.92-.16,.08-.01,.15-.12,.15-.2,0-.05-.01-.06-.06-.07-.79-.11-1.67-.16-2.77-.16-.62,0-1.24,.02-1.86,.03-.61,.02-1.22,.03-1.82,.03H31.71s-4.34,0-4.34,0c-3.55,0-7.11,0-10.66,.01h-.17c-1.15,0-2.35-.03-3.5-.06-1.17-.03-2.39-.06-3.58-.06-2.24,0-4.03,.11-5.62,.35Zm25.39-1.02h3.38s.1,.13,.1,.13c.03,.05,.06,.09,.1,.11,.03,.02,.06,.03,.08,.04l.36,.15,.68-.15c.26-.06,.5-.13,.71-.23l.14-.04h1.47c2.05,0,4.1,.01,6.15,.01h6.92c.56,0,1.12,.02,1.7,.04,.58,.02,1.17,.04,1.76,.04,1.1,0,1.96-.08,2.71-.26,.08-.02,.2-.2,.18-.27-.47-.11-.99-.19-1.6-.22l-.3-.02,.07-.29c.04-.16,.01-.31-.08-.46-.12-.2-.4-.24-.62-.24-.09,0-.18,0-.26,.02-.08,.01-.17,.03-.26,.06l-.26,.1-.18,.21c-.06,.06-.1,.13-.13,.2-.03,.07-.05,.13-.05,.2l-.02,.22h-.31c-.48,.03-.96,.05-1.42,.05h-3.47s.16-.36,.16-.36c.08-.16,.07-.33-.03-.5-.04-.06-.08-.1-.15-.12l-.1-.05c-.13-.12-.44-.12-.62-.01-.26,.15-.4,.46-.33,.72l.09,.32h-2.18s-1.74,0-1.74,0v-.27s0,.02,0,.03v.24s-1.35,0-1.35,0l.45-.43c.12-.11,.19-.22,.21-.33,0-.02,0-.04,0-.07v-.09l-.11-.03c-.07-.02-.17-.02-.25,0-.19,.03-.41,.18-.51,.36l-.06,.06c-.1,.08-.16,.19-.17,.3v.24s-4.54,0-4.54,0l.04-.28c.03-.2-.01-.36-.12-.48-.15-.18-.45-.28-.82-.28-.21,0-.42,.03-.6,.1-.09,.03-.2,.07-.3,.12-.19,.05-.35,.11-.5,.21l-.76,.47,.4-.8c.1-.2,.11-.43,.03-.65-.09-.24-.27-.43-.5-.53l-.25-.11-.32,.11c-.29,.1-.58,.32-.76,.57-.05,.07-.09,.15-.12,.22l-.05,.07-.27,.25-.17-.31c-.03-.07-.08-.15-.24-.2-.1-.03-.21-.05-.36-.05v-.25l-.02,.25h-.11l-.07-.08c-.05-.05-.11-.09-.17-.12-.24-.13-.69,.14-.82,.22-.06,.04-.12,.08-.17,.13l-.23,.21-.12,.31c-.03,.07-.04,.09-.04,.11-.04,.16-.03,.3,.03,.41l.21,.37h-.43c-1.57,0-3.13-.02-4.7-.03h-.74c-1.52-.02-3.04-.03-4.56-.03h-.54l.35-.41c.12-.14,.21-.36,.18-.52-.01-.09-.05-.13-.08-.15-.24-.17-.55-.09-.88,.18-.11,.09-.18,.24-.16,.28l.08,.12-.03,.17s-.02,.07-.02,.11v.23s-2.19,.01-2.19,.01c-1.02,0-2.04,.02-3.05,.04h-.45s.24-.38,.24-.38c.02-.04,.04-.07,.04-.08l.08-.14c.18-.21,.23-.44,.16-.7-.06-.19-.24-.28-.55-.28s-.61,.1-.77,.19c-.27,.16-.45,.44-.47,.72v.06c-.03,.07-.04,.13-.03,.19,0,.04,.02,.07,.03,.11l.16,.35h-.38c-1.11,.05-2.25,.1-3.48,.17l.02,.05-.05-.05c-.15,0-.3,.02-.46,.03l-.38,.02,.15-.42c.04-.1,.03-.21,0-.31l-.18-.18c-.25-.05-.57,.07-.76,.29-.1,.11-.13,.25-.09,.36l.12,.31h-.14s.18,.02,.18,.02l.06,.04c.06,.04,.18,.05,.3,.02l.12-.02c3.39,.22,7.02,.32,11.77,.32,2.07,0,4.14-.02,6.21-.04,2.06-.02,4.12-.04,6.18-.04Zm-23.21-.9s0,.01,0,.02c1.18-.07,2.28-.12,3.35-.15,0-.09,0-.19,.04-.29,.04-.45,.3-.86,.71-1.1,.27-.16,.67-.26,1.02-.26,.54,0,.91,.23,1.03,.64,.09,.32,.06,.65-.1,.93,.68-.01,1.35-.02,2.03-.03-.06-.12-.1-.25-.11-.39-.03-.4,.13-.81,.42-1.07,.04-.07,.09-.14,.14-.21-.14,0-.28,0-.42,0,.02,.12,.02,.25,0,.37-.1,.49-.51,.88-1,.94-.38,.05-.6-.1-.71-.23-.14-.16-.2-.4-.17-.66-.01-.13,0-.26,.04-.39-.88,.02-1.77,.04-2.65,.05,0,.19-.06,.37-.15,.52-.32,.5-.84,.8-1.42,.8-.36,0-.65-.13-.84-.34-.03-.03-.06-.07-.08-.1-.08,.51-.58,.94-1.12,.94h0Zm17.06-1.07c-.13,0-.38,.19-.47,.36-.11,.19-.02,.43,.11,.57l.14,.14,.29-.18c.07-.04,.14-.09,.18-.14,.14-.14,.21-.33,.16-.47-.03-.1-.11-.17-.25-.2l-.08-.02-.08-.07Zm-7.33-1.04l-.37,.17c-.23,.11-.43,.3-.54,.51l-.06,.08c-.19,.16-.3,.42-.28,.68,.01,.14,.07,.33,.28,.45l.36,.18,.4-.18c.48-.22,.9-.78,.9-1.23,0-.23-.1-.39-.32-.5l-.36-.17Zm38.61,1.89c.27,.02,.53,.05,.77,.09l-.03-.21c-.11-.07-.2-.15-.27-.25-.14,.07-.32,.13-.49,.15,.02,.07,.03,.14,.03,.22Zm-18.94-.87c.18,.08,.33,.18,.44,.31,.14,.16,.23,.37,.25,.59h1.97c-.34-.09-.61-.31-.79-.64-.17-.3-.21-.61-.14-.89h-1.02c-.06,.14-.17,.28-.3,.39-.11,.1-.26,.18-.41,.24Zm5.13-.58c-.04,.13-.1,.27-.18,.4-.12,.26-.34,.53-.57,.68-.23,.15-.45,.25-.67,.31-.09,.03-.18,.06-.27,.08h.8c.05-.15,.15-.29,.27-.4,.19-.28,.51-.5,.83-.55,.06-.01,.11-.02,.17-.02,.03-.15,.09-.31,.19-.45,0-.01,.02-.03,.03-.04h-.6Zm8.09,1.46h1.59s0,0,0,0c.09,0,.18,0,.27,0-.15-.07-.28-.17-.39-.29-.16-.19-.24-.43-.21-.7-.01-.09-.02-.17,0-.26-.09,0-.18,0-.28,0-.1,.51-.58,1.03-.99,1.25Zm-6.29-.09s.03,.06,.04,.09h.94c-.1-.07-.19-.15-.27-.25-.04-.06-.09-.14-.11-.23-.14,.17-.32,.29-.52,.36-.02,.01-.05,.02-.08,.03Zm-18.48,.08c.4,0,.8,0,1.2,0-.12-.13-.22-.28-.29-.45-.16-.39-.16-.84,0-1.24-.53,0-1.06,0-1.59,0,0,.11-.02,.23-.06,.34,.11,0,.21,.04,.29,.11,.28,.08,.48,.27,.55,.53,.07,.23,.03,.49-.1,.72Zm-3.33-.03c.52,0,1.04,0,1.56,.01-.05-.17-.06-.35-.02-.52-.33,.08-.72,.01-.95-.22-.02,.04-.04,.08-.06,.12-.02,.03-.03,.05-.05,.08l-.08,.2v-.08c-.12,.15-.25,.29-.41,.41Zm1.95-2.18h.39c.77,0,1.54,0,2.3,.02h.47s-.27,.39-.27,.39c-.24,.35-.3,.79-.14,1.16,.13,.32,.4,.53,.76,.6,.57,.11,1.34-.17,1.81-.61l.24-.23,.13-.35s.02-.05,.03-.07c.03-.17,.02-.35-.02-.53l-.08-.32h.72c.54,.02,1.08,.03,1.62,.04,.29,0,.58,0,.88,.01h0s3.38,.05,3.38,.05l-.09,.31c-.02,.06-.02,.11-.02,.15,0,.15,.05,.3,.33,.3h0c.2,0,.45-.09,.6-.22,.1-.09,.17-.2,.19-.32l.04-.21,2.32,.03-.31,.4c-.17,.22-.18,.46-.02,.74,.23,.42,.7,.53,1.24,.32,.19-.05,.37-.14,.55-.26,.16-.1,.31-.29,.41-.5,.08-.14,.13-.25,.16-.35l.03-.32,1.39,.02h0l1.98,.02h-.03c.07,.01,.13,.01,.2,.01h.55s-.37,.42-.37,.42c-.17,.19-.3,.4-.38,.62-.06,.19-.02,.28,.03,.34,.12,.17,.45,.29,.79,.29,.08,0,.15,0,.22-.02,.51-.1,1.17-.51,1.08-1.11,0-.03-.02-.07-.04-.1l-.24-.39,2.82,.09-.28,.38s-.05,.07-.06,.09l-.06,.08c-.1,.08-.18,.17-.23,.26-.1,.18-.14,.44,.04,.58,.09,.07,.23,.09,.33,.09,.2,0,.39-.05,.49-.09,.33-.12,.88-.7,.83-1.07l-.04-.29h.29c.28,.01,.56,.02,.85,.02h.42s-.21,.37-.21,.37c-.06,.12-.07,.23-.05,.32v.05s0,.05,0,.05c-.02,.14,0,.25,.08,.34,.27,.31,.85,.32,1.39,.06l.29-.14,.19-.19c.06-.06,.11-.12,.15-.17,.07-.11,.08-.22,.02-.36l-.14-.34h.36c.42-.02,.85-.04,1.27-.06l.61-.03h0s1.03-.02,1.03-.02l-.21,.38s-.06,.11-.06,.15l-.13,.7c.08,.08,.22,.14,.35,.15,.36,.04,.7-.17,.87-.5,.12-.23,.04-.42-.02-.51l-.13-.21c-.76-.67-3.37-2.67-4.43-3.34l-.26-.16c-1.73-1.09-3.51-2.22-5.21-3.43-.84-.6-1.67-1.21-2.51-1.83-.98-.72-1.99-1.47-3.01-2.18-.38-.27-.77-.54-1.17-.81-.91-.62-1.84-1.26-2.72-1.95-.4-.22-.8-.51-1.21-.85v.03s-.11,.05-.11,.05c-3.33,1.64-6.88,2.98-10.32,4.28-2.02,.76-4.11,1.55-6.12,2.39-1.76,.73-3.52,1.54-5.22,2.31-1.03,.47-2.06,.94-3.1,1.4-.81,.36-1.68,.67-2.52,.98-1.66,.6-3.38,1.23-4.76,2.19-.05,.03-.09,.11-.1,.18,0,.04,0,.08,.02,.09l.15,.16-.14,.17c-.2,.24-.3,.51-.28,.76,.01,.15,.07,.28,.16,.38l.04,.07c.07,.16,.2,.26,.4,.28,.46,.04,.95-.42,1.12-.86,.06-.15,.08-.32,.06-.5l-.03-.3,.3,.02c.61,.04,1.27,.07,2.07,.08h.43s-.22,.38-.22,.38c-.09,.16-.16,.33-.17,.46-.01,.13,.02,.23,.1,.32,.1,.11,.26,.17,.44,.18h0c.42,0,.79-.21,1.02-.57,.07-.11,.1-.28,.07-.46l-.05-.29h.29c1-.01,2-.04,2.99-.06l.9-.02-.36,.42c-.12,.14-.17,.31-.15,.45v.04s0,.04,0,.04c-.02,.13,0,.24,.05,.3,.02,.02,.09,.08,.27,.06,.28-.04,.52-.26,.58-.55,.03-.14,0-.27-.07-.37l-.27-.38h.47c.45-.02,.9-.02,1.34-.03h-.01s.83,0,.83,0h.47s0,0,0,0h3.06l-.41,.42c-.19,.2-.3,.43-.32,.65,0,.08,.01,.16,.04,.25,.02,.08,.03,.13,.05,.17h0s0,0,0,0h0l.03,.08c.04,.27,.2,.43,.49,.48,.52,.1,1.04-.35,1.29-.76,.02-.04,.04-.08,.05-.11l.05-.09c.06-.08,.11-.18,.14-.29l.02-.07v-.09c0-.1-.03-.19-.09-.27l-.26-.39h.56l.09-.32H4.93l1.1-.48c.23-.1,23.52-10.28,29.02-12.38l.19,.46L10.5,18.12l43.24,.92v.5H21.23l.04,.32h.74l-.38,.42c-.05,.05-.08,.09-.09,.11l-.04,.06s-.08,.1-.11,.16l-.02,.05v.06s-.03,.02-.03,.02l-.02,.06h.01s.06,0,.06,0c.09,.27,.34,.34,.67,.23h.06s.1,.22,.1,.22c0,0,0,0,0,0l-.03-.23s.06-.03,.08-.07l.06-.06c.1-.07,.18-.14,.23-.2,.11-.13,.14-.32,.07-.45l-.16-.35Zm-16.8,1.8l.11,.06c.31,.16,.8-.14,.84-.48,0-.09-.03-.2-.11-.29-.09-.1-.23-.17-.34-.17-.26,.03-.46,.24-.49,.49l-.02,.07c-.03,.07-.06,.17-.02,.26l.03,.07Zm35.74-.2l.17,.07c.14,.04,.47,.03,.64-.05,.24-.08,.42-.3,.49-.55,.04-.15-.02-.26-.18-.33l-.22-.11-.32,.1c-.21,.07-.38,.18-.47,.32-.09,.14-.14,.3-.12,.42l.02,.12Zm13.2-1.23l-.41,.45c-.07,.08-.12,.15-.13,.21v.06s-.06,.05-.06,.05c-.05,.06-.06,.11-.06,.14,0,.15,.05,.19,.2,.19,.18,0,.4-.09,.54-.17l.22-.21-.04-.23s-.02-.08-.05-.13l-.22-.37Zm-21.39,.26c.07,.1,.13,.21,.17,.33,.06,.16,.08,.33,.08,.49,.04-.01,.08-.02,.12-.03,.07-.04,.18-.08,.29-.12,.12-.04,.26-.08,.4-.1-.14-.13-.23-.33-.24-.57h-.82Zm13.12,.44c.2,0,.39,.05,.54,.15,.03-.09,.06-.17,.11-.26,.02-.03,.03-.06,.05-.08l-1.02-.03c0,.09,0,.18-.01,.27,.1-.03,.21-.04,.32-.04Zm-28.76-.09c.2,0,.39,.06,.56,.18,.03,.02,.05,.04,.07,.06,0-.06,0-.12,0-.19,0-.19,.06-.37,.15-.55h-1.56c.07,.14,.11,.3,.1,.47,0,.08,0,.17-.03,.25,.19-.12,.44-.22,.7-.22Zm35.54,.16c.13,0,.24,.01,.34,.03,.01-.09,.05-.18,.1-.27-.17,0-.34,.02-.51,.02,0,.07,0,.15-.02,.22,.03,0,.06,0,.09,0Zm-23.17-.5c.17,0,.31,.03,.45,.07,.11,.04,.21,.08,.29,.15,.07-.1,.15-.19,.24-.28-.18,0-.35,0-.53,0-.18,0-.37,0-.55,0,.03,.02,.07,.05,.1,.08Zm-23.28-.09c.08,.05,.15,.11,.21,.18,.03,.04,.07,.08,.09,.12,0-.09,.03-.19,.06-.29-.13,0-.25,0-.37-.01Zm.64-1.4H30.15l-21.76-.46c-.4,.18-.76,.33-1.06,.46Zm23.02,3.55h-.63l.46-.43s.08-.08,.12-.13l.24-.29,.18,.33s.05,.07,.08,.1l.39,.42h-.82Z"/>
  <path class="cls-1" d="M21.93,36.49c-2.28,0-4.56-.02-6.77-.07-.91-.02-1.81-.02-2.72-.03-1.75-.01-3.55-.03-5.32-.12-.39-.02-.84-.05-1.24-.14-.3-.11-.54-.23-.75-.38-1.25-.88-.71-2.96-.53-3.64l.03-.12,.12-.05c.09-.04,.19-.05,.28-.03,1.74-.26,3.62-.38,6.1-.38,1.13,0,2.26,.02,3.38,.05,1.11,.02,2.21,.05,3.3,.05h12.74c2.58,0,5.22-.04,7.76-.07,2.6-.03,5.29-.07,7.94-.07,3.59,0,6.56,.06,9.35,.2,.07-.04,.14-.06,.2-.06,.43,.07,.72,.25,.92,.54,.4,.59,.3,1.48,.2,1.99,.02,.08,.02,.17,0,.26-.16,1.03-.79,1.53-1.92,1.53h0c-.2,0-.41-.01-.62-.04-2.36-.26-4.9-.29-7.51-.08-3.85,.32-7.81,.39-11.63,.45-1.29,.02-2.58,.05-3.87,.08-3.2,.08-6.37,.12-9.42,.12Zm-16.9-4.05c-.37,1.52-.24,2.47,.38,2.9,.18,.12,.37,.23,.6,.31,.26,.05,.6,.09,1.12,.12,1.76,.09,3.56,.11,5.3,.12,.91,0,1.82,.01,2.73,.03,5.17,.1,10.58,.09,16.18-.05,1.28-.03,2.58-.05,3.87-.08,3.82-.07,7.77-.14,11.6-.45,2.63-.22,5.22-.19,7.6,.08,.2,.02,.39,.04,.57,.04,.89,0,1.3-.32,1.43-1.1,0-.05,0-.08,0-.11l-.02-.06v-.06c.17-.72,.13-1.33-.1-1.66-.11-.16-.26-.26-.47-.31l-.04,.04h-.12c-2.8-.13-5.8-.19-9.42-.19-2.64,0-5.33,.03-7.93,.07-2.55,.03-5.19,.07-7.77,.07h-12.71c-1.12,0-2.22-.02-3.34-.04-1.12-.02-2.25-.05-3.37-.05-2.44,0-4.29,.12-6,.37l-.09,.04Zm18.55,.83c-9.19,0-16.6-.05-16.68-.05v-.5c6.34-.34,19.15-.41,28.78-.41,10.44,0,19.5,.08,19.59,.08v.5c-7.5,.31-21.37,.38-31.69,.38Z"/>
  <path class="cls-1" d="M44.56,28.97c-.38,0-.68-.1-.9-.31l-.12-.12c-.23-.22-.35-.32-.61-.28l-.13,.02c-.18,.04-.39,.08-.57,.05-.18-.03-.51-.09-.72-.33-.29,.01-.58-.02-.88-.08-.15-.03-.31-.09-.48-.15-.21-.08-.42-.16-.57-.16h0c-.19,0-.37,.07-.56,.15-.34,.14-.75,.27-1.14,.1-.19-.09-.34-.2-.45-.33-.07-.03-.13-.06-.2-.1-.18-.09-.34-.17-.52-.17h-.12c-.18,.01-.42,.03-.67-.05-.05,.05-.1,.13-.15,.21-.07,.11-.15,.23-.26,.33-.2,.18-.42,.32-.71,.47-.27,.13-.54,.16-.78,.07-.48,.42-.98,.68-1.84,.43l-.21-.06c-.39-.11-.79-.22-1.15-.44-.23-.14-.26-.33-.28-.43-.63-.11-.8-.47-.84-.67-.02-.1-.03-.2-.02-.3-.17,.05-.33,.07-.46,.08-.09,0-.17,0-.26-.01-.12-.01-.29-.02-.38-.02-.22,.43-.51,.84-1.04,1-.42,.13-.8,.09-1.1-.1-.23,.04-.43,0-.67-.14-.5,.28-1.16,.34-1.72,.17-.21-.07-.33-.26-.42-.4-.02-.03-.04-.06-.06-.09l-.12,.03c-.24,.06-.49,.12-.75,.12h-.07c-.58,0-.99-.22-1.13-.59-.28,.01-.36,.06-.38,.07-.06,.41-.15,.57-.4,.91-.23,.32-.63,.49-1.12,.49-.2,0-.4-.03-.58-.09-.03,0-.05-.02-.08-.03-.72,.5-1.32,.53-2.35,.56h0c-.5,0-.69-.32-.82-.53-.14-.24-.18-.26-.35-.22-.44,.08-.85-.09-1.1-.42-.26,0-.49-.04-.79-.17-.12-.05-.22-.13-.31-.21-.13-.1-.24-.22-.36-.15-.1,.06-.2,.11-.3,.17-.4,.24-.82,.48-1.35,.58-.53,.1-.88-.07-1.07-.26-.06,0-.13,0-.19-.02-.15-.04-.31-.05-.48-.06-.31-.01-.67-.03-.99-.29-.59-.47-.92-.29-1.33,.07-.15,.14-.31,.28-.5,.38-.46,.25-.99,.51-1.5,.51-.27,0-.5-.08-.69-.22-.5,.15-.97,.1-1.31-.16-.06-.06-.1-.11-.14-.15-.07,0-.15,.01-.22,0-.23-.04-.46-.09-.68-.26-.16-.12-.25-.31-.26-.53,0-.27,.12-.58,.3-.76,.09-.16,.21-.25,.33-.33,0-.04,0-.08,0-.12,.02-.38,.29-.75,.68-.94,.54-.26,1.15-.05,1.53,.51,.59,.14,1.41,.23,2.2,.23,.86,0,1.57-.1,1.96-.28,.56-.25,1.3-.19,1.99-.07,.19,.03,.39,.07,.58,.09,.59,.07,1.34,.03,2.05-.02,.58-.04,1.18-.08,1.77-.05,.5,.03,1.02,.09,1.52,.15,.67,.08,1.37,.16,2.01,.16,.41,0,.79-.07,1.16-.14,.33-.06,.67-.12,1.01-.14,.39-.02,.78,0,1.17,.02,.36,.02,.71,.03,1.07,.02,.47-.02,.93-.03,1.4-.05,1.02-.03,2.07-.06,3.1-.15,1.33-.11,2.46-.11,3.6,0,.32,.03,.66,.04,1.08,.04,.29,0,.59,0,.88-.01,.7-.02,1.39-.02,1.94,.03,.07,0,.14,.02,.2,.05,.13-.02,.27-.03,.41-.03,1.16,.02,2.29,.09,3.38,.16l.57,.03c.7,.04,1.44,.06,2.21,.06,2.22,0,4.51-.17,6.65-.36,.98-.09,2.15-.02,3.23,.06h.17c.49,.05,1-.01,1.49-.07,.54-.06,1.09-.12,1.65-.07h.07c.13,.02,.41,.06,.67,.06,.24,0,.35-.03,.4-.04v-.04c-.04-.16-.07-.35-.03-.54,.14-.62,.54-.93,.89-1.13,.08-.18,.22-.41,.54-.47,.42-.08,.94,.28,1.25,.52l.1,.07c.3,.21,.37,.58,.3,.9,.59,.34,.95,.8,1,1.28,.04,.32-.04,.79-.63,1.29-.12,.1-.26,.18-.44,.24-.05,.09-.11,.18-.18,.24l-.05,.04c-.05,.08-.11,.14-.17,.2-.05,.35-.3,.66-.55,.84-.19,.13-.39,.2-.59,.2h0c-.37,0-.73-.23-1-.63-.51-.02-.72-.25-.82-.44-.09-.19-.13-.19-.18-.19-.09,0-.19,.02-.32,.05l-.27,.06c-.3,.06-.61,.13-.93,.15-.59,.04-1.1-.26-1.32-.73-.61,.12-1.17,.05-1.5-.19-.04-.03-.08-.07-.11-.12-.92-.07-1.94-.12-2.79-.05,0,.02,0,.04,0,.07-.02,.12-.09,.24-.18,.32-.16,.12-.38,.16-.57,.12-.04,.02-.09,.04-.14,.05-.12,.02-.24,.04-.36,.04h-.18s-.03,.11-.05,.26c-.05,.37-.3,.74-.73,1.07-.39,.31-1.12,.61-1.75,.61Zm-.64-.76l.08,.08c.13,.12,.31,.18,.56,.18,.51,0,1.13-.26,1.45-.51,.22-.17,.5-.45,.54-.74,.01-.11,.03-.23,.06-.33-.15,.03-.25,.03-.39,.04h-.19c0,.17-.03,.35-.12,.5-.26,.44-.59,.69-1,.77-.21,.04-.68,.11-.98,.02Zm-13.7-1.48c-.04,.1-.05,.2-.03,.28,.04,.19,.26,.27,.43,.29,.37,.07,.41,.31,.43,.42q0,.05,.04,.08c.3,.18,.67,.29,1.02,.38l.21,.06c.67,.19,.94,.07,1.5-.43l.14-.12,.16,.1c.14,.08,.28,.08,.46,0,.26-.13,.44-.25,.61-.39,.06-.05,.11-.14,.17-.22,.1-.16,.22-.34,.42-.45l.11-.06,.11,.06c.1,.05,.36,.06,.58,.05h.13c.3,0,.54,.12,.75,.22,.08,.04,.15,.08,.23,.11l.07,.03,.04,.06c.05,.08,.15,.15,.28,.21,.23,.1,.47,.01,.74-.1,.01,0,.02,0,.04-.02,0,0-.02-.01-.03-.02-.26-.18-.37-.2-.65-.24l-.17-.03c-.27-.05-.54-.19-.83-.43-.18-.15-.34-.16-.56-.18-.12-.01-.25-.03-.39-.06-.14-.03-.24-.15-.25-.3-.01-.17,.1-.35,.25-.41,.05-.03,.12-.06,.19-.06h.01c-.19,0-.38-.01-.58-.01h0c-.17,0-.31,.02-.44,.04l-.1,.02-.08-.06c-.35-.04-.67-.05-1.05-.05-.29,0-.59,0-.88,.01-.3,0-.6,.01-.89,.01-.43,0-.79-.01-1.12-.04-1.12-.1-2.22-.1-3.52,0-.57,.05-1.14,.08-1.71,.1v1.63c.14,.09,.23,.1,.38,.06l.13-.04,.1,.09c.19,.15,.44,.18,.74,.09,.37-.12,.58-.41,.79-.84,.09-.19,.33-.19,.44-.19,.12,0,.27,.01,.39,.03,.07,0,.13,.01,.17,.01,.31-.03,.53-.1,.72-.22,.02-.01,.04-.05,.04-.07l-.04-.3,.44,.03c.11-.15,.24-.26,.31-.32,.16-.14,.41-.1,.52,.07,.06,.1,.07,.23,.01,.34-.02,.04-.03,.07-.04,.09,.07,0,.18-.01,.26-.02,.08-.01,.16-.02,.21-.02,.18,.01,.3,.09,.39,.15l.05,.04c.15,.1,.2,.28,.23,.39,.11,.35,.18,.38,.45,.4h0c.16,0,.2-.05,.3-.17,.09-.1,.19-.23,.38-.32,.24-.11,.52-.13,.77-.14,.1,0,.2-.01,.29-.02,.3-.04,.51,.1,.57,.34,.07,.27-.07,.6-.33,.75-.2,.12-.71,.31-1.08,.17-.06,.03-.21,.13-.29,.19-.14,.1-.24,.16-.32,.19-.49,.17-1.41,.1-1.73-.52q-.12-.23-.41-.27c-.29-.04-.52-.19-.66-.44Zm-14.69,.8c.41,0,.58,.29,.69,.48,.12,.2,.17,.28,.36,.28,1.06-.02,1.55-.05,2.23-.57l.02-.02s-.08-.05-.11-.09c-.03-.03-.06-.07-.08-.1-.04,.04-.08,.1-.14,.17-.03,.04-.06,.08-.07,.09-.23,.22-.58,.34-1.02,.34-.09,0-.18,0-.26-.01-.47-.05-.69-.29-.84-.47-.14-.15-.2-.22-.36-.22v-.25l-.04,.25h-.16c-.31,.04-.68,.05-.93-.02,.14,.13,.34,.19,.54,.15,.06-.01,.12-.02,.18-.02Zm41.62,.02c.19,.3,.42,.47,.63,.47h0c.1,0,.2-.04,.3-.11,.17-.12,.35-.36,.35-.56v-.13l.11-.07c.06-.04,.11-.09,.14-.16l.13-.12s.06-.08,.08-.14l.04-.12,.12-.04c.16-.05,.29-.11,.37-.19,.33-.28,.49-.57,.45-.85-.04-.35-.36-.71-.89-.98l-.24-.1,.1-.23c.08-.17,.08-.41-.06-.51l-.1-.08c-.22-.16-.58-.43-.81-.43-.15,.03-.18,.08-.26,.26l-.03,.08-.08,.04c-.43,.23-.63,.47-.72,.85-.02,.09,0,.21,.02,.34l.02,.1c.02,.13-.01,.25-.09,.34-.09,.11-.23,.17-.44,.21,.07,0,.15,.01,.21,.03,.2,.06,.35,.16,.48,.25,.07-.05,.14-.1,.21-.15,.08-.06,.16-.11,.23-.17,.16-.13,.41-.1,.52,.06,.07,.1,.08,.23,.04,.35-.03,.07-.07,.14-.12,.22-.01,.02-.03,.04-.04,.07h.01c.34,.02,.58,.23,.67,.55,.06,.22,.01,.44-.13,.62-.17,.22-.47,.34-.74,.29-.21,.04-.35,.05-.49,.02Zm-37.81,.28c.09,.02,.19,.03,.28,.03,.15,0,.52-.03,.71-.29,.14-.19,.21-.3,.26-.44-.24,.34-.55,.55-.9,.62-.07,.03-.18,.06-.29,.07h-.05s-.01,0-.02,0Zm22.45-.34l.07,.15c.06,.12,.25,.17,.46,.21,.15,0,.28-.02,.38-.04l.14-.03c.24-.04,.43,0,.58,.06-.09-.13-.16-.26-.22-.38-.14-.27-.22-.45-.54-.54-.16-.05-.26-.19-.23-.36,.02-.16,.17-.34,.37-.34h.02c.52,.03,.86,.17,1.19,.49,.15,.14,.38,.24,.55,.24,.1,0,.2-.02,.21-.24,.05-.6,.54-.96,1.31-.96,.25,0,.52,.04,.76,.11,.2,.06,.33,.23,.32,.43,0,.08-.02,.15-.06,.23h.16c.09,0,.17,0,.25-.02l.13-.11,.19,.05s.08,.02,.11,.02l-.61-.42,.71-.05c1.05-.13,2.33-.07,3.46,.02h.2s.03,.21,.03,.21c.21,.16,.78,.19,1.29,.05h.01c-.09-.06-.18-.12-.26-.17-.12-.07-.17-.21-.13-.34,.03-.1,.1-.18,.19-.23-.27,.02-.55,.03-.83,0h-.17c-.73-.07-1.43-.12-2.13-.12-.36,0-.69,.01-1.01,.04-2.15,.19-4.45,.36-6.69,.36-.78,0-1.54-.02-2.24-.06l-.57-.04c-.6-.04-1.21-.07-1.82-.1,.09,.04,.18,.08,.27,.13,.19,.1,.37,.19,.56,.19h0c.08,0,.15-.01,.22-.02,.24-.04,.47-.04,.66,.06l.19,.11c.2,.12,.37,.21,.62,.25,.19,.03,.33,.16,.35,.35,.03,.19-.07,.4-.24,.51,.11,.03,.22,.07,.33,.12,.14,.05,.28,.11,.41,.13,.3,.06,.59,.08,.89,.07h.16Zm1.68-.59c.07,.1,.13,.21,.18,.32,.08,.16,.15,.3,.27,.43,.14,.14,.56,.11,.88,.05,.27-.05,.48-.22,.67-.53,.06-.1,.06-.28,.05-.43-.03-.09-.02-.2,.04-.29l.08-.1,.17-.02c.09,0,.18,.03,.3,.1h.08c.14-.01,.23-.02,.41-.06,.01,0,.03-.03,.05-.06-.18-.05-.38-.07-.56-.07-.51,0-.78,.17-.81,.5-.03,.43-.31,.7-.71,.7-.3,0-.66-.15-.9-.38-.07-.06-.13-.12-.2-.16Zm-38.67,.67s0,0,0,0c.09,.08,.22,.11,.37,.11,.44,0,1.01-.31,1.26-.45,.14-.08,.27-.2,.41-.32,.02-.02,.04-.04,.06-.05-.26,.1-.51,.13-.78,.12-.22-.01-.25,0-.35,.11-.06,.07-.14,.18-.3,.28-.17,.11-.44,.24-.69,.2Zm11.14-.65c.39,0,.58,.21,.73,.38,.14,.15,.24,.27,.52,.3,.12,.01,.26,.01,.38,0-.35,0-.52-.27-.67-.5-.05-.08-.11-.17-.18-.26-.2-.25-.39-.19-.71-.16-.56,.06-.87-.04-1.25-.15,0,0,0,0-.01,0,0,.03,.01,.06,.02,.09,.01,.07,.04,.21,.06,.25,.07,.05,.24,.09,.47,.09,.14,0,.28-.01,.4-.02l.25-.02Zm-12.69,.16l.1,.17c.07,.08,.12,.13,.16,.18,.18,.13,.57,.16,.95,.01l.05-.02s-.08-.08-.11-.13c-.08-.12-.18-.14-.44-.14-.26,0-.61,0-.88-.31-.22-.24-.3-.45-.31-.65-.07,.04-.12,.09-.16,.16l-.06,.08c-.08,.07-.17,.25-.17,.41,0,.11,.05,.14,.06,.15,.13,.1,.27,.13,.46,.16,.06,0,.12-.01,.16-.02l.19-.05Zm27.4-.79c-.04,.09-.02,.15,0,.19,.06,.11,.16,.17,.3,.19,.43,.06,.58,.14,.78,.54,.1,.19,.42,.33,.79,.33,.13,0,.24-.02,.33-.05,.01,0,.03-.01,.05-.03-.05,0-.1,.01-.16,.01h0c-.55-.03-.79-.21-.94-.71-.03-.09-.04-.16-.06-.18l-.04-.02s-.09-.06-.11-.06c-.03,0-.08,0-.14,.02-.1,.01-.21,.03-.31,.03-.23,0-.38-.07-.47-.21,0-.01-.02-.03-.02-.04Zm-7.02,.52c.23,0,.35,.2,.43,.34,.04,.06,.1,.17,.14,.18,.44,.13,.98,.08,1.36-.14l.46-1.6c-.47,.02-.93,.03-1.39,.05-.46,.01-.93,.03-1.39,.05-.38,.01-.75,0-1.12-.02-.37-.02-.74-.04-1.12-.02-.31,.02-.61,.07-.94,.13-.39,.07-.8,.15-1.22,.15h0c-.72,0-1.42-.08-2.11-.16-.49-.06-1.01-.12-1.49-.14-.56-.03-1.14,0-1.71,.05-.73,.05-1.52,.09-2.14,.01-.2-.02-.41-.06-.61-.09-.64-.11-1.25-.17-1.69,.03-.17,.08-.36,.13-.57,.18l.16,.1c.41,.29,.61,.42,1.03,.25,.22-.09,.42-.15,.68-.05,.14,.05,.25,.12,.33,.18,.08,.05,.13,.08,.17,.08,.03,0,.1-.02,.24-.12,.22-.16,.44-.31,.79-.34,.28,.01,.47,.14,.52,.36,.05,.25-.08,.52-.32,.62l-.25,.12c-.49,.23-.91,.39-1.39,.21,.14,.16,.35,.21,.65,.16,.44-.09,.81-.3,1.19-.53,.1-.06,.2-.12,.31-.18,.1-.06,.21-.09,.32-.09,.26,0,.45,.16,.61,.29,.07,.06,.14,.11,.19,.14,.26,.11,.43,.14,.64,.12-.07-.12-.09-.26-.12-.41,0-.04-.02-.11-.03-.15-.09-.08-.14-.2-.11-.33,.04-.16,.19-.28,.36-.28h.08c.11,.04,.22,.07,.32,.1,.35,.1,.64,.18,1.05,.14,.6-.06,.89,0,1.16,.34,.08,.1,.15,.21,.21,.31,.12,.19,.18,.27,.25,.27,.06,0,.23-.04,.6-.33,.15-.12,.21-.16,.38-.25,.1-.05,.25-.05,.35-.04,.12,.01,.25,.06,.33,.23,.06-.02,.13-.06,.17-.08,.1-.05,.2-.1,.3-.13,.05-.09,.1-.18,.16-.28,.19-.33,.77-.41,.97-.13,.05,.07,.11,.21,.06,.41,.24-.14,.59-.14,.82-.14h.23s.02,.22,.02,.22c.03,.34,.49,.37,.69,.37,.26,0,.47-.06,.7-.11l.28-.06Zm32.15-.04c.36,0,.52,.24,.64,.47,.06,.13,.27,.16,.41,.16-.13-.11-.28-.31-.31-.64-.02-.02-.05-.04-.07-.06-.19-.2-.48-.08-.8,.05-.03,.01-.07,.03-.1,.04,.09-.02,.16-.02,.23-.02Zm-36.71,.47s.01,.02,.02,.03c.02,.02,.05,.04,.1,.05h.03s.07,0,.07,0c.02,0,.04,0,.06,0,.06,0,.14-.03,.22-.05,.38-.07,.66-.37,.83-.84-.05,0-.08,.03-.1,.06-.08,.14-.15,.26-.22,.37l-.06,.09-.11,.02c-.09,.02-.18,.06-.26,.1-.15,.08-.33,.16-.51,.16h0s-.06,0-.08,0Zm15.5-.44c-.13,.04-.24,.05-.36,.05-.21,.01-.43,.03-.59,.1-.09,.04-.14,.11-.21,.19,0,0-.01,.02-.02,.03,.1-.05,.18-.08,.27-.08l.14,.03c.16,.07,.42,.01,.67-.13,.07-.04,.1-.15,.09-.19Zm21.63-.71c.24,0,.45,.09,.62,.27l.18,.11v.16c0,.19,.06,.32,.15,.4,.05,.04,.24,.05,.41,.02h.14s.07,0,.07,0c.08,0,.16-.04,.22-.11,.03-.04,.06-.1,.04-.19-.02-.06-.06-.17-.17-.18-.07,0-.15,0-.18,.02l-.07-.21-.24,.21h0s0,0,0-.01l-.1-.12v-.04s0-.04,0-.04l.02-.07-.04-.07,.03-.04s0-.05,.02-.08c-.03,.03-.06,.05-.09,.08l-.14,.14-.17-.1c-.06-.04-.11-.07-.17-.11-.12-.08-.22-.15-.35-.19-.14-.04-.41,.07-.61,.16-.07,.03-.13,.06-.18,.08-.46,.19-1.08,.09-1.64-.04-.07-.02-.14-.03-.21-.05,.37,.2,.79,.38,1.15,.38,.2,0,.38-.08,.57-.16,.24-.1,.49-.2,.75-.2Zm-2.85,.35h0c.07,.28,.32,.6,.81,.6h.08c.18-.01,.36-.04,.55-.08-.47-.03-.97-.25-1.43-.52Zm-15.7-.14c.17,.12,.33,.19,.47,.22l.17,.03c.3,.05,.5,.08,.85,.32,.12,.08,.29,.05,.54-.07-.26-.06-.45-.17-.64-.28l-.18-.1c-.09-.05-.22-.03-.35,0-.1,.01-.19,.03-.29,.03-.21,0-.4-.06-.57-.14Zm-34.22-.54c-.18,.36-.22,.47,.04,.76,.12,.13,.26,.14,.51,.14,.14,0,.31,0,.47,.06-.04-.04-.08-.07-.09-.08-.03-.02-.09-.02-.15-.03-.11-.01-.25-.03-.39-.11-.3-.18-.37-.48-.38-.74Zm8.54,.61c-.19,.06-.31,.13-.52,.28,0,0-.01,0-.02,.01,.08-.03,.16-.07,.24-.11l.26-.12s.04-.05,.03-.06Zm-8.34-1.27c.07,.02,.14,.05,.19,.11,.05,.06,.11,.15,.11,.31-.01,.31,0,.48,.15,.56,.04,.03,.1,.03,.18,.04,.1,0,.22,.02,.34,.09,.09,.05,.16,.13,.26,.22,.05,.05,.14,.14,.21,.19,.44-.33,.92-.42,1.38-.51,.15-.03,.31-.06,.46-.1h.11c.17-.01,.31,.1,.35,.27,.02,.1,0,.21-.03,.3,.27-.16,.62-.21,.99-.06-.04-.04-.08-.08-.12-.12-.1-.1-.12-.24-.07-.37,.03-.07,.07-.12,.13-.16-.48,.08-.98,.09-1.32,.09-.89,0-1.8-.1-2.44-.27l-.13-.04-.04-.15c-.19-.27-.44-.42-.68-.4Zm49.57,.4c.3,.02,.58,.08,.86,.14,.51,.11,1,.2,1.35,.06,.05-.02,.1-.04,.16-.07,.16-.07,.34-.15,.53-.19-.31,.01-.72-.03-.9-.05-.19-.02-.32-.03-.45-.03-.38,0-.75,.04-1.15,.09-.13,.02-.26,.03-.4,.04Z"/>
</svg>