<?xml version="1.0" encoding="UTF-8"?>
<svg id="Layer_1" data-name="Layer 1" xmlns="http://www.w3.org/2000/svg" viewBox="0 0 51 54">
  <defs>
    <style>
      .cls-1 {
        fill: #fff;
      }
    </style>
  </defs>
  <path class="cls-1" d="M25.44,51.06c-2.01,0-4.13-.2-6.89-.64-.92-.15-1.9-.36-2.85-.89-.63-.35-.85-.81-.98-1.27-.11-.06-.21-.17-.25-.37-1-5.36-1.78-10.86-2.54-16.18-.3-2.13-.61-4.26-.92-6.38l-.15-.97c-.51-3.45-1.03-6.89-1.54-10.34,0-.05-.01-.09-.02-.14-.22-.03-.43-.08-.6-.15-.25-.1-.34-.33-.41-.49-.04-.09-.08-.19-.12-.21-.21-.09-.41-.18-.6-.4-.24-.27-.77-.99-.57-1.72,.11-.42,.41-.62,.65-.78,.17-.12,.32-.22,.38-.38,.03-.08,.02-.12-.01-.26-.02-.09-.05-.19-.06-.32-.02-.29,.12-.58,.24-.81l.04-.07c.33-.67,.91-1.06,1.58-1.06,.33,0,.66,.1,.96,.28,.16-.28,.38-.57,.65-.77-.5-.64-.61-1.47-.28-2.29,.19-.48,.59-.66,.93-.82,.08-.04,.16-.07,.24-.11,.21-.11,.41-.28,.62-.46,.32-.27,.65-.55,1.06-.65,.56-.15,1.05-.07,1.41,.24,.16,.14,.36,.3,.54,.47,.27-.34,.59-.64,1.11-.75,.42-.09,.91-.02,1.35,.07,.41,.07,.79,.15,1.18,.07l.12-.02c.21-.04,.45-.09,.68-.09,.43,0,.76,.17,.98,.5,.49,.75,.64,1.01,.56,1.88,.13,.03,.23,.03,.33,.01,.47-.1,.99-.18,1.41-.02,.43-1.2,1.46-1.35,2.21-1.35,.29,0,.61,.02,1.01,.07,.47,.06,1.03,.17,1.46,.46,.31-.47,.91-.74,1.67-.74,.27,0,.55,.04,.79,.1l.14,.04c.59,.16,1.49,.4,1.78,1,.07,.14,.11,.27,.15,.39,.18-.13,.36-.22,.54-.26,.17-.04,.37-.06,.58-.06,.6,0,1.46,.18,1.91,.67,.14,.15,.24,.33,.34,.51,.12,.22,.24,.42,.41,.52,.27,.16,.56,.34,.67,.64l.05,.15c.18,.52,.33,.93-.05,1.53,.04,.06,.08,.13,.12,.2,.16-.12,.33-.22,.52-.29,.37-.14,1.03-.31,1.5-.14,.42,.15,.64,.39,.86,.63,.12,.14,.24,.26,.4,.38,.14,.1,.28,.17,.44,.24,.29,.13,.61,.28,.84,.63,.28,.42,.25,1.13,.23,1.64v.16c-.02,.62-.32,1.26-.79,1.65,0,.11-.04,.21-.1,.3-.03,.12-.1,.22-.18,.3-.5,3.37-1,6.73-1.5,10.1l-.16,1.06c-.32,2.12-.62,4.24-.92,6.36-.75,5.23-1.52,10.65-2.49,15.93,.06,.9-.81,1.65-2.47,2.1l-.42,.12v.08s-.26,.02-.26,.02h-.08c-1.91,.51-3.97,.99-6.16,1.09-.43,.02-.85,.03-1.28,.03ZM7.51,11.5c.1,.36,.36,.69,.46,.8,.11,.13,.22,.18,.42,.27,.22,.1,.31,.31,.38,.48,.04,.09,.08,.2,.13,.22,.17,.07,.4,.12,.65,.14l.19,.02,.03,.19c.02,.11,.04,.22,.05,.33,.51,3.45,1.02,6.89,1.54,10.34l.14,.97c.32,2.13,.62,4.26,.92,6.39,.76,5.31,1.54,10.81,2.54,16.16h.2s.01,.2,.01,.2c.1,.47,.27,.81,.77,1.09,.88,.49,1.81,.69,2.68,.83,3.31,.53,5.66,.72,8.07,.61,2.15-.1,4.2-.59,6.09-1.1h.05s.04,0,.04,0l.05-.03,.58-.16c.66-.18,2.19-.71,2.1-1.61v-.04s0-.03,0-.03c.98-5.28,1.75-10.7,2.5-15.94,.3-2.12,.61-4.25,.92-6.37l.16-1.06c.51-3.4,1.02-6.8,1.52-10.2l.02-.11,.09-.06s.06-.07,.08-.12l.04-.09s.04-.1,.04-.16l-.02-.14,.12-.08c.4-.3,.67-.82,.68-1.34v-.17c.02-.4,.04-1.07-.15-1.35-.15-.23-.38-.34-.63-.46-.17-.08-.35-.16-.52-.29-.2-.14-.35-.31-.48-.45-.19-.21-.35-.39-.66-.49-.33-.12-.86,.03-1.16,.14-.14,.05-.28,.13-.4,.23,.21-.13,.46-.22,.77-.29,.1-.02,.2-.03,.3-.03,.61,0,.98,.43,1.31,.82,.07,.08,.14,.17,.21,.24,.1,.11,.25,.17,.41,.24,.31,.13,.72,.3,.77,.88,.06,.79,.14,1.78-.88,2.39l-.06,.07-.12,.04c-.4,.07-.81,.15-1.21,.21l-.3,.05v-.3c0-.06,0-.1,0-.14-.04-.15-.11-.28-.19-.35-.39-.36-.4-.7-.41-1.03,0-.08,0-.16,0-.24-.04-.51-.45-1.12-.99-1.18l-.17-.02-.27,.09c-.52,.25-.86,.55-1.09,.92-.32,.53-.69,.59-.98,.59-.08,0-.16,0-.25-.01-.11,0-.21-.02-.33,0l-.43,.04v.12s-.05,.04-.05,.04c.17-.07,.38-.09,.63-.06l.21,.03c.13,.02,.26,.04,.4,.04h.15s.02,.05,.02,.05c.14-.05,.33-.1,.52-.1l-.28-.04,.29-.35c.07-.08,.11-.16,.16-.23,.09-.15,.19-.32,.43-.53,.72-.46,1.24-.43,1.54-.08,.2,.23,.27,.59,.2,1.01-.03,.13-.04,.26-.06,.38,0,.19,.13,.34,.28,.53,.13,.16,.27,.34,.34,.57l.08,.28-.29,.04c-1.53,.21-3.15,.35-4.95,.43h-.23s0,0,0,0h-.19c-1.13,.06-2.35,.09-3.72,.1h-.52s.03-.03,.03-.03l-.22,.04h-.16s-.07-.14-.07-.14c-.08-.08-.13-.17-.17-.24-.02-.04-.05-.1-.07-.11-.04-.03-.09-.07-.14-.1-.19-.14-.42-.31-.5-.56-.05-.17-.09-.22-.26-.29-.04,0-.08,.01-.12,.02-.05,0-.09,.01-.12,.01h0c-.15,0-.28-.06-.39-.11-.06-.03-.12-.06-.16-.06-.24-.03-.44,0-.64,.04,.27-.03,.52,.05,.73,.12,.17,.06,.33,.11,.5,.09h0c.3,0,.37,.28,.41,.43,.09,.18,.2,.27,.36,.39,.06,.05,.08,.07,.11,.1l.41,.42-3.34,.02h0s-.12,0-.12,0c-.37,0-.73,0-1.09,0h-.72s.63-.49,.63-.49c.34-.36,.58-1.03,.73-1.43,.04-.11,.07-.21,.08-.31l.04-.22-.04-.25c-.06-.39-.31-.73-.73-1l-.18-.12h0s-.1-.03-.1-.03c-.14-.04-.3-.06-.43-.08l-.1-.02c-.19-.04-.37-.09-.56-.17l-.43-.19,.4-.25c.08-.05,.17-.13,.2-.34l.02-.16c.05-.4,.12-.96,.79-1.09,.15-.03,.28-.14,.41-.27,.15-.14,.27-.47,.33-.87l.02-.34c.01-.52-.1-.99-.3-1.22l-.05-.06-.1-.06c-.37-.23-.84-.16-1.33-.06-.24,.05-.48,.02-.82-.1l-.28-.1h0s-.29-.12-.29-.12c-.19-.07-.41-.14-.62-.12-.08,0-.16,.02-.24,.05l-.25,.07h0s-.16,.11-.16,.11c-.13,.08-.25,.16-.36,.26,.19-.14,.42-.26,.68-.34,.51-.15,.84,.02,1.12,.2,.09,.06,.18,.12,.29,.17,.15,.07,.37,.08,.52,.08,.11,0,.23,0,.35-.01,.12,0,.25,0,.36,0,.3,0,1.1,0,1.19,.86,.05,.48,.16,1.48-.82,1.73-.12,.03-.24,.1-.31,.17-.11,.12-.27,.3-.29,.44-.01,.09,0,.19,0,.29,0,.29,.02,.65-.27,.86l-.15,.19-.19-.15c-.08-.06-.14-.11-.19-.15-.16-.13-.36-.24-.55-.29l-.2-.05,.02-.21s0-.07-.01-.08l-.05-.06v-.07c-.02-.11-.03-.25-.04-.39-.03-.4-.06-.89-.2-1.22l-.06-.14,.02-.02-.16-.11c-.07-.05-.14-.07-.22-.07h0c-.21,0-.93,.07-1.04,.1l-.07-.22-.28-.04c.01-.09,0-.16-.03-.24l-.02-.06v-.05s-.18-.12-.18-.12c-.12-.07-.44-.08-.73-.06-.11,0-.21,.01-.3,.01h-.21l-.06-.21c-.12-.32-.23-.42-.52-.55-.4-.18-.39-.58-.39-.88,0-.18,0-.37-.07-.49-.06-.09-.15-.2-.28-.34l-.14-.14c-.24-.23-.51-.46-.72-.63-.25-.21-.57-.25-.97-.14-.3,.08-.58,.31-.86,.55-.22,.19-.46,.38-.72,.52-.09,.04-.17,.08-.26,.12-.31,.14-.55,.25-.67,.55-.28,.7-.17,1.4,.32,1.92-.27-.55-.34-1.02-.22-1.44,.13-.44,.47-.8,1.02-1.08,.17-.09,.35-.21,.52-.34,.36-.25,.74-.52,1.17-.52,.33,0,.64,.16,.92,.48l.06,.07c.15,.17,.29,.33,.46,.47,.29,.24,.24,.62,.21,.89-.02,.13-.03,.27-.01,.35,.04,.13,.18,.21,.41,.32l.73,.37-.73,.13c-.14,.03-.25,.06-.36,.11l-.23,.15-.14-.1c-.21-.16-.45-.18-.66-.13-.08,.02-.17,.04-.25,.04-.16,0-.26-.07-.31-.13-.07-.07-.09-.17-.1-.25,0,0,0,.01,0,.02-.02,.13-.04,.23-.01,.33,.02,.06,.12,.13,.23,.15,.12,.02,.2,.01,.36-.03,.19-.06,.4,0,.58,.05l.27,.09-.13,.26c-.05,.09-.09,.2-.12,.31,.03-.07,.06-.14,.1-.21,.16-.32,.48-.49,.96-.49,.25,0,.5,.04,.7,.07,.08,.01,.15,.03,.22,.03,.01,0,.05,0,.09,0,.08,0,.18-.02,.27-.02,.15,0,.36,.02,.49,.17,.08,.09,.11,.21,.09,.33,0,.02,0,.04,0,.07l.02,.16-.14,.08c-.09,.05-.16,.12-.22,.18l-.04,.05-.15-.11-.07,.28-.06-.02c-.09-.04-.13-.05-.15-.05h0c-.1,0-.19,.03-.27,.08,.11-.03,.23,0,.34,.06,.02,.01,.08,.04,.11,.04,.13-.02,.21-.08,.29-.21,.12-.21,.33-.25,.45-.28h.05s.05,0,.05,0c.17,.03,.38-.01,.52-.04,.13-.02,.22-.03,.31-.03,.87,0,.93,.87,.97,1.45,.01,.15,.02,.31,.04,.45l.03,.2-.19,.07c-.09,.04-.18,.08-.27,.12-.11,.04-.18,.08-.24,.14,.25-.13,.5-.2,.75-.21h0c.44,0,.79,.31,1.12,.62,.26,.23,.53,.48,.78,.53l.13,.03c.51,.1,.95,.18,1.36,.7,.32,.4,.09,.93,0,1.13l-.15,.34h-.01s-.09,.17-.09,.17c-.25,.51-.55,.72-.89,.96l-.33,.24,.04,.08h-.15s-.11,.08-.11,.08v-.08s-.16,0-.16,0c-1.14-.03-2.28-.08-3.41-.13l-1.35-.07s-.02,0-.03,0h-.21s0-.01,0-.01c-.44-.02-.87-.04-1.31-.07-.55-.03-1.1-.05-1.65-.08-.22-.07-.44-.18-.58-.34l.11,.31-.37-.03c-.49-.03-.97-.07-1.46-.12l-.51-.05,.28-.29c-.28,.12-.62,.08-.87-.2l-.14-.15,.25-.35c.28-.41,.61-.89,1.23-.8,0,0,.03-.04,.02-.06-.12-.06-.24-.09-.35-.09-.29,0-.47,.21-.58,.39-.44,.72-1.03,1.04-1.83,.98-.32-.02-.47-.29-.56-.47-.04-.07-.09-.17-.13-.19-.5-.24-.85-.44-1.22-.98Zm21.74-.19c.06,.06,.12,.13,.18,.2,.09,.11,.14,.23,.13,.37-.02,.32-.33,.58-.57,.79-.06,.05-.12,.1-.15,.14-.1,.11-.15,.26-.15,.46,.01,0,.1,.16,.15,.24,.14,.23,.21,.35,.12,.5v.11s.16-.21,.16-.21c.08-.1,.1-.2,.06-.34-.02-.05-.11-.12-.17-.17-.11-.1-.15-.18-.15-.27,0-.22,.19-.45,.55-.8,.03-.03,.06-.06,.07-.07,.12-.13,.16-.26,.15-.4v-.12s0,0,0,0l-.1-.14c-.06-.09-.15-.18-.26-.27Zm-12.34-1.59c.17,.03,.35,.07,.56,.14,.45,.15,.77,.46,.9,.85,.12,.38,.04,.79-.22,1.15-.05,.07-.07,.17-.06,.21,.27,.15,.45,.82,.38,1.2-.05,.27-.21,.44-.44,.48-.03,0-.08,.06-.08,.09v.03l.76-.2c.1-.03,.25-.06,.39-.1,.21-.05,.49-.12,.56-.14,.3-.13,.53-.29,.65-.45,.07-.1,.03-.25-.06-.47-.1-.26-.04-.4,.01-.48,.04-.06,.1-.11,.16-.14-.15,.06-.2,.16-.23,.25q-.06,.18-.05,.39c0,.06,.01,.09,.02,.13,.07,.21,0,.36-.22,.47-.32,.17-.58,.19-.87,.21l-.46,.04,.06-.32c.08-.42,0-.85-.19-1.1l-.09-.12,.06-.14c.12-.26,.18-.55,.18-.82v-.1s.02-.02,.02-.02l-.07-.22c-.07-.21-.2-.38-.38-.5-.38-.25-.84-.36-1.31-.32Zm9.04,3.53c-.05,0-.11,0-.16,.02-.35,.09-.37,.2-.37,.5,0,.02,0,.04,0,.06h1.69c-.03-.05-.06-.1-.09-.15-.02-.04-.04-.09-.05-.15,0-.01,0-.03-.01-.05-.22,0-.41-.07-.58-.13-.15-.05-.29-.1-.43-.1Zm-1.63,.58h.26s0-.03,0-.04c-.02-.19,0-.39,.05-.58-.09,.21-.19,.43-.31,.62Zm5.06-.77c.11,.1,.21,.21,.26,.35,.04,.13,.06,.26,.04,.39,1.09-.02,2.09-.04,3.02-.08-.12-.71,.1-1.35,.63-1.79,0-.03,0-.07,0-.11,.04-.25-.03-.48-.11-.75-.03-.11-.07-.22-.09-.34-.02-.08-.14-.1-.41-.13-.22-.02-.46-.04-.64-.19-.13-.11-.23-.29-.25-.45-.04-.33-.18-.51-.51-.6-.77-.23-1.13-.31-1.59,.03,.04,.55-.08,1.03-.33,1.42,.13,.09,.24,.19,.34,.29,.43-.28,.96-.46,1.47-.22,.41,.2,.72,.66,.78,1.13,.3,.04,.51,.15,.62,.33,.12,.2,.07,.46-.13,.63-.21,.18-.49,.18-.72,.13-.05,0-.1-.02-.15-.03-.09,0-.11,0-.2,.09-.04,.04-.09,.08-.14,.12-.17,.13-.4,.11-.53-.04-.07-.08-.11-.2-.09-.32,.05-.35,.25-.64,.52-.79-.1-.23-.33-.44-.51-.48h-.04c-.09,0-.25,.05-.53,.29-.01,.23-.1,.45-.28,.64-.02,.02-.05,.05-.09,.09-.18,.17-.3,.3-.36,.38Zm-9.19,.66c.55,.02,1.09,.04,1.64,.06-.07-.33-.05-.69,.07-.99-.14-.26-.41-.41-.81-.46-.23-.03-.43,0-.43,0,.02-.01,.04-.05,.04-.08l-.23,.11,.25-.04c.1,.26,.23,.6,0,.93-.14,.2-.34,.35-.54,.46Zm14.01-1.08c-.18,0-.3,.05-.38,.14-.17,.2-.17,.61-.15,.9,.8-.04,1.55-.09,2.29-.16l.11-.45c.03-.11,.04-.31-.2-.37-.19-.05-.37,0-.63,.08l-.13,.02c-.08,0-.16-.03-.22-.08-.12,0-.23-.03-.35-.04l-.19-.03c-.05,0-.1,0-.15,0Zm-20.12,.68c.06,.04,.14,.09,.23,.12,.49,.02,1.04,.05,1.58,.07,.52,.02,1.04,.05,1.55,.08h.06c.08-.17,.25-.31,.44-.34,.01,0,.04-.05,.04-.15,.01-.27-.11-.58-.17-.63-.1-.06-.18-.17-.21-.31-.04-.21,.04-.45,.15-.6,.17-.23,.22-.48,.15-.7-.08-.24-.29-.43-.58-.53-.57-.19-.89-.2-1.29-.04-.1,.22-.31,.36-.49,.49-.24,.17-.35,.26-.34,.4,0,.04,0,.09-.01,.13,.33-.2,.73-.29,1.01-.24,.54,.1,.91,.4,1.02,.8,.07,.25,.19,.7-.2,1.05-.09,.08-.2,.12-.31,.11l-.19,.45-.17-.74c-.05-.21-.16-.38-.26-.42-.05-.02-.09-.02-.15-.03-.08,.24-.31,.42-.5,.48-.12,.04-.25,.04-.38,.04-.08,0-.22,0-.25,.02-.05,.04-.11,.08-.18,.1-.16,.16-.34,.3-.53,.4Zm8.97-.53v.25c-.11,0-.24,.06-.29,.17-.03,.08-.04,.17-.04,.27,.18-.13,.32-.24,.44-.41-.04-.02-.09-.04-.12-.04v-.25Zm13.27-.99s.09,.04,.14,.06c.29,.15,.5,.46,.54,.79,.04,.3-.06,.59-.27,.79,.43-.04,.85-.09,1.26-.14-.03-.04-.06-.08-.1-.12-.17-.21-.38-.48-.39-.86,.01-.17,.04-.31,.06-.45,.04-.26,0-.48-.09-.6-.06-.07-.19-.27-.86,.15-.14,.13-.21,.25-.29,.38Zm-9.08,.57c.08,0,.14,.01,.2,.04,.3,.13,.44,.29,.54,.6,.02,.07,.11,.15,.21,.22,0-.31,.1-.57,.28-.77,.04-.05,.11-.11,.19-.18,.1-.09,.4-.35,.4-.45-.13-.15-.25-.27-.36-.37-.23,.13-.47,.21-.73,.26-.36,.07-.76,.03-1.16-.09-.22-.07-.39-.11-.51-.11-.14,0-.25,.05-.53,.4-.1,.13-.52,.42-.84,.47-.01,.05-.03,.1-.05,.16-.04,.1-.08,.21-.12,.33,.13-.23,.32-.42,.6-.51,.33-.12,.71-.22,1.16-.15,.12,.01,.22,.06,.31,.11,.06,.03,.13,.06,.16,.06,.01,0,.04,0,.06,0,.06,0,.12-.02,.19-.02Zm10.73-2.24c.5,.3,.83,.91,.87,1.45,0,.1,0,.19,.01,.27,0,.29,0,.45,.25,.67,.2,.18,.29,.44,.33,.58,.29-.05,.58-.1,.86-.15,.03-.03,.06-.05,.09-.07,.7-.42,.71-1.03,.64-1.92-.02-.26-.16-.33-.46-.46-.19-.08-.41-.17-.59-.36-.08-.08-.15-.17-.23-.26-.34-.4-.63-.73-1.12-.62-.03,0-.05,.01-.08,.02,.36,.13,.68,.38,.83,.66,.06,.12,.06,.26-.02,.39-.14,.22-.47,.26-.62,.06-.16-.21-.5-.25-.76-.25h0Zm-25.31,2.83c.14,0,.28,.02,.44,.04,.09,.02,.18,.01,.27,0h.15s.15-.06,.15-.06c.23-.08,.45-.23,.63-.43l.06-.07h.1c.18-.15,.39-.15,.59-.15,.08,0,.18,0,.23-.01,.08-.03,.18-.14,.18-.18v-.17s.15-.09,.15-.09c.19-.09,.42-.09,.64-.01,.15,.05,.26,.15,.35,.26l.02-.05,.09,.24c.03,.06,.05,.11,.07,.16,.03-.09,.02-.22-.04-.45-.08-.3-.47-.41-.63-.44-.3-.06-.83,.21-.95,.46l-.06,.13h-.14s-.32,.01-.32,.01l.02-.31c.04-.18,.06-.35,.03-.52v-.07s.02-.07,.02-.07c-.03-.4,.29-.63,.55-.81,.14-.1,.29-.2,.33-.31l.07-.12,.05-.26c.03-.14,.03-.27,.01-.39-.05-.32-.14-.5-.4-.77l-.1-.09-.14-.06c-.13-.06-.28-.1-.42-.15-.34-.1-.7-.21-.91-.51-.45-.63-.88-.87-1.44-.79l-.17,.02v-.02s-.23,.1-.23,.1c-.2,.09-.4,.28-.57,.52,.57-.47,1.24-.53,1.81-.12,.22,.16,.34,.35,.44,.51,.14,.22,.22,.35,.5,.41,.4,.08,.66,.2,1.01,.46,.29,.21,.36,.46,.38,.63,.02,.34-.17,.72-.59,1.13-.06,.06-.1,.12-.14,.18l-.13,.22-.22-.13c-.11-.06-.25-.11-.39-.16-.35-.12-.87-.3-.8-.9,.05-.47-.13-.76-.57-.91-.18-.06-.36-.08-.52-.05,.29-.03,.54,.07,.73,.28,.23,.25,.35,.67,.31,1.08,0,.09-.03,.32,.45,.44,.82,.2,.67,.86,.59,1.21l-.02,.09c-.19,.87-1.04,1.01-1.54,1.06h0Zm-1.31,.02s.02,0,.02,0c.11,0,.27-.1,.43-.2,.2-.13,.43-.28,.7-.3,.67-.06,1.11-.19,1.21-.68l.02-.09c.1-.44,.09-.54-.22-.62-.57-.14-.88-.49-.84-.97,.03-.27-.05-.54-.18-.69-.11-.12-.25-.15-.44-.08-.55,.18-.72,.6-.89,1.17-.08,.27-.48,.37-.65,.17-.07-.08-.09-.19-.07-.3,.2-1,.86-2.07,1.86-2.07,.17,0,.34,.03,.51,.09,.66,.23,.99,.74,.91,1.44-.02,.18,.06,.23,.47,.37,.09,.03,.19,.06,.28,.1,.03-.03,.05-.06,.08-.09,.3-.29,.45-.55,.44-.74,0-.03-.01-.14-.17-.26-.3-.22-.49-.31-.82-.37-.49-.1-.68-.39-.83-.63-.09-.14-.17-.27-.31-.37-.17-.12-.35-.19-.52-.19-.43,0-.78,.35-.98,.6-.02,.08-.08,.16-.15,.21h0c-.12,.19-.45,.22-.6,.06-.06-.07-.09-.16-.08-.26,0-.02,0-.04,0-.05-.35-.2-.81-.13-1.03,.17-.16,.21-.19,.52-.08,.85,.04,.14,.09,.29,.04,.48-.07,.29-.25,.54-.5,.68-.1,.05-.24,.1-.4,.15-.26,.08-.7,.22-.76,.4-.02,.07,.02,.16,.07,.23,.3,.46,.55,.62,1.06,.86,.18,.09,.28,.26,.35,.41,.06,.12,.11,.2,.16,.2,.62,.04,1.03-.18,1.37-.74,.36-.6,1-.79,1.6-.47,.2,.11,.3,.34,.24,.57-.06,.25-.27,.42-.5,.42h-.08c-.28-.05-.46,.17-.73,.56Zm7.64-1.21c.17,.28,.25,.66,.24,1.05,.16-.02,.3-.04,.46-.12,0-.04-.02-.08-.02-.14-.02-.27-.02-.33,.07-.58,.08-.24,.31-.65,1.03-.65,.16,0,.33,.02,.52,.06,.54,.11,.96,.37,1.21,.75,.38-.23,.84-.28,1.18-.13,.03-.15,.02-.25-.04-.32-.29-.37-.58-.43-1.06-.52l-.13-.02c-.38-.08-.7-.37-1.02-.65-.27-.24-.54-.49-.75-.49-.18,0-.36,.05-.53,.14,.05,.02,.12,.04,.17,.05,.2,.05,.32,.21,.32,.41,0,.25-.21,.52-.44,.58-.39,.1-.73-.05-.91-.36-.04,.04-.08,.09-.12,.13,0,.26-.06,.54-.17,.8Zm4.24,.65c-.22,0-.46,.1-.65,.27,.13-.09,.29-.14,.45-.14h.02c.15,0,.27,.06,.37,.1l.06,.03,.19-.05-.05-.05c-.1-.1-.23-.16-.39-.16Zm8.36,.16s.07,0,.11,0c.07,0,.13,.02,.19,.04,.13,.03,.19,.07,.29-.02,0-.04-.15-.1-.38-.1l-.25,.03c-.06,.01-.11,.04-.16,.08,.06-.02,.13-.03,.21-.03Zm1.73-2.35c.15,.07,.27,.19,.32,.4,.02,.11,.05,.21,.08,.31,.09,.3,.18,.6,.12,.97,0,.04,0,.09,0,.13l.19-.38c.04-.08,.07-.16,.08-.24,.02-.31-.09-.49-.3-.78l-.2-.27c-.07-.07-.13-.11-.22-.12-.02,0-.04,0-.06,0Zm-8.57,1.62l.11,.08c.14-.02,.46-.22,.54-.3,.27-.33,.5-.58,.91-.58,.18,0,.39,.05,.65,.13,.32,.1,.64,.13,.92,.08,.26-.05,.49-.14,.71-.28l.15-.1h0s.13-.14,.13-.14c.38-.43,.41-1.01,.37-1.41v-.13s0,0,0,0l-.05-.22c-.03-.14-.07-.28-.12-.42-.09-.23-.45-.26-.84-.26-.25,0-.36-.09-.42-.16-.16-.18-.13-.44-.11-.63,0-.05,.01-.13,.01-.15-.03-.07-.08-.14-.12-.21l-.06-.09h0s-.14-.14-.14-.14c-.07-.07-.15-.14-.25-.22-.31-.26-.72-.31-1-.31-.1,0-.19,0-.29,.02,.35,.01,.67,.11,.95,.27,.55,.33,.53,.79,.51,1.13-.01,.23-.01,.38,.09,.51,.21,.27,.4,.33,.83,.34,.57,.02,.66,.32,.71,.69,.09,.64,.02,1.07-.22,1.35-.25,.29-.66,.42-1.28,.38-.17,0-.34-.05-.51-.09-.29-.07-.6-.12-.77-.04-.19,.08-.29,.14-.46,.25-.02,.02-.09,.12-.13,.19-.13,.2-.25,.37-.43,.41l-.35,.07Zm9.85-.33s.03,0,.04,0c.25,.02,.48,.11,.76-.34,.27-.45,.67-.79,1.25-1.08,0-.05,.02-.1,.03-.15-.02-.03-.04-.07-.06-.11l-.03-.08c-.17-.48-.33-.94-.79-1.06-.26-.07-.52-.09-.79-.11-.12,0-.23-.02-.35-.03-.09-.01-.19-.03-.29-.04-.28-.04-.59-.08-.77-.03-.34,.1-.69,.69-.72,1.07,0,.05-.02,.1-.04,.14,.01,.02,.02,.02,.02,.02,.2-.01,.39,0,.59,.04,.09,.01,.16,.04,.24,.08,.14-.19,.35-.34,.6-.43,.3-.12,.61-.03,.85,.06,.11,.04,.22,.08,.33,.1,.19,.02,.31,.17,.3,.36-.01,.2-.19,.37-.38,.37-.16,0-.29-.04-.41-.08-.1-.03-.19-.06-.27-.06-.18,0-.28,.19-.34,.34l-.02,.06c.16,.24,.28,.52,.26,.91,0,.02,0,.05,0,.07Zm-10.37-1.18c.35,.27,.59,.6,.71,.96h.07s.07-.14,.11-.21c.1-.14,.18-.27,.28-.33,.19-.12,.32-.19,.53-.29,.07-.03,.14-.05,.22-.07h-.01c-.16-.1-.25-.23-.33-.34-.09-.12-.13-.18-.25-.21-.22-.05-.48-.07-.66-.04-.28,.05-.49,.21-.67,.52Zm-4.59-.02v.04c.02,.1,.1,.44,.43,.36,0,0,.02-.02,.04-.04-.18-.05-.38-.13-.47-.36Zm6.87,.07c.17,.01,.34,.05,.5,.09,.15,.04,.3,.07,.43,.08,.44,.02,.74-.05,.88-.21,.14-.17,.18-.48,.11-.96-.03-.18-.05-.22-.06-.23,0,0-.03-.02-.18-.03-.44-.01-.84-.06-1.21-.53-.22-.28-.2-.59-.19-.84,.01-.31,.02-.5-.27-.68-.51-.31-1.32-.24-1.91,.13-.05,.31-.17,.78-.46,1.05-.17,.16-.37,.34-.66,.4-.29,.06-.33,.23-.39,.66l-.02,.17c-.02,.14-.06,.27-.12,.37,.03,0,.06,.01,.1,.02l.1,.02c.08,.01,.16,.03,.25,.04,.22-.6,.68-1.2,1.42-1.28,.13-.01,.27-.02,.41-.02,.44,0,1.02,.09,1.33,.5,.2,.27,.24,.62,.11,1.04-.03,.09-.09,.17-.16,.21Zm5.81-.66c.01,.06,.03,.13,.03,.19,0,.04,.03,.09,.06,.12,.03,.02,.08,.04,.14,.05-.12-.11-.2-.27-.24-.36Zm-23-1.86c-.25,.13-.46,.35-.61,.66l-.04,.08c-.08,.17-.2,.39-.19,.54,0,.09,.03,.17,.04,.24,.04,.16,.08,.34-.01,.57-.02,.04-.03,.07-.05,.11,.11-.04,.23-.07,.27-.1,.12-.07,.22-.21,.26-.36,.01-.05,0-.1-.03-.21-.16-.5-.1-.97,.15-1.31,.06-.08,.13-.15,.2-.21Zm8.03,1.36c.41,.04,.81,.17,1.15,.4,.16,.1,.3,.23,.4,.38,.18-.21,.39-.43,.63-.61,.1-.11,.25-.2,.41-.26,.03-.02,.07-.04,.11-.06,0-.1-.02-.19-.02-.29-.06-.86-.17-1.05-.66-.96-.19,.04-.45,.08-.67,.05-.04,0-.07,.02-.08,.03-.15,.25-.36,.4-.63,.45h-.09c-.14,0-.26-.05-.36-.1,0,0-.05,.03-.17,.21-.05,.08-.09,.18-.1,.24,.12,.06,.19,.19,.17,.33,0,.07-.04,.14-.08,.19Zm7.75,.07c.18,0,.38,.02,.57,.06,.31,.07,.45,.27,.55,.41,0,0,.01,.02,.02,.03,.01-.15-.01-.27-.08-.37-.14-.19-.48-.3-.93-.3-.12,0-.24,0-.35,.02-.37,.04-.65,.29-.83,.59,.18-.2,.43-.36,.77-.43,.09-.02,.19-.02,.29-.02Zm9.22-1.31c.05,0,.1,.02,.15,.02,.09,.01,.18,.03,.27,.04,.11,.01,.23,.02,.34,.03,.28,.02,.58,.05,.88,.13,.72,.19,.95,.85,1.13,1.38l.03,.08,.09,.02-.09-.52c-.04-.21-.13-.39-.27-.54l-.1-.11-.13-.09c-.54-.37-1.34-.43-1.77-.43h-.5s0,0-.02,0Zm-18.59,.24c.26,.28,.42,.54,.49,1,0,.04,.01,.09,.01,.13,.13-.04,.27-.08,.41-.1-.08-.06-.14-.14-.17-.24-.18-.47,.21-1.29,.48-1.52,.25-.21,.5-.32,.74-.32,.05,0,.09,0,.13,.01,.05-.06,.11-.11,.17-.16-.07,0-.19,0-.28,.01-.06,0-.11,0-.15,0-.12-.01-.2-.02-.29-.04-.19-.03-.42-.07-.62-.07-.37,0-.47,.12-.51,.21-.19,.4-.33,.74-.41,1.08Zm14.68,.43c.33,0,.65,.1,1.02,.21,.34,.1,.58,.26,.73,.48l-.04-.09,.3,.07c.06-.31,.22-.64,.43-.9l-.33-.15s.02-.06,.03-.09l.03-.11,.12-.09-.11-.18,.03-.02-.06-.3c-.03-.15-.08-.28-.15-.41-.08-.15-.18-.3-.32-.49l-.21-.26c-.33-.35-.69-.52-1.1-.52v-.25l-.05,.25h-.08c-.35,0-.65-.07-.94-.13-.3-.07-.58-.13-.87-.1,.26,0,.56,.13,.82,.25,.12,.05,.22,.1,.31,.13,.49,.15,1.02-.11,1.64,.35,.71,.54,1.06,1.41,.86,2.17-.03,.12-.05,.21-.07,.29l-.09,.53-.34-.41c-.3-.35-.87-.48-1.26-.49h0c-.38,0-.67,.12-.9,.38,.19-.08,.39-.12,.59-.12Zm-9.04,.3c.2,.07,.39,.18,.56,.32,.02-.09,.02-.23,.01-.34,0-.13,0-.25,.01-.37,.04-.3,.26-.54,.42-.71,.14-.15,.33-.26,.56-.32,.46-.12,.51-.53,.44-1.19-.03-.28-.15-.42-.7-.42-.11,0-.23,0-.34,0-.12,0-.25,.01-.37,.01-.22,0-.5-.01-.74-.13-.13-.06-.24-.13-.34-.2-.28-.18-.4-.23-.7-.14-.54,.16-.84,.47-.95,.97,0,.02,.01,.04,.02,.06,.2-.04,.49-.06,.9-.06,.12,0,.23,.02,.32,.06,.11-.1,.24-.19,.42-.25,.34-.11,.67-.12,.94-.03,.34,.11,.61,.42,.69,.77,.07,.3,0,.6-.22,.82-.18,.18-.49,.15-.61-.04-.07-.11-.07-.24,0-.37,.03-.06,.02-.08,0-.09-.05-.08-.22-.15-.36-.15-.03,0-.05,0-.06,0-.09,.02-.13,.04-.18,.08,.13,.39,.16,.85,.18,1.23,0,.11,.01,.22,.02,.31,.03,.05,.05,.1,.06,.16Zm6.97-1.17c.44,0,1,.07,1.19,.57,0,0,0,0,0,0,.31-.3,.7-.45,1.17-.45,.42,0,.92,.11,1.32,.37,.1-.54-.18-1.17-.7-1.55-.44-.33-.87-.09-1.48-.27-.1-.03-.23-.09-.37-.15-.03-.01-.07-.03-.1-.04,.18,.32,.12,.76-.14,1.03-.16,.16-.46,.13-.57-.05-.06-.1-.06-.23,0-.34,.03-.05,.03-.13,.02-.15-.07-.02-.14-.06-.2-.09-.03-.02-.07-.04-.09-.05h-.06s-.09,.01-.13,.01c-.07,.1-.13,.21-.16,.33,.03,.06,.07,.13,.1,.2,.05,.12,.04,.25,.02,.39,0,.08-.02,.22,0,.26,.05,0,.11,0,.17,0Zm6.26-2.79c.6,.21,1.14,.65,1.32,1.13,.08,.21,.2,.32,.41,.46,.62,.42,.7,.94,.68,1.45,.15-.29,.07-.5-.09-.94l-.05-.15c-.05-.13-.24-.25-.4-.35-.33-.2-.49-.49-.63-.74-.09-.16-.17-.3-.27-.41-.21-.23-.58-.38-.96-.46Zm-.26,2.49h.5c.4,0,1.08,.06,1.68,.32-.02-.34-.13-.57-.46-.8-.28-.19-.48-.38-.6-.7-.18-.48-.93-.93-1.54-.93-.25,0-.46,.07-.61,.21-.13,.12-.25,.24-.36,.37,0,.05,0,.1,0,.15,0,.14-.06,.28-.18,.4-.02,.02-.04,.04-.06,.06,.04,.06,.07,.11,.1,.16,0-.02,.02-.04,.03-.05,.15-.21,.35-.35,.57-.4,.33-.07,.69,0,1.01,.08,.07,.02,.14,.04,.22,.05,.17,.04,.28,.19,.27,.36-.02,.18-.17,.33-.36,.33-.1,0-.18-.01-.26-.02-.18-.02-.37-.04-.54-.01-.06,.01-.09,.02-.11,.03,0,0,0,.04,0,.12,0,.11,0,.22-.04,.35,.26-.06,.52-.07,.75-.07Zm-20.79-.72c.27,.2,.47,.45,.62,.66,.11,.15,.37,.23,.64,.32,.05,.02,.11,.03,.16,.05,.04-.34,.09-.64,.18-.89-.27,.07-.39,.08-.59,.04-.23-.04-.52-.19-.62-.49-.07-.22-.03-.42,0-.57,.02-.1,.03-.18,.03-.26-.07,0-.3,.16-.35,.22-.07,.21-.11,.39-.03,.61,.03,.1,.02,.21-.03,.3Zm7.79-.09c.15,0,.33,.04,.49,.12-.05-.04-.1-.07-.16-.09-.1-.03-.21-.04-.33-.03h0Zm-8.82-.25c.08,0,.16,0,.24,.02-.08-.38,0-.77,.2-1.11,.27-.43,.73-.69,1.23-.69h.09c.18,.01,.33,.09,.45,.23,.21,.25,.24,.67,.21,.96,.02,0,.04,0,.06-.01,.09-.02,.19-.04,.28-.04h0c.17,0,.33,.03,.47,.09-.06-.08-.11-.16-.14-.27-.05-.18-.03-.37,0-.55,.03-.22,.04-.39-.03-.45-.19-.16-.35-.34-.51-.52l-.06-.07c-.47-.52-.9-.25-1.43,.12-.19,.13-.38,.27-.58,.37-.43,.22-.68,.47-.77,.78-.09,.31-.02,.69,.22,1.15,.03,0,.06,0,.09,0Zm11.8-1.16c.16,.25,.27,.58,.31,.98,.33-.18,.71-.31,1.09-.36-.11-.42-.1-.96,.42-1.37-.19-.03-.39-.04-.58-.04h0c-.68,0-1.01,.21-1.24,.8Zm2.06,.6c.39,.04,.73,.16,1,.37,.07-.24,.19-.48,.4-.69-.02-.02-.03-.04-.05-.07-.08-.11-.15-.2-.24-.26-.23-.15-.49-.15-.81,0-.24,.12-.29,.21-.29,.54,0,.04,0,.07-.02,.1Zm3.66-2.13c.5,.09,1,.31,1.35,.5,.53,.29,1.11,.72,.96,1.55-.03,.14-.02,.21,0,.28l.03,.11-.02,.03s.07-.07,.08-.1c0-.08,0-.17,0-.25l.03-.12v-.45c0-.19-.03-.4-.17-.69-.19-.39-.98-.61-1.46-.73l-.15-.04c-.2-.06-.43-.09-.65-.09Zm-2.92,.87c.23,0,.45,.07,.65,.2,.16,.1,.26,.25,.36,.38,.06,.08,.11,.15,.18,.21l.25,.22-.28,.18c-.15,.09-.25,.21-.33,.36l.1-.12,.18,.09s.03,0,.05,0c.04,0,.08,0,.12,0l-.06-.03,.05-.3,.21-.14s.04-.01,.05-.02h-.05s-.12-.29-.12-.29v-.05c.03-.25-.01-.42-.13-.61v-.03s-.1-.09-.1-.09c-.33-.36-.94-.48-1.42-.54-.65-.08-1.08-.09-1.46-.04,.05,0,.11,0,.16,0,.34,0,.66,.05,.96,.09l.26,.04c.06,0,.11,.02,.17,.03l.93,.18-.83,.31s.06,0,.09,0Zm-9,1.16c.1,0,.22,0,.35,.03,.08-.24,.21-.47,.39-.67-.25-.05-.45-.13-.64-.21-.11-.04-.31-.02-.37,.06,0,.01-.03,.04-.01,.12,.03,.11,0,.24-.09,.33-.06,.08-.14,.13-.23,.15,.04,.06,.08,.13,.11,.21,.04,0,.08,0,.12,0,.12,0,.24-.01,.36-.01Zm12.67-.44c.38,0,.74,.11,1.07,.33,.06-.4-.14-.67-.71-.98-.33-.18-.98-.49-1.54-.49-.34,0-.58,.11-.75,.33,.11,.2,.14,.39,.15,.56,0,0,0,0,0,0,.29,0,.56,.06,.82,.12,.26,.06,.53,.12,.83,.12h.13Zm-16.7-.17c.16,.03,.28,.14,.33,.3-.02-.11-.05-.2-.09-.26-.03-.03-.05-.04-.09-.05-.05,0-.1,0-.15,0Zm2.4-1.48c.07,.08,.12,.15,.16,.22,.16,.24,.15,.52,.14,.77,0,.3,0,.38,.09,.41,.06,.03,.11,.05,.17,.08-.05-.21-.02-.44,.1-.64,.24-.42,.77-.7,1.23-.61,.13,.03,.25,.06,.37,.11,.15,.05,.3,.1,.45,.1,.05,0,.1,0,.15,0,.16-.01,.33-.01,.46,.02,.17,.05,.3,.13,.38,.25,.04,0,.08-.01,.12-.02,.14-.02,.29,0,.43,.02-.05-.17-.11-.34-.21-.5-.12-.18-.26-.26-.5-.26-.13,0-.27,.02-.41,.04-.14,.02-.27,.04-.4,.04h-.09c-.38,0-.73-.08-1.07-.15-.61-.13-1.15-.2-1.56,.11Zm3.52-.55c.41,0,.71,.16,.92,.48,.21,.32,.28,.64,.35,.95l.08,.37,.04-.08c.09-.79,.02-.93-.46-1.65-.12-.19-.29-.27-.56-.27-.19,0-.39,.04-.59,.08l-.12,.02c-.47,.09-.93,0-1.36-.07-.42-.07-.82-.14-1.16-.07-.1,.02-.18,.05-.27,.09,.4-.07,.84,.02,1.26,.11,.31,.07,.63,.14,.96,.14h.07c.11,0,.23-.02,.35-.04,.16-.02,.32-.05,.48-.05Zm-1.9,1.27c.1,0,.2,.03,.29,.06,.17,.07,.36,.14,.57,.18,.11,.02,.23,0,.34-.01,.08-.01,.16-.02,.24-.03h.08c-.06-.01-.15,0-.24,0-.06,0-.13,0-.19,0-.23,0-.43-.07-.61-.13-.1-.03-.2-.07-.3-.09-.05-.01-.11,0-.17,0Zm7.25,45.81c-.12,0-.22,0-.32,0h-.42s-1.16-35.48-1.16-35.48h1.01c.73,.02,1.46,.02,2.2,.02h1.39s-.94,35.42-.94,35.42h-.23c-.51,.04-1.02,.05-1.53,.06h0Zm-.26-.5c.08,0,.16,0,.24,0,.44,0,.87-.01,1.3-.03l.92-34.44h-.88c-.74,0-1.48,0-2.21,0h-.49s1.12,34.47,1.12,34.47Zm-3.51,.25l-.31-.04c-.38-.05-.75-.1-1.12-.15l-.54-.07c-.28-.04-.55-.07-.82-.11l-.19-.03-.02-.19L14.29,14.31h.29c.37,.03,.74,.04,1.11,.06,.9,.06,1.81,.11,2.71,.16h.22s2.98,35.41,2.98,35.41Zm-2.53-.84c.21,.03,.42,.06,.63,.09l.54,.07c.27,.04,.54,.07,.81,.11l-2.89-34.34c-.83-.04-1.67-.09-2.5-.15-.27-.02-.53-.03-.8-.04l4.21,34.26Zm11.08,.69l2.58-35.17h.22c1.27-.07,2.39-.15,3.44-.25l.31-.03-3.97,34.87-.29,.06c-.25,.05-.49,.1-.69,.16-.39,.1-.81,.2-1.29,.3l-.32,.06Zm3.05-34.69l-2.5,34.07c.34-.07,.64-.15,.93-.22,.19-.05,.42-.1,.66-.15l3.86-33.9c-.91,.08-1.88,.15-2.94,.2Z"/>
  <g>
    <path class="cls-1" d="M14.95,12.16h-.32l.02-.31c.04-.18,.06-.35,.03-.52v-.07s.02-.07,.02-.07c-.02-.33,.2-.54,.39-.69l.26-.2,.12,.3c.05,.13,.2,.25,.36,.14,.14-.09,.57-.27,.87-.27,.21,0,.33,.09,.38,.16,.05,.07,.11,.2,.06,.38-.04,.15-.11,.27-.16,.37-.04,.07-.08,.14-.11,.21l-.11,.29-.26-.17c-.11-.07-.25-.13-.41-.16-.31-.06-.84,.21-.95,.46l-.06,.13h-.14Zm1.31-1.06c.08,.02,.17,.04,.27,.08,0,0,.01-.02,.02-.03,.03-.06,.06-.11,.08-.16-.13,.02-.26,.06-.37,.11Z"/>
    <path class="cls-1" d="M16.14,14.02l-.54-.03c-.46-.02-.92-.05-1.38-.07-.38-.11-.74-.36-.73-.74v-.17s.17-.06,.17-.06c.23-.08,.45-.23,.63-.43l.06-.07h.1c.18-.15,.39-.15,.59-.15,.08,0,.18,0,.23-.01,.08-.03,.18-.14,.18-.18v-.17s.15-.09,.15-.09c.19-.09,.42-.09,.64-.01,.15,.05,.26,.15,.34,.26l.02-.05,.09,.24s.04,.1,.06,.14c0-.02,.01-.04,.02-.07l.26,.02,.16-.16,.07,.11s.02,.04,.03,.05c.08,.13,.19,.3,.14,.55-.09,.43-.64,.85-1.03,.89-.08,0-.15,.05-.2,.11l-.08,.1Zm-2.06-.71c.06,.04,.14,.09,.23,.12,.4,.02,.86,.04,1.31,.06h.3c.12-.09,.27-.16,.44-.18,.03,0,.07-.01,.1-.03l-.13-.56c-.05-.21-.16-.38-.26-.42-.05-.02-.09-.02-.15-.03-.08,.24-.31,.42-.5,.48-.12,.04-.25,.04-.38,.04-.08,0-.22,0-.25,.02-.05,.04-.11,.08-.18,.1-.16,.16-.34,.3-.53,.4Z"/>
    <path class="cls-1" d="M18.75,10.98l-.15-.45c-.07-.21-.2-.38-.38-.5-.62-.4-1.46-.43-2.16-.07l-.46,.23,.1-.51c.03-.14,.03-.27,.01-.39-.05-.32-.14-.5-.4-.77l-.11-.1v-.18c.04-.24,.12-.48,.24-.78l.12-.31,.26,.2c.12,.09,.34,.14,.54,.12,.11-.01,.22-.03,.33-.04h.08c.09-.03,.18-.04,.27-.04l.3-.02-.03,.3s-.01,.07-.02,.1l-.06,.13c-.08,.09-.15,.23-.21,.38l.18,.27c.13,.19,.55,.28,.84,.19,.16-.05,.3-.16,.45-.29,.09-.08,.19-.15,.28-.22,.24-.16,.5-.11,.64,.09,.24,.34,.18,1.15,.12,1.31-.02,.05-.02,.09,0,.14l.03,.11-.06,.09s-.03,.05-.04,.09l-.05,.08c-.14,.14-.26,.3-.38,.45l-.29,.37Zm-1.05-1.7c.28,.07,.55,.18,.79,.34,.16,.1,.3,.23,.4,.38,.04-.05,.09-.1,.13-.15,0-.02,.01-.03,.02-.04-.01-.11,0-.22,.04-.32,.04-.14,.04-.63-.03-.81-.09,.06-.16,.12-.23,.17-.17,.14-.37,.3-.62,.38-.15,.05-.33,.06-.5,.06Zm-1.98-1.05c.26,.28,.42,.54,.49,1,0,.04,.01,.09,.01,.13,.13-.04,.27-.08,.41-.1-.08-.06-.13-.14-.15-.2-.14-.3-.02-.75,.14-1.09-.07,0-.13,.02-.2,.03-.21,.02-.43,0-.61-.07-.04,.11-.07,.21-.1,.31Z"/>
    <path class="cls-1" d="M20.45,14.22l-.74-.03c-.31,0-.63-.02-.94-.04l-1.58-.08,1.53-.41c.1-.03,.25-.06,.4-.1,.21-.05,.49-.12,.56-.15,.3-.13,.53-.29,.65-.45,.07-.1,.03-.25-.06-.47-.07-.19-.07-.32-.02-.43,.04-.07,.11-.17,.27-.22l.38-.12-.05,.39c-.01,.08,.01,.15,.08,.22,.04,.04,.1,.08,.18,.14,.25,.18,.53,.39,.55,.66,0,.12-.03,.23-.11,.32-.13,.14-.33,.2-.5,.26-.05,.02-.1,.03-.14,.05-.19,.08-.32,.19-.37,.31l-.07,.16Zm.4-1.3c0,.11-.05,.23-.12,.34,0,.01-.02,.02-.03,.04,.05-.02,.12-.04,.18-.06,.07-.02,.17-.05,.23-.09-.06-.07-.18-.16-.26-.22Z"/>
    <path class="cls-1" d="M18.64,13.37l.06-.32c.08-.42,0-.85-.19-1.1l-.09-.12,.06-.14c.12-.26,.18-.55,.18-.82v-.1s.07-.07,.07-.07c.12-.13,.26-.27,.39-.4l.22-.21,.16,.26s.04,.06,.07,.09l.6-.23c.35-.13,.69,.2,.83,.51,.11,.25,.28,.43,.58,.6,.14,.08,.31,.13,.49,.18,.17,.05,.35,.09,.53,.18,.22,.11,.37,.3,.41,.55l.04,.19-.18,.08c-.11,.05-.21,.11-.29,.19l-.26,.24-.14-.33c-.14-.34-.42-.56-.84-.68l-.07-.03s-.08-.04-.12-.04h-.04s-.07,0-.07,0c-.09-.01-.18-.02-.27-.02-.4,0-.5,.16-.55,.3q-.06,.18-.05,.39c0,.06,.01,.09,.02,.13,.07,.21,0,.36-.22,.47-.32,.17-.58,.19-.87,.21l-.46,.04Zm.35-1.6c.17,.28,.25,.66,.24,1.05,.16-.02,.3-.04,.46-.12,0-.04-.02-.08-.02-.14-.02-.27-.02-.33,.07-.58,.08-.25,.33-.67,1.06-.65-.11-.12-.19-.26-.26-.41h0c-.08,.13-.21,.24-.35,.27-.37,.09-.7-.04-.89-.33,0,0-.01-.01-.02-.02-.04,.04-.08,.08-.12,.12,0,.27-.06,.54-.17,.8Z"/>
    <path class="cls-1" d="M25.2,14.33h-.24l-.04-.21c-.02-.11-.01-.23-.01-.31,0-.42,.06-.84,.74-1.02,.31-.08,.64,0,.88,.09,.17,.06,.33,.11,.5,.09h0c.3,0,.37,.28,.41,.43,.09,.18,.2,.27,.36,.39,.06,.05,.08,.07,.11,.1l.41,.42-3.13,.02Zm.75-1.08c-.05,0-.11,0-.16,.02-.35,.09-.37,.2-.37,.5,0,.02,0,.04,0,.06h1.69c-.03-.05-.06-.1-.09-.15-.02-.04-.04-.09-.05-.15,0-.01,0-.03-.01-.05-.22,0-.41-.07-.58-.13-.15-.05-.29-.1-.43-.1Z"/>
    <path class="cls-1" d="M28.43,14.31l-.07-.14s0,0-.01-.02c-.07-.07-.12-.15-.15-.23-.02-.04-.05-.1-.07-.11-.04-.03-.09-.07-.14-.1-.19-.14-.42-.31-.5-.56-.05-.17-.09-.22-.26-.29-.04,0-.08,.01-.12,.02-.05,0-.09,.01-.12,.01h0c-.07,0-.13-.02-.17-.03l-1.05-.3,1.16-.2c.32-.05,.65-.11,.85-.21,.35-.18,.66-.56,.81-.97l.12-.35,.28,.24c.17,.14,.31,.29,.44,.43,.09,.11,.14,.23,.13,.37-.02,.32-.33,.58-.57,.79-.06,.05-.12,.1-.15,.14-.1,.11-.15,.26-.15,.46,.01,0,.1,.16,.15,.24,.14,.23,.21,.35,.12,.5v.24s-.36,.07-.36,.07h-.16Zm-.62-1.63c.07,.09,.12,.2,.16,.33,.02,.07,.11,.15,.21,.22,0-.31,.1-.57,.28-.77,.04-.05,.11-.11,.19-.18,.1-.09,.4-.35,.4-.45-.05-.05-.1-.1-.15-.15-.21,.39-.53,.72-.9,.91-.06,.03-.13,.06-.2,.08Z"/>
    <path class="cls-1" d="M28.79,14.31l.32-.41c.08-.1,.1-.2,.06-.34-.02-.05-.11-.12-.17-.17-.11-.1-.15-.18-.15-.27,0-.22,.19-.45,.55-.8,.03-.03,.06-.06,.07-.07,.12-.13,.16-.26,.15-.4v-.12s.08-.08,.08-.08c.27-.24,.71-.57,1.1-.48,.46,.11,.9,.62,.94,1.09l.02,.22-.22,.04c-.16,.04-.26,.18-.3,.26l-.09,.17-.18-.04c-.1-.02-.13-.03-.16-.03-.59,0-.98,.4-1.17,1.19l-.04,.18-.28,.05h-.53Zm.59-1.24s.06,.06,.09,.09c.31-.5,.76-.77,1.33-.77,.04,0,.07,0,.1,0,.08-.11,.18-.19,.29-.26-.1-.23-.33-.44-.51-.48-.12-.02-.28,.05-.57,.29-.01,.23-.1,.45-.28,.64-.02,.02-.05,.05-.09,.09-.18,.17-.3,.3-.36,.38Z"/>
    <path class="cls-1" d="M32.45,14.23l-.08-.1c-.08-.1-.15-.22-.22-.33-.05-.09-.1-.17-.15-.22-.2-.25-.41-.41-.63-.48l-.63-.22,.62-.25c.08-.03,.16-.05,.24-.05h.1c.06,.01,.13,.03,.19,.04,.13,.03,.19,.07,.29-.02,0-.04-.15-.1-.38-.1h-.27v-.27c.01-.35-.21-.75-.51-.9-.39-.19-.77,.03-1.16,.3l-.21,.14-.14-.21c-.12-.18-.33-.35-.57-.48l-.28-.15,.21-.24c.38-.43,.41-1.01,.37-1.41v-.13s.09-.09,.09-.09c.3-.25,.59-.38,.91-.41l.09,.49c-.18,.05-.31,.15-.37,.27-.06,.11-.06,.25,0,.42,.04,.11,.1,.2,.17,.26,.21,.26,.46,.36,.67,.3l.14-.04,.11,.11c.16,.16,.35,.31,.56,.45,.09,.06,.19,.11,.3,.17,.45,.25,1.06,.59,1.07,1.21,0,.12,.09,.2,.16,.23l.2,.1-.08,.21c-.12,.31-.12,.65,0,1.03l.09,.31-.9,.03Zm-.19-1.11s.08,.09,.12,.14c.06,.07,.12,.17,.19,.28,.04,.06,.08,.12,.12,.18h.02c-.05-.3-.04-.58,.03-.85-.03-.03-.06-.06-.09-.09-.03,.08-.08,.14-.15,.2-.07,.06-.15,.11-.24,.14Zm-.25-1.1c.19,.03,.34,.08,.45,.16-.08-.2-.3-.36-.54-.5,.04,.11,.07,.23,.09,.34Zm-2.59-1.2c.13,.09,.24,.19,.34,.29,.16-.11,.33-.2,.51-.26-.18-.08-.35-.21-.49-.38-.04-.04-.09-.09-.13-.14-.05,.18-.13,.35-.23,.5Z"/>
    <path class="cls-1" d="M38.95,13.68v-.3c0-.06,0-.1,0-.14-.04-.15-.11-.28-.19-.35-.39-.36-.4-.7-.41-1.03,0-.08,0-.16,0-.24-.04-.51-.45-1.12-.99-1.18l-.36-.04,.2-.44,.08-.03c.05-.04,.1-.07,.14-.1v-.34s0-.12,0-.12l.09-.11c.23-.23,.58-.39,1.02-.49,.28-.06,.54-.04,.79,.07,.12,.08,.18,.13,.25,.18l.07,.06v.09c.02,.06,.04,.11,.07,.14,.12,.14,.26,.27,.4,.4l.06,.07c.05,.07,.09,.16,.13,.25l.04,.1c.02,.07,.04,.14,.05,.22,0,.06,.03,.1,.08,.16l.31,.38-.49,.03c-.24,.05-.44,.12-.57,.26-.55,.58-.35,1.12,.02,1.95l.03,.09,.05,.25-.37,.12-.48,.08Zm-.98-3.55c.5,.3,.83,.91,.87,1.45,0,.1,0,.19,.01,.27,0,.15,0,.27,.04,.38-.07-.46,.02-.92,.45-1.38,.16-.17,.36-.27,.55-.33,0-.03-.01-.06-.02-.09,0-.04-.02-.08-.03-.12-.05-.11-.08-.17-.11-.23-.14-.12-.28-.26-.42-.42-.07-.08-.12-.18-.15-.29-.04-.03-.07-.06-.11-.08-.07-.02-.25-.05-.43-.01-.03,0-.05,.01-.08,.02,.36,.13,.68,.38,.83,.66,.06,.12,.06,.26-.02,.39-.14,.22-.47,.26-.62,.06-.16-.21-.5-.25-.76-.25h0Z"/>
    <path class="cls-1" d="M33.44,14.19h-.22l-.03-.22c-.05-.39-.08-.88,.1-1.27l.04-.09,.09-.04c.06-.02,.09-.06,.11-.14l.02-.1,.09-.05c.2-.12,.44-.16,.76-.12l.21,.03c.13,.02,.26,.04,.4,.04h.15s.02,.05,.02,.05c.14-.05,.33-.1,.52-.1l-.28-.04,.29-.35c.07-.08,.11-.16,.16-.23,.09-.15,.19-.32,.43-.53,.08-.06,.12-.07,.16-.09l.57-.3-.17,.58c-.02,.06-.03,.15,.02,.24,.31,.58,.37,1.38,.16,2.09-.03,.09-.07,.18-.13,.28l-.07,.1-.86,.08-.05-.17-.1,.09,.06-.23c-.04-.15-.08-.29-.16-.4-.38-.45-1.06-.57-1.51-.24-.35,.25-.48,.64-.53,.91l-.03,.16-.24,.04Z"/>
    <path class="cls-1" d="M33.88,10.65l-.28-.29c-.07-.07-.13-.11-.22-.12-.17-.03-.34-.04-.57-.05-.31,0-.45-.35-.51-.48l-.19-.44,.3,.07c.11-.55,.54-1.2,1.05-1.34,.1-.03,.21-.04,.35-.04l.56,.02-.28,.38c-.12,.16-.16,.35-.12,.49,.09,.27,.38,.37,.78,.44,.11,.02,.21,.04,.32,.06l.28,.05-.13,.56-.28-.03c-.17-.07-.32-.12-.48-.06-.23,.09-.39,.24-.46,.41l-.14,.38Zm-.88-.95c.15,0,.3,.02,.46,.04,.09,.01,.16,.04,.24,.08,.08-.1,.17-.19,.28-.27-.2-.11-.38-.29-.47-.55-.05-.15-.06-.31-.03-.47-.3,.18-.57,.68-.59,1.01,0,.05-.02,.1-.04,.14,.01,.02,.02,.02,.02,.02,.04,0,.09,0,.13,0Z"/>
    <path class="cls-1" d="M33.83,12.05l.2-.4c.04-.08,.07-.16,.08-.24,.02-.31-.09-.49-.3-.78l-.16-.22,.24-.13,.07-.11c.04-.08,.08-.15,.13-.21v-.02s.02,0,.02,0c.15-.19,.35-.29,.58-.29h0c.16,0,.28,.04,.38,.06l.27,.08-.11,.26c-.1,.23-.05,.43,.13,.59,.14,.12,.27,.16,.43,.12l.76-.18-.51,.59c-.07,.08-.14,.18-.21,.28-.32,.52-.69,.59-.98,.59-.08,0-.16,0-.25-.01-.11,0-.21-.02-.33,0l-.44,.04Zm.77-.53s.03,0,.04,0c.25,.02,.47,.1,.74-.3-.12-.04-.24-.11-.35-.21-.26-.23-.38-.54-.34-.87-.17,.02-.27,.19-.32,.34l-.02,.06c.16,.24,.28,.52,.26,.91,0,.02,0,.05,0,.07Z"/>
    <path class="cls-1" d="M32.97,8.49l-.45-.21s.02-.06,.03-.09l.03-.11,.12-.09-.11-.18,.03-.02-.06-.3c-.03-.15-.08-.28-.15-.41-.08-.15-.18-.3-.32-.49l-.4-.53,.65,.13s.07-.07,.08-.1c0-.08,0-.17,0-.25v-.09s.06-.07,.06-.07c.03-.03,.06-.06,.09-.09l.26-.29,.18,.25c.2,.27,.55,.37,1.03,.43,.17,.02,.5,.09,.89,.21l.06,.03c.57,.36,1.42,.9,1.46,1.73l.02,.37-.35-.13c-.37-.13-.83-.21-1.31-.21h-.5c-.47,0-.81,.04-1.17,.28-.06,.04-.12,.12-.18,.22Zm1.35-1h.5c.27,0,.64,.03,1.02,.12-.18-.32-.55-.6-.97-.87,0,0,0,.02,0,.03-.02,.18-.17,.33-.36,.33-.1,0-.18-.01-.26-.02-.18-.02-.37-.04-.54-.01-.06,.01-.09,.02-.11,.03,0,0,0,.04,0,.12,0,.11,0,.22-.04,.35,.26-.06,.52-.07,.75-.07Zm-1.64-.93c.04,.06,.07,.11,.1,.16,0-.02,.02-.04,.03-.05,.12-.17,.27-.29,.44-.36-.12-.04-.23-.1-.33-.17,0,.12-.07,.25-.18,.36-.02,.02-.04,.04-.06,.06Z"/>
    <path class="cls-1" d="M32.13,6.52l-.24-.19c-.33-.35-.69-.52-1.1-.52h-.13c-.35,0-.65-.06-.94-.13l-.23-.05,.05-.5h0c.2,0,.41-.04,.62-.08,.17-.03,.34-.07,.5-.08,.15-.01,.3-.04,.45-.06,.28-.04,.58-.09,.87-.09h.15l.09,.13c.14,.25,.18,.52,.12,.82-.03,.14-.02,.2,0,.28l.03,.11-.24,.35Zm-.81-1.13c.19,.06,.37,.14,.54,.26,.02-.12,.01-.22-.02-.31-.17,0-.35,.03-.52,.06Z"/>
    <path class="cls-1" d="M29.31,9.52l-.14-.58c-.03-.14-.07-.28-.12-.42-.09-.23-.45-.26-.84-.26-.25,0-.36-.09-.42-.16-.16-.18-.13-.44-.11-.63,0-.05,.01-.13,.01-.15-.03-.07-.08-.14-.12-.21l-.06-.09,.02-.1c.06-.27,.2-.53,.39-.75l.12-.14,.18,.09s.04,0,.05,0c.09-.01,.17-.01,.25,0l.19,.08,.03,.1c.06,.15,.17,.29,.34,.42l.13,.1h0s.03,.01,.03,.01c.24,.16,.53,.27,.73,.35,.35,.13,.64,.18,.99,.16,.08,0,.15-.01,.21-.02h.12s.14,.07,.14,.07c.21,.21,.38,.46,.52,.75,.04,.09,.14,.11,.22,.11h.32l-.02,.31c-.02,.09-.04,.17-.05,.24l-.1,.51-.34-.4c-.3-.35-.87-.48-1.26-.49h0c-.48,0-.81,.19-1.08,.61l-.32,.5Zm-.98-1.74c.44,0,1,.07,1.19,.57,0,0,0,0,0,0,.31-.3,.7-.45,1.17-.45,.18,0,.38,.02,.58,.07-.04-.06-.09-.11-.13-.17-.06,0-.11,.01-.16,.01-.42,.03-.79-.03-1.2-.19-.17-.07-.4-.16-.63-.29-.17,.1-.4,.04-.49-.11-.04-.08-.05-.17-.03-.26-.12-.12-.22-.24-.29-.37h0s-.09,0-.13,0c-.07,.1-.13,.21-.16,.33,.03,.06,.07,.13,.1,.2,.05,.12,.04,.25,.02,.39,0,.08-.02,.22,0,.26,.05,0,.11,0,.17,0Z"/>
    <path class="cls-1" d="M27.73,7.23l-.37-.35c-.07-.07-.15-.14-.25-.22-.31-.26-.72-.31-1-.31-.55,0-1.15,.21-1.56,.54l-.42,.34v-.54c.02-.52-.09-.99-.29-1.22l-.09-.11,.05-.13c.06-.16,.12-.32,.21-.46l.19-.34,.23,.32c.06,.08,.12,.14,.19,.2,.3,.23,.7,.25,1.18,.06l.47-.18-.02,.09s.09-.06,.15-.09l.23-.12,.11,.24c.06,.12,.11,.2,.18,.27,.25,.25,.6,.31,1.1,.19l1.24-.3-1.04,.74c-.26,.19-.4,.46-.45,.91l-.05,.5Zm-3.34-1.85c.12,.23,.2,.52,.24,.85,.33-.18,.71-.31,1.09-.36-.03-.11-.05-.21-.05-.31-.48,.12-.92,.06-1.27-.18Zm1.99,.48c.39,.04,.73,.16,1,.37,.03-.1,.07-.2,.12-.3-.37-.02-.67-.15-.92-.39-.04-.04-.08-.09-.12-.14-.05,.08-.07,.18-.06,.36,0,.04,0,.07-.02,.1Z"/>
    <path class="cls-1" d="M24.54,11.88l-.04-.26c-.06-.39-.31-.73-.73-1l-.18-.12h0s-.1-.03-.1-.03c-.1-.03-.22-.05-.33-.07l-.26-.04,.06-.26c.02-.07,0-.12-.03-.18-.1-.17-.11-.38-.03-.6,.11-.3,.36-.59,.6-.68,.12-.04,.23-.08,.34-.12,.25-.08,.47-.15,.64-.29l.1-.05c.37-.09,.58-.24,.62-.46,.02-.15,.03-.25,.02-.36v-.08s-.01-.19-.01-.19l.18-.05c.18-.05,.33-.07,.5-.04,.61,.1,.67,.81,.71,1.28,0,.1,.02,.19,.03,.26,.04,.24,.17,.44,.35,.54,.03,.02,.16,.03,.24,.04,.26,.03,.59,.07,.75,.3,.06,.08,.12,.22,.08,.43-.02,.1,0,.18,.05,.24,.08,.1,.25,.15,.36,.11l.71-.25-.41,.62c-.24,.36-.67,.51-1.35,.48-.17,0-.34-.05-.51-.09-.29-.07-.6-.12-.77-.04-.19,.08-.29,.14-.46,.25-.02,.02-.09,.12-.13,.19-.13,.2-.25,.37-.43,.41l-.56,.12Zm-.31-1.55c.35,.27,.59,.6,.71,.96h.07s.07-.14,.11-.21c.1-.14,.18-.27,.28-.33,.19-.12,.32-.19,.53-.29,.07-.03,.14-.05,.22-.07h-.01c-.16-.1-.25-.23-.33-.34-.09-.12-.13-.18-.25-.21-.22-.05-.48-.07-.66-.04-.28,.05-.49,.21-.67,.52Zm2.28,.05c.17,.01,.34,.05,.5,.09,.15,.04,.3,.07,.43,.08,.17,0,.31,0,.43-.01-.05-.04-.1-.09-.14-.14-.15-.18-.21-.41-.16-.66-.04-.09-.3-.12-.41-.13-.16-.02-.3-.04-.41-.1,0,0-.02,0-.03-.01,.04,.2,.02,.42-.05,.67-.03,.09-.09,.17-.16,.21Zm-2.46-1.41s-.03,0-.05,.01c-.1,.03-.21,.07-.32,.11-.08,.03-.24,.19-.31,.38-.03,.08-.03,.15-.01,.18,.03,.05,.06,.11,.07,.16,.13-.32,.34-.63,.61-.85Zm1.05,.32c.18,0,.38,.02,.57,.06,.31,.07,.45,.27,.55,.41,0,0,.01,.02,.02,.03,.01-.15-.01-.27-.08-.37-.14-.19-.48-.3-.93-.3-.12,0-.24,0-.35,.02-.37,.04-.65,.29-.83,.59,.18-.2,.43-.36,.77-.43,.09-.02,.19-.02,.29-.02Zm.13-.66c.3,0,.66,.04,.96,.19-.02-.07-.04-.14-.05-.21-.01-.08-.02-.18-.03-.29-.04-.42-.09-.8-.3-.83-.03,0-.05,0-.08,0,0,.12-.02,.22-.03,.32-.05,.3-.25,.68-.94,.86,0,0,0,0-.01,0,.03,0,.05,0,.08-.01,.13-.01,.27-.02,.41-.02Z"/>
    <path class="cls-1" d="M20.54,7.15l-.18-.12c-.07-.05-.14-.07-.22-.07h0c-.21,0-.93,.07-1.04,.1l-.07-.22-.28-.04c.01-.09,0-.16-.03-.24l-.02-.06v-.07c.11-.56,.4-.98,.88-1.24l.33-.18,.04,.38c.03,.35,.23,.65,.55,.81,.11,.06,.22,.08,.35,.08h1.23l-1.08,.48c-.11,.04-.2,.11-.3,.23l-.15,.16Zm-1.33-.69s.01,.04,.02,.06c.18-.03,.42-.05,.75-.06-.2-.17-.35-.38-.44-.62-.17,.16-.27,.37-.33,.63Z"/>
    <path class="cls-1" d="M22,9.97l-.19-.14,.15-.2-.18,.18c-.06-.04-.11-.08-.17-.13-.16-.13-.36-.24-.55-.29l-.2-.05,.02-.21s0-.07-.01-.08l-.05-.06v-.07c-.02-.11-.03-.25-.04-.39-.03-.4-.06-.89-.2-1.22l-.06-.14,.1-.12c.14-.17,.27-.29,.55-.35,.28-.06,.75,.05,.94,.37,.04,.07,.07,.15,.08,.22l.33,.08c-.01,.06-.03,.12-.05,.18-.08,.28-.15,.62-.03,.88l.04,.09-.03,.09c-.03,.13-.02,.23-.02,.33,0,.29,.02,.65-.27,.86l-.15,.19Zm-.64-1.02c.2,.07,.39,.18,.56,.32,.02-.09,.02-.23,.01-.34,0-.13,0-.25,.01-.37v-.04c-.06-.2-.07-.4-.05-.6-.09-.02-.16-.08-.21-.15-.07-.11-.07-.24,0-.37,.03-.06,.02-.08,0-.09-.05-.08-.22-.15-.36-.15-.12,.02-.18,.04-.23,.08,.13,.39,.16,.85,.18,1.23,0,.11,.01,.22,.02,.31,.03,.05,.05,.1,.06,.16Z"/>
    <path class="cls-1" d="M18.86,6.54l-.34-.21c-.12-.07-.43-.08-.73-.06-.11,0-.21,.01-.3,.01h-.21l-.06-.21c-.12-.32-.23-.42-.52-.55-.4-.18-.39-.58-.39-.88v-.17s.16-.06,.16-.06c.05-.02,.1-.05,.11-.15,.03-.21,.12-.4,.26-.56l.24-.27,.17,.32s.05,.07,.09,.09c.15,.07,.31,.13,.49,.18l.61,.16-.38,.21c.13,0,.25,.02,.36,.06,.17,.07,.36,.14,.57,.18,.11,.02,.23,0,.34-.01,.08-.01,.16-.02,.24-.03h.16s.2,.34,.2,.34l-.2,.14c-.45,.26-.76,.67-.8,1.06l-.04,.4Zm-.74-.79c.1,0,.22,0,.35,.03,.08-.24,.21-.47,.39-.67-.25-.05-.45-.13-.64-.21-.11-.04-.31-.02-.37,.06,0,.01-.03,.04-.01,.12,.03,.11,0,.24-.09,.33-.06,.08-.14,.13-.23,.15,.04,.06,.08,.13,.11,.21,.04,0,.08,0,.12,0,.12,0,.24-.01,.36-.01Zm-1.32-.96c0,.18,.03,.24,.09,.27,.06,.03,.11,.05,.17,.08-.03-.13-.03-.27,0-.41,.04-.14,.1-.27,.2-.38-.05-.02-.1-.04-.14-.07-.01,0-.02-.01-.04-.02,0,.02,0,.04-.01,.06-.03,.2-.12,.36-.27,.47Z"/>
    <path class="cls-1" d="M15.41,8.53l-.33-.15c-.13-.06-.28-.1-.42-.15-.34-.1-.7-.21-.91-.51-.28-.4-.56-.63-.86-.74l-.13-.04-.03-.13c-.01-.05-.02-.07-.03-.09-.2-.32-.24-.66-.12-.99,.21-.58,.9-.99,1.43-1.16,.21-.07,.45-.08,.69-.1,.34-.02,.69-.04,.87-.21l.18-.18,.17,.19c.22,.24,.18,.57,.15,.84-.02,.13-.03,.27,0,.35,.04,.13,.18,.21,.41,.32l.73,.37-.73,.13c-.14,.03-.25,.06-.36,.11l-.23,.15-.14-.1c-.21-.16-.45-.18-.66-.13-.08,.02-.17,.04-.25,.04-.16,0-.26-.07-.31-.13-.07-.07-.09-.17-.1-.25,0,0,0,.01,0,.02-.02,.13-.04,.23-.01,.33,.02,.06,.12,.13,.23,.15,.12,.02,.2,.01,.36-.03,.19-.06,.4,0,.58,.05l.27,.09-.13,.26c-.15,.31-.24,.75-.27,1.34l-.02,.37Zm-1.88-1.76c.22,.16,.42,.38,.62,.66,.11,.15,.37,.23,.64,.32,.05,.02,.11,.03,.16,.05,.04-.34,.09-.64,.18-.89-.27,.07-.39,.08-.59,.04-.23-.04-.52-.19-.62-.49-.07-.22-.03-.42,0-.57,.02-.1,.03-.18,.03-.26-.07,0-.3,.16-.35,.22-.07,.21-.11,.39-.03,.61,.03,.1,.02,.21-.03,.3Zm1.72-.99c.17,0,.33,.03,.47,.09-.06-.08-.11-.16-.14-.27-.05-.18-.03-.36,0-.54,0-.08,.02-.16,.02-.23-.25,.11-.55,.13-.82,.15,.15,.26,.17,.61,.14,.86,.02,0,.04,0,.06-.01,.09-.02,.19-.04,.28-.04h0Zm-1.17-.63c.16,.03,.28,.14,.33,.3-.02-.11-.05-.2-.09-.26-.03-.03-.05-.04-.09-.05-.05,0-.1,0-.15,0Z"/>
    <path class="cls-1" d="M11.37,13.48c-.2,0-.39-.09-.55-.26l-.14-.15,.25-.35c.28-.41,.61-.89,1.23-.8,0,0,.03-.04,.02-.06-.12-.06-.24-.09-.35-.09-.29,0-.47,.21-.58,.39-.44,.72-1.03,1.04-1.83,.98-.32-.02-.47-.29-.56-.47-.04-.07-.09-.17-.13-.19-.39-.19-.67-.36-.94-.63l-.5-.53,.72,.11c.4,.06,.93-.06,1.29-.13l.14-.03c.23-.05,.63-.18,.77-.56,.03-.08,.05-.28,.07-.47,.07-.57,.14-1.15,.53-1.3,.15-.05,.3-.09,.44-.13l.77-.2-.52,.6c-.19,.22-.36,.54-.48,.89l-.08,.12s-.05,.08-.02,.18h0v.02c.08,.17,.27,.29,.4,.19l.27-.25,.15,.32c.06,.14,.18,.26,.37,.35,.07,.03,.14,.06,.22,.08l.15,.04,.03,.15c.01,.07,.09,.4,.29,.4h.08l.34,.19-.17,.24c-.28,.36-.92,.68-1.03,.73-.18,.07-.2,.23-.2,.32v.17s-.16,.06-.16,.06c-.11,.04-.21,.07-.31,.07Zm-2.66-1.57c.07,.04,.15,.08,.24,.12,.18,.09,.28,.26,.35,.41,.06,.12,.11,.2,.16,.2,.62,.04,1.03-.18,1.37-.74,.2-.33,.48-.54,.79-.61-.07-.05-.12-.12-.17-.18-.26,.08-.56,0-.77-.22-.17,.44-.58,.75-1.13,.86l-.14,.03c-.2,.04-.44,.09-.7,.13Z"/>
    <path class="cls-1" d="M14.63,10.96l-.22-.13c-.11-.06-.25-.11-.39-.16-.35-.12-.87-.3-.8-.9,.05-.47-.13-.76-.57-.91-.17-.06-.33-.08-.47-.05l-.54,.08,.34-.54s.01-.04,.02-.07l.03-.14,.15-.08c.27-.09,.53-.07,.76,.06,.15,.08,.3-.01,.35-.07l.21-.24,.18,.26c.1,.15,.2,.24,.42,.29,.4,.08,.66,.2,1.01,.46,.29,.21,.36,.46,.38,.63,.02,.34-.17,.72-.59,1.13-.06,.06-.1,.12-.14,.18l-.13,.22Zm-1.37-2.34c.35,.27,.51,.69,.46,1.2-.02,.18,.06,.23,.47,.37,.09,.03,.19,.06,.28,.1,.03-.03,.05-.06,.08-.09,.3-.29,.45-.55,.44-.74,0-.03-.01-.14-.17-.26-.3-.22-.49-.31-.82-.37-.27-.05-.44-.17-.57-.29-.05,.03-.11,.05-.16,.07Z"/>
  </g>
</svg>