<?xml version="1.0" encoding="UTF-8"?>
<svg id="Layer_1" data-name="Layer 1" xmlns="http://www.w3.org/2000/svg" viewBox="0 0 48 51">
  <defs>
    <style>
      .cls-1 {
        fill: #fff;
      }
    </style>
  </defs>
  <g>
    <path class="cls-1" d="M23.33,5.6l-.37-.14q-.4-.15-.83-.19l-.89-.08,.77-.51c.61-.41,1.03-.68,1.29-.68h.06l.1,.04c.21,.11,.42,.12,.68,.14h.12c.15,.02,.3,.05,.44,.09,.07,.02,.14,.03,.22,.04l.73,.13-.66,.34c-.52,.27-1.04,.53-1.56,.78l-.1,.04Zm-.65-.77c.12,.03,.24,.07,.46,.16l.17,.06c.26-.12,.52-.25,.78-.38-.27-.02-.53-.04-.8-.17-.11,.03-.36,.18-.6,.33Z"/>
    <path class="cls-1" d="M24.17,24.31l-.32-.25s-.07-.05-.1-.08c-.32-.25-.68-.51-1.08-.79l-.19-.13,.11-.2c.83-1.46,1.16-3.47,1.44-5.24,.09-.55,.17-1.09,.27-1.59,.16-.84,1.22-6.69,1.25-6.93l.24,.03,.13-.22s0,0,0,0c.15,.09,.28,.16,.4,.23,1.06,.6,1.18,.78,.78,2.29-.32,1.19-.69,2.6-.98,4.03-.26,1.28-.57,2.57-.86,3.83-.36,1.52-.73,3.08-1.02,4.62l-.08,.4Zm-1.03-1.4c.25,.17,.48,.34,.69,.51,.28-1.42,.62-2.85,.95-4.24,.3-1.25,.6-2.54,.86-3.81,.29-1.45,.67-2.87,.99-4.07q.33-1.23-.54-1.72s-.07-.04-.11-.06c-.08,.75-.39,2.49-1.19,6.62-.1,.5-.18,1.03-.27,1.57-.28,1.74-.59,3.7-1.39,5.21Z"/>
    <path class="cls-1" d="M26.1,25.96l-.36-.32c-.47-.42-.95-.82-1.42-1.19l-.12-.09,.03-.15c.6-3.36,1.47-6.79,2.31-10.11l.29-1.14c.09-.36,.22-.74,.36-1.13,.23-.65,.47-1.33,.51-1.94l.03-.45,.43,.31c.63,.45,1.28,.92,.86,2.18-.58,1.75-.98,3.57-1.26,4.95-.15,.72-.3,1.44-.46,2.15-.46,2.11-.93,4.29-1.16,6.45l-.05,.48Zm-1.35-1.81c.32,.26,.64,.53,.96,.8,.25-2.03,.69-4.06,1.12-6.03,.15-.72,.31-1.43,.46-2.15,.29-1.4,.69-3.23,1.28-5.01,.25-.77,.03-1.08-.41-1.42-.1,.54-.29,1.1-.48,1.64-.14,.38-.26,.75-.35,1.09l-.29,1.14c-.83,3.26-1.68,6.63-2.28,9.93Z"/>
    <path class="cls-1" d="M14.3,20l-.32-.02c-.26-.02-.52-.04-.78-.04h-.27s.03-.28,.03-.28c.25-2.22,.72-4.5,1.52-7.39l.49,.11c-.13,.77-.24,1.53-.34,2.28-.04,.27-.08,.57-.13,.89-.2,1.3-.46,2.92-.24,4.14l.06,.32Zm-.82-.55c.07,0,.15,0,.22,.01-.05-.45-.05-.93-.03-1.42-.08,.48-.14,.94-.2,1.4Z"/>
    <path class="cls-1" d="M21.86,22.68l-.33-.19c-.57-.33-1.09-.61-1.58-.84l-.31-.15,.24-.25c.65-1.83,.87-3.99,1.07-6.09,.09-.93,.18-1.82,.3-2.67,.23-1.56,.46-3.17,.47-4.76l.02-.1-.05-.07,.02-.08c0-.73-.06-1.39-.17-2.01l-.08-.43,.41,.16c1.6,.61,1.46,1.82,1.3,3.11-.02,.21-.05,.42-.07,.64-.06,.73-.12,1.46-.17,2.19-.07,.91-.14,1.82-.22,2.73-.1,.98-.18,1.96-.27,2.94-.16,1.81-.33,3.67-.55,5.5l-.05,.38Zm-1.46-1.37c.33,.16,.68,.35,1.05,.56,.2-1.69,.35-3.42,.5-5.1,.09-.98,.17-1.97,.27-2.95,.09-.9,.16-1.81,.22-2.71,.05-.73,.11-1.46,.17-2.2,.02-.23,.05-.45,.07-.66,.13-1.11,.22-1.89-.58-2.38,.06,.49,.1,1,.11,1.56,.04,.11,.05,.23,0,.36-.01,1.61-.25,3.21-.47,4.77-.12,.85-.21,1.73-.3,2.66-.21,2.08-.42,4.24-1.05,6.1Z"/>
    <path class="cls-1" d="M18.05,20.86l-.27-.09c-.55-.18-1-.31-1.44-.42l-.23-.06,.04-.23c.2-1.1,.36-2.24,.52-3.33,.37-2.56,.75-5.21,1.64-7.74l-.04-.22,.21-.07c.24-.07,.49-.14,.74-.22,.64-.18,1.3-.38,1.92-.59l.54-.19-.23,.52c-.23,.52-.46,1.04-.7,1.55-.48,1.04-.99,2.11-1.34,3.25-.48,1.54-.67,3.02-.86,4.59-.12,.96-.25,1.96-.45,2.96l-.05,.28Zm-1.36-.93c.3,.08,.62,.17,.98,.28,.17-.89,.28-1.78,.39-2.65,.19-1.52,.39-3.1,.88-4.68,.36-1.17,.87-2.26,1.37-3.31,.16-.34,.32-.67,.47-1.02-.47,.15-.94,.29-1.4,.42-.19,.06-.38,.11-.57,.17,0,0,0,.02,0,.03-.87,2.47-1.25,5.1-1.61,7.64-.15,1.02-.3,2.08-.48,3.12Z"/>
    <path class="cls-1" d="M16.21,20.33l-.38-.08c-.25-.05-.49-.11-.74-.15-.12-.02-.23-.03-.35-.05l-.35-.04v-.21c-.17-2.46,.26-4.97,.68-7.4,.22-1.26,.45-2.57,.58-3.83,.09-.26,.16-.45,.24-.64l.15-.36,.27,.29c.38,.4,.89,.71,1.43,1.03,.6,.34,.27,1.71-.15,3.2-.06,.23-.12,.41-.14,.51-.11,.58-.23,1.16-.35,1.74-.39,1.87-.79,3.8-.87,5.71v.3Zm-1.36-.76c.1,.01,.21,.02,.31,.04,.19,.03,.37,.07,.56,.11,.11-1.85,.49-3.7,.87-5.49,.12-.58,.24-1.16,.35-1.74,.02-.11,.08-.3,.14-.55,.6-2.13,.5-2.56,.38-2.63-.44-.25-.89-.52-1.27-.85-.03,.08-.06,.15-.08,.23-.12,1.22-.35,2.53-.57,3.8-.4,2.33-.82,4.74-.7,7.08Z"/>
    <path class="cls-1" d="M19.86,21.59l-.32-.14c-.46-.2-.88-.37-1.27-.52l-.27-.1,.13-.25c.19-.93,.34-1.88,.49-2.79,.26-1.58,.52-3.22,.98-4.84,.45-1.59,1.11-3.14,1.69-4.51l.66-1.54-.18,1.67c-.12,1.1-.31,2.21-.49,3.28-.1,.55-.19,1.1-.27,1.64-.09,.62-.19,1.24-.29,1.85-.31,1.93-.63,3.93-.82,5.9l-.03,.35Zm-1.2-1.05c.25,.09,.5,.2,.77,.31,.2-1.87,.5-3.76,.79-5.59,.1-.62,.2-1.23,.29-1.85,.08-.54,.18-1.09,.27-1.65,.08-.44,.15-.89,.23-1.34-.34,.86-.67,1.76-.93,2.67-.45,1.59-.71,3.21-.96,4.79-.14,.87-.29,1.77-.46,2.67Z"/>
    <path class="cls-1" d="M22.73,23.23l-.3-.2c-.07-.04-.14-.09-.21-.13-.06-.04-.12-.07-.19-.11l-.14-.09,.03-.16c.74-4.28,.96-8.76,1.18-13.09,.06-1.29,.13-2.57,.2-3.84v-.21s.22-.03,.22-.03c.09-.01,.19-.04,.35-.11l.31-.14c.28-.13,.57-.26,.85-.39l.37-.17v.41c-.02,.48-.09,.96-.16,1.42-.12,.87-.24,1.69-.02,2.52l.04,.08v.05c0,2.16-.4,4.36-.78,6.48l-.1,.57-1.65,7.14Zm1.06-17.41c-.07,1.21-.13,2.43-.19,3.65-.2,4.05-.41,8.23-1.04,12.26l1.43-6.3c.37-2.08,.75-4.24,.77-6.33h0c-.27-.95-.14-1.88-.01-2.78,.04-.32,.09-.64,.12-.96-.16,.07-.32,.15-.48,.22l-.31,.14c-.11,.05-.2,.08-.28,.11Z"/>
    <path class="cls-1" d="M42.72,15.64l-.88-.23c-.71-.21-1.37-.42-2.01-.32l-.34,.05,.05-.34c.02-.13-.19-.37-.47-.54-.16-.1-.33-.22-.51-.37l-.97-.8,1.2,.37c.15,.04,.29,.09,.44,.14,.38,.13,.74,.25,1.12,.31,.72,.12,1.45,.31,1.9,.98,.04,.06,.08,.13,.12,.19l.34,.55Zm-2.54-1.08c.41,0,.82,.08,1.23,.2-.3-.19-.68-.28-1.13-.35-.13-.02-.26-.05-.39-.08,.05,.07,.1,.15,.13,.24,.05,0,.11,0,.16,0Z"/>
    <path class="cls-1" d="M44.47,20.98l-.61-.33c-.47-.26-.95-.53-1.39-.88-.24-.19-.49-.4-.73-.43l-.25-.03,.03-.25c-.03-.28-.08-.57-.19-.83-.02-.06-.04-.11-.06-.17-.03-.08-.06-.17-.1-.24l-.09-.17,.54-.49,.15,.07c.16,.08,.34,.12,.54,.17,.4,.1,.86,.22,1.18,.64,.25,.32,.38,.79,.49,1.19,.05,.17,.09,.34,.15,.48,.09,.24,.15,.48,.21,.72l.14,.56Zm-2.47-2.1c.29,.1,.55,.3,.74,.46,.31,.25,.62,.45,.95,.63-.01-.04-.02-.07-.04-.11-.06-.15-.11-.33-.16-.51-.11-.38-.22-.78-.41-1.03-.22-.28-.54-.36-.91-.46-.15-.04-.31-.08-.47-.14l-.02,.02s.03,.09,.05,.13c.02,.05,.04,.1,.06,.15,.11,.27,.17,.57,.21,.85Z"/>
    <path class="cls-1" d="M35.76,15.7l.65-1.5c.09-.2,.19-.38,.29-.56,.07-.13,.15-.26,.21-.4,.1-.21,.21-.43,.32-.64l.16-.32c.19-.24,.34-.42,.46-.6,.17-.25,.39-.5,.59-.73,.27-.31,.55-.64,.74-.96l.39-.7,.08,.79c.01,.15,.02,.3,.03,.44,.01,.15,.02,.3,.04,.45,.11,1.03-.36,1.71-.88,2.28l-.08,.13-.16,.02c-.28-.01-.55,0-.79,.03-.01,0-.02,.01-.04,.02,0,0,0,.02,0,.02v.12s-.11,.07-.11,.07c-.24,.15-.47,.37-.72,.68l-1.18,1.37Zm3.45-4.88c-.12,.15-.25,.3-.38,.45-.21,.24-.4,.46-.56,.69-.13,.19-.29,.39-.46,.59l-.13,.27s-.05,.1-.07,.14l.09-.03c.25-.04,.51-.05,.79-.05,.5-.55,.81-1.08,.73-1.86,0-.07-.01-.13-.02-.2Z"/>
    <path class="cls-1" d="M36.25,14.4l-.21-.72,.24-.07-.25,.04c-.02-.07-.04-.14-.06-.2l-.02-.08h0c-.42-.22-.78-.51-1.13-.79l-.5-.39,.32-.19c.36-.78,.89-1.49,1.4-2.18,.32-.42,.64-.86,.93-1.32l.12-.19,.2,.09c.35,.16,.69,.34,1.03,.52,.18,.09,.36,.19,.55,.28,.14,.07,.24,.2,.27,.35,.08,.43-.39,1.02-.89,1.58-.07,.08-.12,.14-.15,.17-.12,.16-.25,.33-.38,.5l-.24,.31c-.18,.2-.32,.39-.45,.63-.24,.36-.4,.67-.51,.96l-.27,.7Zm-1.14-2.24l.03,.02c.38,.31,.74,.59,1.17,.77,.08-.15,.18-.31,.29-.47,.14-.25,.3-.48,.5-.69l.23-.3c.13-.17,.26-.33,.38-.5,.03-.04,.09-.11,.17-.21,.72-.81,.79-1.07,.77-1.15-.19-.09-.37-.18-.55-.28-.27-.14-.54-.28-.82-.41-.26,.4-.55,.79-.83,1.16-.48,.64-.98,1.31-1.34,2.04Z"/>
    <path class="cls-1" d="M26.54,26.23l-.45-.26v-.13c.53-5.36,2.11-10.74,3.56-15.36v-.03s0,0,0,0l.02-.04c-.29-.18-1.48-.75-1.75-.75h-.16s-.13-.24-.13-.24v-.08s-.09-.06-.09-.06l.02-.15c.02-.19,.03-.39,.03-.58,.02-.79,.04-1.78,1.35-1.96,.73-.09,1.22,.01,1.53,.34,.27,.29,.37,.73,.33,1.36-.05,.73-.09,1.46-.13,2.18-.1,1.87-.2,3.8-.56,5.7l-.03,.08c-.49,.81-.95,1.64-1.38,2.42-1.01,1.83-1.39,3.74-1.79,5.76-.1,.5-.2,1-.31,1.51l-.07,.31Zm3.59-15.92c.03,.1,.03,.21,0,.32-.89,2.86-1.84,6.01-2.56,9.27,.19-.5,.42-1,.69-1.49,.43-.77,.88-1.59,1.37-2.4,.35-1.85,.45-3.75,.54-5.59,.04-.73,.08-1.46,.13-2.19,.03-.47-.03-.8-.2-.98-.19-.2-.57-.26-1.1-.19-.85,.11-.9,.58-.92,1.47,0,.17,0,.34-.02,.51,.03,.04,.05,.1,.06,.15,.54,.17,2.01,.72,2,1.06v.05Z"/>
    <path class="cls-1" d="M29.91,16.46l.21-1.21c.36-2.06,.55-4.06,.69-5.75,.02-.18,.05-.41,.1-.67,.11-.62,.24-1.4,.11-1.97l-.1-.49,.45,.21c.41,.19,.87,.36,1.3,.51l.64,.24-.08,.23c-.2,.58-.31,1.21-.41,1.82l-.16,.87c-.16,.82-.32,1.67-.22,2.46l.02,.02v.21s-.06,.07-.06,.07c-.61,.67-1.21,1.46-1.83,2.42l-.67,1.03Zm1.66-9.25c.03,.56-.08,1.18-.17,1.7-.04,.24-.08,.46-.09,.63-.12,1.39-.27,3-.52,4.68,.39-.54,.77-1.03,1.16-1.46-.11-.87,.06-1.75,.22-2.61l.16-.86c.1-.55,.19-1.12,.36-1.66l-.19-.07c-.31-.11-.63-.23-.94-.35Z"/>
    <path class="cls-1" d="M27.89,27.98l-.32-.43c-.31-.41-.69-.84-1.13-1.27l-.13-.13,.08-.16c.21-.42,.31-.95,.41-1.46,.06-.32,.12-.66,.22-.97,.64-2.16,1.27-3.96,2.28-5.71,1.2-2.09,2.28-3.62,3.51-4.95,.52-.56,.81-.83,1.16-.83,.31,0,.56,.21,.97,.54,.11,.09,.24,.19,.38,.31l.08,.07,.02,.13c.03,.26-.31,.76-2.24,3.05-.27,.32-.47,.56-.54,.65-.82,1.11-1.5,2.33-2.12,3.49-.53,.98-1.2,2.28-1.68,3.61-.28,.79-.44,1.62-.6,2.41-.07,.37-.14,.75-.23,1.13l-.12,.52Zm-.98-1.93c.26,.26,.5,.53,.72,.78,.04-.2,.08-.4,.12-.6,.16-.81,.32-1.65,.62-2.49,.49-1.36,1.17-2.68,1.71-3.67,.63-1.18,1.32-2.42,2.16-3.55,.06-.09,.28-.34,.56-.67,.56-.67,1.82-2.16,2.08-2.63-.1-.08-.18-.15-.26-.21-.31-.25-.53-.43-.66-.43-.16,0-.45,.3-.79,.67-1.2,1.3-2.26,2.8-3.44,4.86-.98,1.71-1.6,3.47-2.23,5.6-.09,.29-.14,.6-.21,.92-.09,.48-.18,.97-.37,1.42Z"/>
    <path class="cls-1" d="M23.8,48.73l-.32-.16c-.1-.05-.24-.12-.44-.19-2.02-.61-4.06-1.29-6.04-1.95l-.9-.3c-1.17-.39-2.34-.8-3.48-1.21-.66-.23-1.31-.47-1.97-.7l-.2-.07,.04-.21c.36-1.87,1.52-3.59,2.68-5.19,.11-.15,.24-.32,.38-.5,.65-.84,1.64-2.11,1.44-3-.02-.11-.09-.39-.72-.39-1.44,0-4.28,1.43-5.8,2.21-.24,.12-.45,.23-.62,.31l-.58,.29,.24-.6c.58-1.46,2.11-2.59,3.33-3.5,.18-.14,.36-.27,.53-.4,.55-.42,1.14-.83,1.71-1.23,1.15-.81,2.34-1.64,3.33-2.63,.03-.03,.05-.07,.05-.09-.24-.15-.53-.24-.92-.24-.2,0-.4,.02-.6,.04l-1.08,.11,.85-.56c.37-.24,.74-.47,1.1-.71l.79-.51s.07-.07,.07-.09c-.44-.72-1.2-1.05-2.47-1.05-.62,0-1.3,.08-1.95,.16-.86,.1-1.66,.19-2.35,.12l-.48-.05,.32-.36c2.12-2.41,5.64-4.11,8.97-4.34l.12-.09,.14,.05c1.6,.7,3.24,1.71,4.86,2.99,1.85,1.46,4.06,3.42,4.81,5.6l.16,.13-.22,.39c-.1,.27-.21,.56-.33,.85-.56,1.29-1.05,2.75-1.49,4.46-.24,.95-.53,1.92-.81,2.87-.66,2.25-1.34,4.57-1.55,6.85-.2,.86-.38,1.71-.54,2.57l-.06,.33Zm-12.78-4.9c.59,.21,1.18,.42,1.77,.63,1.13,.4,2.3,.82,3.46,1.21l.9,.3c1.98,.66,4.02,1.33,6.03,1.95,.09,.03,.17,.06,.25,.09,.14-.76,.3-1.51,.48-2.24,.21-2.3,.9-4.64,1.56-6.91,.28-.94,.56-1.91,.8-2.85,.45-1.74,.94-3.22,1.52-4.54,.12-.28,.23-.56,.34-.85l.06-.11s-.01-.03-.02-.04c-.71-2.06-2.86-3.95-4.65-5.37-1.55-1.22-3.11-2.19-4.64-2.87-.04,.02-.09,.03-.13,.03-3.02,.21-6.2,1.68-8.26,3.78,.52,0,1.1-.07,1.71-.14,.67-.08,1.36-.16,2.01-.16,.9,0,2.18,.13,2.89,1.29,.17,.28,.02,.61-.22,.76l-.8,.51c-.11,.07-.22,.14-.32,.21,.29,.02,.66,.1,1.02,.37,.1,.08,.17,.19,.18,.32,.01,.2-.09,.37-.19,.48-1.02,1.02-2.23,1.87-3.4,2.68-.56,.39-1.15,.8-1.69,1.22-.17,.13-.35,.26-.53,.4-.97,.72-2.14,1.59-2.82,2.62,1.68-.85,4.41-2.22,5.95-2.22,.85,0,1.13,.42,1.21,.78,.26,1.12-.77,2.45-1.53,3.42-.14,.18-.27,.34-.37,.49-1.08,1.49-2.17,3.09-2.55,4.78Z"/>
    <path class="cls-1" d="M4.37,23.12l-.08-.39c-.51-2.49-.71-5.21-.63-8.58,.04-1.48,.27-2.95,.5-4.38l.05-.29c.21-1.32,.33-1.48,1.14-1.59,.11-.02,.24-.03,.4-.06,.16,0,.25,.04,.31,.11,.31,.35,.26,1.86-.21,6-.06,.49-.1,.84-.1,.96-.11,2.3,.26,4.64,.61,6.66l.03,.17-.15,.09c-.56,.34-1.08,.7-1.55,1.07l-.32,.25Zm1.34-14.78c-.1,.02-.2,.03-.29,.04q-.54,.07-.72,1.17l-.05,.29c-.23,1.41-.46,2.87-.5,4.32-.08,3.15,.1,5.74,.54,8.08,.36-.26,.74-.52,1.14-.77-.35-2-.7-4.31-.59-6.6,0-.12,.05-.49,.1-.99,.14-1.22,.55-4.84,.36-5.54Z"/>
    <path class="cls-1" d="M4.11,39.05l-.5-.03c0-1.75-.09-3.51-.18-5.21-.14-2.66-.36-5.24-1.34-7.63l-.04-.1,.04-.1c.95-2.16,3.86-4,6.26-5,1.52-.63,3.44-.83,5.61-.6v.5c-.16,0-.31,.02-.46,.04-1.54,.2-2.99,.78-3.93,1.23-.48,.23-.99,.44-1.48,.64-1.37,.56-2.78,1.13-3.75,2.23-.48,.54-.29,1.21-.09,1.91l.04,.13c.44,1.56,.33,3.36,.24,4.95l-.04,.67c-.03,.53-.05,1.07-.07,1.61-.07,1.56-.14,3.18-.31,4.76Zm-1.52-12.96c.98,2.44,1.19,5.03,1.34,7.7,0,.03,0,.06,0,.09,.02-.41,.04-.81,.06-1.21l.04-.67c.09-1.55,.19-3.31-.22-4.79l-.04-.13c-.22-.76-.46-1.63,.19-2.38,1.04-1.19,2.51-1.79,3.94-2.37,.49-.2,.99-.4,1.46-.62,.6-.29,1.41-.63,2.31-.89-1.17,.05-2.22,.27-3.12,.64-2.28,.95-5.01,2.65-5.95,4.64Z"/>
    <path class="cls-1" d="M29.51,30.05l.19-.51c.42-3.63,2.53-7.28,4.38-10.51l.53-.92c.19-.33,.43-.65,.68-1,.42-.58,.86-1.17,1.02-1.75,.01-.05,.02-.1,.02-.15v-.07s.06-.06,.06-.06c.1-.12,.19-.25,.27-.38,.06-.09,.12-.17,.18-.26,.22-.3,.47-.59,.68-.83l.17-.19,.19,.18s.08,.07,.12,.1c.05,.04,.09,.08,.14,.12,.15,.14,.33,.26,.51,.38,.17,.11,.34,.2,.5,.29,.13,.07,.23,.15,.33,.24l.33,.27-.36,.18c-.07,.03-.1,.04-.13,.05-.83,.4-1.7,1.71-2.33,2.67-.18,.28-.35,.53-.5,.75-1.85,2.58-2.56,5.63-3.24,8.58-.15,.63-.29,1.27-.45,1.9l-.04,.16-.59,.11c-.72,.13-1.47,.26-2.16,.49l-.49,.16Zm7.31-14.7c0,.05-.02,.1-.03,.15-.18,.67-.65,1.3-1.1,1.92-.24,.33-.48,.64-.65,.95l-.53,.92c-1.78,3.09-3.78,6.57-4.28,10.02,.61-.17,1.23-.28,1.84-.39l.28-.05c.14-.58,.28-1.16,.41-1.74,.69-3,1.41-6.1,3.32-8.76,.15-.21,.31-.46,.49-.73,.65-.98,1.44-2.18,2.31-2.72-.16-.09-.33-.18-.49-.28-.21-.14-.42-.27-.6-.44-.02-.02-.04-.04-.06-.05-.16,.19-.33,.39-.49,.6-.06,.08-.11,.16-.17,.24-.08,.12-.17,.24-.25,.36Z"/>
    <path class="cls-1" d="M28.63,30.47l.14-.39-.09-.38c-.14-.56-.41-1.13-.79-1.72l-.07-.1,.04-.12c.19-.57,.37-1.14,.54-1.71,.53-1.73,1.04-3.36,1.88-5.02,1.43-2.84,3.24-5.32,5.37-7.39l.47-.46-.05,.65c-.01,.14-.02,.28-.02,.41-.04,.79-.09,1.61-.65,2.4-.62,.88-1.15,1.88-1.66,2.84-.14,.27-.29,.55-.43,.82-1.74,3.23-3.33,6.37-3.68,9.41l.16,.25-.37,.14c-.08,.03-.16,.06-.24,.1l-.54,.26Zm.44-1.56l.09,.45c.43-3.03,1.99-6.12,3.7-9.29,.14-.27,.29-.54,.43-.81,.52-.98,1.05-2,1.69-2.9,.43-.6,.5-1.21,.54-1.9-1.89,1.93-3.51,4.22-4.81,6.8-.82,1.63-1.32,3.24-1.85,4.95-.16,.53-.33,1.07-.5,1.61,.27,.41,.48,.82,.63,1.23l.08-.13Z"/>
    <path class="cls-1" d="M34.41,29.04l.21-.43c.49-1,.87-2.08,1.25-3.12,.18-.5,.36-1,.55-1.5l.03-.07,.07-.04c1.11-1.27,2.32-2.6,3.83-3.61,.84-.56,1.38-.79,2.36-.09,.31,.22,.64,.37,1,.53,.13,.06,.26,.12,.39,.18l.58,.27-.61,.19c-1.8,.56-3.61,2-5,3.19-1.73,1.5-2.76,2.88-2.98,4.02l-.03,.15-.15,.04c-.3,.08-.63,.15-1.02,.21l-.48,.08Zm2.45-4.8c-.18,.47-.35,.95-.52,1.42-.32,.9-.66,1.83-1.06,2.72,.12-.03,.24-.05,.35-.08,.3-1.22,1.34-2.62,3.11-4.15,1.27-1.1,2.9-2.4,4.58-3.08-.31-.14-.62-.29-.91-.5-.78-.56-1.06-.4-1.79,.09-1.46,.98-2.65,2.28-3.74,3.53l-.03,.03Z"/>
    <path class="cls-1" d="M36.16,24.47l.78-1.71c.21-.46,.39-.83,.58-1.17,.8-1.43,1.9-2.47,3.15-3.6l.24-.22,.15,.29c.03,.06,.07,.12,.1,.19,.03,.06,.07,.12,.1,.17,.04,.07,.07,.14,.1,.21,.06,.13,.11,.25,.19,.34l.2,.23-.26,.15c-1.47,.86-2.78,2.02-4.12,3.65l-1.2,1.45Zm4.61-5.89c-.92,.83-1.74,1.63-2.4,2.59,.85-.84,1.71-1.53,2.63-2.09-.04-.08-.07-.15-.11-.23-.03-.06-.05-.12-.08-.18-.01-.03-.03-.05-.04-.08Z"/>
    <path class="cls-1" d="M32.9,29.27l.11-.38c.15-.52,.24-1.04,.33-1.61,.09-.54,.18-1.09,.33-1.62,.51-1.84,1.22-3.66,2.11-5.41,.75-1.48,1.81-2.77,2.84-3.93,.45-.51,1.05-.76,1.83-.76,.58,0,1.17,.13,1.75,.26l.45,.1-.33,.32c-.49,.49-1,.94-1.5,1.38-1.13,1-2.19,1.94-3.04,3.23-1.51,2.29-2.51,4.97-2.99,7.96l-.03,.18-.59,.08c-.3,.04-.6,.08-.88,.13l-.39,.07Zm7.55-13.22c-.64,0-1.1,.19-1.46,.59-1.01,1.14-2.04,2.39-2.77,3.83-.87,1.73-1.57,3.52-2.07,5.32-.14,.51-.23,1.05-.32,1.57-.07,.42-.14,.86-.25,1.29,.17-.03,.34-.05,.52-.07l.22-.03c.5-2.98,1.52-5.67,3.03-7.97,.89-1.35,2.03-2.36,3.13-3.33,.38-.33,.77-.68,1.15-1.04-.4-.08-.8-.15-1.18-.15Z"/>
    <path class="cls-1" d="M6.49,5.89l1.22-1.05c.48-.41,.96-.87,1.24-1.38l.08-.14h.16c.55,.05,1.25-.07,1.84-.3l.85-.33-.86,1.1c-.13,.16-.26,.32-.39,.47l-.26,.31-.14,.04c-.26,.11-.57,.18-.87,.25-.22,.05-.43,.09-.65,.16-.03,.01-.09,.03-.16,.05-.16,.04-.41,.11-.59,.19l-1.48,.63Zm2.82-2.05c-.14,.22-.31,.43-.49,.63,.15-.04,.29-.07,.44-.1,.29-.06,.56-.12,.82-.23l.17-.2c.06-.07,.12-.15,.18-.22-.39,.08-.78,.13-1.12,.12Z"/>
    <path class="cls-1" d="M9,20.54l.07-.4c.23-1.29,.5-2.58,.75-3.84,.72-3.55,1.47-7.22,1.55-10.95v-.53s.41,.34,.41,.34c.12,.11,.29,.19,.48,.29l.09,.05c1.83,.98,1.46,2.16,1.02,3.52-.09,.28-.18,.57-.26,.88-1.04,3.9-1.57,7.04-1.69,9.9v.21s-.22,.03-.22,.03c-.63,.08-1.25,.21-1.83,.38l-.39,.11Zm2.86-14.72c-.13,3.61-.85,7.16-1.55,10.59-.23,1.12-.46,2.29-.68,3.44,.42-.11,.86-.19,1.3-.26,.13-2.84,.67-5.96,1.7-9.8,.08-.32,.18-.62,.27-.9,.44-1.38,.68-2.15-.78-2.93l-.08-.04c-.06-.03-.12-.06-.17-.09Z"/>
    <path class="cls-1" d="M14.3,6.43l-.12-.08c-.3-.19-.67-.34-1.08-.5-.45-.18-.92-.37-1.3-.63l-.88-.61,1.06,.16,.06-.04h.09c.33,.01,.65,0,.96-.05,.05,0,.19-.05,.35-.1,.51-.15,.95-.28,1.18-.28,.14,0,.24,.04,.3,.13,.23,.33,.92,.55,1.48,.72l.83,.26-.83,.22c-.82,.22-1.45,.44-1.98,.72l-.13,.07Zm-1.42-1.21c.14,.06,.27,.11,.41,.17,.36,.14,.72,.29,1.03,.47,.35-.17,.74-.33,1.19-.47-.37-.14-.71-.32-.92-.57-.22,.02-.69,.16-.99,.25-.2,.06-.35,.1-.42,.12-.1,.02-.2,.03-.31,.04Z"/>
    <path class="cls-1" d="M11.42,20.02l.03-.3c.35-3.43,1.02-8.53,2.83-13.26l.04-.11,.11-.04c.74-.27,1.5-.54,2.29-.76l.55-.15-.27,.51c-2.45,4.66-3.83,9.17-4.22,13.8l-.02,.22h-.22c-.28,.02-.55,.04-.83,.06l-.3,.03Zm3.29-13.28c-1.71,4.5-2.38,9.36-2.73,12.72,.11,0,.22-.01,.33-.02,.41-4.45,1.71-8.79,3.99-13.25-.54,.17-1.07,.36-1.58,.54Z"/>
    <path class="cls-1" d="M8.6,20.68l-.1-.28c-.38-2.47-.21-5.27-.06-7.74,.02-.4,.05-.79,.07-1.17,.02-.4,.05-.75,.07-1.05,.1-1.28,.12-1.58-.49-2.09l-.06-.05-.09-.37c-.05-.21-.1-.42-.14-.62-.09-.53-.23-1.09-.53-1.61l-.25-.42,.49,.04c.8,.07,1.78-.19,2.41-.41l.26-.09,.06,.27c.16,.69,.29,1.4,.42,2.09,.14,.74,.28,1.51,.46,2.26v.05s0,.05,0,.05c-.22,1.54-.46,2.99-.71,4.34-.16,.87-.37,1.74-.57,2.58-.31,1.28-.62,2.61-.78,3.93l-.02,.16-.43,.15Zm-.13-12.66c.74,.65,.7,1.19,.6,2.46-.02,.29-.05,.64-.07,1.04-.02,.39-.04,.78-.07,1.17-.12,2-.25,4.05-.12,6.01,.16-.8,.35-1.59,.53-2.37,.2-.84,.41-1.7,.57-2.56,.25-1.32,.49-2.76,.7-4.27-.18-.74-.32-1.5-.45-2.24-.11-.59-.22-1.2-.35-1.79-.55,.17-1.25,.35-1.92,.36,.21,.46,.31,.94,.39,1.38,.04,.2,.08,.39,.13,.59l.05,.21Z"/>
    <path class="cls-1" d="M6.4,21.7l-.05-.37c-.45-3.57-.36-7.14,.31-11.93,.02-.12,.05-.27,.09-.45,.04-.16,.08-.34,.11-.52l.11-.61,.34,.52c.1,.16,.3,.19,.59,.21,.24,.02,.52,.04,.68,.26,.11,.14,.13,.33,.08,.58-.64,2.97-.96,7.97-.38,11.18l.04,.2-.19,.08c-.33,.13-.66,.28-.96,.43-.14,.07-.29,.15-.45,.24l-.32,.18Zm.88-12.77s-.02,.1-.03,.14c-.04,.16-.07,.3-.09,.41-.64,4.58-.75,8.02-.36,11.43,.05-.03,.1-.05,.15-.07,.26-.13,.53-.26,.81-.37-.54-3.27-.22-8.21,.42-11.17,.03-.14,0-.18,0-.18-.03-.03-.21-.05-.32-.06-.18-.01-.4-.03-.6-.12Z"/>
    <path class="cls-1" d="M18.03,8.81l-.13-.04c-.59-.3-1.09-.55-1.64-.74l-.58-.21,.68-.31c.59-.27,1.3-.57,1.85-.44,.74,.17,1.5,.29,2.24,.41l1.34,.21-1.05,.31c-.33,.1-.66,.19-1,.28-.53,.14-1.09,.29-1.6,.47l-.11,.05Zm-1.04-1.04c.34,.15,.67,.31,1.03,.49,.48-.17,.98-.3,1.47-.43-.46-.08-.93-.17-1.4-.28-.29-.07-.71,.05-1.1,.22Z"/>
    <path class="cls-1" d="M11.23,8.75l-.28-1.69c-.06-.38-.15-.79-.28-1.28-.06-.08-.08-.17-.07-.28-.08-.29-.15-.58-.23-.85l-.18-.17,.16-.23,.14-.14c.1-.1,.21-.21,.3-.32,.09-.1,.17-.2,.26-.31,.11-.14,.22-.28,.35-.4l.3-.31,.12,.41c.06,.2,.07,.44,.09,.63v.15c.03,.24,.08,.48,.12,.71l.05,.28-.42,.11v.09c-.06,.63-.14,1.26-.22,1.9l-.21,1.7Zm-.12-3.24h.01c.01-.1,.03-.21,.04-.33h0s.02-.24,.02-.24c.02-.12,.04-.23,.07-.34l.07-.32,.15,.06c-.02-.11-.03-.22-.04-.32v-.16s-.01,0-.01,0c-.08,.1-.16,.2-.24,.29-.1,.11-.21,.22-.32,.33h0s0,.02,0,.02c.09,.33,.17,.64,.25,.95l.02,.06v.02Z"/>
  </g>
  <path class="cls-1" d="M23.79,49.55c-.47,0-1.03-.22-1.43-.37-.09-.04-.18-.07-.25-.09-.94-.34-1.92-.63-2.85-.91l-.84-.25c-1.83-.55-3.65-1.2-5.42-1.82l-.98-.34c-1.46-.6-2.96-1.16-4.41-1.69-1.46-.54-2.97-1.09-4.43-1.7l-.15-.06v-.16c-.03-.47-.05-.94-.05-1.4-.02-2.13-.1-4.16-.22-6.04-.06-2.34-.2-4.14-.45-5.85l-.04-.46c-.06-.71-.2-1.43-.34-2.07-.05-.06-.08-.13-.08-.21,0-.03,0-.07,0-.11l-.03-.15,.06-.07c.13-.9,.81-1.88,2.03-2.93-.86-2.26-.89-5.15-.84-7.69v-.08c.04-2.39,.09-5.37,1.03-7.67,.09-.21,.33-.38,.57-.38h.08c.14,0,.36-.04,.59-.08,.33-.07,.71-.15,1.05-.15,.4,0,.69,.12,.86,.34,.03,.02,.06,.04,.08,.05-.04-.5-.09-.97-.29-1.41-.01-.03-.03-.07-.03-.12l-.5,.21,.59-.51-.06-.1h.16s.24-.29,.24-.29c.21-.28,.42-.56,.64-.83,.2-.24,.4-.48,.6-.72l.21-.25h.09c.98-.18,1.94-.37,2.86-.57l.19-.04,.09,.18c.04,.08,.06,.16,.07,.23,0,.03,.01,.07,.02,.1l.07,.18c.05,.12,.09,.25,.13,.37l.06,.19c.06,.19,.12,.39,.15,.6,.54-.1,1.06-.24,1.6-.38l.34-.09,.09,.07c.39,.27,.8,.48,1.24,.7,.17,.08,.33,.17,.5,.25,.1,.05,.2,.11,.3,.17,.16,.09,.32,.18,.48,.26l.07,.02,.06-.02-.02,.04s.02,0,.02,0l.69,.27-.61,.17c-.11,.32-.27,.63-.42,.92,0,.01-.01,.03-.02,.04,.45-.22,.93-.38,1.41-.33,1.04,.11,2.09,.28,3.05,.51h0s0-.31,0-.31l.06-.07c-.04-.53-.08-1-.11-1.47h-.08s.07-.06,.07-.06c0-.04,0-.09,0-.13v-.07s.09-.15,.09-.15c.37-.4,.76-.68,1.16-.96l.11-.08c.21-.15,.47-.35,.77-.35h.09c.14,.02,.3,.03,.48,.03,.51,.01,1.15,.03,1.53,.37l.09,.08v.12c0,.14,0,.28,0,.42h.03s-.03,.02-.03,.02c0,.16,.02,.33,.03,.49,.01,.16,.02,.33,.03,.49,.02,.49,.04,.99,.07,1.48l-.02,.55c0,.18,0,.37-.02,.55,.12,.05,.28,.1,.44,.16,.31,.11,.66,.23,.99,.37-.08-.59-.15-1.35,.11-1.85l.04-.07,.07-.04c.73-.37,1.64-.62,2.76-.75l.19-.02,.06,.14c1.01,.39,2.16,.74,3.41,1.05l.23,.06-.04,.23s-.02,.11-.05,.17c-.42,.93-.59,2.01-.76,3.05-.07,.42-.14,.84-.22,1.26,.22-.2,.44-.38,.67-.55l.16-.12,.15,.12c.18,.15,.37,.28,.55,.42,.34-.88,.84-1.61,1.32-2.31,.29-.43,.6-.87,.86-1.34,.15-.26,.47-.4,.72-.28,.1,.04,.23,.09,.37,.15,.56,.22,1.33,.52,1.75,.97l.05,.09c.36,1.04,.55,2.13,.74,3.19v.07s-.02,.07-.02,.07c-.11,.25-.27,.5-.47,.76,.57,.11,1.13,.28,1.68,.44l.65,.19,.21,.44c.1,.21,.2,.41,.3,.62l-.19,.17,.22-.12c.14,.26,.28,.52,.42,.78l.3,.54-.12,.13c-.16,.18-.34,.36-.54,.56,.43,.12,.84,.32,1.1,.58l.06,.09c.41,1.16,.7,2.37,.98,3.54l.15,.61-.18,.09c-1.7,.86-3.11,1.61-4.41,2.6-1.28,.98-2.91,2.41-3.69,3.87,.01,0,.02,.02,.04,.03l.11,.1-.24,.8-.66,1.5c-2,4.56-4.27,9.74-5.92,15.59l-.03,.11-.1,.05c-1.26,.59-3.63,1.77-5.39,2.98-.07,.05-.15,.08-.22,.09-.17,.09-.34,.13-.53,.13ZM3.84,42.11c1.3,.52,2.63,1.02,3.93,1.5,1.46,.54,2.96,1.09,4.42,1.69l.98,.34c1.76,.62,3.57,1.26,5.39,1.81l.84,.25c.95,.28,1.92,.57,2.88,.91,.08,.03,.16,.06,.26,.1,.49,.19,1.25,.45,1.55,.28l.06-.04,.1-.02c1.75-1.21,4.07-2.37,5.37-2.99,1.65-5.84,3.91-11,5.91-15.55l.76-1.8h-.2l-.02,.12-.15,.04c-.26,.07-.55,.12-.83,.17-.28,.08-.58,.11-.84,.14-.35,.05-.66,.09-.94,.14l-.38,.06h0c-.26,.07-.58,.16-.88,.16-.74,.14-1.39,.26-2.03,.47l-.12,.04s-.08,.03-.13,.04l.03,.04-.37,.09c-.08,.03-.16,.06-.24,.1l-.39,.18h.01s-.22,.4-.22,.4c-.1,.27-.21,.56-.33,.85-.56,1.29-1.05,2.75-1.49,4.46-.24,.95-.53,1.92-.81,2.87-.66,2.25-1.34,4.57-1.55,6.85-.2,.86-.38,1.71-.54,2.57l-.06,.33-.3-.15c-.12-.06-.26-.13-.46-.2-2.02-.61-4.06-1.29-6.04-1.95l-.9-.3c-1.17-.39-2.34-.81-3.48-1.21-1.08-.39-2.17-.77-3.26-1.14-.39-.13-.79-.27-1.19-.42l-.34-.12c-2-.85-3.42-1.25-3.98-1.13Zm.22-.52c.76,0,2.08,.4,3.94,1.19l.33,.12c.41,.15,.8,.29,1.18,.42,1.09,.37,2.18,.75,3.27,1.14,1.13,.41,2.31,.82,3.47,1.21l.9,.3c1.98,.66,4.02,1.33,6.03,1.95,.09,.03,.17,.06,.25,.09,.14-.76,.3-1.51,.48-2.24,.21-2.3,.9-4.64,1.56-6.91,.28-.94,.56-1.91,.8-2.85,.45-1.74,.94-3.22,1.52-4.54,.12-.28,.23-.56,.34-.85l.06-.11s-.01-.03-.02-.04c-.71-2.06-2.86-3.95-4.65-5.37-2.37-1.87-4.7-3.12-6.92-3.7-1.48-.39-2.98-.59-4.32-.59-1.42,0-2.67,.22-3.73,.66-2.28,.95-5.01,2.65-5.95,4.64,.98,2.44,1.19,5.03,1.34,7.7,.14,2.59,.28,5.23,.09,7.8h.04Zm-1.33-13.39c0,.06,.01,.11,.02,.17l.04,.45c.26,1.72,.4,3.54,.46,5.88,.12,1.88,.2,3.92,.22,6.05,0,.35,.02,.71,.03,1.06,.21-2.62,.07-5.34-.07-7.97-.11-1.95-.25-3.84-.69-5.65Zm9.53-7.91c1.39,0,2.92,.21,4.45,.61,2.29,.6,4.68,1.88,7.11,3.79,1.85,1.46,4.06,3.42,4.81,5.6l.05,.04,.08-.24-.09-.38c-.1-.4-.26-.8-.49-1.22-.06-.05-.12-.12-.15-.23l-.04-.08c-.04-.06-.07-.12-.12-.19l-.06-.1h0s-.25-.34-.25-.34c-.31-.41-.69-.84-1.13-1.27l-.13-.13,.02-.03-.18-.12-.02-.11s0,0,0,0v.04s-.38-.28-.38-.28c-.15-.13-.29-.25-.44-.38l-.12-.09c-.32-.24-.63-.47-.9-.7-.46-.39-.99-.74-1.5-1.09-.45-.3-.92-.62-1.35-.96-.18-.1-.39-.22-.59-.33h0c-.1,0-.19-.03-.27-.09-.06-.04-.12-.09-.18-.13l-.23-.13c-.07-.03-.13-.07-.2-.1l-.31-.15,.02-.02-.13-.02c-.46-.2-.88-.37-1.27-.52l-.21-.08h0s-.27-.08-.27-.08c-.55-.18-1-.31-1.44-.42l-.23-.06v-.07s-.19,.04-.19,.04l-.09-.02c-.25-.05-.49-.11-.74-.15-.12-.02-.23-.03-.35-.05l-.35-.04v-.08c-.05,0-.09,0-.14,0v.04s-.29,0-.29,0c-.26-.02-.52-.04-.78-.04h-.26s0-.02,0-.02c-.05,0-.1,0-.14,0h0s-.24,.02-.24,.02c-.28,0-.55,.03-.83,.05l-.22,.02s-.07,0-.1,.01l-.19,.03c-.63,.08-1.25,.21-1.83,.38l-.79,.25-.04-.11c-.08,.04-.16,.08-.24,.12v.02s-.17,.14-.17,.14c-.33,.13-.66,.28-.96,.43-.14,.07-.29,.15-.45,.24l-.32,.18v-.02s-.06,.03-.09,.05l-.07,.08c-.56,.34-1.08,.7-1.55,1.07l-.19,.15h0s-.14,.12-.14,.12c-.72,.6-1.26,1.18-1.59,1.72,1.29-1.67,3.61-3.06,5.58-3.88,1.12-.46,2.44-.7,3.92-.7Zm16.92,9.28h.02s.03,.08,.03,.08l.06-.02c.18-.07,.36-.13,.54-.19l.33-.11h0c.56-.15,1.14-.26,1.81-.38,.28,0,.57-.09,.81-.16,.1-.03,.19-.05,.26-.07,.04,0,.08-.02,.12-.02l.4-.06v.04c.18-.03,.36-.05,.55-.08h.07c.23-.03,.51-.06,.78-.13,.24-.04,.46-.08,.66-.13,.3-1.22,1.34-2.62,3.11-4.14,1.35-1.17,3.14-2.59,4.98-3.22l.09-.03,.09,.04c.06-.06,.06-.09,.06-.09-.03-.14-.09-.27-.14-.41-.05-.21-.1-.4-.17-.58-.06-.15-.11-.33-.16-.51-.11-.38-.22-.78-.41-1.03-.22-.28-.54-.36-.91-.46l-.31-.1h-.03s-.09-.02-.09-.02c-.01,0-.02,0-.04-.01l-.09,.06c-.23,.09-.46,.28-.74,.6l-.06,.05c-.27,.18-.63,.41-.97,.67-.24,.19-.46,.42-.69,.67l-.22,.23-.38-.32c.19-.28,.42-.53,.64-.78,.17-.19,.33-.37,.47-.55,.26-.34,.54-.66,.82-.99,.17-.2,.35-.4,.52-.61,.25-.23,.49-.45,.72-.67l.12-.22c.21-.24,.27-.47-.12-.83-.26-.28-.59-.45-1.09-.56-.19-.06-.36-.11-.53-.16-.28-.08-.55-.16-.79-.26-.46-.18-.86-.2-1.22-.07l-.1,.04-.09-.04-.19,.17c-.79,.69-1.38,1.58-1.95,2.45-.27,.4-.53,.8-.81,1.18l-1.22,1.66,.79-1.9c.09-.22,.2-.46,.31-.69,.41-.9,.83-1.82,.69-2.55v-.03s0-.04,0-.04l-.06-.36s0-.06-.02-.1c-.08-.26-.33-.5-.61-.6l-.08-.04-.14-.11c-.31-.25-.53-.44-.67-.44-.15,0-.41,.25-.8,.67-.22,.24-.42,.48-.63,.73l-.47,.57-.03-.78c0-.13,0-.25-.01-.38l-.03,.03,.03-.11s0-.03,0-.04v-.09c-.01-.21-.03-.44-.08-.64-.06-.83,.09-1.63,.24-2.41l.15-.85c.1-.55,.19-1.12,.36-1.66l-.19-.07c-.31-.11-.63-.23-.94-.36v.07s-.36-.08-.36-.08c-.53-.18-.96-.22-1.37-.13h-.05s-.05,0-.05,0c-.2-.04-.44-.04-.73,0-.85,.11-.9,.58-.92,1.47,0,.17,0,.34-.02,.51,.03,.04,.05,.1,.06,.15,.54,.17,2.01,.72,2,1.06v.05c.03,.1,.03,.21,0,.32-.78,2.5-1.37,4.54-1.86,6.42l-.49-.08c.01-.23,.03-.46,.04-.69,0-.18,.01-.38,0-.59v-.07c.08-.27,.16-.54,.24-.82,.28-.97,.57-1.98,.49-2.93v-.05s.01-.05,.01-.05c.25-.76,.03-1.07-.4-1.41h0s-.36-.24-.36-.24c-.07-.06-.09-.08-.11-.09-.07-.04-.16-.04-.24-.04h-.16c-.19,0-.43-.04-.66-.1l-.07-.03c-.12-.08-.28-.17-.47-.28-.03-.02-.07-.04-.1-.06,0,.03,0,.06-.02,.09v.07s-.05,.05-.05,.05c-.29,.73-.51,1.52-.69,2.39l-.47,2.3-.02-2.35c0-.37,0-.75-.02-1.12,0-.25,0-.49,0-.74,.02-.38,.04-.75,.05-1.12h0c-.27-.95-.14-1.88-.01-2.78,.04-.32,.09-.64,.12-.96-.16,.07-.32,.14-.48,.22l-.31,.14s-.09,.04-.13,.05l-.14,.03c-.19,0-.34,.05-.51,.11-.26,.09-.55,.17-.83,.11l-.07-.03s-.07-.04-.1-.06l-.1,.02-.05-.05s-.02-.01-.03-.02c.06,.49,.1,1.01,.11,1.56l.02,.03v.09c-.21,1.3-.52,2.68-.94,4.11l-.49-.11c.06-.37,.13-.74,.19-1.11-.24,.6-.47,1.21-.67,1.83l-.71,2.18,.23-2.29c.11-1.07,.33-2.09,.66-3.03,.09-.2,.18-.39,.26-.58-.47,.15-.94,.29-1.4,.42-.19,.06-.39,.11-.58,.17v.05s-.16,.07-.16,.07c-.14,.04-.29,.09-.46,.11h-.09c-.24,0-.43-.1-.6-.2-.12-.07-.23-.13-.33-.13h-.09s-.1-.04-.1-.04c-.22-.14-.49-.32-.74-.54-.03,.08-.06,.15-.08,.23,0,.09-.02,.25-.04,.4l-.03,.23c-.13,.49-.25,.94-.35,1.4l-.44,2.02-.05-2.06c-.02-.66,.02-1.32,.05-1.96l.04-.43c.33-.74,.65-1.42,.98-2.08-.39,.12-.78,.26-1.15,.39l-.12,.04-.06-.04c-.14,.06-.27,.13-.4,.19-.15,.08-.31,.16-.47,.22l-.12,.06-.13-.05c-.15-.08-.29-.18-.43-.29l-.11-.08c-.26-.19-.56-.34-.85-.48-.13-.08-.23-.15-.35-.21-.2-.11-.39-.21-.56-.33l-.08-.06-.02-.1c-.04-.19-.07-.37-.09-.56l-.44-.3,.41,.06-.06-.65,.16,.16c0-.06-.01-.11-.02-.17v-.16s-.01,0-.01-.01l-.22,.22c-.19,.09-.34,.25-.48,.48-.03,.06-.07,.12-.1,.19-.1,.2-.21,.43-.41,.59l-.12,.09-.09-.04-.14,.07c-.74,.24-1.4,.37-1.97,.38,.21,.46,.31,.94,.39,1.38,.04,.2,.08,.39,.13,.59l.05,.21c.4,.35,.58,.66,.64,1.12l.06,.52-.44-.27c-.92-.57-1.83-1.07-2.93-1.09l-.09,.04c-.1,.02-.2,.03-.28,.04q-.54,.07-.72,1.17l-.05,.29c-.23,1.41-.46,2.87-.5,4.32-.08,3.15,.1,5.74,.54,8.08,.36-.26,.74-.52,1.13-.77h0s.15-.13,.15-.13c.17-.09,.33-.19,.5-.28l.32-.17v.02c.05-.03,.1-.05,.15-.08,.27-.14,.55-.27,.85-.39l.12-.12c.16-.08,.33-.16,.49-.25,.02-.01,.03-.05,.03-.07l.15-.02c.17-1.22,.46-2.44,.7-3.44l.35-1.45,.15,1.48c.05,.56,.11,1.14,.14,1.71-.1,.55-.2,1.06-.29,1.56,.42-.1,.85-.19,1.3-.26h0s.41-.06,.41-.06c.11-.01,.23-.03,.34-.04l.27-.03h0c.13,0,.27-.01,.4-.02l.17-.02c.2-.01,.41-.02,.61-.02h.27s0,.03,0,.03c.11,0,.23,0,.34,.02l.24-.04h.1c.15,0,.3,.01,.45,.02l.3,.05v.08c.12,.01,.23,.03,.34,.04,.19,.03,.38,.07,.57,.11v-.06s.28,0,.28,0c.15,.03,.3,.06,.45,.09l.24,.05-.02,.12c.3,.08,.62,.17,.98,.28l.03-.14,.27,.09c.18,.06,.35,.12,.52,.18l.2,.07-.03,.13c.25,.09,.51,.2,.78,.32v-.09s.42,.19,.42,.19c.12,.07,.25,.13,.37,.2l.23,.14-.02,.03,.22,.13c.07,.05,.15,.1,.21,.15l.1-.03,.04,.03c.24,.13,.47,.26,.71,.4,.44,.35,.9,.66,1.35,.96,.52,.35,1.06,.71,1.54,1.12,.26,.22,.56,.44,.88,.68l.12,.09c.09,.08,.18,.15,.26,.22l.2,.13c.05,.04,.11,.08,.16,.12h0s.32,.25,.32,.25c0,0,0,0,0,0l.08,.06h0c.06,.05,.13,.11,.19,.16l.14,.12-.05,.1c.26,.26,.5,.52,.72,.78l.04-.21,.34,.47c.13,.18,.24,.38,.33,.57l.04,.09-.02,.06s.04,.07,.06,.1l.06,.11s.02,.05,.02,.07l.04,.02,.04,.08c.16,.29,.3,.58,.4,.86l.08-.13,.12,.65h0Zm14.62-8.12c-1.73,.62-3.44,1.98-4.74,3.1-1.43,1.24-2.38,2.4-2.79,3.41,.82-1.55,2.52-3.05,3.85-4.06,1.29-.99,2.66-1.72,4.31-2.56l-.04-.18s-.04,.06-.06,.09c-.13,.17-.33,.25-.52,.21ZM4.65,7.55s-.09,.04-.1,.07c-.9,2.22-.95,5.14-.99,7.49v.08c-.04,2.29-.02,4.86,.62,6.95-.43-2.33-.59-4.89-.52-8,.04-1.48,.27-2.95,.5-4.38l.05-.29c.21-1.32,.33-1.48,1.15-1.59,.07,0,.14-.02,.23-.03,.07-.04,.14-.05,.21-.05,.95,.01,1.74,.33,2.51,.76-.06-.06-.13-.13-.21-.2l-.06-.05-.09-.37c-.04-.15-.07-.3-.1-.44l.05,.69-.42-.28c-.16-.11-.33-.22-.54-.34l-.08-.08s-.1-.16-.47-.16c-.29,0-.64,.07-.94,.14-.33,.07-.6,.12-.77,.09Zm4.77,10.65c-.13,.61-.24,1.2-.33,1.79,.11-.58,.22-1.16,.33-1.74,0-.02,0-.03,0-.05Zm32.8-.83l.07,.02c.4,.1,.86,.22,1.18,.64,.05,.07,.1,.14,.14,.23-.06-.19-.13-.39-.19-.58-.28-.25-.79-.45-1.25-.49l-.55-.05,.4-.38c.29-.28,.53-.52,.74-.75l-.13-.23c-.04-.07-.08-.14-.12-.21,0,.1-.03,.21-.08,.31l.18,.05-.32,.31c-.31,.3-.62,.59-.94,.88-.12,.15-.27,.33-.42,.5,.13-.11,.28-.2,.44-.27l.21-.2,.15,.07s.05,.02,.07,.03c.15-.04,.3,.01,.39,.12Zm-6.18-3.65v.12c0,.14,0,.27-.02,.41,.05,.27,.04,.55,0,.84l.39-.9c.09-.2,.19-.38,.29-.57,.07-.13,.15-.26,.21-.4,.1-.21,.21-.42,.32-.64l.16-.32c.19-.24,.34-.42,.46-.6,.17-.25,.39-.5,.6-.74,.07-.08,.15-.17,.22-.25,0,0-.01-.01-.02-.02-.14,.18-.29,.34-.4,.47-.07,.08-.12,.14-.15,.17-.12,.16-.25,.33-.38,.5l-.24,.31c-.18,.2-.32,.39-.45,.63-.24,.36-.4,.67-.51,.96l-.27,.7-.2-.68Zm2.54-.31c.29,0,.6,.06,.92,.19,.23,.09,.49,.17,.75,.24,.17,.05,.35,.1,.52,.16,.34,.07,.85,.23,1.25,.63-.05-.11-.1-.21-.16-.32l-.12-.24-.44-.13c-.67-.2-1.37-.4-2.05-.5l-.48-.07,.33-.35c.29-.3,.51-.61,.64-.9-.02-.14-.05-.28-.07-.42-.12,.64-.47,1.11-.86,1.54l-.08,.13-.16,.02c-.28-.01-.55,0-.79,.03-.01,0-.02,.01-.04,.02,0,0,0,.02,0,.02v.05s0,0,0,0c.09-.03,.17-.04,.25-.02,.18-.06,.37-.08,.56-.08Zm-6.09-.5c0,.09,.01,.18,.01,.26v.06c.1-.11,.19-.21,.29-.32,.47-.51,.79-.83,1.16-.83,.12,0,.23,.03,.35,.09l-.02-.02c-.18-.13-.37-.27-.54-.4-.36,.28-.71,.6-1.07,.97l-.17,.18Zm6.71-2.1c-.12,.15-.25,.3-.38,.45-.21,.24-.41,.47-.56,.7-.13,.19-.29,.39-.46,.59l-.13,.27s-.05,.1-.07,.14l.09-.03c.25-.04,.51-.05,.79-.05,.5-.55,.81-1.08,.73-1.86,0-.07-.01-.14-.02-.21Zm-4.1,1.35l.03,.02c.38,.31,.74,.59,1.17,.77,.08-.15,.18-.31,.29-.47,.14-.25,.3-.48,.5-.69l.23-.3c.13-.17,.26-.33,.38-.49,.03-.04,.09-.11,.18-.21,.16-.18,.39-.44,.56-.7l.21-.3,.23,.33c.09,.13,.17,.24,.27,.31h0s.05,.02,.05,.02c0-.05,0-.11-.01-.17l-.03-.1c-.07-.26-.26-.57-.58-.61l-.08-.03-.35-.18c-.28-.14-.56-.29-.85-.43-.26,.4-.55,.79-.83,1.16-.48,.64-.98,1.31-1.34,2.05Zm-6.06-.28c.01,.17,.02,.35,0,.52,.18-.61,.38-1.25,.59-1.93v-.03s0,0,0,0l.02-.04c-.25-.15-1.17-.6-1.59-.72l.09,.07c.62,.45,1.27,.91,.88,2.13Zm4.24-4.47l-.05,.15c-.2,.58-.31,1.21-.41,1.82l-.16,.86c-.09,.46-.18,.93-.22,1.39,.08-.39,.14-.79,.2-1.18,.16-1.01,.33-2.06,.73-3.02-.03,0-.06-.02-.09-.02Zm-8.07,1.49l.04,.08v.05c0,.39-.02,.78-.04,1.17,.07-.22,.15-.43,.23-.64,.01-.04,.03-.07,.05-.1,.03-.2,.06-.33,.06-.36l.22,.02,.16-.22c.15,.09,.29,.17,.41,.23,.19,.11,.34,.2,.47,.28,.17,.05,.34,.07,.48,.07h.16c.08,0,.17,0,.26,.02v-.02s-.07-.09-.07-.09v-.04s-.3-.17-.3-.17c-.37-.21-.91-.4-1.35-.55-.28-.1-.51-.18-.64-.25l-.14-.07v-.16c.02-.24,.03-.47,.03-.71,0-.18,0-.35,.02-.53-.01-.14-.02-.27-.03-.41-.12,.83-.21,1.61,0,2.39Zm11.94-.72s-.06,.03-.09,.07c-.26,.46-.54,.88-.82,1.28,.25-.34,.5-.68,.72-1.04l.12-.19,.2,.09c.36,.17,.71,.35,1.06,.53l.31,.16c.17,.03,.34,.1,.48,.21-.02-.06-.04-.11-.05-.17-.36-.35-1.03-.61-1.53-.81-.15-.06-.28-.11-.39-.16h0Zm-20,.35c.23,0,.4,.11,.56,.2,.13,.07,.24,.14,.35,.14,.07,0,.14-.02,.2-.03v-.05s.21-.08,.21-.08c.24-.07,.49-.14,.74-.22,.64-.18,1.3-.38,1.92-.59l.19-.07-.6,.18c-.33,.1-.66,.19-1,.28-.53,.14-1.09,.29-1.6,.47l-.11,.05-.13-.04c-.44-.22-.83-.42-1.22-.58,.16,.13,.33,.24,.48,.34Zm-.18-.75c.34,.15,.67,.31,1.03,.49,.48-.17,.98-.3,1.47-.43-.46-.08-.93-.17-1.4-.28-.29-.07-.71,.05-1.1,.22Zm10.67-.78c-.13,.31-.11,.78-.06,1.21,.03-.6,.15-1.24,.86-1.52-.29,.09-.56,.2-.8,.32Zm-9.76,.04c.11,0,.21,.01,.31,.04,.74,.17,1.5,.29,2.24,.41l1.17,.19,.02-.06-.09-.02c-1.02-.26-2.16-.46-3.28-.57-.12-.01-.25,0-.37,.01Zm12.14-.68c-.46,.06-.87,.13-1.25,.23,.05,0,.1-.02,.15-.03,.33-.04,.6-.04,.84,0,.22-.04,.44-.05,.66-.04-.1-.04-.2-.08-.3-.11-.04-.02-.08-.04-.11-.06Zm-17.57-.77c.09,.05,.17,.1,.24,.15,.28,.13,.6,.3,.89,.51l.11,.09c.08,.06,.17,.13,.25,.18,.09-.04,.17-.08,.26-.12l-.06-.04c-.3-.19-.67-.34-1.08-.5-.21-.09-.43-.17-.63-.27Zm2.58,.5s0,0,.01,0c.34-.12,.7-.25,1.07-.36-.41,.11-.76,.23-1.08,.36Zm-2.17-.87c.14,.06,.27,.11,.41,.17,.36,.14,.72,.29,1.03,.47,.35-.17,.74-.33,1.19-.47-.37-.14-.71-.32-.92-.57-.22,.02-.69,.16-.99,.25-.2,.06-.35,.1-.42,.12-.1,.02-.2,.03-.31,.04Zm9.73,.31c.11,.02,.25-.01,.38-.05h-.04q-.4-.17-.83-.21h-.1c.11,.04,.22,.09,.32,.15,.09,0,.18,.04,.25,.1,0,0,0,0,.01,0Zm-14.84-.19h0c.54,0,1.18-.12,1.92-.36,.09-.07,.17-.1,.25-.11,.05-.06,.09-.13,.13-.21-.23,.08-.48,.14-.73,.19-.22,.05-.43,.09-.65,.16-.03,.01-.09,.03-.16,.05-.16,.04-.41,.11-.59,.19l-.19,.08Zm14.9-.5c.12,.03,.24,.07,.46,.16l.17,.06c.26-.12,.52-.25,.78-.38-.27-.02-.53-.04-.8-.17-.11,.03-.37,.18-.6,.33Zm-10.78-1.07s0,.04,0,.06v.15c.03,.24,.08,.48,.12,.71v.06s.06,0,.06,0l.02-.07c.02-.2-.06-.45-.14-.69l-.06-.2s0,0,0-.01Zm-2.6,.08c-.14,.22-.31,.43-.49,.63,.15-.04,.29-.07,.44-.1,.29-.06,.56-.12,.82-.23l.17-.2c.06-.07,.12-.15,.19-.22-.39,.08-.78,.13-1.12,.12Zm14,.16h.06l.1,.04c.21,.11,.42,.12,.68,.14h.12c.15,.02,.3,.05,.44,.09,.07,.02,.14,.03,.22,.04l.19,.03c0-.07,0-.15,0-.22-.27-.16-.74-.17-1.13-.18-.2,0-.38,0-.53-.03-.1-.03-.21,.05-.31,.12,.06-.02,.12-.03,.17-.03Zm.77,44.68l.15-.99c.96-6.23,4.42-16.47,4.45-16.58l.48,.14c-.88,3.49-.85,5.9-.83,8.44,0,.49,0,.98,0,1.48,0,1.72,.26,2.85,.4,3.46,.11,.46,.16,.66,.03,.83-.06,.08-.16,.12-.26,.12h-.08c-.38-.07-.98-.62-1.32-.96l-3.03,4.07Zm3.92-13.8c-1.01,3.26-2.42,8.1-3.1,11.87l2.16-2.9,.2,.22c.33,.36,.77,.74,1.05,.92-.02-.07-.04-.16-.05-.24-.15-.62-.42-1.79-.42-3.57,0-.5,0-.98,0-1.47-.01-1.51-.03-3.04,.17-4.83Z"/>
</svg>