<?xml version="1.0" encoding="UTF-8"?>
<svg id="Layer_1" data-name="Layer 1" xmlns="http://www.w3.org/2000/svg" viewBox="0 0 47 51">
  <defs>
    <style>
      .cls-1 {
        fill: #fff;
      }
    </style>
  </defs>
  <path class="cls-1" d="M9.44,50.16c-.33,0-.79-.12-1.13-.67-.76-.18-1.25-.59-1.52-1.26-.13-.34-.35-.47-.79-.47-.18,0-.37,.02-.57,.04-.22,.02-.44,.05-.65,.05-.45,0-1.08-.09-1.44-.88-.6-1.33-.67-2.45-.22-3.4,.52-1.11,1.44-1.71,2.33-2.29,.32-.21,.65-.42,.96-.66,.16-.12,.33-.24,.52-.37,.56-.39,1.2-.84,1.47-1.33,.18-.33,.37-.66,.55-.99,.24-.44,.48-.87,.72-1.31,.6-1.06,1.35-1.62,2.15-2.22,.33-.24,.66-.5,1-.8,1.35-1.17,2.08-3.77,2.18-5.68,.02-.43,0-.88-.02-1.31-.02-.48-.05-.98,0-1.48,.03-.39,.16-.75,.29-1.11l-.03-.07c-.2-.5-.45-1.13-.25-1.71,.08-.25,.21-.5,.32-.74,.12-.25,.24-.49,.32-.73-.3-.23-.52-.49-.68-.79-.47-.87-.95-1.89-.57-2.89,.23-.62,.59-1.15,.9-1.62,.25-.37,.3-.68,.35-1.01,.02-.12,.04-.24,.07-.37-.43-.74-.62-1.85-.15-2.66,.26-.45,.55-.79,.92-1.1,.46-.39,.78-.84,1.12-1.33,.15-.21,.3-.42,.46-.63,.21-.26,.44-.49,.66-.7,.31-.3,.61-.58,.82-.96,.19-.33,.5-.6,.87-.77,.63-.3,1.29-.25,1.95,.14,.05-.04,.09-.09,.14-.14,.47-.46,1.06-1.03,1.78-.94,.5,.07,.82-.31,1.18-.71,.19-.21,.38-.43,.61-.6,.51-.38,.97-.4,1.5-.43h.12c1.1-.07,2.09-.17,3.02-.33l.33-.28c.41-.35,.82-.69,1.23-1.04,.77-.63,1.5-.86,2.49-.76,.71,.07,1.42,.22,2.11,.37,.7,.15,1.43,.31,2.14,.36,.19,.02,.41,.02,.63,.02,.73,0,1.57,0,2.14,.48,.64,.53,.79,1.18,.82,2,.01,.4,.2,.64,.41,.93,.24,.32,.51,.68,.51,1.28,0,.2-.02,.39-.03,.57-.03,.35-.06,.69,0,1.05,.39-.16,.76-.2,1.14-.12,.29,.07,.52,.24,.68,.51,.49,.82,.22,2.34,.08,2.86-.09,.33-.2,.59-.31,.86-.2,.46-.36,.86-.34,1.45,.03,.62,.08,1.77-.18,2.51-.18,.52-.62,1.04-1.09,1.59-.7,.83-1.43,1.69-1.11,2.42,.06,.14,.06,.31,0,.48-.04,1.26-.81,2.45-2.13,3.27-.29,.18-.67,.33-1.08,.5-.64,.26-1.37,.55-1.62,.92-.17,.25-.27,.54-.37,.84-.14,.4-.28,.81-.58,1.16-.88,1.01-2.53,2.03-4,2.03h0c-.1,0-.2,0-.3-.02-.11,.15-.25,.3-.42,.45,0,0,0,.02,0,.03-.02,.14-.1,.26-.22,.32-.5,.22-.92,.54-1.37,.88-.32,.24-.64,.48-.99,.69-.94,.55-1.92,1.02-2.88,1.47l-.23,.11c-.87,.41-1.73,.62-2.47,.77l-.24,.12c-1.09,.54-2.22,1.11-2.95,2.06-.45,.59-1.05,1.17-1.87,1.82l-.26,.56c-.19,.43-.39,.86-.6,1.28-.05,.11-.1,.22-.16,.34-.21,.48-.46,1.02-.88,1.32-.28,.2-.63,.38-1.01,.57-.7,.35-1.49,.75-1.74,1.32-.06,.13-.12,.28-.18,.42-.23,.56-.47,1.13-.87,1.59-.43,.48-.49,1.08-.56,1.72-.09,.82-.2,1.76-1.16,2.42-.49,.34-1.14,.73-1.76,.73Zm-3.43-2.89c.4,0,.97,.08,1.25,.78,.21,.54,.61,.85,1.26,.98l.11,.02,.06,.1c.19,.35,.43,.51,.75,.51,.49,0,1.08-.37,1.48-.64,.77-.53,.85-1.28,.94-2.06,.08-.69,.16-1.4,.69-2,.35-.39,.57-.93,.78-1.45,.06-.15,.12-.29,.18-.43,.32-.73,1.2-1.17,1.97-1.56,.36-.18,.69-.35,.94-.53,.31-.22,.52-.7,.71-1.12,.06-.13,.11-.25,.17-.36,.21-.42,.4-.84,.59-1.26l.13-.28-.38,.62c-.26,.43-.52,.86-.77,1.3-.46,.83-1.19,1.24-1.89,1.64-.55,.31-1.07,.61-1.47,1.1-.19,.23-.32,.57-.44,.89-.04,.09-.07,.18-.11,.27-.14,.34-.37,.63-.59,.9-.2,.25-.39,.49-.5,.75-.19,.46-.19,.81-.17,1.33,.04,1.01-.62,2.1-1.46,2.42l-.3,.12-.03-.26-.23-.05c-.42-.09-.86-.18-1.28-.34-.57-.22-.77-.74-.95-1.2-.06-.16-.13-.33-.21-.47-.13-.24-.3-.33-.59-.33-.2,0-.43,.05-.67,.1-.27,.06-.54,.12-.81,.12-.64,0-1.08-.35-1.34-1.06-.74-2.07,.75-3.08,2.06-3.98,.3-.21,.61-.41,.89-.63,.23-.18,.46-.35,.67-.51,.9-.67,1.61-1.21,2.22-2.29l.24-.42c.71-1.27,1.33-2.37,2.62-3.32,.4-.29,.68-.6,.91-.93-.09,.09-.18,.18-.27,.26-.36,.31-.7,.57-1.03,.82-.79,.59-1.47,1.1-2.01,2.07-.24,.43-.48,.87-.72,1.3-.18,.33-.36,.67-.55,1-.33,.59-1.02,1.07-1.62,1.49-.18,.12-.35,.25-.5,.36-.33,.25-.66,.47-.99,.68-.87,.57-1.69,1.11-2.15,2.08-.38,.81-.31,1.79,.23,2.98,.19,.41,.47,.58,.98,.58,.2,0,.4-.02,.6-.04,.21-.02,.42-.04,.62-.04Zm.65-1.12c.46,0,.8,.19,1.02,.59,.09,.16,.17,.35,.24,.54,.16,.41,.3,.77,.67,.91,.38,.15,.78,.23,1.2,.32l.28,.06c.07,.01,.12,.04,.17,.07,.56-.33,.99-1.13,.97-1.86-.02-.55-.01-.99,.21-1.54,.13-.33,.35-.6,.57-.87,.21-.26,.4-.5,.52-.78,.03-.08,.07-.17,.1-.26,.13-.34,.28-.73,.53-1.03,.46-.55,1.04-.89,1.61-1.21,.67-.38,1.31-.75,1.71-1.45,.05-.1,.11-.19,.16-.29-.05,.04-.11,.08-.16,.12l-.45,.33,.05-.55c-.08-.17-.07-.43,.94-1.65,.42-.39,.84-.73,1.26-1.04,.06-.04,.11-.09,.16-.13l.08-.08c.03-.06,.09-.11,.17-.15,.23-.22,.44-.45,.66-.7,.23-.25,.46-.51,.72-.76,.37-.23,.68-.5,.98-.76,.12-.1,.23-.2,.34-.29,.75-.62,1.66-.97,2.44-1.26l.3-.11c.36-.13,.72-.25,1.07-.39l.11-.04,.1,.06s.05,.03,.07,.05c.29-.09,.51-.17,.73-.26,.75-.31,1.6-.68,2.45-1.14-.16,.03-.32,.08-.49,.15l-.18,.08c-.3,.14-.64,.29-.98,.33-.94,.1-1.54-.27-2.19-.67-.26-.16-.53-.33-.83-.46-.13-.06-.25-.14-.38-.26l-.59-.55,.79,.12c.34,.05,.67,.12,1,.18,.59,.11,1.15,.22,1.69,.24,.22,.03,.32,.02,.45,0,.43-.03,.8-.13,1.15-.31l.08-.02c.51-.07,1.02-.19,1.53-.36h.07c.29-.02,.62-.04,.85-.18,.14-.08,.27-.17,.4-.26v-.13c-.08-.1-.18-.2-.27-.3l-.55-.64,.81,.24c.18,.05,.38,.07,.6,.06h.05s.05,.01,.05,.01c.17,.06,.31,.09,.45,.1,.09,0,.15,0,.21,0,.59,0,1.28-.22,2.06-.66,.57-.32,1.19-.74,1.43-1.38,.03-.08,.06-.18,.1-.28,.1-.3,.21-.64,.39-.9,.5-.75,1.14-1.03,1.81-1.32,.25-.11,.51-.22,.78-.37,.62-.34,1.3-.75,1.69-1.31,.13-.2,.23-.41,.31-.64-.48,.07-.96,.18-1.39,.37-.1,.05-.22,.11-.33,.17-.23,.13-.47,.27-.72,.32l-.75,.15,.52-.56c.66-.72,1.58-1.21,2.39-1.64l.06-.03,.09-.13c-.02-.47,.13-.91,.49-1.41l.07-.1c.22-.26,.44-.5,.66-.74,.52-.56,1.01-1.09,1.32-1.75,.32-.68,.25-1.52,.18-2.33-.03-.36-.06-.73-.06-1.08v-.06c.07-.24,.16-.46,.28-.68,.15-.27,.66-2.1,.34-2.63-.08-.13-.12-.2-.54,0-.1,.05-.19,.1-.29,.15h-.02c-.28,.47-.6,.92-.99,1.39l-.62,.75,.18-.96c.11-.56,.16-1.13,.14-1.7,.06-.3,.04-.56,.02-.82-.03-.33-.06-.69,.05-1.09,.09-.34-.06-.53-.34-.84-.23-.25-.48-.53-.51-.95,0-.12-.01-.25-.02-.37-.03-.95-.09-1.41-1.04-1.45-.99-.04-1.97-.23-2.91-.42-.88-.17-1.79-.35-2.7-.4-.97-.04-1.6,.44-2.34,1.01l-.26,.2c-.46,.23-.91,.41-1.38,.6-.28,.11-.57,.23-.85,.35l-1.67,.72,1.64-1.32c-.33,.04-.64,.07-.94,.09h-.18c-.7,.05-1.75,.11-2.11,.66l-.23,.35c-.11,.17-.22,.34-.35,.52-.25,.35-.55,.73-1.08,.84-.18,.04-.38,.03-.54-.02-.44-.14-.82-.06-1.31,.27,.06,.09,.07,.2,.03,.31-.06,.15-.2,.26-.36,.26l-.12-.02c-1.16-.4-1.81-.19-2.37,.78-.2,.34-.48,.57-.75,.8-.25,.21-.5,.41-.67,.69-.29,.48-.7,.9-1.09,1.31-.72,.74-1.35,1.39-1.23,2.3,.38-.41,.84-.65,1.35-.92l1.01-.53-.6,.85c-.2,.29-.4,.58-.58,.87l-.04,.05c-.09,.09-.18,.18-.25,.27-.4,.55-.36,.65-.35,.69l.03,.09-.03,.09-.25-.06,.22,.12c-.1,.22-.18,.45-.27,.68-.14,.37-.29,.76-.48,1.13-.08,.16-.18,.32-.28,.48-.18,.29-.35,.57-.41,.87-.22,1.24,.54,2.03,1.34,2.87,.18,.19,.36,.38,.53,.57l.13,.15-.24,.32-.21-.04c-.19-.09-.36-.16-.52-.24-.16,.62-.27,1.06-.12,1.64,.08-.22,.18-.42,.28-.61,.15-.27,.61-.38,.81-.16,.05,.06,.12,.17,.1,.33-.04,.45-.12,.89-.2,1.32-.1,.52-.2,1.06-.22,1.59-.04,.94,.22,1.71,.52,2.6l.09,.26c.04,.12,.03,.25-.05,.37-.16,.23-.52,.26-.68,.04-.3-.39-.55-.83-.73-1.3,0,.15,0,.3-.02,.45-.05,1.09-.48,1.98-.9,2.85-.19,.4-.39,.81-.55,1.24l-.13,.35c-.41,1.12-.74,2.01-1.84,2.81-1.2,.88-1.76,1.89-2.48,3.16l-.24,.42c-.66,1.17-1.45,1.76-2.35,2.44-.21,.16-.43,.32-.66,.51-.29,.23-.6,.44-.91,.65-1.33,.9-2.48,1.68-1.87,3.39,.23,.64,.55,.73,.87,.73,.22,0,.47-.05,.71-.11,.26-.05,.52-.11,.78-.11Zm12.21-9.5l-.05,.06-.07,.07c-.06,.06-.13,.12-.2,.17-.4,.29-.8,.62-1.19,.98-.21,.26-.37,.46-.48,.62l1.39-1.02c.81-.64,1.39-1.2,1.83-1.77,.8-1.04,1.98-1.63,3.12-2.2l.33-.15c.71-.14,1.55-.34,2.39-.74l.23-.11c.95-.45,1.92-.91,2.84-1.45,.33-.19,.64-.43,.95-.66,.4-.3,.82-.62,1.29-.85l-.08-.06,.25-.2c.24-.19,.4-.36,.53-.56l.09-.14,.16,.03c1.39,.23,3.12-.81,4.01-1.83,.24-.27,.36-.62,.49-1,.11-.32,.23-.66,.43-.96,.34-.5,1.11-.81,1.85-1.11,.39-.15,.75-.3,1-.46,1.19-.74,1.88-1.8,1.89-2.91l.02-.1s.03-.09,.02-.12c-.45-1.01,.42-2.04,1.18-2.95,.44-.52,.85-1,1-1.44,.23-.65,.18-1.73,.15-2.32-.03-.71,.17-1.17,.38-1.67,.1-.25,.21-.5,.29-.79,.14-.52,.34-1.86-.03-2.47-.09-.15-.21-.25-.36-.28-.3-.07-.6-.02-.94,.14,.42-.14,.76-.03,.95,.28,.49,.81-.2,2.89-.33,3.13-.09,.18-.17,.36-.22,.55,0,.32,.03,.65,.06,1,.08,.88,.15,1.79-.23,2.59-.35,.73-.88,1.31-1.41,1.87-.21,.23-.43,.47-.63,.71l-.05,.07c-.36,.49-.47,.85-.39,1.27l.04,.25-.24,.04c-.05,.06-.1,.11-.17,.15l-.06,.03c-.25,.13-.5,.26-.74,.4,.37-.09,.75-.15,1.12-.2l.39-.05-.12,.38c-.12,.37-.26,.79-.51,1.15-.44,.64-1.19,1.1-1.86,1.47-.28,.15-.56,.27-.82,.39-.63,.27-1.17,.51-1.6,1.14-.14,.21-.24,.51-.33,.78-.03,.1-.07,.2-.1,.29-.3,.79-1,1.28-1.65,1.64-.94,.54-1.78,.78-2.53,.72-.19-.02-.36-.05-.55-.12-.02,0-.04,0-.07,0,0,.03,.01,.07,.01,.1l.32,.19-.31,.22c-.22,.16-.44,.31-.67,.45-.31,.19-.71,.23-1.05,.24-.51,.17-1.03,.29-1.55,.36-.4,.19-.81,.31-1.27,.34-.14,.03-.36,.04-.57,0-.43-.01-.88-.09-1.35-.17,.59,.37,1.1,.67,1.84,.58,.26-.03,.56-.17,.83-.29l.19-.09c.49-.21,.93-.24,1.36-.27,.13,0,.27-.02,.41-.03l1.04-.11-.88,.57c-1.19,.77-2.43,1.32-3.5,1.75-.27,.11-.56,.21-.93,.33l-.21,.06-.05-.12c-.3,.12-.6,.22-.91,.33l-.32,.12h-.02c-.74,.27-1.58,.6-2.25,1.16-.11,.09-.22,.19-.34,.28-.32,.27-.64,.55-1,.78-.2,.2-.43,.45-.65,.69-.23,.26-.47,.52-.73,.76l-.08,.05Zm-3.25-12.07c-.06,.2-.11,.4-.13,.6-.04,.47-.01,.93,.01,1.42,.02,.44,.04,.9,.02,1.36-.03,.49-.09,1.01-.19,1.53,.22-.53,.38-1.08,.41-1.7,.03-.6,.04-1.24-.08-1.87-.09-.46-.07-.9-.04-1.26v-.07Zm.18-.49l.28,.45c.08,.12,.15,.22,.23,.3l.08,.08v.11c-.05,1.04,.2,2.04,.68,2.86-.27-.81-.5-1.6-.46-2.53,.02-.57,.13-1.12,.23-1.66,.07-.35,.13-.72,.18-1.08-.16,.31-.3,.67-.42,1.08l-.18,.62-.29-.58c-.04-.09-.09-.18-.13-.29-.31-.75-.26-1.33-.13-1.92-.03,.06-.06,.13-.09,.19-.12,.23-.22,.45-.3,.67-.14,.41,.07,.92,.24,1.37l.1,.25-.03,.07Zm.43-10.12l.03,.04-.03,.11c-.04,.14-.06,.28-.08,.42-.05,.35-.12,.75-.43,1.21-.32,.47-.64,.96-.85,1.52-.3,.81,.12,1.7,.54,2.47,.14,.25,.33,.47,.59,.66-.7-.77-1.28-1.62-1.06-2.87,.07-.39,.27-.72,.47-1.04,.09-.15,.18-.29,.25-.44,.17-.36,.32-.73,.46-1.1,.09-.23,.18-.45,.27-.68-.05-.26,.07-.54,.45-1.05,.06-.09,.14-.17,.22-.25-.23,.17-.43,.37-.6,.64l-.23,.36Zm.59-3.26s0,0,0,0c-.33,.28-.58,.57-.81,.97-.33,.56-.24,1.36,.04,1.95l-.03-.07c-.47-1.23,.1-2.08,.81-2.86Zm4.44-4.46c-.21,0-.42,.05-.62,.14-.27,.13-.51,.34-.64,.57-.25,.44-.59,.76-.91,1.07-.22,.21-.43,.41-.62,.65-.16,.2-.3,.4-.44,.61-.16,.23-.33,.47-.52,.7,.28-.3,.55-.6,.75-.93,.21-.35,.5-.59,.78-.81,.25-.21,.49-.4,.64-.66,.55-.93,1.26-1.32,2.22-1.18-.22-.1-.43-.15-.64-.15ZM34.35,1.76c.05,0,.11,0,.17,0,.94,.05,1.87,.23,2.77,.41,.92,.18,1.88,.37,2.83,.41,1.46,.06,1.49,1.06,1.52,1.93,0,.12,0,.24,.01,.36,.01,.25,.18,.43,.38,.64,.28,.3,.62,.68,.46,1.31-.09,.31-.06,.61-.03,.92,.03,.29,.05,.59-.02,.92,0,.25,0,.52-.02,.8,.15-.21,.29-.42,.41-.63l.03-.06,.14-.08s0,0,0,0v-.39c0-.06,0-.11,0-.14-.11-.48-.07-.91-.04-1.33,.01-.18,.03-.36,.03-.54,0-.42-.18-.68-.4-.97-.23-.31-.49-.65-.51-1.21-.03-.72-.14-1.22-.64-1.64-.43-.36-1.17-.36-1.82-.36-.24,0-.47,0-.67-.02-.74-.06-1.49-.22-2.21-.37-.67-.14-1.37-.29-2.05-.36-.84-.08-1.45,.1-2.12,.65-.41,.34-.82,.68-1.23,1.03l-.33,.28c.22-.09,.42-.18,.62-.28l.21-.17c.71-.55,1.44-1.12,2.5-1.12Zm-10.53,3.93c.18,0,.36,.03,.54,.08,.08,.03,.2,.03,.3,0,.32-.06,.52-.28,.77-.63,.07-.1,.14-.2,.2-.3-.36,.39-.79,.75-1.42,.66-.23-.03-.45,.06-.67,.2,.09-.02,.19-.03,.29-.03Z"/>
  <path class="cls-1" d="M9.44,50.16c-.33,0-.79-.12-1.13-.67-.76-.18-1.25-.59-1.52-1.26-.13-.34-.35-.47-.79-.47-.18,0-.37,.02-.57,.04-.22,.02-.44,.05-.65,.05-.45,0-1.08-.09-1.44-.88-.6-1.33-.67-2.45-.22-3.4,.52-1.11,1.44-1.71,2.33-2.29,.32-.21,.65-.42,.96-.66,.16-.12,.33-.24,.52-.37,.56-.39,1.2-.84,1.47-1.33,.18-.33,.37-.66,.55-.99,.24-.44,.48-.87,.72-1.31,.6-1.06,1.35-1.62,2.15-2.22,.33-.24,.66-.5,1-.8,1.35-1.17,2.08-3.77,2.18-5.68,.02-.43,0-.88-.02-1.31-.02-.48-.05-.98,0-1.48,.03-.39,.16-.75,.29-1.11l-.03-.07c-.2-.5-.45-1.13-.25-1.71,.08-.25,.21-.5,.32-.74,.12-.25,.24-.49,.32-.73-.3-.23-.52-.49-.68-.79-.47-.87-.95-1.89-.57-2.89,.23-.62,.59-1.15,.9-1.62,.25-.37,.3-.68,.35-1.01,.02-.12,.04-.24,.07-.37-.43-.74-.62-1.85-.15-2.66,.26-.45,.55-.79,.92-1.1,.46-.39,.78-.84,1.12-1.33,.15-.21,.3-.42,.46-.63,.21-.26,.44-.49,.66-.7,.31-.3,.61-.58,.82-.96,.19-.33,.5-.6,.87-.77,.63-.3,1.29-.25,1.95,.14,.05-.04,.09-.09,.14-.14,.47-.46,1.06-1.03,1.78-.94,.5,.07,.82-.31,1.18-.71,.19-.21,.38-.43,.61-.6,.51-.38,.97-.4,1.5-.43h.12c1.1-.07,2.09-.17,3.02-.33l.33-.28c.41-.35,.82-.69,1.23-1.04,.77-.63,1.5-.86,2.49-.76,.71,.07,1.42,.22,2.11,.37,.7,.15,1.43,.31,2.14,.36,.19,.02,.41,.02,.63,.02,.73,0,1.57,0,2.14,.48,.64,.53,.79,1.18,.82,2,.01,.4,.2,.64,.41,.93,.24,.32,.51,.68,.51,1.28,0,.2-.02,.39-.03,.57-.03,.35-.06,.69,0,1.05,.39-.16,.76-.2,1.14-.12,.29,.07,.52,.24,.68,.51,.49,.82,.22,2.34,.08,2.86-.09,.33-.2,.59-.31,.86-.2,.46-.36,.86-.34,1.45,.03,.62,.08,1.77-.18,2.51-.18,.52-.62,1.04-1.09,1.59-.7,.83-1.43,1.69-1.11,2.42,.06,.14,.06,.31,0,.48-.04,1.26-.81,2.45-2.13,3.27-.29,.18-.67,.33-1.08,.5-.64,.26-1.37,.55-1.62,.92-.17,.25-.27,.54-.37,.84-.14,.4-.28,.81-.58,1.16-.88,1.01-2.53,2.03-4,2.03h0c-.1,0-.2,0-.3-.02-.11,.15-.25,.3-.42,.45,0,0,0,.02,0,.03-.02,.14-.1,.26-.22,.32-.5,.22-.92,.54-1.37,.88-.32,.24-.64,.48-.99,.69-.94,.55-1.92,1.02-2.88,1.47l-.23,.11c-.87,.41-1.73,.62-2.47,.77l-.24,.12c-1.09,.54-2.22,1.11-2.95,2.06-.45,.59-1.05,1.17-1.87,1.82l-.26,.56c-.19,.43-.39,.86-.6,1.28-.05,.11-.1,.22-.16,.34-.21,.48-.46,1.02-.88,1.32-.28,.2-.63,.38-1.01,.57-.7,.35-1.49,.75-1.74,1.32-.06,.13-.12,.28-.18,.42-.23,.56-.47,1.13-.87,1.59-.43,.48-.49,1.08-.56,1.72-.09,.82-.2,1.76-1.16,2.42-.49,.34-1.14,.73-1.76,.73Zm-3.43-2.89c.4,0,.97,.08,1.25,.78,.21,.54,.61,.85,1.26,.98l.11,.02,.06,.1c.19,.35,.43,.51,.75,.51,.49,0,1.08-.37,1.48-.64,.77-.53,.85-1.28,.94-2.06,.08-.69,.16-1.4,.69-2,.35-.39,.57-.93,.78-1.45,.06-.15,.12-.29,.18-.43,.32-.73,1.2-1.17,1.97-1.56,.36-.18,.69-.35,.94-.53,.31-.22,.52-.7,.71-1.12,.06-.13,.11-.25,.17-.36,.21-.42,.4-.84,.59-1.26l.36-.71c.81-.64,1.39-1.2,1.83-1.77,.8-1.04,1.98-1.63,3.12-2.2l.33-.15c.71-.14,1.55-.34,2.39-.74l.23-.11c.95-.45,1.92-.91,2.84-1.45,.33-.19,.64-.43,.95-.66,.4-.3,.82-.62,1.29-.85l-.08-.06,.25-.2c.24-.19,.4-.36,.53-.56l.09-.14,.16,.03c1.39,.23,3.12-.81,4.01-1.83,.24-.27,.36-.62,.49-1,.11-.32,.23-.66,.43-.96,.34-.5,1.11-.81,1.85-1.11,.39-.15,.75-.3,1-.46,1.19-.74,1.88-1.8,1.89-2.91l.02-.1s.03-.09,.02-.12c-.45-1.01,.42-2.04,1.18-2.95,.44-.52,.85-1,1-1.44,.23-.65,.18-1.73,.15-2.32-.03-.71,.17-1.17,.38-1.67,.1-.25,.21-.5,.29-.79,.14-.52,.34-1.86-.03-2.47-.09-.15-.21-.25-.36-.28-.35-.08-.7,0-1.1,.23l-.38,.22v-.44c0-.06,0-.11,0-.14-.11-.48-.07-.91-.04-1.33,.01-.18,.03-.36,.03-.54,0-.42-.18-.68-.4-.97-.23-.31-.49-.65-.51-1.21-.03-.72-.14-1.22-.64-1.64-.43-.36-1.17-.36-1.82-.36-.24,0-.47,0-.67-.02-.74-.06-1.49-.22-2.21-.37-.67-.14-1.37-.29-2.05-.36-.84-.08-1.45,.1-2.12,.65-.41,.34-.82,.68-1.23,1.03l-.43,.37h-.07c-.97,.17-2,.28-3.14,.35h-.12c-.5,.04-.84,.05-1.23,.34-.18,.13-.35,.32-.53,.52-.4,.46-.86,.98-1.62,.88-.49-.07-.97,.42-1.36,.8-.08,.08-.16,.15-.23,.22l-.1,.26-.27-.17c-.56-.39-1.1-.46-1.63-.21-.27,.13-.51,.34-.64,.57-.25,.44-.59,.76-.91,1.07-.22,.21-.43,.41-.62,.65-.16,.2-.3,.4-.44,.61-.34,.49-.7,.99-1.21,1.42-.33,.28-.58,.57-.81,.97-.39,.66-.19,1.64,.19,2.23l.06,.09-.03,.11c-.04,.14-.06,.28-.08,.42-.05,.35-.12,.75-.43,1.21-.32,.47-.64,.96-.85,1.52-.3,.81,.12,1.7,.54,2.47,.15,.28,.37,.51,.67,.72l.14,.1-.04,.16c-.08,.35-.24,.68-.4,1-.12,.23-.22,.45-.3,.67-.14,.41,.07,.92,.24,1.37l.1,.25-.03,.09c-.13,.35-.27,.71-.29,1.06-.04,.47-.01,.93,.01,1.42,.02,.44,.04,.9,.02,1.36-.12,2.08-.89,4.76-2.35,6.03-.36,.31-.7,.57-1.03,.82-.79,.59-1.47,1.1-2.01,2.07-.24,.43-.48,.87-.72,1.3-.18,.33-.36,.67-.55,1-.33,.59-1.02,1.07-1.62,1.49-.18,.12-.35,.25-.5,.36-.33,.25-.66,.47-.99,.68-.87,.57-1.69,1.11-2.15,2.08-.38,.81-.31,1.79,.23,2.98,.19,.41,.47,.58,.98,.58,.2,0,.4-.02,.6-.04,.21-.02,.42-.04,.62-.04Zm3.49-.58c-.07,0-.14,0-.22-.03-.19-.04-.32-.19-.33-.38-.02-.24,.14-.53,.35-.62-.03,.02,.02-.07,.06-.19,.02-.07,.05-.14,.08-.21,.04-.1,.08-.2,.1-.31,.04-.19,.24-.35,.44-.35,.17,0,.31,.12,.34,.3,.05,.28,.1,1.09-.27,1.52-.14,.17-.33,.26-.55,.26Zm-.04-.5c.09,.01,.15-.01,.21-.08,.09-.1,.14-.28,.16-.47-.09,.26-.2,.43-.33,.48-.01,0-.03,.04-.04,.07Zm.78-1.87c-.24,0-.43-.18-.45-.43-.03-.38,.09-.72,.38-1.04,.22-.24,.47-.28,.67-.31,.05,0,.1-.02,.15-.03,.03-.09,.07-.25,.09-.35,.04-.16,.08-.31,.11-.38,.11-.27,.25-.47,.4-.67,.11-.16,.22-.3,.3-.48,.12-.27,.54-.33,.71-.11,.07,.09,.1,.21,.07,.34-.04,.17-.1,.33-.17,.48-.07,.17-.14,.33-.15,.48-.01,.11-.02,.22-.03,.34-.02,.28-.03,.57-.12,.84-.11,.34-.35,.59-.72,.74-.23,.09-.39,.13-.62,.13-.02,0-.09,.1-.12,.14-.03,.04-.06,.08-.09,.11-.1,.12-.26,.19-.41,.19Zm1.66-2.8c-.1,.14-.18,.28-.25,.44-.02,.06-.05,.19-.09,.32-.12,.47-.16,.61-.32,.67-.11,.04-.22,.06-.33,.08-.19,.03-.28,.05-.38,.16-.19,.21-.27,.41-.25,.66,0-.07,.03-.1,.05-.13,.1-.13,.25-.34,.51-.35,.17,0,.27-.03,.44-.1,.23-.09,.37-.23,.43-.43,.07-.21,.08-.46,.1-.71,0-.12,.01-.25,.03-.37,0-.09,.03-.17,.05-.25Zm1.89-1.27c-.18,0-.35-.11-.43-.28-.09-.17-.06-.38,.07-.54,.06-.08,.14-.18,.3-.24,.18-.08,.4-.03,.53,.13,.15,.19,.14,.42,0,.63,0,.01-.02,.04-.04,.06-.1,.15-.25,.24-.41,.24Zm3.08-3.36c-.12,0-.23-.05-.3-.15-.07-.09-.09-.21-.05-.33,.04-.14,.1-.27,.17-.4,.2-.41,.68-.38,.84-.1,.07,.13,.07,.29-.02,.43-.09,.15-.19,.27-.31,.4-.08,.09-.2,.15-.33,.15Zm1.8-1.74c-.2,0-.36-.11-.43-.29-.09-.22-.02-.51,.16-.69,.23-.22,.48-.42,.72-.6,.17-.13,.33-.26,.49-.4,.18-.16,.38-.29,.58-.42,.24-.16,.46-.3,.63-.48,.18-.19,.5-.18,.64,.02,.08,.11,.09,.25,.04,.39-.15,.4-.46,.7-.76,.98-.12,.11-.24,.23-.34,.34-.43,.49-.83,.84-1.5,1.09-.08,.03-.16,.04-.23,.04Zm2.01-2.12c-.07,.05-.14,.09-.21,.14-.19,.13-.37,.25-.53,.38-.17,.14-.34,.28-.52,.41-.24,.19-.47,.36-.68,.56-.05,.05-.06,.13-.05,.15,.6-.25,.94-.55,1.32-.99,.11-.13,.24-.25,.38-.38,.1-.09,.19-.18,.28-.27Zm-4.61,1.16c-.18,0-.33-.12-.37-.3-.06-.27,0-.52,.04-.75l.02-.09c.04-.18,.21-.32,.4-.32,.16,0,.29,.11,.33,.27l.02,.07c.05,.22,.1,.47,.05,.74-.04,.21-.26,.38-.48,.38Zm.86-1.22c-.21,0-.39-.14-.43-.33-.05-.22-.04-.43-.03-.64,0-.12,.01-.25,0-.37-.01-.17-.01-.33,0-.49,0-.28,.01-.52-.08-.76-.05-.12-.03-.26,.05-.37,.16-.23,.52-.26,.67-.04,.3,.41,.81,1.4,.62,2.19-.08,.33-.27,.59-.57,.75-.06,.04-.14,.05-.22,.05Zm.02-2.26c.01,.15,0,.3,0,.44,0,.14,0,.29,0,.43,.01,.14,0,.29,0,.44,0,.15-.01,.29,0,.43,.13-.09,.22-.22,.26-.4,.09-.38-.07-.91-.28-1.34Zm4.49-2.05c-.34-.03-.76-.27-.89-.57-.12-.28-.17-.59-.13-.9,.02-.19,.21-.36,.39-.36,.15,0,.28,.11,.31,.27,.06,.3,.15,.41,.18,.42l.07,.02c.06,.02,.12,.03,.18,.06-.13-.27-.21-.57-.24-.82-.04-.33,.02-.63,.08-.92,.06-.3,.12-.58,.06-.87-.02-.12,0-.25,.09-.34,.18-.22,.54-.18,.65,.08,.22,.52,.25,.89,.3,1.4v.08c.03,.23,.14,.45,.25,.67,.12,.24,.25,.49,.29,.79,.02,.16-.03,.32-.14,.45-.19,.22-.55,.29-.79,.14-.06-.03-.11-.07-.16-.11,0,.11-.04,.21-.1,.31-.1,.13-.25,.21-.4,.21Zm.5-2.99c-.02,.09-.04,.19-.05,.28-.05,.26-.1,.51-.08,.76,.05,.4,.24,.92,.55,1.1,.09,0,.13-.01,.16-.04-.01-.27-.12-.47-.23-.68-.13-.26-.27-.52-.3-.85v-.08c-.02-.18-.04-.34-.06-.49Zm5.82,1.48c-.84,0-1.25-.91-1.35-1.19-.05-.13-.03-.28,.05-.4,.14-.21,.44-.28,.64-.14,.04,.03,.1,.07,.15,.11,.16,.12,.43,.31,.58,.31,.06,0,.15-.06,.23-.12,.04-.03,.08-.06,.13-.08,.52-.3,1.09-.24,1.34,.18,.08,.13,.1,.3,.04,.46-.06,.17-.18,.3-.34,.36-.08,.03-.16,.06-.25,.08-.15,.05-.29,.09-.42,.17-.2,.12-.43,.24-.71,.26-.04,0-.07,0-.11,0Zm-.87-1.27c.17,.36,.47,.77,.87,.77,.23-.02,.38-.09,.56-.2,.18-.1,.35-.16,.52-.21,.07-.02,.15-.05,.22-.08,.02,0,.05-.06,.04-.09-.12-.19-.39-.17-.67-.01-.03,.02-.06,.04-.1,.06-.13,.09-.29,.2-.51,.2-.31,0-.62-.22-.88-.4-.02-.02-.05-.04-.07-.05Zm-7.22-.22c-.11,0-.22-.04-.29-.12-.06-.07-.1-.16-.1-.26,0-.13,.06-.27,.16-.37-.12-.09-.21-.23-.26-.4-.13-.45,.04-1.05,.2-1.31,.06-.1,.16-.19,.25-.27,.04-.04,.11-.1,.13-.13,0-.16,.11-.32,.2-.47,.04-.07,.09-.14,.12-.21,.1-.24,.48-.3,.63-.1,.06,.08,.08,.2,.05,.3-.03,.09,0,.14,.03,.24,.04,.09,.08,.21,.09,.37,0,.25-.1,.49-.3,.69-.17,.17-.18,.27-.21,.58-.03,.29-.08,.48-.3,.67,0,0-.01,.01-.02,.02,.06,.07,.09,.15,.09,.25,0,.24-.19,.5-.47,.5Zm.65-2.93c-.04,.07-.07,.13-.07,.2-.02,.16-.14,.27-.28,.39-.06,.05-.14,.12-.16,.16-.12,.19-.23,.64-.15,.91,.04,.12,.09,.15,.11,.16,.06-.1,.09-.15,.1-.32,.03-.37,.06-.62,.36-.92,.1-.11,.16-.22,.16-.33,0-.07-.02-.12-.05-.2,0-.01,0-.02-.01-.04Zm10.46,2.6c-.27,0-.66-.03-1.05-.24-.19-.11-.3-.31-.27-.52,.03-.24,.22-.45,.46-.5,.27-.07,.54-.08,.79-.09,.16,0,.32-.01,.49-.03,.12-.02,.25-.04,.38-.07,.2-.04,.4-.09,.62-.1,.58-.03,1.26-.83,1.45-1.35,.09-.24,.46-.33,.64-.15,.07,.07,.1,.16,.1,.26,0,.04,0,.08,0,.12,.22-.23,.42-.5,.6-.82,.41-.74,.91-1.58,1.53-2.35,.18-.22,.53-.19,.65,.04,.07,.14,.06,.3-.03,.44-.4,.6-.72,1.25-1,1.99-.04,.11-.08,.23-.12,.34-.12,.35-.24,.7-.45,1.02-.51,.77-1.31,1.37-2.3,1.73-.15,.06-.29,.06-.41,0-.17,.07-.33,.08-.48,.08-.07,0-.14,0-.2,.01-.11,.02-.21,.04-.32,.06-.18,.04-.37,.08-.57,.09-.16,.01-.33,.02-.49,.02Zm2.89-1.98c-.38,.47-.91,.89-1.45,.92-.17,0-.35,.05-.54,.09-.14,.03-.28,.06-.42,.08-.18,.02-.36,.03-.54,.04-.24,0-.47,.02-.7,.07-.06,.01-.09,.07-.08,.09,.23,.13,.48,.18,.82,.18,.15,0,.3,0,.45-.02,.17-.01,.33-.05,.5-.08,.12-.03,.23-.05,.35-.07,.09-.01,.18-.02,.27-.02,.12,0,.22,0,.3-.04l.27-.15,.13,.16c.66-.26,1.52-.71,2.09-1.57,.17-.26,.29-.59,.4-.9,.04-.12,.08-.24,.13-.36,.05-.14,.11-.27,.16-.4-.14,.24-.28,.48-.41,.71-.4,.7-.88,1.14-1.34,1.54l-.79,.67,.39-.94Zm-12.96-1.68c-.15,0-.28-.08-.34-.22-.14-.31-.06-.61,.02-.87,.02-.09,.05-.17,.06-.26,.03-.2,.21-.35,.41-.35s.35,.14,.37,.34v.08c.04,.3,.08,.67-.07,.98-.07,.16-.27,.29-.45,.29Zm11.7-3.59c-.18,0-.35-.09-.43-.24-.09-.15-.08-.33,.01-.5,.29-.51,.72-.8,1.14-1.07,.19-.12,.38-.25,.56-.4,.31-.26,.48-.62,.66-1.01,.11-.24,.22-.48,.37-.71,.15-.23,.51-.25,.67-.04,.08,.09,.1,.22,.08,.34-.04,.16-.03,.34-.03,.52,0,.24,.02,.49-.07,.74-.13,.41-.39,.79-.7,1.05-.35,.3-.76,.52-1.15,.74-.28,.16-.55,.3-.8,.47-.09,.07-.2,.1-.32,.1Zm2.52-3.29c-.04,.09-.09,.19-.13,.28-.19,.42-.39,.86-.79,1.19-.2,.16-.41,.3-.61,.43-.39,.25-.75,.49-.98,.9,.29-.21,.58-.37,.86-.52,.39-.21,.75-.42,1.07-.68,.24-.2,.44-.5,.54-.83,.06-.17,.05-.36,.04-.57,0-.07,0-.13,0-.2Zm-15.62,3.08h-.06c-.26-.03-.5-.16-.67-.38-.32-.4-.39-.96-.35-1.33,.08-.75,.45-1.33,.81-1.9l.16-.25c.07-.11,.21-.19,.34-.19h.11l.12,.1c.06,.06,.09,.15,.09,.25-.01,.29-.09,.57-.17,.84-.09,.3-.17,.58-.15,.85,.01,.21,.1,.4,.19,.6,.09,.19,.17,.4,.21,.63,.03,.2-.03,.42-.17,.57-.12,.13-.27,.21-.44,.21Zm-.16-2.84c-.21,.37-.38,.75-.43,1.19-.03,.28,.03,.7,.24,.96,.1,.12,.21,.18,.34,.19,.02,0,.05,0,.08-.03,.04-.04,.06-.12,.05-.17-.03-.17-.1-.33-.17-.51-.1-.22-.21-.47-.23-.77-.02-.29,.05-.58,.12-.86Zm20.5,2.07c-.16,0-.29-.07-.38-.2-.47-.66,.21-1.43,.55-1.79,.39-.43,.66-.77,.63-1.26,0-.11-.02-.22-.03-.34-.03-.32-.06-.66-.04-1,.01-.21,.23-.42,.44-.42,.17,0,.3,.12,.34,.29,.05,.25,.13,.5,.21,.73,.21,.62,.42,1.26,.06,2.03-.13,.27-.32,.48-.5,.69-.08,.09-.15,.17-.22,.26-.07,.09-.13,.19-.2,.29-.13,.21-.27,.43-.5,.6-.1,.07-.22,.11-.33,.11Zm1.24-3.8c0,.05,0,.11,.02,.16,.01,.11,.02,.23,.03,.35,.05,.74-.39,1.24-.75,1.64-.39,.43-.72,.87-.51,1.17,.17-.14,.27-.3,.39-.49,.07-.12,.14-.23,.23-.34,.08-.1,.16-.19,.24-.29,.17-.19,.33-.37,.42-.57,.27-.58,.12-1.04-.07-1.63Zm-2.03-.68c-.18,0-.33-.07-.42-.2-.05-.07-.12-.22-.05-.45,.11-.32,.28-.61,.44-.9,.19-.34,.38-.66,.46-1,.21-.86,.11-1.46-.34-2.14-.08-.12-.08-.26-.01-.39,.13-.25,.5-.29,.65-.06,.06,.09,.13,.19,.2,.28-.03-.07-.07-.14-.09-.22-.07-.24-.11-.46-.16-.72-.02-.11,.02-.24,.1-.33,.16-.19,.46-.18,.58,.02,.1,.16,.26,.31,.43,.47,.31,.3,.67,.63,.72,1.11,.07,.68-.33,1.27-.58,1.56-.03,.03-.05,.06-.09,.08,0,.08-.02,.16-.03,.24-.19,.87-.63,1.67-1.35,2.45-.11,.12-.29,.2-.47,.2Zm.96-3.99c.12,.47,.1,.97-.04,1.57-.1,.41-.31,.78-.51,1.13-.16,.28-.31,.54-.4,.81,.04-.02,.08-.04,.1-.05,.66-.71,1.06-1.44,1.23-2.21,.02-.09,.03-.19,.03-.28v-.17s.05-.02,.05-.02l-.26-.48c-.05-.1-.12-.2-.18-.29Zm.31-1.46c.02,.08,.04,.16,.06,.24,.03,.1,.09,.2,.14,.3,.09,.17,.19,.35,.22,.56,.03,.24-.04,.46-.09,.62l-.16,.51,.07-.03c.38-.42,.55-.85,.51-1.21-.03-.29-.29-.54-.56-.79-.06-.06-.13-.12-.19-.19Z"/>
</svg>