<?xml version="1.0" encoding="UTF-8"?>
<svg id="Layer_1" data-name="Layer 1" xmlns="http://www.w3.org/2000/svg" viewBox="0 0 61 44">
  <defs>
    <style>
      .cls-1 {
        fill: #fff;
      }
    </style>
  </defs>
  <path class="cls-1" d="M19.94,32.48l-.07-.04-.64-.2,.6-.27c1.97-.85,3.76-1.6,5.5-2.29l1.05-.42-.78,.82s-.09,.09-.14,.14l-.06,.04-.41,.21c-1.55,.79-3.16,1.6-4.96,1.96l-.09,.04Z"/>
  <path class="cls-1" d="M7.38,39.41c-.27,0-.5-.16-.61-.43l-.1-.24,.8-.27v.27c.57-.21,1.13-.42,1.68-.62l.66-.25,.18,.46c-.81,.34-1.55,.66-2.25,.99-.13,.06-.25,.09-.37,.09Z"/>
  <path class="cls-1" d="M29.01,30.35l-.15-.47c1.34-.5,2.67-1.03,4.01-1.55,2.08-.81,4.23-1.66,6.38-2.41l.13-.04,.11,.08c.42,.33,1.17,.27,1.66-.1,.22-.17,.36-.37,.43-.62l.04-.12,.12-.04c2.71-.9,5.39-1.73,7.95-2.46,.65-.15,1.28-.29,1.91-.43h0s.15-.05,.15-.05l.16,.17c.2,.39,.5,.73,.84,.94l.17,.11-.07,.19c-.12,.32-.15,.62-.12,.93v.04s0,.04,0,.04c-.05,.21-.05,.42,.01,.62,.09,.3,.25,.58,.48,.85l.28,.33-.43,.08c-1.21,.22-2.46,.28-3.68,.33-.64,.03-1.27,.05-1.89,.11-2.08,.17-4.3,.38-6.47,.75-3.63,.62-7.56,1.52-12.01,2.72Zm10.28-3.92c-2.09,.74-4.2,1.56-6.23,2.36,2.8-.68,5.41-1.23,7.87-1.66,2.19-.38,4.42-.59,6.51-.76,.63-.05,1.27-.08,1.91-.11,1.06-.05,2.16-.09,3.21-.25-.14-.22-.25-.45-.32-.69-.08-.27-.09-.56-.03-.84-.03-.31,0-.62,.09-.93-.29-.22-.55-.51-.75-.85-.57,.12-1.16,.26-1.74,.39-.21,.06-.41,.12-.62,.18,.05,.02,.09,.03,.13,.05,.32,.04,.63,.17,.91,.39,.17,.14,.23,.37,.15,.59-.05,.15-.18,.31-.33,.39,0,.08-.03,.17-.05,.25-.14,.42-.5,.76-.99,.94-.23,.08-.53,.12-.83,.1-.42,.07-.83,0-1.12-.25-.5-.43-.56-1.19-.12-1.74,.02-.02,.04-.05,.06-.07-1.63,.49-3.3,1.02-4.98,1.58-.11,.29-.3,.54-.56,.74-.63,.48-1.56,.57-2.16,.18Zm9.34-2.74c-.49,0-1.02,.25-1.31,.62-.26,.33-.24,.79,.06,1.05,.18,.15,.45,.19,.73,.13h.03s.03,0,.03,0c.23,.02,.48-.01,.65-.07,.34-.12,.6-.35,.68-.62,.03-.08,.04-.17,.03-.26l-.02-.27h.27s.04-.02,.08-.07c.03-.04,.03-.08,.03-.09-.19-.15-.42-.25-.67-.27l-.08-.02c-.18-.08-.35-.11-.53-.11Z"/>
  <path class="cls-1" d="M12.67,36.71l-.17-.47c5.05-2.22,10.58-4.17,16.44-5.78,4.89-1.34,8.88-2.24,12.58-2.81,1.9-.29,3.81-.47,5.43-.61l.05,.5c-2.47,.33-4.91,.71-7.24,1.14l-.19,.04c-2.48,.46-6.62,1.23-8.99,1.94-4.9,1.23-8.63,2.63-12.96,4.25-1.37,.51-2.79,1.05-4.31,1.6l-.63,.19Z"/>
  <path class="cls-1" d="M38.3,13.49l-.34-.04c-.67-.07-1.46-.21-2.22-.72-.26-.18-.48-.4-.69-.61-.23-.23-.45-.45-.71-.61-.16-.1-.37-.15-.68-.18l-.86-.07,.83-.44s.07-.03,.1-.05l.12-.07,.12,.06c.53,.27,1.11,.5,1.68,.73,.58,.23,1.12,.45,1.6,.7,.32,.16,.61,.35,.83,.5l.1,.07v.12c.02,.09,.03,.19,.05,.27l.07,.33Zm-2.6-1.43c.1,.09,.21,.18,.32,.26,.47,.32,.96,.47,1.41,.56-.13-.08-.27-.16-.41-.23-.4-.2-.85-.39-1.33-.59Z"/>
  <path class="cls-1" d="M35.26,25.89l-.08-.02c-.27-.08-.36-.24-.4-.35-.06-.22,.03-.48,.3-.78l.18-.21,.19,.2c.37-.34,.77-.58,1.2-.77l.1-.03c.07-.01,.14-.03,.2-.04,.5-.08,.95,.06,1.38,.19,.18,.06,.36,.11,.54,.15l.94,.19-.92,.29c-1.19,.38-2.38,.76-3.57,1.15l-.07,.03Zm.09-.68c-.05,.08-.07,.13-.08,.15,.89-.29,1.79-.58,2.69-.87-.31-.09-.61-.16-.92-.11-.06,0-.12,.02-.18,.03-.39,.16-.75,.38-1.06,.65-.19,.16-.33,.16-.44,.14Z"/>
  <path class="cls-1" d="M20.76,28.25c-1.19,0-2.63-.38-3.08-1.45-.12-.28-.17-.72,.28-1.25l.09-.11,.14,.03c.1-.16,.19-.28,.29-.4,.51-.39,1.05-.68,1.38-.85,1.44-.76,2.86-.83,4.44-.29,0,0,.02-.01,.05-.04l.06-.05h.08c.14-.03,.27-.11,.37-.25l.1-.13,.16,.04,.35-.22,.06,.42c.05,.6-.12,1.32-.51,2.19-.62,1.37-2.03,1.99-3.1,2.26-.33,.08-.73,.13-1.14,.13Zm-2.49-2.3c-.26,.36-.17,.57-.13,.65,.36,.85,1.64,1.15,2.62,1.15,.37,0,.73-.04,1.02-.11,.97-.25,2.23-.79,2.77-1.98,.27-.6,.42-1.11,.46-1.55-.12,.09-.25,.15-.4,.18-.15,.11-.33,.15-.48,.09-1.47-.5-2.75-.42-4,.24-.36,.19-.88,.46-1.32,.79-.04,.06-.12,.16-.18,.26-.09,.15-.22,.25-.37,.28Z"/>
  <path class="cls-1" d="M14.96,31.59h0c-.16,0-.3-.03-.42-.09-.35-.18-.42-.42-.42-.6,0-.51,.64-.97,.89-1.11,.35-.19,.77-.31,1.14-.32h.23s.02,.18,.02,.18l.06,.02,.05,.1c.26,.15,.33,.36,.34,.5,.02,.16-.03,.42-.36,.71-.25,.16-.42,.15-.6,.07,0,.01-.06,.09-.06,.16v.18s-.16,.06-.16,.06c-.25,.09-.5,.14-.7,.14Zm1.04-1.6c-.29,.04-.58,.15-.76,.25-.28,.15-.62,.48-.62,.66,0,.05,.05,.1,.15,.16,.03,.01,.09,.03,.19,.03h0c.11,0,.25-.02,.39-.06,.03-.11,.09-.22,.17-.3,.16-.17,.39-.22,.58-.13,.2-.12,.24-.22,.24-.27,0-.04-.05-.09-.13-.13-.06-.03-.1-.07-.12-.11-.04-.02-.07-.05-.1-.09Z"/>
  <path class="cls-1" d="M20.07,31.89l-.05-.24c-.57,.36-1.02,.27-1.23-.12-.18-.34-.12-.85,.16-1.27,.47-.71,1.54-1.06,2.3-1.27,.08-.02,.18-.03,.32-.03,.48,0,2.26,.2,2.56,.81l.11,.23-.24,.1c-1.19,.52-2.42,1.07-3.66,1.65l-.28,.13Zm1.5-2.43c-.13,0-.18,.01-.19,.01-.69,.18-1.64,.49-2.02,1.06-.2,.29-.22,.61-.14,.76,.03,.06,.07,.08,.14,.08,.06,0,.19-.02,.41-.16,.2-.14,.42-.13,.57,0,1.04-.48,2.08-.95,3.09-1.39-.42-.18-1.26-.36-1.86-.36Z"/>
  <path class="cls-1" d="M4.87,39.33c-.25,0-.49-.1-.67-.29-.2-.22-.31-.53-.29-.85v-.12s.1-.07,.1-.07c.27-.37,.5-.7,.74-1.02,.58-.51,1.08-1.04,1.49-1.5l.08-.09h.12s0,0,0,0c.63,0,1.54-.47,1.92-.79,.39-.33,.77-.88,.57-1.32-.05-.1-.11-.18-.19-.23l-.25-.16,.35-.4c.63-.69,1.26-1.39,1.87-2.1,2.85-2.54,5.38-4.84,7.75-7.43l.16-.16,.15,.06c1.11-.57,2.22-.9,3.44-1.03h.04s.06-.06,.09-.12l.07-.17,.19,.03c.39,.05,.72,.11,1.01,.19l-.09,.49c-.36-.04-.7-.02-1.13,.07l-.09,.02c-.29,.06-.59,.14-.88,.23,0,0-.03,.02-.06,.07l-.05,.09-.1,.03c-1,.27-2.16,1.15-2.74,1.84l.15,.18-.2,.2c-.41,.39-.7,.84-.87,1.34-.13,.38-.09,.7,.11,.98,.64,.9,2.79,1.12,3.67,1.03,2.46-.26,4.37-2.43,4.26-4.84-.09-1.95-2.29-2.24-3.6-2.24-.39,0-.79,.03-1.17,.08h0s-.96,.13-.96,.13l.45-.5s0,0,0,0v-.05h.05c.82-.91,1.65-1.83,2.5-2.73l.32-.34,.1,.46c.13,.49,.57,.77,1.05,.73,.27-.02,.47-.14,.61-.35,.24-.34,.29-.95,.14-1.5-.01-.15-.02-.24-.03-.33h-.12s-.03-.11-.03-.11l-.93,.27,.7-.7c.97-.97,1.73-1.68,2.47-2.33l.42-.37v.56c-.02,.29,.06,.71,.42,.99,.2,.16,.43,.26,.69,.31l.54,.11,.67-.21c.42-.13,.86-.35,1.29-.63,.72-.47,1.51-1.28,1.56-2.14,.02-.29-.05-.55-.22-.78l-.32-.45,.55,.06c.13,.01,.27,.03,.42,.03,.93,.05,1.47,.54,1.99,1.01,.23,.21,.46,.42,.74,.61,.63,.43,1.49,.5,2.32,.55h.14s.07,.13,.07,.13c.58,1.1,2.08,1.47,3.4,1.79l.06,.02c2.53,.63,4.72,2.3,6.84,3.91,.66,.5,1.28,.97,1.91,1.42l.25,.18-.22,.21c-.09,.08-.17,.14-.25,.17-2.11,.78-4.35,1.34-6.52,1.89-1.13,.28-2.3,.58-3.44,.9l-.16,.04-.1-.13c-.87-.77-2.11-.89-3.37-.37-.08,.02-.12,.03-.16,.04l-.55,.13,.19-.45s0-.02,.01-.03l-.1,.18c-.06,.11-.13,.21-.19,.3l-.04,.06-.08,.05c-.22,.1-.39,.2-.53,.32-.45,.36-.87,1.06-.71,1.39l.12,.25-.27,.09c-3.29,1.1-5.96,2.08-8.4,3.08-.37,.15-.74,.31-1.11,.47l-.66,.28-.08-.26c-.06-.18-.22-.35-.48-.49-.87-.47-1.88-.54-2.96-.19-1.05,.34-2.27,1.12-2.26,2.19,0,.27,.07,.63,.36,.76l.48,.22-.48,.23c-2.9,1.38-5.81,2.86-8.63,4.29-1.64,.83-3.29,1.67-4.95,2.49-.17,.08-.34,.12-.5,.12Zm-.46-1.01c.01,.15,.07,.29,.16,.38,.09,.1,.32,.19,.58,.06,1.65-.82,3.3-1.66,4.94-2.49,2.7-1.37,5.49-2.79,8.28-4.12-.16-.19-.29-.48-.29-.93-.01-1.11,.92-1.93,1.96-2.42-1.01-.12-2.24-.45-2.78-1.21-.3-.41-.35-.9-.17-1.43,.18-.52,.47-1,.87-1.42-.03-.14,0-.3,.14-.46,.26-.31,.68-.72,1.2-1.09-.09,.04-.17,.08-.26,.13-.08,.04-.16,.06-.24,.07-2.39,2.6-4.91,4.89-7.72,7.39-.59,.69-1.21,1.38-1.85,2.08,.06,.07,.11,.16,.16,.25,.31,.69-.16,1.43-.7,1.9-.43,.37-1.42,.89-2.15,.91-.41,.45-.89,.95-1.42,1.41-.2,.28-.43,.6-.65,.92-.02,.02-.04,.05-.05,.07Zm18.59-9.94c.36,.08,.71,.21,1.04,.38,.27,.15,.47,.33,.6,.53l.18-.08c.37-.16,.75-.32,1.12-.47,.97-.4,1.97-.79,3.03-1.19-.12,.02-.23,.04-.34,.04-.32,0-1.08-.13-1.1-1.29-.02-1.09,1.03-1.77,1.96-2.37,.34-.22,.66-.43,.91-.64-.15-.19-.25-.41-.35-.71-.37-1.17-1.04-1.65-2.08-2.07l-.13-.05c-.87-.35-1.96-.79-2.26-1.86,0,0,0,0,0,0-.05,.13-.11,.25-.19,.36-.23,.33-.57,.52-.98,.56-.6,.05-1.15-.24-1.43-.72-.62,.67-1.23,1.33-1.84,2,.29-.03,.57-.04,.85-.04,1.74,0,2.99,.47,3.63,1.33-.03-.12-.04-.24-.03-.37-.02-.13,0-.26,.06-.37,.03-.05,.06-.1,.09-.14,.23-.43,.64-.69,1.12-.69h.02c.16,0,.29,.07,.37,.18,.06,.08,.09,.18,.09,.29,.03,.03,.06,.07,.08,.11,.17,.26,.19,.56,.08,.84-.15,.36-.53,.66-.94,.75-.28,.05-.52-.01-.7-.18,.13,.29,.21,.61,.22,.97,.09,2.1-1.2,4.04-3.09,4.91Zm7.73-12.8c.12,.06,.23,.13,.34,.21,.93,.69,1.52,1.64,1.88,2.99,.37,1.39-.15,2.81-.61,4.07l-.06,.17c-.11,.29-.2,.59-.29,.89-.28,.9-.57,1.84-1.23,2.59-.24,.27-.6,.55-1,.76,1.35-.5,2.8-1,4.4-1.54-.05-.46,.24-.99,.58-1.38-.1,0-.19,0-.29,0-.44-.04-.79-.31-.91-.71-.13-.42,.02-.87,.37-1.16,.34-.28,.86-.44,1.41-.44,.35,0,.67,.06,.95,.18,.15,.06,.32,.17,.46,.33l.21-.2-.15,.28c.1,.15,.16,.35,.13,.6,1.24-.45,2.62-.29,3.57,.5,1.1-.31,2.22-.59,3.31-.86,2.08-.52,4.23-1.07,6.25-1.79-.53-.38-1.06-.79-1.59-1.19-2.08-1.58-4.22-3.22-6.65-3.83l-.06-.02c-1.37-.34-2.93-.72-3.65-1.92-.86-.05-1.74-.15-2.43-.63-.3-.21-.55-.43-.79-.65-.5-.45-.92-.84-1.67-.88,.07,.21,.1,.44,.09,.67-.08,1.31-1.39,2.27-1.78,2.53-.25,.16-.5,.31-.76,.43Zm-1.57,.14l-.53,.29c-.32,.11-.6,.23-.94,.38,0,0-.03,.01-.05,.06l-.03,.1-.09,.05c-1.17,.69-1.64,1.28-1.48,1.86,.24,.83,1.16,1.2,1.97,1.53l.13,.05c1.12,.46,1.95,1.04,2.37,2.39,.1,.32,.21,.52,.39,.69l.18,.18-.18,.18c-.31,.31-.73,.58-1.17,.87-.86,.56-1.74,1.13-1.73,1.94,.01,.72,.35,.8,.6,.8,.56,0,1.37-.48,1.75-.92,.6-.68,.86-1.52,1.13-2.41,.1-.31,.19-.62,.3-.92l.06-.17c.43-1.19,.93-2.54,.6-3.77-.33-1.25-.86-2.08-1.7-2.71-.24-.18-.51-.29-.81-.34l-.79-.13Zm6.15,6.8c-.43,0-.84,.12-1.09,.33-.24,.19-.26,.45-.21,.63,.06,.21,.24,.34,.48,.36,.46,.04,1.01-.16,1.35-.48l.51-.48c-.06-.1-.17-.17-.29-.22-.21-.09-.47-.14-.74-.14Zm-8.45-1.5c-.28,0-.54,.16-.68,.42-.06,.08-.08,.12-.1,.15v.05s0,.09,0,.09c-.02,.15,.02,.29,.09,.38,.07,.08,.17,.1,.29,.08,.25-.05,.49-.24,.58-.45,.06-.13,.04-.26-.03-.38-.02-.02-.04-.05-.07-.07l-.14-.1,.06-.17Zm-1.54-4.63c.13,.06,.24,.18,.26,.4,.01,.09,.02,.19,.02,.3,.04,.14,.07,.31,.09,.49,.3-.57,.95-1.02,1.52-1.36,.06-.12,.16-.22,.28-.28,.17-.08,.34-.15,.49-.21-.09-.05-.18-.11-.27-.18-.29-.22-.48-.53-.57-.89-.55,.5-1.14,1.05-1.82,1.73Zm-14.24,18.43c-.09,0-.19-.01-.27-.04-.05,0-.11,.01-.16,.01-.16,.03-.34-.07-.42-.23-.2-.42-.16-.92,.1-1.38,.29-.51,.79-.86,1.31-.91,.05-.02,.15-.04,.25-.04,.17,0,.32,.06,.44,.17h0c.05,.03,.1,.05,.15,.09,.11,.08,.18,.19,.2,.32,.02,.14-.02,.3-.11,.43-.02,.15-.06,.3-.12,.44-.23,.55-.79,1.15-1.37,1.15Zm-.22-.56l.07,.03c.35,.16,.86-.34,1.05-.81,.05-.12,.08-.25,.1-.37v-.08s.06-.06,.06-.06c.04-.05,.05-.09,.05-.1-.03,0-.08-.03-.12-.05l-.1-.08s-.13-.03-.23,0c-.4,.04-.77,.3-.98,.67-.17,.3-.2,.61-.1,.87,.04,0,.09,0,.13-.02h.08Zm4.03-2c-.34,0-.63-.1-.86-.29-.47-.39-.62-.9-.43-1.43,.33-.91,1.64-1.75,2.76-1.75,.47,0,.87,.15,1.15,.44,.18,.18,.19,.48,.04,.72,0,.22-.04,.44-.14,.65-.12,.26-.37,.63-.69,.88-.53,.48-1.23,.78-1.82,.78Zm1.47-2.97c-.9,0-2.03,.7-2.29,1.42-.12,.34-.03,.62,.28,.88,.43,.36,1.37,.11,2.04-.49,.27-.2,.46-.5,.55-.7,.08-.16,.11-.33,.09-.49v-.1s.06-.08,.06-.08c.06-.07,.06-.13,.05-.14-.19-.19-.45-.29-.79-.29Zm21.94-6.38s-.08,0-.12,0c-.44-.03-.77-.17-.98-.42-.16-.19-.25-.44-.25-.71-.08-.12-.13-.24-.15-.38-.88-.38-1.32-1.04-1.28-1.93,.03-.62,.33-1.25,.86-1.77-.47-.25-.56-.63-.54-.93,.05-.65,.51-1.28,1.25-1.68,.22-.12,.65-.32,1.12-.32,.39,0,.71,.15,.94,.42,.22,.28,.4,.74,.08,1.44h.06c.67,0,2.3,.13,2.89,1.34,.56,1.15,.12,2.22-1.32,3.19,.1,.3,.03,.54-.06,.71-.41,.74-1.82,1.04-2.49,1.04Zm-.1-7.64c-.26,0-.58,.09-.88,.26-.45,.25-.95,.71-.99,1.28,0,.12-.03,.41,.58,.57l.48,.13-.4,.31c-.6,.47-.96,1.08-.99,1.67-.03,.71,.35,1.22,1.12,1.5l.2,.07-.04,.21c-.02,.09,0,.17,.08,.25l.08,.08v.11c-.02,.12,0,.3,.12,.44,.12,.14,.34,.23,.63,.25h.09c.64,0,1.79-.31,2.05-.78,.05-.09,.09-.22-.03-.42l-.13-.21,.21-.13c1.37-.87,1.79-1.71,1.32-2.67-.33-.66-1.24-1.06-2.45-1.06-.16,0-.32,0-.47,.02l-.51,.05,.27-.43c.35-.55,.41-.98,.18-1.27-.13-.16-.31-.24-.55-.24Zm6.06,6.94c-.29,0-.54-.12-.7-.34-.16-.22-.2-.52-.1-.81,.14-.44,.76-1.09,1.36-1.09,.19,0,.36,.06,.5,.18,.23,.2,.35,.46,.33,.75-.03,.45-.36,.86-.68,1.06l-.09,.04c-.14,.11-.34,.18-.55,.19h-.08Zm.57-1.74c-.34,0-.8,.47-.89,.75-.05,.14-.03,.27,.03,.36,.06,.08,.16,.13,.29,.13,.16,0,.27-.05,.38-.13l.08-.04c.23-.15,.42-.44,.44-.67,0-.13-.04-.25-.15-.34-.05-.05-.11-.07-.18-.07Z"/>
  <g>
    <path class="cls-1" d="M6.07,40.43h0c-.26,0-.45-.14-.52-.38-.09-.33,.09-.77,.39-.94,2.46-1.48,5.27-2.37,7.99-3.23,.98-.31,1.99-.63,2.95-.97,.78-.27,1.55-.55,2.33-.83,2.91-1.05,5.92-2.13,8.97-2.89,.93-.23,1.86-.47,2.79-.7,3.03-.77,6.16-1.57,9.29-2.16,3.17-.6,6.22-.81,9.46-1.02,.75-.05,1.49-.1,2.25-.16h0c.24,0,.39,.15,.41,.35,.02,.22-.14,.42-.35,.45-7.7,1.21-15.45,2.95-23.69,5.3-3.09,.88-6.19,2.02-9.19,3.12-4.18,1.53-8.51,3.11-12.9,4.06-.06,.01-.12,.02-.17,.02Zm43.76-12.64s-.05,0-.07,0c-3.22,.21-6.26,.42-9.4,1.02-3.11,.59-6.24,1.39-9.26,2.16-.93,.24-1.86,.47-2.79,.7-3.02,.75-6.02,1.83-8.92,2.87-.78,.28-1.56,.56-2.34,.83-.98,.34-1.99,.66-2.97,.97-2.69,.85-5.47,1.73-7.89,3.18-.07,.04-.14,.15-.16,.26-.02,.08,0,.12,0,.13h.03s.04,0,.07,0c4.36-.94,8.67-2.51,12.84-4.04,3.01-1.1,6.12-2.24,9.23-3.13,7.5-2.14,14.6-3.77,21.62-4.97Z"/>
    <path class="cls-1" d="M3.28,39.81c-.21,0-.38-.11-.47-.29-.09-.19-.06-.42,.09-.6,.51-.61,1.05-1.19,1.58-1.75,.54-.58,1.1-1.17,1.61-1.79,1.12-1.36,2.31-2.65,3.54-3.97,2.64-2.84,5.33-5.55,7.38-7.59,2.29-2.28,4.88-4.86,7.53-7.29,.8-.74,1.62-1.46,2.43-2.17,.52-.46,1.04-.91,1.55-1.37l.56-.5c.7-.62,1.42-1.25,2.05-1.94-.81-1.06-.97-2.26-.45-3.32,.11-.23,.4-.78,.82-1.24,.07-1.92,1.73-3.53,3.67-3.53,.19,0,.38,.01,.57,.04,1.39,.21,2.79,.64,3.59,2.31,1.03,2.15,3.04,3.08,5.16,4.06l.68,.31c.92,.43,1.83,.91,2.7,1.38,1.42,.76,2.89,1.54,4.43,2.1,1.37,.5,2.41,1.53,3,2.96,.66,1.6,1.25,2.57,2.62,3.41l.16,.1c.41,.23,.91,.53,1.06,1.08,.46,1.66,.24,3.1-.27,4.89-.03,.12-.09,.23-.17,.33-.27,.61-.72,1.09-1.28,1.34-.37,.17-.76,.25-1.19,.25h0c-.64,0-1.26-.18-1.78-.36-1.24-.42-1.89-1.04-1.98-1.91-.06-.5,.03-1.02,.27-1.57-.41-.41-.75-.96-.92-1.5-1.27,.48-2.59,.87-3.86,1.25l-.91,.27c-1.97,.6-4.09,1.28-6.67,2.17-1.07,.37-2.14,.73-3.21,1.09-3.21,1.08-6.54,2.21-9.77,3.42-3.54,1.33-8.2,3.11-12.8,5.07-2.15,.91-4.22,1.85-6.16,2.78-.24,.12-.49,.24-.73,.35-.75,.37-1.53,.75-2.33,1.05-.19,.07-.38,.15-.56,.23-.47,.2-.95,.41-1.49,.46h-.05Zm0-.5v0c.47-.04,.89-.22,1.34-.42,.2-.08,.39-.17,.59-.24,.78-.29,1.54-.66,2.29-1.03,.24-.12,.49-.24,.73-.36,1.95-.93,4.03-1.87,6.18-2.79,4.61-1.96,9.27-3.74,12.82-5.08,3.24-1.22,6.57-2.34,9.79-3.43,1.07-.36,2.14-.72,3.2-1.09,2.58-.88,4.71-1.57,6.69-2.17l.91-.27c1.35-.4,2.75-.82,4.08-1.34l.28-.11,.06,.29c.08,.38,.28,.8,.54,1.16,.01-.17,.04-.34,.09-.51,.03-.09,.06-.18,.09-.27-.58-.32-.83-.8-.78-1.44,0-.08,.03-.19,.06-.31,.05-.18,.12-.49,.06-.6,0,0-.02-.03-.07-.04-.17-.02-.37-.04-.57-.07-.37-.05-.75-.1-1.08-.28-.53-.3-.92-.71-1.12-1.16-.46,.06-.87-.12-1.28-.33l-.23-.11c-.46-.21-.77-.44-1-.73-.98-.27-1.63-.81-1.83-1.51-.09-.32-.18-.32-.22-.32-.1,0-.24,.06-.39,.11-.16,.06-.33,.13-.52,.16-.89,.17-1.45,.17-2.08,.02-1.12-.26-2.21-1.22-2.58-2.22-.88,.25-2.04-.26-2.53-1.09-.15-.26-.24-.58-.25-.9-.36,.04-.7,.06-1.04,.06-1.55,0-2.74-.45-3.44-1.31-.84-1.03-.78-2.29,.16-3.39-.03-.21-.02-.41,.02-.6,.17-.76,.73-1.74,1.59-2.24l.5-.29c-1.3,.39-2.3,1.61-2.3,3.01v.1s-.07,.07-.07,.07c-.4,.42-.69,.97-.8,1.18-.46,.94-.27,2.01,.52,2.95l.13,.16c.42,.44,.97,.5,1.55,.57,.71,.08,1.51,.17,2.08,1.01,.48,.71,1.12,1,2.16,1,.22,0,.45-.01,.68-.03h.07s.06,.03,.06,.03c.1,.05,.2,.1,.29,.15l.27,.14,.04,.07c.25,.47,.73,.91,1.34,1.19,.73,.34,1.49,.59,2.34,.74l.07,.03,.94,.5c1.38,.72,2.81,1.47,4.14,2.36,.37,.24,.74,.47,1.12,.7,.45,.27,.89,.54,1.33,.84,.38,.26,.76,.53,1.14,.83,.03,.03,.08,.05,.12,.07l.51,.27-.54,.19c-1.88,.65-3.82,1.24-5.7,1.81-1.72,.52-3.49,1.05-5.21,1.64-.98,.33-1.95,.66-2.93,.99-3.18,1.08-6.48,2.19-9.68,3.38-3.9,1.46-7.97,3.06-12.43,4.9-1.91,.79-3.93,1.68-6.18,2.73-.46,.22-.92,.44-1.38,.66-.57,.28-1.15,.56-1.73,.82-.14,.07-.29,.14-.45,.21-.51,.24-1.1,.52-1.66,.7l-.85,.26,.59-.67c.32-.36,.64-.71,.97-1.06,.48-.51,.97-1.04,1.42-1.58,1.07-1.28,2.21-2.58,3.49-3.98,.28-.31,.56-.61,.84-.91-.2,.21-.4,.43-.61,.65-1.22,1.31-2.4,2.61-3.52,3.95-.52,.63-1.08,1.23-1.63,1.81-.52,.56-1.07,1.14-1.56,1.73-.03,.03-.03,.06-.02,.06h.01ZM31.59,11.04c-.55,.63-1.16,1.2-1.76,1.75l-.27,.25c-.61,.57-1.24,1.14-1.86,1.7-.69,.63-1.39,1.26-2.07,1.9-2.6,2.44-5.12,4.98-7.91,7.8-2.87,2.9-5.26,5.35-7.58,7.9-1.28,1.39-2.41,2.69-3.48,3.96-.46,.55-.96,1.08-1.44,1.6-.08,.09-.16,.17-.24,.26,.21-.1,.42-.19,.62-.29,.16-.07,.31-.15,.45-.21,.58-.26,1.15-.54,1.72-.82,.46-.22,.93-.45,1.39-.67,2.26-1.05,4.29-1.95,6.2-2.74,4.47-1.84,8.54-3.45,12.45-4.91,3.21-1.2,6.51-2.31,9.69-3.39,.98-.33,1.95-.66,2.93-.99,1.73-.59,3.51-1.12,5.23-1.64,1.72-.52,3.49-1.05,5.21-1.64-.29-.22-.59-.43-.88-.63-.43-.29-.87-.56-1.31-.82-.38-.23-.76-.46-1.14-.71-1.32-.87-2.73-1.61-4.1-2.33l-.91-.48c-.87-.16-1.66-.41-2.42-.77-.69-.32-1.23-.8-1.53-1.34l-.14-.07c-.07-.04-.15-.08-.22-.12-.22,.02-.44,.03-.65,.03-.81,0-1.84-.14-2.57-1.23-.44-.65-1.03-.71-1.72-.79-.55-.06-1.17-.13-1.68-.56Zm21.47,12.68c-.1,.33-.14,.65-.1,.96,.07,.66,.61,1.14,1.65,1.49,.49,.16,1.06,.33,1.62,.33h0c.36,0,.68-.07,.98-.21,.44-.2,.82-.61,1.04-1.12l.04-.06c.05-.05,.08-.11,.1-.17,.48-1.71,.7-3.07,.27-4.62-.1-.36-.49-.58-.83-.78l-.17-.1c-1.63-.99-2.24-2.24-2.82-3.64-.54-1.3-1.48-2.23-2.71-2.68-1.58-.58-3.06-1.37-4.5-2.13-.87-.46-1.76-.94-2.68-1.37l-.67-.31c-2.11-.97-4.3-1.98-5.41-4.3-.66-1.38-1.76-1.81-3.21-2.04-.3-.04-.59-.05-.87-.01l-.67,.77c-.94,1.08-1.15,2.11-.62,3.05,.22,.39,.52,.69,.93,.91l.63,.35-.81,.12s-.06,0-.1,0c-.1-.02-.19-.04-.29-.07,.24,.28,.64,.52,.99,.67,.67,.28,1.33,.42,2.02,.42,.92,0,1.82-.23,2.86-.5l.12-.03c.27-.07,.51,.08,.58,.33,.07,.25-.03,.53-.23,.65-.57,.36-1.34,.67-2.18,.9,.12,.13,.26,.23,.34,.27,.2,.1,.44,.14,.69,.17,.15,.02,.31,.04,.46,.08,.15-.21,.35-.4,.58-.57,.19-.13,.47-.09,.6,.08,.07,.1,.09,.22,.06,.35-.08,.27-.03,.55,.15,.85,.33,.57,1,.99,1.45,1.09,.69,.16,1.28,.28,1.93,.19,.27-.04,.57-.05,.8,.02,.47,.15,.98,.32,1.15,.93,.1,.35,.21,.58,.33,.76,.16-.57,.57-1.13,1.16-1.56,.29-.21,.68-.12,.82,.18,.09,.2,.06,.43-.09,.62-.21,.26-.3,.54-.26,.79,.04,.19,.15,.34,.35,.46,.23,.13,.48,.24,.75,.34,.17,.07,.34,.14,.5,.22,.11-.12,.23-.24,.36-.34,.23-.19,.58-.12,.72,.12,.09,.14,.08,.32,0,.48-.12,.23-.16,.42-.11,.55,.1,.27,.56,.45,1,.62,.46,.18,.94,.36,1.19,.71,.27,.38,.38,.74,.37,1.24v.28c-.03,.52-.03,.84,.17,1.1,.31-.45,.68-.76,1.1-.93,.73-.29,1.27-.34,1.74-.18l.73,.24-.73,.23c-.7,.22-1.37,.82-1.74,1.55-.29,.58-.36,1.17-.19,1.67,.32,.91,1.27,1.13,1.81,1.18l.75,.07-.64,.39c-.97,.59-2.32,.23-3.06-.76-.07-.1-.14-.21-.2-.31Zm.27-.65c.07,.23,.18,.45,.33,.66,.38,.51,.95,.84,1.51,.86-.61-.25-1.04-.69-1.25-1.29-.22-.62-.14-1.35,.21-2.06,.26-.52,.65-.97,1.1-1.31-.14,.04-.3,.09-.47,.16-.39,.16-.74,.49-1.02,.98l-.14,.25-.23-.18c-.56-.43-.6-.93-.59-1.49-.02,.12-.05,.24-.08,.35-.02,.09-.05,.17-.05,.23-.04,.51,.16,.81,.7,1.05l.22,.1-.09,.22c-.06,.15-.12,.3-.16,.45-.09,.3-.1,.63-.02,.95l.03,.03v.03Zm-3.57-5.93l.07,.24c.13,.41,.47,.8,.97,1.08,.24,.14,.56,.18,.87,.22,.23,.03,.43,.05,.63,.08,.2,.05,.33,.14,.41,.28,.05,.08,.08,.17,.09,.26v-.12c.01-.39-.06-.64-.27-.93-.16-.23-.57-.38-.96-.54-.55-.21-1.11-.43-1.29-.92-.1-.28-.06-.6,.14-.97-.13,.16-.26,.29-.37,.45l-.13,.17-.19-.1c-.21-.11-.43-.2-.64-.29-.27-.11-.55-.22-.81-.37-.33-.19-.53-.46-.59-.8-.07-.39,.06-.82,.36-1.19,.03-.03,.04-.06,.03-.09l-.22-.19,.15,.2c-.64,.47-1.03,1.11-1.03,1.7v.52s-.41-.33-.41-.33c-.41-.33-.65-.72-.83-1.36-.09-.33-.35-.43-.8-.58-.19-.06-.4-.04-.59,0-.72,.1-1.38-.03-2.11-.2-.57-.13-1.37-.63-1.77-1.33-.2-.33-.28-.68-.24-1-.16,.13-.29,.29-.38,.46l-.1,.19-.2-.07c-.16-.06-.35-.09-.55-.11-.28-.04-.58-.08-.85-.22-.22-.11-.6-.42-.76-.76l-.13-.28,.3-.07c.92-.21,1.79-.55,2.39-.93,.02-.01,.03-.08,.01-.1l-.09,.05c-1.07,.28-2,.51-2.98,.51-.76,0-1.49-.15-2.22-.46-.34-.15-1.17-.56-1.43-1.21-.05-.13-.08-.26-.1-.41l-.06-.54h0s0-.02-.01-.02c-.25-.44-.36-.9-.35-1.38,0,.02,0,.04-.01,.06-.03,.15-.03,.31,0,.51l.02,.12-.08,.09c-.5,.55-1.19,1.65-.22,2.83,.76,.93,2.08,1.12,3.05,1.12,.4,0,.83-.03,1.26-.1l.33-.05-.04,.33c-.04,.32,.02,.66,.17,.9,.41,.7,1.49,1.11,2.15,.79l.28-.14,.07,.31c.21,.9,1.26,1.87,2.29,2.12,.56,.13,1.06,.13,1.87-.02,.15-.03,.3-.08,.44-.14,.2-.08,.38-.15,.57-.15,.34,0,.58,.23,.7,.68,.21,.74,1.07,1.06,1.56,1.19l.09,.02,.05,.07c.19,.26,.45,.45,.86,.64l.24,.11c.42,.2,.77,.36,1.15,.25l.24-.07Z"/>
    <path class="cls-1" d="M20.27,28.49c-.34,0-.67-.04-.97-.13-.48-.14-2.06-.68-2.38-1.84-.45-1.61,1.02-3.47,2.72-4.35,.77-.72,1.92-1.17,2.99-1.17,1.2,0,2.13,.54,2.61,1.51,.48,.96,.52,2.05,.1,3.06-.45,1.1-1.37,1.96-2.51,2.36-.78,.27-1.69,.56-2.57,.56Zm2.37-6.99c-.95,0-2,.42-2.68,1.06l-.06,.04c-1.49,.76-2.87,2.43-2.49,3.79,.2,.72,1.18,1.24,2.03,1.49,.25,.07,.53,.11,.83,.11,.81,0,1.67-.28,2.41-.53,1.01-.35,1.82-1.11,2.22-2.08,.36-.87,.32-1.81-.09-2.65-.53-1.07-1.58-1.23-2.16-1.23Zm-2.53,5.48c-.61,0-1.18-.2-1.73-.6-.22-.17-.35-.4-.36-.67-.03-.98,1.38-2.19,1.39-2.2,.24-.2,.51-.36,.77-.51l.27-.14c.23-.06,.45-.11,.5-.12,.72-.23,1.51-.1,2.2,.35,.62,.41,.73,.91,.71,1.26-.04,.79-.77,1.56-1.46,1.93-.71,.37-1.49,.72-2.3,.72Zm.5-3.65l-.17,.1c-.25,.14-.49,.28-.7,.45-.39,.33-1.24,1.25-1.22,1.8,0,.12,.05,.21,.16,.29,.46,.34,.93,.5,1.43,.5,.7,0,1.41-.32,2.07-.66,.56-.29,1.16-.92,1.19-1.51,.02-.32-.15-.59-.49-.81-.57-.37-1.2-.48-1.77-.29-.05,.02-.26,.07-.5,.12Z"/>
    <g>
      <path class="cls-1" d="M27.08,19.81l-.32-.2c-.39-.24-.66-.6-.82-1.1-.25-.79,.3-1.51,.94-1.86,.08-.09,.16-.17,.24-.24,.56-.47,1.33-.7,2.11-.64l.72,.06-.6,.4c-1.17,.78-2.04,2.04-2.22,3.2l-.06,.37Zm1.34-3.48c-.37,.08-.7,.24-.98,.47-.07,.06-.15,.14-.22,.22l-.07,.05c-.47,.25-.91,.75-.74,1.28,.08,.24,.18,.43,.32,.59,.25-.93,.87-1.88,1.69-2.62Z"/>
      <path class="cls-1" d="M29.77,20.94l-.15-.2c-.19-.24-.45-.41-.81-.53-.13-.04-.26-.08-.4-.11l-.25-.06,.06-.25c.31-1.29,2.08-2.3,3.45-2.35h.14s.08,.12,.08,.12c.45,.72,.77,1.61,.88,2.5l.04,.35-.35-.07c-.98-.21-1.87-.06-2.51,.44l-.2,.15Zm-.98-1.25c.06,.02,.11,.03,.17,.05,.36,.12,.65,.29,.89,.52,.65-.42,1.48-.58,2.37-.46-.12-.65-.36-1.29-.68-1.83-1.04,.1-2.36,.83-2.75,1.72Z"/>
      <path class="cls-1" d="M31.28,23.38h0c-.24,0-.45-.11-.61-.31-.33-.42-.47-.88-.61-1.32-.08-.25-.15-.48-.25-.69l-.09-.18,.16-.12c.68-.52,1.66-.63,2.75-.33l.18,.05v.18c.02,.66-.08,1.28-.29,1.78-.16,.38-.69,.94-1.24,.94Zm-.93-2.34c.08,.19,.13,.38,.19,.57,.13,.42,.25,.81,.52,1.16,.26,.33,.84-.15,1-.52,.17-.39,.26-.87,.26-1.39-.78-.19-1.47-.12-1.97,.18Z"/>
      <path class="cls-1" d="M28.23,20.07l-.22-.04,.05-.25-.06,.24c-.26-.05-.51-.1-.75-.18l-.18-.06v-.19c.1-1.36,1.25-2.93,2.7-3.65l.09-.05,.1,.03c.12,.04,.25,.09,.37,.15,.44,.22,.84,.55,1.21,1l.27,.33-.43,.07c-1.37,.23-2.75,1.29-3.08,2.38l-.07,.22Zm-.64-.65c.1,.03,.2,.05,.3,.07,.47-1.17,1.77-2.08,2.97-2.41-.24-.24-.5-.43-.76-.56-.07-.03-.14-.06-.21-.09-1.17,.62-2.13,1.89-2.3,2.99Z"/>
      <path class="cls-1" d="M29.25,27.17c-.23,0-.43-.08-.62-.22-.28-.23-.42-.52-.4-.86,.04-.66,.68-1.31,1.1-1.58,.14-.09,.23-.15,.33-.21,.1-.06,.2-.12,.34-.21,.08-.05,.16-.1,.24-.15,.12-.14,.24-.24,.36-.32,.35-.25,.8-.24,1.07,.02,.17-.3,.6-.39,.82-.11,.24,.31,.32,.63,.25,1.01-.07,.41-.21,.72-.41,.94-.29,.32-.75,.41-1.05,.17-.01,0-.02-.02-.03-.03-.01,.02-.03,.04-.04,.05l-.06,.08c-.16,.21-.32,.42-.49,.61-.34,.37-.87,.81-1.41,.81Zm1.9-3.25c-.08,0-.17,.03-.26,.09-.1,.07-.19,.15-.3,.28l-.06,.05c-.08,.05-.17,.1-.25,.16-.15,.1-.25,.16-.36,.23-.09,.06-.18,.11-.32,.2-.35,.22-.85,.74-.88,1.19,0,.17,.06,.31,.21,.44,.33,.26,.81,.04,1.35-.54,.16-.18,.31-.37,.46-.57l.06-.08c.09-.12,.19-.25,.28-.39l.2-.3,.09-.33c.03-.18,.01-.28-.04-.35-.04-.05-.11-.08-.19-.08Zm.4,1.09v.11c0,.08,.03,.11,.05,.13,.09,.07,.25,0,.36-.12,.13-.15,.23-.38,.29-.69,.04-.24,0-.41-.14-.6,0,.02-.01,.03-.01,.05-.02,.3-.17,.55-.29,.73l-.26,.39Z"/>
    </g>
    <path class="cls-1" d="M38.03,22.29c-.22,0-.54-.03-.77-.26-.29-.3-.36-.64-.21-.99,0,0,0-.01,0-.02-.59-.17-.99-.42-1.2-.77-.18-.3-.21-.65-.09-1.04,.29-.96,1.02-1.67,1.99-1.92,.46-.15,.96-.24,1.44-.24,1.21,0,2.17,.49,2.71,1.39,.29,.48,.33,1,.09,1.5-.28,.59-.92,1.08-1.62,1.25,0,.17-.06,.34-.15,.48-.38,.6-.99,.6-1.49,.6-.16-.02-.25,0-.34,0h-.11c-.09,.01-.18,.02-.27,.02Zm1.18-4.74c-.43,0-.88,.08-1.3,.22-.81,.21-1.41,.79-1.65,1.59-.08,.26-.07,.46,.04,.64,.17,.28,.59,.5,1.24,.62l.48,.1-.36,.33c-.07,.06-.11,.12-.14,.19-.06,.14-.06,.27,.11,.45,.07,.07,.2,.11,.41,.11,.08,0,.17,0,.24,0h.12c.1-.01,.21-.01,.32-.01h0c.57,0,.9-.03,1.11-.36,.07-.11,.09-.24,.07-.38l-.04-.25,.25-.04c.61-.09,1.22-.52,1.46-1.02,.16-.34,.14-.69-.07-1.03-.61-1-1.69-1.15-2.29-1.15Zm1,2.23h0s-.41-.04-.41-.04v-.09s-.17,.09-.17,.09l-.86-.05v-.25c.04-.48,.07-.96,.29-1.4l.07-.14h.2c.24,0,.47,.02,.71,.06l.31,.06-.02,.04h.06s.04,0,.04,0c.18,.07,.32,.14,.49,.24l.27,.17-.23,.22c-.26,.26-.47,.55-.6,.84l.12-.17c.16-.23,.33-.46,.53-.67l.22-.23,.17,.27c.11,.17,.2,.45,.04,.85l-.06,.14h-.16c-.18,.02-.36,.03-.54,.03h-.5Zm-.9-.55h.07c.01-.11,.04-.23,.08-.36,.05-.16,.11-.3,.17-.45-.06,0-.12,0-.17-.01-.09,.25-.12,.53-.14,.81Zm-.59,.47l-.68-.05-.02-.21c0-.1-.02-.2-.04-.29,0,.07,0,.15,0,.22v.28l-.45-.04c-.08,0-.17-.01-.25-.02h0c-.29,0-.48-.09-.57-.27-.15-.3,.07-.67,.28-.96,.09-.08,.14-.12,.19-.15l.07-.04,.41-.05h0s.34-.05,.34-.05c.23-.04,.46-.08,.69-.11l.45-.06-.19,.41c-.15,.31-.22,.68-.22,1.12v.27Zm-1.43-.62h.04c.05,0,.1,.01,.15,.02,0-.15-.03-.3-.08-.44h0s-.03,.02-.05,.03c-.15,.22-.19,.34-.19,.39,.01,0,.05,0,.12,0h.02Z"/>
    <path class="cls-1" d="M15.12,31.85h0c-.21,0-.41-.04-.6-.12-.04-.01-.08-.03-.11-.04-.4-.22-.52-.54-.54-.77-.05-.42,.17-.91,.55-1.25,.36-.32,.89-.51,1.49-.53h0c.35,0,.76,.1,1.01,.37,.16,.17,.24,.4,.22,.64-.06,.87-1.05,1.7-2.03,1.7Zm.84-2.21c-.31,0-.83,.07-1.21,.4-.26,.23-.42,.56-.39,.81,.02,.16,.11,.29,.28,.38l.06,.02c.79,.35,1.89-.41,1.94-1.15,0-.1-.02-.19-.09-.26-.12-.13-.36-.21-.6-.21Z"/>
    <path class="cls-1" d="M11.26,34.47h0c-.13,0-.26-.03-.38-.1-.11-.06-.19-.14-.26-.24-.17-.23-.2-.58-.05-.85,.26-.47,.69-.7,1.21-.65,.25,.03,.46,.18,.57,.4,.11,.23,.1,.5-.04,.72-.21,.34-.6,.71-1.05,.71Zm.37-1.34c-.33,0-.52,.22-.63,.4-.05,.09-.04,.23,.03,.32,.03,.05,.05,.07,.07,.08,.27,.14,.6-.15,.77-.43,.04-.07,.05-.16,.01-.24-.02-.03-.07-.11-.17-.13-.03,0-.06,0-.09,0Z"/>
    <path class="cls-1" d="M20.38,32.49c-.7,0-1.85-.31-2.23-1-.14-.26-.24-.67,.11-1.22,.41-.65,1.11-1.03,2.14-1.16l.21-.08c.12-.04,.23-.08,.34-.11,1.23-.45,2.41-.4,3.36,.15,.16,.09,.27,.25,.32,.45,.07,.27,.03,.59-.1,.81-.76,1.28-2.38,2.13-4.12,2.16h-.04Zm2.18-3.37c-.46,0-.95,.09-1.45,.27-.11,.04-.23,.08-.35,.12l-.26,.09c-.92,.12-1.5,.43-1.83,.94-.17,.27-.2,.5-.09,.71,.26,.48,1.23,.74,1.79,.74v.25l.03-.25c1.57-.03,3.02-.78,3.69-1.92,.05-.09,.08-.27,.04-.42-.01-.04-.04-.12-.09-.15-.44-.25-.95-.38-1.49-.38Z"/>
    <path class="cls-1" d="M36.07,26.68c-.49,0-1.37-.21-1.67-.76-.11-.2-.19-.53,.08-.95,.31-.49,.83-.77,1.59-.87l.15-.06c.08-.03,.16-.05,.23-.08,.91-.33,1.78-.29,2.49,.11,.13,.08,.22,.2,.27,.37,.05,.21,.02,.46-.08,.64-.56,.95-1.75,1.57-3.03,1.59h-.03Zm1.58-2.44c-.33,0-.67,.07-1.02,.19-.08,.03-.16,.06-.25,.08l-.19,.06c-.66,.09-1.06,.3-1.29,.65-.15,.23-.11,.36-.06,.44,.17,.31,.83,.5,1.23,.5v.25l.02-.25c1.11-.02,2.14-.55,2.61-1.35,.03-.05,.05-.17,.03-.25,0-.04-.02-.06-.03-.06-.31-.18-.66-.27-1.05-.27Z"/>
    <path class="cls-1" d="M34.83,24.07c-.3,0-.85-.13-1.04-.49-.06-.11-.14-.35,.05-.65,.19-.31,.52-.48,.98-.54l.19-.07c.55-.2,1.08-.17,1.5,.07,.1,.06,.17,.16,.2,.28,.04,.15,.02,.32-.06,.44-.34,.57-1.05,.95-1.81,.96h-.02Zm.9-1.38c-.17,0-.35,.04-.54,.1l-.25,.08c-.37,.05-.57,.15-.68,.33-.06,.09-.04,.13-.03,.14,.07,.12,.39,.23,.6,.23v0c.6,0,1.15-.29,1.4-.71,0-.01,0-.05,0-.06-.13-.06-.31-.11-.51-.11Z"/>
    <path class="cls-1" d="M48.4,25.69c-.3,0-.85-.13-1.04-.49-.06-.11-.14-.35,.05-.65,.19-.3,.51-.48,.98-.54l.19-.07c.55-.2,1.08-.17,1.5,.07,.1,.05,.17,.15,.2,.27,.04,.15,.02,.32-.05,.45-.34,.57-1.05,.95-1.81,.96h-.02Zm.9-1.38c-.17,0-.35,.03-.54,.1l-.25,.08c-.37,.05-.57,.15-.68,.33-.06,.09-.04,.13-.03,.14,.07,.12,.39,.23,.6,.23v0c.6,0,1.15-.29,1.4-.71,0-.01,0-.05,0-.06-.13-.06-.31-.1-.51-.1Z"/>
    <path class="cls-1" d="M39.85,26.38c-.3,0-.85-.13-1.05-.49-.06-.11-.14-.35,.05-.65,.19-.3,.51-.48,.98-.54l.19-.07c.55-.2,1.08-.17,1.5,.07,.1,.06,.17,.16,.2,.28,.04,.15,.01,.32-.06,.44-.34,.57-1.05,.94-1.81,.96h-.02Zm.89-1.38c-.17,0-.35,.04-.54,.1l-.25,.09c-.37,.05-.56,.15-.67,.33-.06,.09-.04,.13-.03,.14,.07,.12,.39,.23,.61,.23v0c.6-.01,1.15-.29,1.4-.71,0-.01,0-.05,0-.06-.13-.06-.31-.11-.51-.11Z"/>
    <path class="cls-1" d="M24.33,19.21c-.43,0-.78-.25-.88-.65-.1-.39-.01-.8,.24-1.13,.13-.17,.34-.31,.58-.4,.14-.23,.48-.28,.65-.07,.2,.04,.37,.12,.49,.26,.1,.12,.22,.34,.18,.69-.02,.2-.13,.42-.3,.62-.11,.26-.3,.48-.52,.58-.14,.07-.29,.1-.45,.1Zm.33-1.77h0s-.14,.04-.14,.04c-.19,.05-.34,.15-.43,.26-.16,.21-.22,.46-.16,.7,.08,.3,.41,.32,.62,.22,.11-.05,.22-.19,.28-.35l.05-.08c.12-.13,.2-.27,.21-.38,.02-.14,0-.24-.06-.3-.07-.09-.2-.1-.27-.1h-.1Z"/>
    <path class="cls-1" d="M26.32,22.69h0c-.29,0-.54-.15-.68-.42-.18-.34-.07-.79,.25-1,.17-.11,.33-.18,.49-.2,.05-.02,.1-.04,.15-.05,.31-.08,.67,.12,.77,.45,.08,.26,.03,.54-.15,.78-.2,.27-.52,.44-.83,.44Zm.36-1.19c-.08,.02-.12,.03-.16,.04h-.06c-.08,.02-.19,.06-.29,.14-.11,.07-.15,.24-.09,.35,.06,.11,.13,.16,.24,.16h0c.15,0,.32-.1,.43-.24,.06-.08,.12-.2,.07-.34-.02-.07-.08-.11-.14-.11Z"/>
    <path class="cls-1" d="M29.04,15.53c-.44,0-.8-.11-1.11-.32-.55-.39-.58-1.3-.24-1.85,.23-.36,.89-.96,1.55-1.39,.11-.13,.23-.26,.34-.37,.59-.57,1.33-.87,2.02-.79,.7,.08,1.43,.74,1.35,1.55-.15,1.59-1.72,2.78-3.13,3.08-.3,.06-.56,.09-.79,.09Zm2.34-4.24c-.48,0-1.01,.24-1.45,.66-.11,.11-.22,.23-.33,.36l-.06,.05c-.65,.43-1.27,1-1.43,1.26-.19,.31-.24,.94,.1,1.18,.36,.25,.8,.3,1.51,.15,1.25-.27,2.62-1.33,2.74-2.64,.05-.5-.45-.96-.91-1.01-.06,0-.11,0-.17,0Z"/>
    <path class="cls-1" d="M37.42,17.83h0c-.13,0-.25-.02-.35-.05-.2-.06-.36-.19-.45-.38-.24-.06-.42-.24-.49-.47-.09-.33,.03-.69,.33-.94,.7-.59,1.6-.75,2.24-.38,.22,.13,.36,.33,.41,.58,.05,.3-.03,.63-.23,.88-.2,.25-.45,.4-.7,.54-.22,.13-.49,.2-.76,.2Zm.5-1.92c-.37,0-.78,.17-1.14,.47-.11,.09-.22,.25-.17,.42,.03,.12,.15,.13,.19,.13h.19s.05,.18,.05,.18c.04,.13,.11,.17,.18,.19,.16,.05,.51,0,.67-.08,.25-.15,.46-.27,.6-.45,.11-.14,.16-.33,.13-.48-.02-.11-.08-.19-.17-.24-.16-.09-.34-.14-.53-.14Z"/>
    <path class="cls-1" d="M44.42,21.84h0c-.1,0-.2-.02-.3-.04-.15-.05-.27-.16-.34-.3-.08-.18-.07-.41,.02-.61,.18-.39,.51-.56,.78-.67,.3-.12,.65,.01,.75,.3,.12,.18,.14,.43,.05,.67-.16,.4-.53,.65-.95,.65Zm.34-1.16c-.28,.12-.43,.24-.52,.42-.03,.06-.03,.14-.01,.19,.08,.04,.13,.05,.18,.05,.22,0,.41-.13,.49-.34,.03-.09,.03-.17,0-.21l-.06-.11h-.08Z"/>
  </g>
</svg>