<?xml version="1.0" encoding="UTF-8"?>
<svg id="Layer_1" data-name="Layer 1" xmlns="http://www.w3.org/2000/svg" viewBox="0 0 52 44">
  <defs>
    <style>
      .cls-1 {
        fill: #fff;
      }
    </style>
  </defs>
  <path class="cls-1" d="M29.55,26.95c-.13,0-.27-.01-.41-.04-.42-.08-.79-.33-1.13-.57l-.04-.03-.42-.31,.5-.13,.26-.13,.03,.18c.09,.02,.16,.04,.24,.06l.19,.05c.2,.06,.4,.12,.6,.13h.1c.16,0,.33-.02,.5-.07l.19-.05,.07,.13c.27-.02,.49-.1,.68-.25l.07-.06,.91,.04-.63,.43c-.53,.33-1.06,.62-1.71,.62Z"/>
  <path class="cls-1" d="M30.05,28.76c-.4,0-.82-.07-1.15-.2-.18-.07-.36-.16-.54-.26-.23-.12-.46-.24-.67-.29-.24-.06-.49-.07-.76-.08-.23,0-.47-.01-.71-.06-1.09-.2-1.73-.13-2.62,.25-.8,.34-1.2,.35-1.93,.09-.31-.11-.52-.35-.71-.56-.48-.52-1.06-.58-1.9-.31-.91,.3-1.51,.31-2.36,.06-.22-.06-.37-.13-.48-.18-.08-.03-.14-.06-.17-.06-.08,0-.34,.2-.43,.28-.2,.16-.45,.28-.68,.33-.77,.18-1.26,.11-1.64-.2-.11-.09-.2-.17-.27-.23-.24-.22-.26-.24-.82-.25-.24,0-.46-.03-.67-.05-.53-.06-1-.06-1.45,.15-.19,.09-.41,.13-.65,.13-.49,0-.96-.2-1.21-.52-.2-.26-.27-.58-.19-.92,.05-.23,.02-.37-.03-.45-.24-.14-.47-.29-.66-.45h-.04c-.25-.12-.51-.22-.72-.38-.31-.24-.24-.63-.19-.88,.02-.1,.04-.21,.03-.26-.03-.15,.02-.32,.13-.45,.2-.24,.55-.25,.73,0,.01,.01,.02,.03,.03,.04,.22-.01,.42,.08,.57,.27,.11,.15,.26,.29,.47,.44l.23,.09c.22,.1,.5,.21,.7,.42,.95,.39,2.1,.57,3.11,.7,.58,.08,1.3,.04,2,0,.55-.04,1.13-.08,1.7-.04,.26,.01,.5,.04,.73,.07,.48,.06,.91,.11,1.43,.04,.15-.02,.29-.04,.43-.05h.1c.66,.04,1.15,.32,1.62,.58,.64,.36,1.28,.67,2.07,.44,1-.29,1.89-.33,2.71-.33,.3,0,.6,0,.91,.01,.79,.02,1.37,.41,1.93,.78,.33,.22,.63,.42,.99,.56,.31,.12,.95,.09,1.24-.05,.3-.15,.54-.28,.82-.5,.38-.29,.76-.48,1.16-.59h.08s.36,0,.36,0h.06c.12-.03,.23-.06,.35-.08h.03s.03,0,.03,0c.33,.01,.67,.06,1.02,.12l.13,.02c.53,.08,1.08,.16,1.6,.16,.68,0,1.2-.14,1.64-.44l.12-.08,.13,.07c.21,.11,.32,.31,.29,.56-.03,.37-.36,.79-.69,.89-.46,.14-.93,.2-1.53,.2h0c-.27,0-.55-.01-.82-.03-.25-.01-.51-.02-.77-.03-.06,0-.12,0-.17,.01l-.49,.07c-.51,.11-.93,.37-1.38,.64-.4,.24-.82,.49-1.33,.66-.24,.08-.53,.12-.84,.12Zm-4.84-1.48c.33,0,.68,.04,1.1,.11,.2,.04,.41,.04,.63,.05,.28,0,.57,.02,.87,.09,.27,.07,.53,.2,.78,.34,.16,.09,.33,.17,.49,.23,.47,.18,1.21,.21,1.65,.07,.46-.15,.86-.39,1.23-.62,.47-.28,.95-.57,1.55-.7l.53-.07c.07,0,.14-.01,.22-.01,.27,0,.53,.01,.79,.03,.27,.01,.54,.02,.8,.02,.55,0,.98-.06,1.39-.18,.1-.03,.28-.23,.33-.4-.47,.26-1.01,.38-1.68,.38-.55,0-1.12-.08-1.67-.17l-.14-.02c-.36-.05-.67-.1-.97-.11-.06,.02-.17,.04-.28,.07h-.17s-.36,0-.36,0c-.28,.08-.6,.24-.93,.49-.31,.24-.57,.39-.9,.55-.24,.12-.58,.19-.94,.19-.19,0-.47-.02-.72-.12-.4-.16-.74-.39-1.08-.61-.52-.35-1.02-.68-1.67-.7-.31,0-.6-.01-.9-.01-.78,0-1.63,.04-2.57,.31-.24,.07-.49,.11-.72,.11-.69,0-1.22-.3-1.74-.59-.44-.25-.86-.48-1.37-.53h-.05c-.13,.03-.27,.04-.41,.06-.52,.08-1.05,.03-1.57-.03-.23-.03-.46-.05-.7-.07-.55-.03-1.1,0-1.64,.04-.71,.05-1.48,.08-2.09,0-1.05-.14-2.27-.33-3.28-.76l-.09-.07c-.13-.15-.36-.25-.56-.33l-.28-.12c-.3-.21-.48-.38-.62-.57-.06-.07-.1-.08-.13-.08l-.15,.05-.16-.11c-.06-.06-.09-.1-.12-.13,0,0,0,.01,0,.02,.03,.14,0,.3-.03,.44-.04,.2-.06,.34,0,.39,.16,.12,.37,.21,.6,.3l.13,.07c.2,.16,.42,.31,.68,.45l.09,.08c.17,.25,.21,.54,.13,.89-.05,.2-.01,.36,.09,.5,.24,.3,.88,.42,1.26,.24,.54-.25,1.09-.26,1.72-.2,.2,.02,.4,.04,.62,.05,.68,.02,.81,.08,1.14,.37,.07,.06,.15,.13,.25,.22,.26,.21,.61,.24,1.21,.1,.16-.04,.34-.13,.48-.24,.33-.26,.52-.39,.74-.39,.14,0,.25,.05,.38,.11,.1,.04,.23,.1,.41,.16,.76,.22,1.26,.21,2.07-.06,1.04-.34,1.83-.2,2.38,.4l.04,.05c.16,.17,.32,.35,.51,.42,.61,.22,.89,.22,1.57-.08,.64-.27,1.19-.39,1.81-.39Z"/>
  <path class="cls-1" d="M23.33,25.67h0c-3.36,0-6.33-.2-9.08-.62l-.19-.03c-2.68-.41-6.35-.96-8.04-3.43-1.64-2.39-.77-5.22,.09-7.21-.04-.04-.08-.09-.11-.15-.05-.11-.09-.3,.03-.55,.85-1.84,1.99-3.42,3.39-4.7,3.88-3.54,9.71-5.65,15.57-5.65,2.9,0,5.72,.53,8.15,1.53,4.01,1.65,9.93,6.49,10.63,11.29,.34,2.32-.55,4.34-2.63,6.02-3.2,2.58-7.44,3.04-11.51,3.3-2.27,.14-4.33,.21-6.29,.21ZM19.29,4.5c-3.65,.87-7.01,2.55-9.53,4.85-1.35,1.23-2.45,2.75-3.27,4.54-.04,.08-.03,.12-.03,.14l.28,.08-.08,.29c-1.34,3-1.41,5.21-.22,6.93,1.56,2.28,5.11,2.82,7.7,3.21l.19,.03c2.73,.42,5.68,.62,9.01,.62h0c1.95,0,4-.07,6.26-.21,4.16-.26,8.15-.7,11.23-3.19,1.93-1.56,2.76-3.43,2.45-5.55-.52-3.57-4.07-7.18-7.46-9.37,.03,.07,.05,.15,.04,.24-.03,.29-.3,.62-.63,.62h-.08c-.24-.05-.45-.13-.67-.26-.19-.11-.26-.32-.2-.54,.07-.24,.31-.49,.59-.49,.09,0,.18,.02,.25,.07,.09,.05,.18,.09,.31,.12-.86-.53-1.7-.97-2.47-1.28-.26-.11-.53-.21-.79-.3,.02,.05,.03,.12,.03,.18,0,.31-.25,.65-.59,.65-.18,0-.29-.08-.35-.14-.08-.08-.11-.19-.11-.32,0-.23,.15-.49,.36-.6-.47-.15-.96-.28-1.45-.4-.01,.3-.26,.63-.59,.63-.18,0-.29-.08-.35-.14-.08-.08-.11-.19-.11-.31s.04-.25,.11-.37c-2.18-.4-4.54-.47-6.83-.22,0,0,.01,.01,.02,.02,.08,.08,.11,.19,.11,.31,0,.16-.07,.32-.17,.45,.03-.01,.05-.02,.08-.03,.17-.38,.74-.46,.94-.15,.05,.08,.12,.25,.01,.5-.14,.31-.4,.87-.9,.87-.25,0-.44-.18-.47-.44-.01-.12,0-.22,0-.3,.02-.12,.07-.22,.13-.29-.07,.03-.15,.05-.23,.05-.18,0-.29-.08-.35-.14-.07-.08-.11-.19-.11-.31,0-.15,.06-.31,.16-.43-.62,.09-1.23,.2-1.84,.33,.13,.02,.21,.08,.26,.14,.08,.08,.11,.19,.11,.31,0,.31-.25,.65-.59,.65-.18,0-.29-.08-.35-.14-.07-.08-.11-.19-.11-.31,0-.21,.12-.43,.29-.56Zm15.57,2.41s-.11,.1-.11,.14c.14,.06,.3,.12,.48,.16,0,0,.03,0,.06-.04,.02-.02,.04-.05,.05-.07-.19-.04-.34-.09-.48-.18Zm-12.06-2.02s-.02,.02-.03,.04c-.01,.03-.03,.06-.04,.09l-.07,.12-.16,.05s-.09,.03-.1,.08c0,.07-.01,.12,0,.18h0c.14,0,.32-.39,.4-.56Zm-.82,11.07c-.16,0-.35-.1-.39-.37-.06-.37,0-.7,.05-1.01,.02-.1,.06-.19,.14-.27,.13-.36,.66-.58,.9-.33,.06,.06,.13,.17,.12,.35,0,.4-.07,.77-.18,1.14-.06,.2-.36,.5-.64,.5Zm.32-1.55s-.05,.05-.05,.08l-.02,.08-.06,.06s-.03,.03-.04,.05c-.06,.29-.09,.5-.07,.72,.03-.03,.06-.07,.08-.09,.09-.29,.14-.58,.16-.9Zm-3.92-.27c-.18,0-.29-.06-.37-.16-.1-.12-.13-.29-.1-.44,.12-.5,.43-.85,.74-1.16,.14-.14,.28-.17,.37-.17,.13,0,.24,.05,.33,.15,.09,.1,.13,.24,.13,.39,.02,.08,.03,.2-.02,.34-.15,.42-.42,.98-1.07,1.06h-.01Zm.6-1.37c-.27,.27-.49,.53-.57,.87,.25-.06,.43-.28,.59-.72l-.03-.06v-.09Zm8.55,1.27c-.26,0-.49-.11-.65-.3-.16-.2-.22-.46-.17-.75,.05-.23,.22-.39,.4-.46-.03-.01-.06-.03-.09-.04-.23-.07-.36-.28-.32-.53,.05-.31,.39-.65,.73-.54,.48,.15,.91,.6,1.05,1.13,.12,.43,.03,.84-.24,1.14-.19,.22-.45,.34-.72,.34Zm-.27-1.02s-.05,.04-.05,.07c-.03,.14,0,.25,.06,.33,.13,.16,.43,.14,.61-.06,.2-.23,.18-.49,.13-.68-.1-.35-.4-.68-.72-.78-.03,0-.1,.11-.09,.15,.42,.1,.76,.55,.78,1.03,0,.11-.03,.2-.09,.26l-.07,.08-.16,.02c-.11,0-.23-.05-.3-.15-.06-.08-.1-.18-.09-.28Zm-12.54-.34c-.2,0-.37-.09-.49-.26-.18-.25-.22-.55-.14-.86,.14-.5,.6-.94,.99-1.11,.13-.06,.25-.07,.37-.04,.17-.02,.32,.03,.42,.15,.06,.08,.12,.21,.08,.42-.11,.49-.24,1.13-.68,1.48-.1,.08-.3,.21-.54,.21Zm.59-1.78s-.02,0-.03,.01c-.27,.12-.61,.45-.71,.78-.05,.17-.02,.31,.06,.44,.08,.12,.2,.04,.31-.05,.29-.23,.41-.75,.49-1.14h-.02s-.1-.04-.1-.04Zm8.66,1.28c-.25,0-.48-.15-.63-.4-.1-.16-.09-.38,.02-.57,.06-.11,.15-.2,.24-.26,0,0,0,0,0,0-.07-.16-.05-.34,.06-.51,.24-.36,.78-.37,.94,0,.16,.38,.15,.91-.02,1.31-.13,.28-.35,.44-.61,.44Zm-.09-.81s-.12,.12-.11,.16c.17,.29,.31,.08,.35,0,.12-.26,.13-.65,.02-.9,0,0-.08,.08-.08,.12,.06,.13,.07,.26,.08,.35l.02,.28h-.27Zm7.58,0c-.23,0-.45-.11-.61-.32-.1-.12-.13-.28-.08-.44,.02-.06,.04-.11,.07-.16,0,0-.02,0-.03-.01-.22-.1-.33-.33-.28-.58,.05-.25,.27-.51,.56-.51,.06,0,.13,.01,.19,.04,.35,.15,1.26,.56,1.03,1.3-.13,.41-.48,.69-.84,.69Zm-.37-1.52s-.08,.11-.07,.14c.13,.05,.25,.12,.38,.2l.42,.26-.46,.18c-.06,.02-.11,.1-.1,.12,.18,.22,.48,.08,.58-.23,.09-.27-.35-.5-.74-.68Zm4.63,1.48c-.15,0-.28-.07-.37-.2-.1-.15-.21-.29-.32-.43-.12-.15-.14-.36-.04-.55,.18-.37,.68-.49,.92-.2,.12,.15,.23,.3,.34,.45,.11,.16,.11,.37,.01,.56-.11,.21-.33,.36-.53,.36Zm-.2-1.05s-.1,.09-.1,.12c.11,.14,.23,.29,.33,.44,0-.02,.08-.12,.07-.16-.1-.14-.2-.27-.31-.41Zm-23.79,.83h-.08c-.16-.01-.3-.1-.38-.23-.09-.15-.09-.34-.01-.5,.18-.39,.48-.69,.88-.91,.23-.12,.46-.08,.6,.09,.1,.05,.19,.14,.24,.25,.08,.17,.05,.37-.06,.54-.32,.5-.73,.77-1.18,.77Zm.63-1.19c-.31,.18-.52,.4-.65,.67,.35,.03,.63-.27,.79-.52,.03-.04,.02-.07,.02-.07l-.13-.02-.02-.06Zm8.09,.56c-.25,0-.46-.21-.46-.47,0-.23,.12-.45,.33-.57,0,0,0-.01,0-.02,0-.17,.06-.33,.18-.45,.29-.3,.87-.3,.89,.25,.02,.56-.28,1.04-.76,1.23-.05,.02-.11,.03-.17,.03Zm.43-1.18s-.07,.06-.06,.09c0,.11,.02,.38-.21,.47-.06,.02-.12,.07-.12,.14,.22-.12,.39-.38,.39-.7Zm6.64,.74c-.18,0-.36-.08-.51-.23-.14-.15-.18-.36-.1-.58,.04-.11,.11-.21,.2-.3-.09-.15-.1-.35,0-.53,.09-.18,.3-.37,.54-.37,.15,0,.28,.07,.37,.2,.25,.35,.32,.89,.17,1.29-.12,.31-.38,.51-.67,.51Zm.11-1.49s-.09,.1-.09,.13c.08,.11,.11,.23,.13,.32l.06,.27-.28,.03s-.05,.04-.07,.09c-.02,.04-.02,.07-.01,.07,.08,.08,.28,.09,.35-.11,.09-.24,.05-.59-.09-.8Zm-11.98,1.45c-.27,0-.47-.17-.56-.46-.05-.17,0-.35,.11-.51,.12-.17,.31-.27,.48-.27,.04-.06,.07-.13,.1-.2,.17-.38,.74-.46,.94-.15,.05,.08,.12,.25,.01,.5-.11,.26-.3,.63-.58,.88-.16,.14-.34,.21-.51,.21Zm.04-.74s-.06,.04-.09,.08c0,.16,.04,.14,.06,.16,.04,0,.1-.02,.18-.09,.2-.17,.35-.48,.44-.69-.01,0-.02,.03-.03,.05-.05,.11-.1,.21-.16,.31l-.21,.29-.19-.11Zm21.05,0c-.1,0-.19-.03-.27-.08-.07-.05-.16-.08-.26-.11-.06-.02-.11-.03-.17-.05-.23-.08-.35-.3-.3-.55,.06-.31,.4-.63,.74-.51,.06,.02,.11,.04,.17,.06,.16,.05,.33,.11,.5,.22,.18,.12,.25,.34,.18,.56-.07,.23-.3,.47-.58,.47Zm-.5-.69s.07,.01,.11,.02c.13,.04,.27,.08,.4,.17,.02,0,.09-.1,.09-.14-.09-.05-.21-.09-.35-.13-.06-.02-.12-.04-.18-.06-.04,.02-.09,.11-.09,.14,0,0,.01,0,.02,0Zm-2.12,.6c-.09,0-.17-.02-.25-.07-.14-.08-.27-.18-.4-.28-.09-.07-.18-.13-.27-.19-.18-.12-.25-.33-.18-.55,.07-.23,.3-.48,.58-.48,.09,0,.18,.03,.26,.08,.1,.07,.2,.14,.29,.21,.11,.09,.23,.17,.35,.25,.19,.11,.26,.32,.2,.54-.07,.24-.31,.49-.6,.49Zm-.52-1.07s-.11,.1-.1,.14c.09,.04,.18,.11,.28,.18,.12,.09,.23,.17,.36,.25,.03,0,.11-.1,.11-.14-.12-.05-.25-.14-.38-.24-.09-.07-.17-.13-.26-.19Zm-8.36,.76c-.11,0-.21-.04-.29-.11-.22-.19-.23-.43-.23-.59,0-.15,.06-.31,.18-.43,.29-.3,.87-.3,.88,.25h0c.06,.13,.07,.29,.01,.44-.08,.21-.28,.44-.55,.44Zm-6.46-.26c-.13,0-.25-.03-.36-.09-.32-.18-.4-.57-.18-.98,.17-.33,.66-.43,.88-.2,.01-.02,.02-.03,.04-.05,.13-.19,.19-.36,.2-.5,.02-.49,.68-.77,.95-.5,.06,.06,.12,.17,.12,.35-.03,.65-.42,1.51-1.08,1.82-.17,.08-.36,.15-.57,.15Zm-.1-.52c.11,.05,.3-.01,.46-.09,.43-.2,.72-.8,.78-1.29-.03,.03-.05,.06-.05,.08,0,.24-.1,.49-.28,.76-.09,.13-.18,.23-.29,.31-.06,.04-.12,.07-.17,.09l-.06,.02-.38,.11Zm3.76-.33c-.16,0-.29-.07-.38-.19-.09-.12-.12-.29-.07-.43,.08-.24,.11-.42,.12-.6,.02-.49,.68-.77,.94-.5,.06,.06,.12,.17,.12,.35,0,.29-.06,.58-.16,.88-.09,.29-.31,.48-.57,.49h0Zm.22-1.29s-.06,.06-.06,.09c-.01,.28-.08,.52-.14,.72,.01-.03,.05-.09,.07-.15,.07-.23,.11-.44,.13-.65Zm-5.81,1.17c-.17,0-.31-.08-.4-.22-.16-.26-.1-.66,0-.86,.09-.18,.25-.3,.44-.33,.17-.37,.69-.45,.9-.2,.06,.07,.13,.21,.1,.42-.07,.44-.22,.92-.79,1.15-.08,.03-.17,.05-.24,.05Zm.14-.93s-.06,0-.09,.07c-.06,.11-.06,.3-.03,.36,0,0,.02,0,.04-.02,.16-.06,.28-.16,.35-.32l-.28-.09Zm.4-.33s-.04,.04-.05,.07l-.06,.32c.05-.1,.08-.23,.11-.39Zm11.48,1.21c-.18,0-.29-.08-.35-.14-.08-.08-.12-.19-.12-.32,0-.31,.25-.65,.59-.65,.18,0,.29,.08,.35,.14,.08,.08,.11,.19,.11,.31,0,.31-.25,.65-.59,.65Zm-3.11-.34c-.11,0-.28-.04-.44-.21-.14-.15-.16-.36-.06-.56,0-.02,0-.04-.01-.05-.04-.15-.07-.25-.12-.33-.1-.16-.1-.37,0-.56,.2-.37,.7-.45,.9-.14,.19,.3,.32,.73,.34,1.1,0,.21-.07,.42-.21,.56-.11,.12-.26,.19-.41,.19Zm-.13-1.55s-.09,.1-.08,.13c.08,.13,.12,.28,.16,.4,.03,.09,.04,.14,.05,.2l.03,.11-.06,.12s-.03,.05-.03,.06c.02,0,.05,.02,.06,.02,.08-.07,.12-.14,.12-.23-.01-.27-.11-.6-.24-.82Zm5.52,1.46c-.1,0-.2-.03-.28-.09-.22-.17-.4-.37-.56-.56-.12-.15-.15-.35-.06-.54,.17-.37,.68-.5,.92-.21,.13,.16,.24,.28,.38,.38,.17,.13,.24,.35,.16,.57-.08,.23-.29,.46-.57,.46Zm-.35-1.08s-.1,.08-.1,.12c.13,.15,.29,.33,.46,.46,.02-.01,.09-.11,.08-.15-.18-.12-.32-.29-.45-.43Zm-6.92,.35c-.2,0-.42-.14-.42-.46,0-.4,.35-.69,.64-.69,.2,0,.42,.15,.42,.46,0,.41-.34,.68-.64,.68Zm4.16-.05c-.21,0-.39-.13-.45-.33-.03-.11-.03-.22,0-.33h0c-.07-.07-.13-.11-.2-.15-.19-.1-.27-.31-.21-.53,.06-.25,.31-.5,.61-.5,.08,0,.17,.02,.24,.06,.33,.19,.68,.56,.69,.98,.01,.29-.13,.54-.41,.72-.08,.05-.18,.08-.28,.08Zm-.25-1.34s-.12,.09-.12,.14c.07,.01,.17,.08,.27,.18,.05,.05,.1,.1,.13,.15l.11,.2-.09,.13s-.04,.05-.03,.08c.16-.16,.16-.28,.15-.32,0-.19-.19-.42-.43-.56Zm-2.71,.08c-.15,0-.28-.07-.35-.19-.09-.15-.08-.37,.03-.57,.09-.38,.67-.5,.9-.24,.06,.07,.13,.21,.1,.42-.05,.31-.27,.53-.56,.57-.08,0-.1,.01-.13,.01Z"/>
  <g>
    <path class="cls-1" d="M27.32,39.44h0c-.59,0-1.19,0-1.79-.02-.6,.02-1.23,.02-1.85,0-1.31-.03-2.66-.13-4.02-.29-2.06-.16-4.02-.37-5.99-.63-1.84-.25-4.39-.96-6.07-2.93l-.08-.05c-.14-.08-.27-.17-.4-.26-.24-.16-.33-.43-.24-.71-.05-.1-.06-.21-.03-.32-.01-.03-.02-.07-.02-.1,0-.13,.06-.26,.17-.37l.14-.12,.16,.09c1.95,1.12,4.41,1.11,6.12-.07,1.03-.71,1.78-.67,2.39,.03,.09,.11,.21,.22,.33,.27,.6,.22,1.02,.23,1.67,.05,1.39-.39,2.18-.3,3.31,.31,.44,.24,.96,.21,1.46,.11,1.28-.25,2.06,.11,2.88,.76,.25,.19,.81,.13,1.24,.03,.17-.04,.37-.15,.55-.26l.19-.1c.6-.32,1.17-.46,1.85-.46,.26,0,.53,.02,.87,.06,.15,.02,.33,.03,.5,.03,.39,0,.7-.07,.91-.2,.08-.05,.16-.11,.24-.16,.39-.26,.83-.51,1.45-.33,.06,.02,.18,0,.33-.04,.32-.1,.63-.43,.9-.73,.09-.11,.19-.21,.27-.29,.17-.17,.36-.26,.56-.26,.57,0,.98,.7,1.3,1.27,.1,.17,.21,.37,.27,.42,.16,.15,.38,.3,.62,.46,.55,.37,1.17,.78,1.3,1.42l.02,.08-.03,.07s-.02,.08-.04,.12c-.31,.6-.87,1.11-1.66,1.49-.98,.84-2.43,1.12-3.58,1.26-1.89,.24-3.85,.35-6.16,.35Zm-1.79-.52c.61,.01,1.2,.02,1.79,.02h0c2.3,0,4.24-.11,6.1-.34,1.09-.14,2.45-.4,3.34-1.17l.06-.04c.71-.34,1.19-.76,1.46-1.27-.12-.41-.61-.73-1.08-1.04-.26-.17-.5-.33-.69-.51-.11-.1-.22-.29-.36-.53-.2-.36-.58-1.02-.87-1.02-.06,0-.13,.04-.2,.11-.08,.08-.17,.17-.25,.27-.31,.35-.67,.74-1.12,.88-.25,.07-.44,.08-.61,.04-.43-.13-.67,.02-1.03,.27-.08,.05-.17,.11-.26,.17-.29,.18-.69,.28-1.17,.28-.2,0-.39-.02-.56-.04-.31-.04-.57-.06-.81-.06-.59,0-1.09,.12-1.62,.4l-.18,.1c-.21,.12-.45,.25-.68,.3-.25,.06-.55,.12-.84,.12-.34,0-.61-.08-.82-.25-.91-.72-1.48-.86-2.48-.67-.25,.05-.51,.09-.78,.09-.37,0-.69-.08-1.01-.26-1.01-.55-1.68-.62-2.93-.27-.75,.21-1.28,.19-1.97-.06-.23-.08-.39-.25-.53-.41-.45-.52-.93-.5-1.72,.05-1.78,1.23-4.29,1.31-6.35,.26l-.02,.02,.04,.04,.07,.12-.06,.12c-.08,.15,0,.19,.02,.21,.13,.08,.26,.16,.38,.24l.17,.12c1.23,1.46,3.29,2.45,5.79,2.79,1.96,.27,3.91,.47,5.97,.63,1.35,.17,2.69,.27,3.98,.29,.61,.01,1.23,0,1.84,0Z"/>
    <g>
      <path class="cls-1" d="M18.79,8.2c-.17,0-.34-.1-.43-.26-.09-.16-.09-.37,0-.52,.25-.4,.59-.66,.92-.91,.09-.07,.18-.14,.28-.21,.15-.12,.41-.09,.52,.06,.06,.09,.08,.2,.04,.31-.23,.69-.57,1.15-1.09,1.47-.08,.05-.17,.07-.25,.07Zm.64-1.17c-.24,.19-.47,.38-.63,.65h0c.27-.15,.47-.37,.63-.65Z"/>
      <path class="cls-1" d="M22.42,7.46c-.18,0-.34-.11-.4-.29-.1-.28,.01-.5,.09-.67,.02-.04,.04-.08,.06-.12,.07-.16,.24-.27,.42-.27s.32,.11,.37,.29c.07,.28,.05,.54-.07,.78-.09,.17-.28,.29-.46,.29Z"/>
      <path class="cls-1" d="M25.61,6.97h0c-.08,0-.16-.02-.23-.07-.41-.25-.3-.78-.24-1.1v-.07c.05-.2,.25-.37,.46-.37,.17,0,.32,.11,.36,.29,.02,.07,.04,.13,.06,.19,.08,.25,.18,.55,0,.87-.09,.16-.24,.25-.41,.25Z"/>
      <path class="cls-1" d="M27.54,9.61l-.18-.03c-.22-.05-.32-.27-.33-.45v-.11c0-.06,0-.11-.01-.17-.03-.17,.04-.33,.13-.43,.18-.21,.46-.24,.64-.06,.34,.36,.39,.76,.14,1.07-.1,.12-.23,.18-.37,.18Z"/>
      <path class="cls-1" d="M30.92,7.17c-.39,0-.52-.3-.6-.48-.02-.04-.03-.07-.05-.11-.07-.13-.06-.28,.02-.42,.12-.21,.4-.27,.59-.13,.11,.08,.21,.17,.31,.27l.1,.1c.13,.11,.17,.29,.11,.45-.07,.18-.24,.31-.44,.32h-.04Z"/>
      <path class="cls-1" d="M33.83,9.44h0c-.17,0-.32-.09-.42-.24l-.07-.11c-.11-.16-.23-.34-.26-.58-.02-.14,.03-.3,.13-.42,.16-.19,.42-.21,.6-.06,.06,.05,.12,.08,.18,.12,.13,.08,.29,.17,.4,.36,.1,.17,.1,.39,0,.58-.12,.21-.34,.35-.55,.35Zm-.27-.97c.05,.12,.12,.22,.2,.34l.08,.12h0s.08-.04,.11-.09c0-.02,.03-.05,.01-.08-.04-.07-.12-.12-.23-.18-.06-.04-.12-.07-.17-.11Z"/>
      <path class="cls-1" d="M36.56,9.29h0c-.06,0-.11-.01-.17-.03-.17-.07-.26-.17-.35-.27l-.05-.06c-.13-.13-.16-.33-.08-.51,.1-.25,.38-.36,.6-.26,.17,.08,.3,.14,.42,.24,.15,.13,.19,.33,.12,.53-.08,.21-.28,.36-.49,.36Z"/>
      <path class="cls-1" d="M11.91,10.86c-.17,0-.32-.12-.38-.29-.08-.25,0-.49,.18-.65,.17-.15,.35-.22,.53-.28l.23-.06c.14,0,.27,.07,.34,.19,.07,.12,.07,.26,0,.39-.12,.21-.45,.69-.89,.7h0Z"/>
      <path class="cls-1" d="M15.72,9.65h0c-.17,0-.33-.1-.4-.25-.07-.16-.04-.34,.09-.48,.14-.16,.29-.3,.45-.45,.21-.19,.52-.12,.63,.12,.07,.15,.05,.33-.06,.46-.04,.05-.08,.1-.11,.15-.08,.1-.16,.21-.25,.3-.1,.1-.22,.15-.35,.15Z"/>
      <path class="cls-1" d="M14.75,12.18h0c-.07,0-.14-.01-.21-.04-.17-.06-.29-.2-.34-.38-.05-.21,0-.45,.14-.62,.11-.14,.24-.24,.38-.31,.02-.01,.06-.03,.1-.04,.03-.01,.08-.03,.09-.04,.07-.14,.43-.24,.6-.08,.05,.05,.1,.13,.1,.27,0,.11,0,.24-.06,.38-.01,.03-.05,.1-.08,.16l-.02,.04c-.05,.33-.33,.66-.69,.66Zm.27-.93s-.01,0-.02,0c-.13,.06-.2,.12-.27,.2-.04,.05-.06,.12-.05,.18l.07,.04c.09,0,.19-.13,.2-.24,0-.05,.02-.09,.07-.18Z"/>
      <path class="cls-1" d="M16.91,7.24h0c-.15,0-.29-.08-.37-.2-.08-.13-.09-.29-.01-.45,.08-.16,.16-.24,.25-.33,.21-.22,.52-.21,.67-.03,.08,.09,.11,.22,.08,.35-.04,.23-.11,.41-.34,.57-.08,.06-.18,.09-.28,.09Z"/>
      <path class="cls-1" d="M22.53,5.62h0c-.16,0-.3-.08-.37-.22-.08-.15-.06-.32,.04-.48,.04-.05,.08-.1,.12-.14,.02-.02,.03-.04,.05-.06,.17-.21,.49-.2,.63,0,.08,.11,.09,.25,.04,.38l-.02,.07c-.02,.06-.04,.12-.07,.17-.09,.17-.24,.27-.42,.27Z"/>
      <path class="cls-1" d="M20.58,10.22h0c-.11,0-.23-.04-.32-.11-.12-.1-.19-.23-.19-.38,0-.19,.09-.38,.24-.52,.22-.38,.72-.36,.83-.03,.06,.17,.11,.33,.04,.56-.07,.24-.31,.49-.6,.49Zm.14-.71s-.06,.06-.1,.08c-.02,.02-.05,.09-.04,.12v.25s0-.25,0-.25c.03,0,.1-.06,.12-.13,0-.03,.01-.05,.01-.07Z"/>
      <path class="cls-1" d="M23.84,11.63c-.19,0-.35-.08-.44-.21-.09-.13-.11-.29-.06-.46,.06-.19,.14-.38,.22-.56,.14-.29,.62-.35,.76-.06,.09,.19,.12,.37,.15,.53,.04,.2,0,.4-.13,.54-.12,.14-.31,.23-.51,.23Z"/>
      <path class="cls-1" d="M27.36,13.84h0c-.25,0-.46-.15-.56-.41-.19-.5-.16-1.05-.13-1.34,.03-.24,.29-.46,.55-.46,.16,0,.3,.09,.37,.23l.11,.23c.1,.22,.2,.43,.33,.63,.13,.21,.14,.46,.02,.69-.14,.25-.42,.43-.69,.43Zm-.18-1.69s-.01,.01-.02,.02c-.05,.39-.01,.79,.1,1.08,.03,.09,.07,.09,.09,.09h0c.08,0,.19-.07,.25-.17,.05-.1,.02-.16,0-.18-.14-.22-.25-.46-.36-.68l-.07-.15Z"/>
      <path class="cls-1" d="M27.94,6.13h0c-.05,0-.1,0-.16-.02-.32-.1-.42-.38-.49-.58-.07-.19-.04-.36,.05-.49,.17-.24,.51-.31,.71-.13l.05,.05c.14,.12,.29,.25,.35,.5,.04,.16,0,.34-.11,.47-.11,.13-.26,.21-.42,.21Zm-.21-.85l.04,.08c.06,.19,.09,.24,.17,.26v.25s0-.25,0-.25c0,0,.02,0,.03-.02,0-.13-.06-.18-.17-.27l-.06-.05Z"/>
      <path class="cls-1" d="M31.22,11.21h0c-.17,0-.33-.08-.45-.23-.2-.25-.22-.6-.21-.88,0-.23,.22-.49,.48-.49,.1,0,.2,.04,.27,.11,.05,.05,.11,.1,.17,.14,.09,.07,.17,.13,.25,.21,.18,.19,.22,.45,.11,.7-.11,.26-.36,.44-.62,.44Zm-.18-1.05c.01,.14,.02,.39,.11,.51,.04,.04,.06,.04,.07,.04,.05,0,.13-.05,.16-.14,.04-.09,0-.14-.02-.15-.05-.06-.12-.1-.18-.15-.05-.04-.1-.07-.14-.11Z"/>
      <path class="cls-1" d="M35.58,11.01h0l-.15-.03c-.27-.11-.33-.28-.37-.45-.03-.12,0-.26,.09-.37,.15-.19,.4-.22,.57-.08,.02,.02,.04,.03,.07,.04,.04,.03,.08,.05,.12,.09,.14,.12,.18,.3,.11,.48-.07,.19-.25,.32-.44,.32Z"/>
      <path class="cls-1" d="M35.05,7.77h0l-.15-.03c-.13-.05-.21-.12-.29-.18l-.05-.04c-.13-.1-.17-.28-.12-.44,.06-.18,.23-.3,.4-.3h.06l.1,.04c.11,.05,.23,.12,.35,.22,.12,.11,.16,.29,.1,.45-.07,.17-.23,.29-.4,.29Z"/>
    </g>
  </g>
  <path class="cls-1" d="M39.42,27.62h0c-.59,0-1.11-.27-1.4-.71-.13-.2-.14-.45-.02-.67,.16-.3,.54-.47,.85-.39,.12,.03,.23,.07,.35,.1,.22,.07,.41,.13,.57,.13s.32-.05,.52-.39c.13-.23,.35-.55,.68-.76,.42-.28,.8-.43,1.17-.46,.04,0,.09,0,.15,0h.36c.33,0,.4-.06,.42-.11,.07-.17,.27-.3,.47-.3s.35,.12,.39,.32c.09,.4,.04,.71-.14,.93-.26,.32-.72,.36-1.15,.36-.13,0-.26,0-.39,0-.13,0-.26,0-.38,0-.28,0-.63,.02-.77,.17-.07,.07-.1,.18-.09,.33,.01,.39-.12,.74-.37,1-.29,.3-.73,.47-1.2,.47Zm-.72-1.29c-.12,0-.22,.06-.27,.15-.04,.07-.02,.12,0,.15,.2,.31,.57,.49,.98,.49h0c.34,0,.64-.12,.84-.32,.15-.15,.22-.34,.23-.56-.38,.41-.9,.35-1.45,.18-.1-.03-.21-.07-.32-.09,0,0,0,0-.01,0Zm3.15-1.19c.13,0,.26,0,.4,0,.13,0,.25,0,.38,0,.29,0,.63-.02,.76-.18,.05-.07,.08-.17,.07-.32-.22,.29-.65,.29-.82,.29h-.36s-.07,0-.1,0c-.2,.02-.41,.08-.63,.2,.1,0,.21-.01,.31-.01Z"/>
  <path class="cls-1" d="M31.42,32.45c-.18,0-.34-.1-.42-.27-.1-.21-.06-.47,.08-.64,.17-.21,.37-.38,.55-.55,.19-.17,.37-.33,.52-.52,.34-.42,.54-.86,.78-1.39,.02-.05,.05-.1,.1-.14,.13-.22,.4-.34,.64-.27,.31,.09,.71,.35,1.23,.81,.3,.26,.63,.63,.52,1.2-.08,.45-.47,.79-1.16,1-.24,.14-.57,.2-.87,.26l-.1,.02c-.1,.02-.2,.05-.31,.08l-.18-.21,.07,.24-.13,.04c-.22,.07-.45,.14-.69,.18l-.51,.14s-.1,.02-.15,.02Zm2.11-3.29s-.06,.02-.07,.05l-.03,.07-.06,.04c-.22,.53-.44,1-.82,1.47-.18,.22-.38,.4-.58,.58-.18,.16-.36,.32-.5,.49-.02,.02-.02,.06-.02,.08l.51-.14c.23-.04,.43-.1,.65-.17l.2-.06c.17-.05,.29-.08,.4-.1l.1-.02c.27-.05,.54-.1,.76-.22,.39-.13,.81-.32,.86-.64,.05-.26-.05-.46-.36-.72-.57-.5-.88-.66-1.05-.7h0Z"/>
  <path class="cls-1" d="M39,33.19h0c-.24,0-.47-.07-.7-.2-.4-.24-.65-.57-.89-.88-.06-.03-.16-.11-.25-.2l-.23-.17,.07-.06c-.02-.06-.03-.13-.03-.2-.02-.08,0-.17,.04-.26,.03-.07,.09-.13,.15-.16,.18-.19,.44-.26,.65-.16,.35,.17,.74,.18,1.15,.19,.22,0,.44,0,.66,.04,.32,.04,.57,.22,.68,.48,.12,.29,.06,.66-.16,.96-.3,.41-.71,.63-1.14,.63Zm-1.48-1.64h0c.05,.06,.11,.1,.18,.13l.08,.07c.26,.34,.47,.61,.78,.8,.14,.09,.29,.13,.44,.13h0c.27,0,.53-.15,.74-.43,.11-.15,.15-.34,.1-.46-.05-.12-.19-.17-.29-.18-.2-.03-.4-.03-.61-.03-.45,0-.91-.02-1.36-.24,0,0-.04,.02-.08,.06l-.04,.08s.02,.03,.04,.05h0Z"/>
  <path class="cls-1" d="M17.9,32.81c-.55,0-.94-.21-1.07-.59-.14-.41,.05-.84,.57-1.26,.48-.39,.92-.74,1.08-1.32,.03-.11,.1-.22,.2-.32,.08-.14,.22-.23,.37-.23l.14,.03c.13,.05,.25,.12,.37,.19,.18,.1,.32,.18,.52,.19,.12,0,.23,.05,.31,.15,.09,.1,.13,.25,.11,.41-.05,.39,0,.7,.17,.93,.07,.1,.14,.18,.21,.27,.09,.11,.18,.22,.26,.33l.11,.11c.14,.15,.18,.37,.09,.57-.09,.21-.29,.35-.49,.35h0c-.1,0-.21-.04-.29-.1-.48-.37-.9-.25-1.45-.02-.23,.1-.47,.19-.74,.26-.14,.03-.31,.05-.47,.05Zm1.2-3.18h0s-.05,.05-.05,.05c-.05,.04-.08,.09-.08,.11-.2,.73-.73,1.15-1.24,1.56-.35,.29-.49,.52-.42,.71,.08,.23,.48,.25,.6,.25s.25-.01,.35-.04c.24-.06,.45-.15,.67-.24,.33-.14,.64-.27,1-.27,.33,0,.64,.12,.95,.35,0,0,.03-.05,.03-.07l-.14-.14c-.1-.14-.18-.23-.26-.33-.08-.1-.16-.2-.24-.31-.23-.33-.31-.76-.25-1.27-.29-.02-.5-.14-.69-.25-.07-.04-.14-.08-.22-.12Z"/>
  <path class="cls-1" d="M22.24,33.33c-.33,0-.73-.2-.8-.57-.02-.12,.02-.26,.1-.36,.15-.18,.41-.2,.57-.05,.04,0,.09-.01,.12-.02l.17-.02c.14,0,.24,.06,.33,.12,.12,.08,.18,.21,.18,.35,0,.2-.15,.38-.29,.46-.11,.07-.24,.1-.38,.1Z"/>
  <path class="cls-1" d="M26.55,33.83c-.17,0-.32-.05-.46-.15-.13-.09-.18-.25-.12-.41,.06-.17,.21-.29,.38-.29h.07c.09,.01,.14,0,.18,0,.08-.02,.16-.03,.24-.03,.24,.01,.39,.15,.41,.33,.02,.22-.14,.46-.35,.51-.1,.03-.22,.05-.34,.05Z"/>
  <path class="cls-1" d="M26.84,39.89c-.94,0-1.94-.03-2.95-.08-2.35-.12-4.88-.31-7.73-.58-2.25-.21-4.25-.46-6.07-1.29-1.95-.9-3.28-2.14-3.94-3.7l-.03-.07c-.39-.12-.68-.31-.87-.58-.17-.23-.29-.47-.4-.68-.25-.5-.42-.82-1.06-.9-.58-.06-1.08-.39-1.35-.87-.24-.44-.25-.96-.02-1.43,.23-.47,.8-.71,1.12-.82,.75-.25,.86-.61,1.03-1.21,.05-.19,.11-.38,.19-.59,.21-.55,.7-.97,1.39-1.21-.07-.09-.19-.16-.36-.26-.23-.13-.48-.29-.66-.57-.41-.63-.2-1.27,.61-1.9-.54-.46-.99-.95-1.36-1.51-1.06-1.58-.85-2.91-.5-4,.25-2.3,1.5-4.67,3.71-6.99,1.11-1.47,2.23-2.62,3.41-3.49,3.75-2.78,8.71-4.47,13.97-4.76,2.64-.15,5.28,.29,7.89,1.31l.53,.21c2.03,.79,4.13,1.6,5.93,2.96,3.17,2.39,6.26,7.51,6.05,12.67,0,.18-.07,.34-.16,.45,.05,.07,.09,.16,.11,.26,.06,.45,.02,.9-.11,1.34,.11,.24,.15,.53,.09,.83,1.32,.24,3.37,.86,4.1,2.42,.81,1.72-1.11,4.25-2.32,5.06-.73,.49-1.63,.88-2.68,1.16l-.03,.1c-.43,.79-.99,1.56-1.66,2.29l-1.05,1.15c.77-.64,1.46-1.36,2.05-2.17l.77-1.06-.32,1.27c-.27,1.07-.71,1.97-1.31,2.67-1.47,1.74-3.35,2.4-5.18,3.03-2.95,1.02-6.58,1.54-10.82,1.54Zm16.35-6.04c-2.73,2.93-6.95,4.54-11.05,5.23,1.98-.25,3.77-.65,5.36-1.2,2.09-.72,3.67-1.35,4.96-2.87,.28-.34,.53-.72,.74-1.15Zm-36.93-.17s.07,.02,.11,.03l.12,.03,.12,.3c.61,1.44,1.85,2.6,3.69,3.45,1.75,.8,3.71,1.04,5.91,1.25,1.09,.1,2.13,.2,3.13,.28-1.47-.18-2.93-.41-4.38-.69-1.79-.35-3.31-.84-4.63-1.5-.56-.26-1.05-.54-1.49-.86-.06-.04-.13-.1-.21-.16-.62-.45-1.2-.98-1.71-1.56l-.41-.47,.62,.05c.18,.02,.35,0,.51,0,.43-.03,.87-.08,1.38,.37,.28,.24,.38,.28,.72,.39l.08,.03c.41,.14,1.16-.04,1.55-.22,.67-.31,1.28-.71,2.03-1.36,.09-.08,.19-.16,.28-.24l.3-.23c.21-.07,.42-.14,.61-.21,.37-.14,.73-.33,1.11-.57l.26-.17,.11,.29c.05,.15,.08,.32,.1,.51,0,.08,.02,.15,.03,.23,.15,.98,.98,1.23,2.58,.82,.07-.02,.15-.04,.23-.07,.26-.08,.59-.19,.91-.19,.47,0,.71,.23,.83,.43,.07,.11,.23,.28,.3,.31,.51,.23,.91,.25,1.4,.07,.18-.07,.36-.16,.52-.24,.34-.17,.67-.33,1.02-.33s.71,.18,1.03,.55c.31,.35,.83,.71,1.19,.72h0c.8,0,1.36-.28,2-.64,.31-.17,.65-.25,1.07-.25,.21,0,.42,.02,.64,.04,.31,.03,.62,.06,.93,.02,.35-.04,.59-.2,.85-.37,.35-.22,.75-.48,1.41-.44,.47,.02,.71-.09,1.14-.39,.15-.11,.29-.22,.42-.34,.21-.18,.43-.36,.69-.51,.09-.05,.19-.08,.29-.08,.5,0,.95,.65,1.32,1.27l.08,.13c.32,.5,.74,.8,1.32,.96,.72,.19,1.85-.14,2.08-.95v-.02c.19-.68,.2-.8,.2-.81l.22,.02,.03-.02v-.25s.13,0,.13,0c.11,0,.22,.03,.32,.04,.23,.03,.45,.07,.69,.03,.32-.06,.58-.14,.82-.26l.54-.27-.09,.25c.21-.3,.39-.6,.56-.9l.03-.17,.05-.11,.14-.07c1.06-.26,1.97-.64,2.69-1.13,1.1-.74,2.79-3.05,2.14-4.43-.68-1.46-2.8-2-4-2.18l-.29-.04,.09-.28c.1-.32,.09-.59-.03-.81l-.06-.1,.04-.11c.14-.4,.18-.8,.12-1.21-.03-.03-.07-.02-.09,.03l-.05,.09c-.05,.49-.37,1.03-.94,1.57-.88,1.18-2.05,1.93-3.79,2.41-1.11,.3-2.22,.52-3.54,.75-.19,.03-.39,.07-.59,.11-.15,.03-.3,.05-.45,.08,.11,0,.21-.02,.32-.03,.2-.02,.4-.03,.6-.04,1.54-.1,3.17-.26,4.63-.76,1.03-.35,2.02-.9,2.71-1.51l.54-.48-.13,.71c-.03,.18,.01,.36,.16,.59,.46,.74,.62,1.31,.47,1.71-.06,.16-.21,.37-.55,.47-.24,.07-.48,.07-.71,.08-.17,0-.34,0-.49,.04l-.21,.04c-.37,.06-.63,.11-.88,.36-.05,.05-.07,.17-.05,.21,.23,.29,.29,.55,.19,.79-.14,.33-.56,.53-1.28,.62l-.83,.09,.64-.54s.09-.08,.14-.11c-.77,.39-1.67,.59-2.8,.27-.45-.13-.93-.13-1.47-.07-.48,.05-.89,.06-1.25,.06-.86,0-1.49,.02-2.42,.7-.84,.62-1.73,.91-2.71,.91s-2.01-.31-3.05-.64c-.55-.17-1.11-.35-1.68-.48-.3-.07-.76,.12-1.14,.29-.17,.07-.33,.14-.46,.18-1.04,.34-2.37,.25-3.64-.23-.2-.07-.36-.15-.51-.22-.33-.15-.57-.26-.98-.26h-.12c-.48,.03-.94,.13-1.43,.25-.53,.13-1.09,.26-1.68,.27h0c-.52,0-1.03-.17-1.52-.33-.38-.13-.78-.26-1.14-.3-.38-.04-.75-.13-1.11-.21-.42-.1-.81-.19-1.19-.21h0c-.16,0-.39,.07-.61,.15-.56,.18-1.18,.3-1.47-.05-.47-.56-.77-1.06-.89-1.5l-.5,.77c-.04,.06-.07,.11-.1,.17,.05-.02,.1-.04,.15-.04h.13l.2,.22-.03,.17c-.43,1.54-.02,3.53,1.61,4.18,.67,.27,1.37,.39,2.22,.39,.55,0,1.11-.05,1.69-.11,.22,0,.35,.11,.38,.28,.03,.19-.09,.38-.27,.43-.67,.21-1.7,.46-2.74,.46-1.25,0-2.21-.36-2.84-1.06-.94-1.04-1.3-2.22-1.08-3.46-.17,.7-.17,1.4,0,2.02,.25,.91,.87,1.63,1.8,2.09,.11,.06,.24,.1,.36,.14l.55,.19,.45,.07c.74,.11,1.6,.1,2.53-.04l1.39-.21-1.23,.68c-.95,.52-1.81,.53-2.83,.05l-.44-.21h-.39s0,0,0,0c-.22,0-.43,.02-.63,.04-.13,.01-.27,.03-.4,.04-.45,.03-.77-.02-1.03-.13l-.08-.05,.07,.4Zm1.42,.64c.39,.39,.81,.76,1.26,1.08,.08,.07,.14,.11,.19,.15,.42,.3,.88,.56,1.42,.81,1.29,.64,2.76,1.12,4.51,1.46,3.93,.76,7.95,1.15,11.96,1.15h.54c4.58-.04,10.25-1.24,14.01-4.31l.71-1.48c.09-.19,.18-.4,.27-.63-.13,.04-.27,.07-.42,.1-.3,.05-.58,.02-.86-.02-.05,0-.11-.02-.16-.02-.03,.15-.09,.36-.17,.68l-.14-.03,.14,.04h0s0,0,0,0l-.06,.17c-.41,.99-1.74,1.37-2.63,1.14-.7-.19-1.23-.57-1.61-1.17l-.09-.14c-.42-.68-.72-1.03-.89-1.03-.26,.14-.45,.31-.66,.48-.15,.12-.29,.25-.45,.36-.5,.35-.83,.52-1.46,.48h-.1c-.44,0-.71,.17-1.02,.37-.28,.18-.6,.38-1.05,.44-.35,.04-.7,.01-1.04-.02-.2-.02-.4-.04-.59-.04-.34,0-.59,.06-.82,.19-.68,.38-1.32,.7-2.2,.7-.68,0-1.34-.59-1.61-.89-.3-.34-.52-.38-.66-.38-.24,0-.5,.13-.8,.28-.18,.09-.37,.19-.57,.26-.6,.23-1.15,.2-1.78-.09-.27-.12-.51-.5-.51-.5-.06-.09-.15-.19-.41-.19-.24,0-.53,.09-.76,.16-.09,.03-.18,.06-.25,.08-.52,.13-.97,.2-1.36,.2-1.34,0-1.74-.77-1.84-1.42-.01-.08-.02-.17-.03-.25,0-.03,0-.06-.01-.09-.3,.17-.6,.31-.9,.43-.18,.07-.38,.14-.58,.2l-.18,.15c-.09,.08-.18,.15-.28,.23-.79,.68-1.43,1.11-2.15,1.44-.65,.29-1.43,.4-1.92,.24l-.07-.03c-.37-.12-.54-.18-.89-.49-.33-.3-.65-.27-1.02-.25Zm-1.44-7.94c-.38,.14-.83,.41-1.02,.9-.07,.19-.13,.37-.18,.54-.18,.62-.35,1.21-1.35,1.54-.41,.14-.71,.34-.82,.56-.16,.32-.16,.67,0,.97,.19,.34,.55,.56,.96,.61,.92,.1,1.19,.64,1.46,1.17,.1,.2,.21,.41,.36,.61,.1,.14,.24,.24,.42,.32l-.56-1.15c-.12-.25-.24-.5-.46-.75-.13-.14-.2-.21-.33-.21,0,0-.04,0-.07,0-.31,0-.55-.1-.72-.31-.24-.3-.29-.79-.14-1.5l.03-.15,.15-.04c.26-.07,.46-.15,.71-.25,.58-.24,.64-.74,.71-1.31,.07-.58,.15-1.23,.83-1.56h.02Zm.3,6.51c.18,.06,.42,.08,.74,.06,.02,0,.05,0,.07,0-.84-.52-1.41-1.27-1.67-2.19-.14-.5-.18-1.05-.12-1.6-.14,.22-.36,.42-.68,.55-.21,.09-.4,.17-.63,.23-.1,.6,0,.84,.07,.93,.02,.03,.1,.12,.33,.12h.07c.37,.02,.56,.22,.69,.37,.04,.04,.07,.08,.1,.12v-.45s.46,.9,.46,.9c.17,.33,.36,.66,.56,.97Zm.05-3.54c.01,.84,.35,1.64,1.02,2.38,.53,.59,1.36,.89,2.47,.89,.31,0,.62-.02,.92-.06-.9,0-1.66-.14-2.38-.43-1.21-.49-1.85-1.59-2.03-2.78Zm18.52-1.5c.09,0,.17,0,.25,.03,.59,.13,1.16,.31,1.72,.49,1,.32,1.95,.62,2.9,.62,.88,0,1.67-.27,2.42-.82,1.06-.78,1.79-.79,2.71-.8,.37,0,.75,0,1.2-.06,.6-.07,1.15-.06,1.67,.08,1.19,.34,2,.06,2.97-.53,.11-.07,.22-.08,.33-.06-.03-.22,.05-.46,.19-.61,.36-.37,.74-.44,1.15-.51l.21-.04c.19-.04,.39-.04,.57-.04,.21,0,.41,0,.59-.06,.15-.04,.2-.12,.22-.17,.03-.09,.1-.43-.43-1.27-.09-.14-.15-.28-.19-.41-.93,.7-1.95,1.11-2.51,1.3-1.52,.51-3.19,.68-4.76,.78-.19,.01-.39,.03-.59,.04-.54,.04-1.1,.09-1.66,.09-.73,0-1.33-.08-1.85-.24-.15-.05-.23-.18-.21-.34,.03-.16,.16-.29,.32-.29,.27,.04,.51,.05,.77,.05,.84,0,1.79-.17,2.62-.33,.21-.04,.4-.07,.6-.11,1.31-.23,2.41-.44,3.5-.74,1.64-.45,2.7-1.13,3.55-2.26,.51-.49,.78-.92,.81-1.32l.09-.22s.05-.09,.08-.12c-.06-.09-.12-.25-.09-.47,.66-5.16-3.63-10.67-7-12.35-2.75-1.37-5.21-2.25-7.53-2.7l-.13-.03-.05-.12-.16,.09c-1.45-.25-2.78-.34-4.13-.27-1.02,.05-2.05,.16-3.07,.31l-.22,.03-.04-.16s-.03,.04-.04,.06l-.06,.12-.13,.02c-.59,.1-1.21,.22-1.89,.38l-.15,.04-.09-.1s-.01,.03-.03,.06l-.05,.08-.09,.02c-2.48,.62-4.7,1.54-6.6,2.74-1.91,1.2-3.61,2.85-5.05,4.9-.95,1.35-1.93,2.8-2.55,4.4,0,.09-.08,.33-.15,.59-.11,.39-.28,.97-.26,1.17,.22,2.92,1.93,3.73,3.9,4.66,.19,.09,.38,.18,.58,.28,1.29,.45,2.95,.67,4.41,.85l.57,.08c2.51,.33,4.99,.38,7.1,.38,.79,0,1.58,0,2.37-.01,1.51-.01,3.03-.03,4.56,0,.2,0,.35,.16,.35,.37,0,.23-.17,.48-.42,.49-3.26,.07-6.64,0-9.34-.06l-.72-.02c-2.64-.06-5.37-.12-8-.7-1.3-.29-2.45-.74-3.42-1.35-.05,.06-.11,.12-.15,.19,.01,.14,.39,.26,.52,.3,.16,.05,.26,.09,.34,.15,.21,.17,.47,.55,.45,.92l.1-.09-.11,.16s-.01,.06-.02,.08c-.12,.41,.17,1.06,.82,1.82,.03,.03,.08,.07,.21,.07,.2,0,.47-.09,.72-.17,.27-.09,.52-.17,.74-.17,.48,.03,.91,.13,1.32,.22,.35,.08,.71,.16,1.06,.2,.41,.04,.83,.18,1.24,.32,.48,.16,.93,.31,1.33,.31,.56,0,1.06-.13,1.6-.25,.49-.12,.99-.23,1.52-.26,.6-.03,.94,.12,1.33,.3,.14,.07,.29,.14,.48,.21,1.16,.44,2.37,.53,3.31,.22,.12-.04,.26-.1,.41-.17,.37-.16,.79-.35,1.2-.35Zm-18.91-.85c-.15,.16-.22,.38-.27,.67,.09-.21,.19-.42,.3-.63-.01-.01-.02-.02-.03-.04Zm.37-.73v.31s.73-.67,.73-.67c-.02-.17,0-.34,.04-.49,.04-.15-.11-.43-.26-.55-.02-.01-.09-.03-.18-.06-.32-.1-.75-.25-.86-.57-.04-.11-.05-.28,.08-.48,.1-.15,.23-.29,.35-.41l.14-.15,.17,.11c.96,.63,2.11,1.09,3.43,1.39,1.37,.31,2.79,.47,4.2,.56-.09-.01-.18-.02-.26-.04l-.57-.07c-1.48-.19-3.17-.41-4.53-.89-.22-.1-.41-.19-.6-.28-1.94-.92-3.94-1.87-4.18-5.08-.02-.26,.1-.72,.28-1.34,.07-.25,.13-.46,.15-.59,.66-1.71,1.65-3.19,2.62-4.56,1.48-2.1,3.23-3.8,5.2-5.04,1.93-1.21,4.17-2.15,6.66-2.78,.17-.19,.43-.24,.62-.14,.61-.14,1.16-.25,1.7-.34,.2-.28,.59-.31,.78-.13,.98-.14,1.98-.24,2.95-.29,1.37-.07,2.7,.02,4.16,.27,.2-.09,.42-.04,.54,.09,2.33,.46,4.8,1.35,7.56,2.72,2.68,1.34,5.93,5.03,6.99,9.1-.89-3.62-3.16-6.84-5.46-8.58-1.74-1.31-3.81-2.12-5.81-2.89l-.53-.21c-2.54-.99-5.11-1.42-7.68-1.28-5.16,.29-10.03,1.95-13.7,4.66-1.12,.83-2.24,1.98-3.32,3.41-2.15,2.26-3.36,4.53-3.61,6.76-.33,1.07-.51,2.22,.43,3.62,.4,.6,.89,1.12,1.51,1.6l.28,.21-.29,.19c-1.02,.68-.94,1.11-.74,1.41,.12,.18,.3,.29,.5,.41,.29,.17,.62,.37,.68,.81l.03,.22-.19,.05Zm38.17-9.07c.11,.8,.12,1.61,.02,2.42-.01,.1,0,.13,0,.13,0-.01,.09-.07,.1-.23,.03-.78-.01-1.55-.12-2.32Zm-18.18,17c-.16,0-.31-.02-.46-.06-.45-.12-.7-.44-.93-.73-.13-.16-.25-.31-.39-.42l-.25-.18-.36,.07c-.29,.06-.62,.23-.94,.39-.43,.22-.88,.45-1.3,.45-.32,0-.59-.13-.81-.38-.42-.48-.64-.57-.9-.57-.22,0-.5,.07-.85,.18-.34,.1-.85,.22-1.34,.22-.9,0-1.46-.42-1.59-1.17-.03-.19-.07-.32-.11-.44l-.07-.17,.14-.12c.79-.67,1.43-1.57,1.84-2.59l.08-.19,.2,.04c.46,.09,.94,.34,1.41,.57,.22,.11,.44,.22,.65,.31l.14,.06,.02,.15c.02,.17,.04,.32,.08,.46,.05-.04,.11-.06,.18-.06h.11l.1,.09c1.18,1.28,2.99,1.45,4.61,1.45,.4,0,.79-.01,1.17-.02h0c.2,0,.34,.13,.36,.3,.02,.19-.11,.43-.33,.48-.53,.12-1.12,.18-1.72,.18-.21,0-.48,0-.79-.04h.02s.44,.07,.44,.07c.36,.05,.7,.09,1.03,.11,2.64,.17,5.92-1.16,6.76-3.84l.03-.1,.09-.05c.4-.22,.74-.35,1.07-.39l.13-.02,.09,.1c1.43,1.63,4.04,2.61,6.99,2.61,.67,0,1.34-.05,1.99-.15l.56-.09-.32,.47c-.28,.42-.8,.62-1.71,.67h-.11c-.14,0-.27,0-.38-.02-.18-.02-.31-.08-.58,.09-.12,.07-.13,.14-.18,.36l-.02,.1c-.03,.38-.25,1.08-1.4,1.08-.34,0-.76-.06-1.24-.18l-.08-.02-.05-.06c-.2-.23-.35-.52-.49-.8-.05-.1-.1-.2-.15-.29-.4-.72-.91-.98-1.54-.77-.24,.08-.47,.25-.7,.42l-.08,.06c-.69,.52-1.14,.65-1.96,.6h0c-.18,0-.42,.09-.65,.24-.62,.41-1.2,.45-1.79,.45h-.28c-.25,0-.55,0-.85,.06-.34,.07-.67,.26-1.01,.45-.48,.27-.98,.56-1.55,.56Zm-.98-1.08c.19,.24,.37,.45,.65,.53,.55,.15,1.08-.13,1.64-.45,.16-.09,.32-.18,.49-.27-.81,.19-1.62,.26-2.39,.21-.12,0-.25-.02-.38-.03Zm-5.37-.85c.52,0,.88,.28,1.28,.74,.34,.39,.91,.12,1.51-.19,.1-.05,.21-.11,.32-.16-.9-.3-1.67-.75-2.33-1.34-.41-.36-.65-.86-.74-1.5-.18-.08-.36-.17-.55-.27-.37-.19-.74-.37-1.09-.48-.42,.96-1.02,1.81-1.77,2.48,.03,.11,.06,.23,.08,.37,.05,.32,.23,.75,1.09,.75,.43,0,.89-.11,1.2-.2,.41-.12,.72-.2,.99-.2Zm17.74,.55c.4,.1,.75,.15,1.04,.15,.76,0,.89-.35,.91-.65l.02-.12c.05-.24,.1-.5,.41-.68,.04-.02,.07-.04,.11-.06-2.74-.14-5.14-1.11-6.56-2.66-.21,.04-.43,.13-.68,.26-.59,1.75-2.13,2.96-3.87,3.59,.23-.03,.45-.03,.65-.03h.28c.53,0,1.01-.03,1.51-.36,.18-.12,.55-.33,.91-.33,.13,0,.21,0,.29,0,.54,0,.87-.12,1.39-.51l.08-.06c.24-.18,.52-.39,.84-.5,.19-.06,.38-.09,.56-.09,.44,0,1.07,.19,1.57,1.1,.05,.1,.11,.2,.16,.31,.11,.22,.23,.46,.37,.64Zm-12.43-1.77c-.43,0-.88-.03-1.36-.09-.75-.1-1.36-.39-1.88-.9l-.39-.38,.55-.04c.37-.03,.74-.08,1.1-.15,1.21-.24,2.27-.14,3.59,.12,.59,.12,1.16,.18,1.76,.2l1.09,.04-1,.44c-.56,.25-1.14,.44-1.76,.59-.52,.12-1.09,.18-1.69,.18Zm-2.44-.99c.33,.21,.71,.34,1.14,.4,1.08,.14,2.04,.11,2.88-.08,.22-.05,.43-.11,.64-.17-.24-.03-.47-.07-.71-.12-1.26-.25-2.25-.35-3.39-.12-.18,.04-.37,.07-.56,.09Zm17.56,.84c-2.08,0-3.86-.61-4.87-1.68-.1-.1-.12-.24-.06-.37,.06-.13,.18-.22,.32-.22h.08l.12,.07c1.08,.8,2.7,1.19,4.96,1.19,.89,0,1.74-.06,2.3-.11h0c.2,0,.33,.11,.36,.27,.03,.18-.09,.36-.26,.42-.87,.28-1.91,.44-2.95,.44Zm-2.13-.75c.82,.21,1.79,.29,2.76,.23-1.03,0-1.96-.07-2.76-.23Zm-27.77,.12c-.82,0-1.54-.2-2.14-.59-.43-.28-.67-.73-.72-1.34l-.06-.78,.5,.6c.11,.13,.2,.15,.26,.15,.76,.02,1.5,.08,2.48,.19,.31,.03,.61,.07,.91,.11,.72,.09,1.4,.17,2.09,.22l.86,.06-.76,.41c-.33,.18-.65,.33-.98,.46-.83,.34-1.67,.51-2.44,.51Zm-2.25-1.46c.08,.19,.21,.34,.38,.45,1.02,.67,2.56,.67,4.12,.03,.04-.02,.08-.03,.12-.05-.4-.04-.79-.09-1.2-.14-.3-.04-.6-.07-.9-.11-.96-.11-1.69-.16-2.44-.18-.02,0-.05,0-.07,0Zm32.51-.01l.74-.53c.34-.24,.7-.67,.53-1.36l-.07-.29,.29-.03c.28-.03,.64,0,.95,.02,.16,.01,.31,.02,.41,.02,.53-.03,.83-.25,1.14-.57,.22-.23,.31-.66,.26-1.3l-.03-.42,.38,.17c1.12,.5,1.2,1.22,1.07,1.73-.42,1.66-2.43,2.06-3.75,2.33-.35,.07-.66,.11-1,.14l-.91,.08Zm1.81-1.71c.03,.38-.05,.73-.25,1.05,.07-.01,.14-.03,.21-.04,1.25-.25,3.07-.61,3.42-1.97,.04-.15,.14-.56-.43-.95,0,.43-.09,.9-.41,1.23-.33,.35-.74,.68-1.41,.73h-.09c-.11,0-.27,0-.45-.02-.19-.01-.4-.03-.6-.03Z"/>
</svg>