<?xml version="1.0" encoding="UTF-8"?>
<svg id="Layer_1" data-name="Layer 1" xmlns="http://www.w3.org/2000/svg" viewBox="0 0 55 40">
  <defs>
    <style>
      .cls-1 {
        fill: #fff;
      }
    </style>
  </defs>
  <g>
    <path class="cls-1" d="M26.14,34.93c-3.56,0-6.27-.11-8.78-.35l-.44-.04c-3.25-.31-6.93-.66-9.58-2.71-4.2-3.26-5.52-9.67-2.94-14.27,.15-.54,.44-1.16,.85-1.8,1.55-2.4,4.61-4.19,9.08-5.32,1.36-.56,2.56-.92,3.74-1.11,3.66-.6,7.57-.95,11.64-1.06,.87-.02,1.75-.04,2.62-.04,2.27,0,5.26,.11,8.17,.96,.42,.12,.84,.24,1.26,.36,2.38,.66,4.84,1.35,6.77,2.93l.07,.08c1.61,2.03,3.12,3.95,3.72,6.56,.51,2.2,.48,4.6-.07,6.92-.59,1.69-1.5,3.11-2.69,4.25-4.69,4.45-12.85,4.55-18.25,4.61h-.84c-1.44,.03-2.89,.04-4.33,.04Zm6.2-26.21c-.87,0-1.74,.02-2.61,.04-4.05,.1-7.94,.46-11.58,1.05-1.14,.19-2.31,.54-3.66,1.09-4.38,1.12-7.34,2.83-8.82,5.12-.38,.59-.66,1.17-.81,1.71-2.49,4.45-1.23,10.57,2.79,13.69,2.53,1.96,6.14,2.31,9.32,2.61l.44,.04c2.5,.24,5.19,.35,8.73,.35,1.44,0,2.89-.02,4.33-.03h.84c5.32-.07,13.36-.17,17.91-4.48,1.14-1.08,2-2.43,2.56-4.02,.52-2.23,.55-4.54,.06-6.67-.57-2.5-2.05-4.37-3.62-6.36-1.84-1.52-4.25-2.19-6.58-2.84-.42-.12-.85-.24-1.27-.36-2.85-.83-5.79-.94-8.03-.94Zm-6.84,24.91c-4.17,0-9.07-.16-13.74-1.34-5.88-1.49-8.09-7.23-7.22-12.13l.13-.75,.34,.69c.71,1.45,2.66,2.62,5.81,3.48-.38-.21-.74-.44-1.08-.68-.56-.39-1.04-.81-1.48-1.26-1.55-.81-2.46-1.75-2.7-2.81-.19-.83,.05-1.7,.72-2.59,.79-2.03,3.35-3.09,5.22-3.86l.16-.07c3.24-1.34,6.62-2.21,10.03-2.59,4.32-.47,8.36-.57,11.89-.27,.43,.04,.89,.06,1.38,.08,1.39,.06,2.97,.13,4.29,.58,2.07,.01,4.6,.91,6.78,2.42,.23,.16,.47,.33,.72,.52,.98,.63,1.76,1.38,2.46,2.37l.05,.07-.15,.23,.21-.14c.07,.1,.15,.21,.22,.32,.76,1.21,1.02,2.21,.79,3.08-.21,.78-.83,1.43-1.88,1.98-.47,.55-1.05,1.05-1.64,1.48,.05-.02,.09-.04,.14-.05l.12-.05c1.3-.49,3.08-1.17,3.9-2.35l.36-.52,.09,.63c.1,.67,.13,1.34,.1,2.04-.15,3.61-1.48,6.26-4.07,8.09-4.5,3.18-11.1,3.29-16.4,3.37h-.91c-1.53,.04-3.09,.07-4.66,.07ZM4.93,20.92c-.52,4.51,1.63,9.54,6.95,10.88,4.62,1.17,9.48,1.33,13.62,1.33,1.56,0,3.12-.03,4.65-.05h.91c5.23-.1,11.74-.2,16.11-3.29,2.45-1.74,3.72-4.26,3.86-7.7,.02-.47,0-.92-.03-1.38-.98,1.02-2.56,1.62-3.75,2.07l-.12,.05c-.75,.29-1.55,.56-2.36,.82l-.19-.46c1.08-.55,2.56-1.45,3.53-2.61l.08-.06c.96-.5,1.49-1.03,1.67-1.69,.2-.73-.04-1.6-.73-2.69-.07-.11-.14-.21-.21-.31l-.1-.15c-.66-.93-1.4-1.64-2.33-2.24-.26-.19-.5-.36-.72-.52-2.12-1.46-4.56-2.33-6.52-2.33h-.1c-1.27-.45-2.82-.52-4.19-.58-.5-.02-.97-.04-1.4-.08-3.5-.29-7.51-.2-11.8,.27-3.36,.37-6.69,1.23-9.89,2.55l-.16,.07c-1.8,.74-4.26,1.76-4.96,3.61l-.04,.06c-.59,.77-.81,1.52-.65,2.21,.21,.9,1.06,1.76,2.48,2.49l.07,.05c.42,.44,.88,.84,1.43,1.23,.89,.63,1.91,1.16,3.11,1.63l-.14,.48c-4.15-.82-6.86-2.05-8.07-3.67Z"/>
    <g>
      <path class="cls-1" d="M36.77,28.1h0c-.94,0-1.9-.19-2.63-.35-.42-.09-.83-.2-1.24-.3-1.38-.34-2.69-.66-4.04-.66-.69,0-1.33,.08-1.95,.25l-.31,.08c-1.62,.44-3.3,.9-4.95,.9-1.25,0-2.37-.26-3.43-.78-1.02-.51-1.81-1.28-2.57-2.03-.76-.75-1.47-1.45-2.41-1.92-.6-.3-1.34-.59-2.11-.89-2.21-.87-4.72-1.85-5.59-3.77l-.02-.07c-.09-.76,.17-1.54,.76-2.33,.79-2.03,3.35-3.09,5.22-3.86l.16-.07c3.24-1.34,6.62-2.21,10.03-2.59,4.32-.47,8.36-.57,11.89-.27,.43,.04,.89,.06,1.38,.08,1.39,.06,2.97,.13,4.29,.58,2.07,.01,4.6,.91,6.78,2.42,.23,.16,.47,.33,.72,.52,.98,.63,1.76,1.38,2.46,2.37l.05,.07-.15,.22,.21-.14c.07,.1,.15,.21,.22,.32,.25,.4,.45,.78,.6,1.16l.02,.05v.05c-.02,.53-.12,1.06-.29,1.59-.72,2.17-2.62,3.23-4.46,4.24-.72,.4-1.47,.81-2.11,1.29-.56,.41-1.08,.89-1.59,1.35-.74,.68-1.51,1.38-2.4,1.89-.72,.41-1.54,.61-2.53,.61Zm-7.91-1.82c1.42,0,2.75,.33,4.16,.68,.41,.1,.81,.2,1.23,.29,.71,.16,1.63,.34,2.52,.34h0c.89,0,1.64-.18,2.28-.54,.85-.48,1.59-1.16,2.31-1.82,.52-.47,1.06-.97,1.64-1.39,.67-.49,1.43-.91,2.17-1.32,1.75-.97,3.57-1.98,4.23-3.96,.15-.46,.24-.93,.26-1.4-.13-.34-.31-.67-.53-1.03-.07-.11-.14-.21-.21-.31l-.1-.15c-.66-.93-1.4-1.64-2.33-2.24-.26-.19-.5-.36-.72-.52-2.12-1.46-4.56-2.33-6.52-2.33h-.1c-1.27-.45-2.82-.52-4.19-.58-.5-.02-.97-.04-1.4-.08-3.41-.28-7.31-.2-11.48,.24,.14,.02,.27,.08,.36,.18,.08,.08,.16,.23,.14,.46v.08c-.05,.4-.3,.71-.66,.78-.41,.08-.72-.19-.76-.6v-.08c-.03-.19,.04-.38,.18-.54,.1-.11,.23-.19,.37-.24-3.34,.37-6.65,1.23-9.83,2.55l-.16,.07c-1.8,.74-4.26,1.76-4.96,3.61l-.04,.06c-.51,.68-.74,1.33-.68,1.96,.8,1.71,3.19,2.64,5.3,3.47,.79,.31,1.53,.6,2.15,.91,1.01,.51,1.78,1.27,2.54,2.01,.77,.75,1.49,1.46,2.44,1.94,.99,.49,2.03,.73,3.2,.73,1.59,0,3.16-.43,4.82-.88l.31-.08c.67-.18,1.35-.27,2.08-.27Zm-6.89-15.62c-.1,0-.21,.05-.28,.12-.04,.05-.06,.1-.06,.16v.08s.03,.16,.13,.16c.2-.04,.28-.2,.29-.34l.26-.05-.25-.02s0-.07-.01-.08c0,0-.04-.02-.08-.02Zm1.84,15.76c-.25,0-.4-.1-.48-.19-.1-.11-.16-.26-.16-.43,0-.46,.38-.96,.89-.96,.25,0,.4,.1,.48,.19,.1,.11,.16,.26,.16,.43,0,.46-.38,.96-.89,.96Zm.25-1.08c-.21,0-.39,.28-.39,.46,0,.06,.08,.12,.14,.12,.21,0,.39-.28,.39-.46,0-.06-.08-.12-.14-.12Zm-3.46-.38c-.3,0-.47-.12-.57-.22-.12-.13-.19-.31-.19-.51,0-.56,.46-1.18,1.08-1.18,.3,0,.47,.12,.57,.22,.12,.13,.18,.31,.18,.51,0,.56-.46,1.18-1.08,1.18Zm.33-1.41c-.33,0-.58,.41-.58,.68,0,.05,0,.12,.05,.17,.05,.05,.14,.06,.2,.06,.33,0,.58-.41,.58-.68,0-.05,0-.12-.05-.17-.05-.05-.14-.06-.2-.06Zm12.53,.63c-.24,0-.44-.12-.54-.34l-.03-.06c-.12-.25-.12-.54,.01-.8,.13-.25,.36-.43,.63-.48,.31-.06,.55,.04,.71,.27,.15,.22,.17,.54,.06,.81l-.03,.07c-.12,.29-.49,.53-.82,.53Zm.24-1.19s-.04,0-.07,0c-.12,.03-.23,.1-.28,.22-.06,.12-.06,.25,0,.36l-.2,.16,.23-.11c.06,.12,.39-.04,.44-.16l.03-.08c.04-.11,.04-.25-.02-.34-.03-.04-.07-.06-.13-.06Zm-7.77,.36c-.24,0-.42-.14-.52-.39l-.03-.07c-.07-.17-.05-.36,.05-.54,.11-.21,.32-.37,.53-.41,.24-.05,.48,.05,.62,.24,.11,.16,.14,.35,.08,.54l-.03,.08c-.1,.31-.41,.55-.71,.55Zm.16-.91h-.02c-.06,.01-.14,.07-.19,.16-.02,.03-.04,.08-.02,.12l.03,.07s.03,.07,.05,.07c.07,0,.2-.1,.23-.21l.02-.07s.02-.05-.01-.09c-.02-.03-.06-.05-.09-.05Zm-2.78,.83c-.21,0-.33-.09-.4-.16-.09-.09-.13-.22-.13-.36,0-.28,.18-.59,.45-.72-.09-.04-.15-.09-.19-.13-.1-.11-.16-.26-.16-.43,0-.45,.37-.95,.87-.95,.25,0,.39,.1,.47,.19,.1,.11,.16,.26,.16,.42,0,.36-.25,.76-.61,.9,.05,.03,.09,.06,.12,.09,.09,.09,.13,.22,.13,.36,0,.37-.31,.78-.72,.78Zm.45-2.24c-.21,0-.37,.27-.37,.45,0,.06,.07,.11,.13,.11,.21,0,.37-.27,.37-.45,0-.06-.07-.11-.13-.11Zm-5.11,2.19c-.22,0-.42-.04-.58-.13-.32-.17-.51-.44-.54-.75-.04-.37,.15-.77,.5-1.06,.03-.03,.07-.05,.1-.07,.35-.49,.94-.79,1.49-.7,.54,.08,.9,.45,.94,.98,.04,.41-.15,.81-.58,1.22-.32,.3-.86,.52-1.33,.52Zm.78-2.23c-.34,0-.71,.22-.92,.54l-.04,.06-.07,.03s-.04,.02-.05,.03c-.22,.18-.35,.43-.33,.63,.02,.15,.11,.27,.28,.36,.32,.17,1.01,0,1.33-.3,.31-.3,.45-.56,.43-.81-.03-.38-.3-.5-.52-.53-.04,0-.08,0-.11,0Zm24.66,1.9c-.47,0-.82-.31-.9-.8-.09-.54,.17-1.22,.77-1.44l.07-.03c.15-.05,.31-.08,.46-.08,.59,0,.99,.39,1,.97,0,.62-.47,1.21-1.08,1.33l-.07,.02c-.09,.02-.17,.03-.24,.03Zm.15-.52l.12,.23-.05-.25c.38-.08,.68-.45,.68-.83,0-.43-.35-.47-.5-.47-.1,0-.2,.02-.29,.05l-.08,.03c-.34,.12-.49,.55-.44,.88,.04,.2,.18,.44,.56,.37Zm-30.99-.55c-.24,0-.38-.1-.45-.18-.1-.11-.15-.25-.15-.41,0-.43,.36-.9,.83-.9,.24,0,.38,.1,.45,.18,.1,.11,.15,.25,.15,.41,0,.43-.36,.9-.83,.9Zm.23-.99c-.18,0-.33,.24-.33,.4,0,.04,.06,.09,.1,.09,.18,0,.33-.24,.33-.4,0-.04-.06-.09-.1-.09Zm27.07,.83c-.52,0-.95-.15-1.26-.45-.42-.39-.5-1.05-.18-1.56,.22-.36,.58-.56,.9-.75,.07-.04,.11-.05,.14-.06,.05-.04,.13-.08,.22-.12,.42-.16,.89-.19,1.37-.08,.52,.12,.87,.49,.95,1,.1,.62-.22,1.32-.76,1.65-.22,.14-.49,.29-.79,.32l-.15,.02c-.13,.02-.18,.02-.43,.03Zm.61-2.58c-.21,0-.42,.04-.61,.11-.05,.02-.11,.05-.18,.1l-.06,.03c-.34,.19-.62,.35-.78,.6-.19,.31-.15,.7,.1,.93,.22,.21,.53,.31,.91,.31,.22,0,.27,0,.38-.02l.15-.02c.2-.02,.41-.14,.58-.25,.37-.23,.6-.72,.53-1.15-.04-.22-.16-.49-.57-.59-.16-.04-.31-.05-.46-.05Zm-9.84,2.47c-.19,0-.37-.1-.47-.28-.11-.18-.11-.41,0-.59l.05-.09c.11-.2,.37-.41,.65-.41,.19,0,.35,.09,.46,.26,.09,.14,.12,.32,.08,.49-.05,.2-.21,.4-.4,.5l-.09,.05c-.09,.05-.18,.07-.27,.07Zm.23-.86c-.07,0-.17,.07-.21,.15l-.05,.09s0,.08,0,.1l.19,.24-.12-.22,.09-.05c.07-.04,.14-.12,.16-.19,.01-.04,0-.07-.01-.09l-.04-.03Zm14.83-.19c-.21,0-.4-.09-.53-.26-.15-.2-.21-.47-.16-.72,.06-.25,.21-.47,.41-.61-.08-.09-.15-.2-.19-.33-.08-.27-.02-.58,.17-.83,.2-.26,.49-.42,.79-.42h.06c.26,.02,.47,.15,.59,.36,.14,.25,.15,.58,.02,.86-.08,.16-.21,.3-.36,.4,.01,.02,.03,.03,.04,.05,.15,.2,.21,.47,.16,.72-.11,.46-.52,.79-.99,.79Zm.3-1.27c-.24,0-.45,.17-.5,.4-.02,.1,0,.23,.06,.3,.04,.05,.08,.07,.14,.07,.24,0,.45-.17,.5-.4,.02-.1,0-.23-.06-.3-.05-.06-.1-.07-.14-.07Zm.2-1.66v.25c-.14,0-.29,.08-.39,.22-.09,.12-.13,.27-.09,.39,.09,.32,.56,.16,.69-.12,.06-.12,.06-.28,0-.38-.04-.07-.1-.11-.19-.11l-.02-.25Zm-20.23,2.66c-.24,0-.48,0-.72-.01-2.73-.21-5.01-.85-6.8-1.91-1.91-1.12-2.24-2.24-2.18-2.99l.03-.09c.78-1.54,2.24-2.27,3.53-2.92l.09-.04,.1,.03c.14,.04,.24,.18,.24,.34,0,.2-.1,.38-.27,.45-2.16,.91-2.65,1.62-2.69,2.06-.04,.38,.25,.77,.85,1.16,.45,.3,.95,.56,1.49,.78,.05-.39,.32-.7,.77-.86,1.8-.62,3.96-.8,6.02-.91,.63-.03,1.24-.06,1.85-.06,1.3,0,2.32,.14,3.2,.46,.55,.19,1.29,.56,1.72,.99,.17-.19,.24-.38,.21-.57-.09-.51-.91-1.01-1.4-1.2-2.13-.84-4.71-1.1-6.95-.7l-.54,.1,.29-.47c.3-.5,1.09-.74,2.4-.74,.6,0,1.23,.05,1.79,.11-.07-.04-.11-.08-.15-.12-.11-.11-.16-.27-.16-.44,0-.47,.39-1,.92-1,.26,0,.41,.11,.49,.19,.11,.11,.16,.27,.16,.44,0,.42-.31,.89-.76,.98,.27,.04,.51,.07,.7,.1l.35,.05c.95,.12,2.53,.33,3.53,.96,.44,.44,.72,.87,.88,1.37,.04,.12,.07,.24,.08,.35-.01,.2-.04,.34-.08,.48l.08,.11-.07,.12c-.07,.19-.18,.37-.33,.54,1-.17,1.96-.35,2.8-.51l1.98-.38-1.83,.85c-4.14,1.92-8.05,2.89-11.62,2.89Zm-9.2-4.82c-.04,.85,.63,1.7,1.94,2.47,1.73,1.01,3.94,1.63,6.58,1.84,.22,0,.45,.01,.69,.01,2.91,0,6.06-.66,9.37-1.97-.54,.09-1.09,.19-1.65,.28l-1.56,.24,1.41-.71c.47-.24,.78-.51,.93-.82-.02-.07-.02-.17,.01-.29,.03-.12,.05-.23,.06-.33,0-.02-.03-.11-.06-.2-.14-.42-.37-.79-.72-1.14-.86-.54-2.38-.74-3.28-.85h-.01c.59,.14,1.17,.32,1.72,.54,.06,.02,1.53,.61,1.71,1.58,.05,.28,0,.7-.48,1.14l-.27,.19-.17-.18c-.25-.35-.94-.77-1.66-1.03-.83-.29-1.79-.43-3.03-.43-.6,0-1.2,.03-1.78,.06-2.08,.1-4.19,.28-5.93,.88-.36,.12-.51,.37-.42,.69l.14,.47-.46-.17c-.71-.26-1.37-.59-1.96-.97-.66-.43-1.02-.9-1.07-1.39-.01,.02-.03,.05-.04,.07Zm12.84-3.23c-.24,0-.42,.3-.42,.5,0,.05,.01,.08,.03,.1,.03,.03,.09,.03,.13,.03,.24,0,.42-.3,.42-.5,0-.05-.01-.08-.03-.1-.03-.03-.09-.03-.13-.03Zm-13.8,7.77l-.68-.17c-.15,.03-.3,0-.43-.07-.06-.04-.09-.05-.12-.08l-.99-.83,.72,.23h0c.03-.29,.22-.52,.38-.65,.33-.26,.81-.21,1.05,.09,.13,.17,.18,.39,.12,.62-.05,.22-.21,.44-.43,.58l.38,.29Zm-.94-.72l.06,.04c.16,.08,.4-.11,.44-.3,.01-.06,.02-.13-.03-.19-.06-.08-.17-.15-.35,0-.1,.08-.18,.21-.19,.31,0,.05,0,.09,.04,.13l.03,.02h0Zm-7.47-.45c-.4,0-.69-.2-.8-.54-.1-.31-.02-.63,.22-.9,.07-.35,.31-.66,.63-.81,.6-.28,1.51,0,1.52,.85,0,.61-.51,1.07-.95,1.27-.09,.04-.33,.14-.62,.14Zm.54-1.86c-.1,0-.19,.02-.28,.06-.19,.09-.33,.29-.36,.5v.08s-.07,.06-.07,.06c-.15,.15-.2,.31-.15,.46,.02,.06,.07,.2,.33,.2,.15,0,.31-.05,.41-.09,.33-.15,.66-.46,.66-.81,0-.32-.28-.46-.53-.46Zm4.62,1c-.3,0-.47-.12-.56-.22-.12-.13-.18-.3-.18-.5,0-.55,.46-1.16,1.07-1.16,.29,0,.47,.12,.56,.22,.12,.13,.18,.3,.18,.5,0,.55-.46,1.16-1.06,1.16Zm.32-1.38c-.32,0-.57,.4-.57,.66,0,.05,0,.12,.05,.16,.05,.05,.13,.06,.2,.06,.32,0,.56-.4,.56-.66,0-.05,0-.12-.05-.16-.05-.05-.13-.06-.2-.06Zm27.31,1.05c-.24,0-.39-.1-.46-.18-.1-.11-.15-.25-.15-.42,0-.44,.37-.93,.86-.93,.24,0,.39,.1,.46,.18,.1,.11,.15,.25,.15,.42,0,.44-.37,.93-.86,.93Zm.24-1.03c-.2,0-.36,.26-.36,.43,0,.05,.07,.1,.12,.1,.2,0,.36-.26,.36-.43,0-.05-.07-.1-.12-.1Zm5.45-.27l-1.09-.28c-.19,.02-.37-.03-.52-.13h-.01c-.17-.07-.31-.2-.39-.37-.12-.25-.11-.6,.02-.87,.23-.47,.78-.74,1.24-.57,.11,.04,.25,.1,.38,.24,.34,.37,.35,.9,.02,1.3-.09,.11-.2,.2-.32,.27l.67,.42Zm-1.25-.79c.15,.04,.39-.06,.51-.21,.17-.22,.17-.46,0-.65-.04-.04-.09-.07-.17-.1-.23-.08-.5,.08-.62,.32-.06,.13-.07,.32-.02,.44,.04,.08,.08,.1,.12,.11l.07,.03,.11,.07Zm-32.21-.3c-.14,0-.28-.03-.41-.09-.45-.22-.83-.7-.66-1.25,.06-.18,.17-.34,.32-.45,.27-.42,.73-.66,1.19-.59,.31,.05,.58,.22,.74,.48,.16,.25,.19,.55,.09,.85-.16,.51-.69,1.06-1.26,1.06Zm.27-1.9c-.23,0-.48,.16-.62,.4l-.08,.08c-.07,.05-.14,.13-.17,.22-.1,.31,.21,.55,.4,.65,.36,.18,.85-.26,.98-.66,.05-.16,.03-.31-.04-.44-.08-.13-.22-.22-.39-.25-.03,0-.06,0-.08,0Zm2.92,1.23c-.16,0-.26-.07-.31-.13-.07-.07-.11-.18-.11-.29,0-.27,.22-.56,.53-.56,.16,0,.26,.07,.31,.13,.07,.07,.11,.18,.11,.29,0,.27-.22,.56-.53,.56Zm24.97-.41c-.27,0-.51-.17-.63-.43-.12-.28-.07-.59,.14-.81l.18-.19c.11-.1,.22-.15,.36-.19h.06c.05-.02,.09-.02,.13-.02h.05c.07,0,.13,.03,.18,.05,.03,.01,.07,.03,.11,.05l.08,.05s.06,.07,.07,.09c0-.02,.03,0,.06,.06l.04,.1s.02,.06,.04,.1c.01,.05,.03,.11,.03,.17,0,.06,0,.12-.02,.17l-.02,.08c-.03,.13-.09,.24-.17,.32-.05,.05-.08,.08-.11,.11l-.09,.09c-.15,.13-.31,.21-.48,.21Zm.25-1.14h-.04c-.09,.02-.13,.04-.15,.05l-.15,.15c-.13,.14-.11,.25-.08,.3,.06,.15,.24,.13,.31,.06l.09-.08s.06-.06,.08-.08c.04-.04,.06-.08,.07-.14,.01-.06,.02-.09,.02-.1l.2-.2-.22,.12-.03-.05s-.03-.01-.04-.03h-.06Zm-24.24,.51c-.08,0-.16-.01-.24-.04-.33-.04-.55-.32-.53-.7,.02-.45,.35-.94,.85-.94,.09,0,.18,.02,.27,.05,.36,.12,.54,.46,.47,.92-.05,.39-.43,.7-.83,.7Zm.08-1.17c-.21,0-.34,.26-.35,.45,0,.18,.07,.18,.11,.19l.08,.02c.15,.06,.39-.09,.41-.26,.04-.32-.08-.36-.14-.38-.04-.01-.08-.02-.11-.02Zm6.21,.68c-.26,0-.41-.11-.49-.19-.11-.11-.16-.27-.16-.44,0-.47,.39-1,.92-1,.26,0,.41,.11,.49,.19,.11,.11,.16,.27,.16,.44,0,.47-.39,1-.92,1Zm.27-1.14c-.24,0-.42,.3-.42,.5,0,.05,.01,.08,.03,.1,.03,.03,.09,.03,.13,.03,.24,0,.42-.3,.42-.5,0-.05,0-.08-.03-.1-.03-.03-.09-.03-.13-.03Zm-5.03,.95c-.23,0-.36-.09-.43-.17-.09-.1-.14-.24-.14-.39,0-.41,.34-.86,.79-.86,.23,0,.36,.09,.43,.17,.09,.1,.14,.24,.14,.39,0,.41-.34,.86-.79,.86Zm.21-.92c-.16,0-.29,.22-.29,.36,0,.03,.04,.06,.08,.06,.16,0,.29-.22,.29-.36,0-.03-.05-.06-.08-.06Zm15.14,.87c-.21,0-.42-.05-.6-.15-.24-.13-.38-.34-.42-.59-.04-.27,.06-.56,.27-.78,.09-.18,.26-.35,.46-.44,.22-.12,.54-.15,.78-.05,.28,.02,.5,.14,.64,.35,.32,.49,.04,1.03-.29,1.34-.23,.21-.52,.33-.83,.33Zm.16-1.58c-.08,0-.15,.02-.22,.06-.12,.06-.21,.16-.24,.22l-.06,.09c-.12,.12-.18,.27-.16,.4,.01,.09,.07,.16,.17,.22,.27,.15,.62,.11,.85-.1,.04-.04,.41-.39,.21-.7-.02-.03-.08-.13-.26-.13h-.06l-.07-.03s-.09-.03-.15-.03Zm-8.13,.99c-.26,0-.42-.11-.5-.2-.11-.12-.17-.27-.17-.45,0-.48,.4-1.02,.94-1.02,.26,0,.42,.11,.5,.2,.11,.12,.17,.27,.17,.45,0,.48-.4,1.02-.94,1.02Zm.27-1.16c-.25,0-.44,.31-.44,.52,0,.05,.01,.09,.03,.11,.03,.03,.1,.04,.14,.04,.25,0,.44-.31,.44-.52,0-.05-.01-.09-.03-.11-.03-.03-.1-.04-.14-.04Z"/>
      <path class="cls-1" d="M27.98,19.44h0c-1.19,0-2.38-.11-3.52-.22l-.5-.04c-1.18-.1-2.96-.24-3.54-1.36-.04-.08-.08-.17-.11-.27l-.14-.47,.46,.17c.6,.22,1.22,.38,1.84,.49,1.88,.31,3.34,.45,4.73,.45h.22c.57,0,1.16-.03,1.92-.08,.77-.08,1.4-.19,1.98-.33l.19-.05c.68-.17,1.62-.4,2.14-.83l.2-.17,.16,.21c.24,.33,.22,.6,.15,.76-.14,.36-.58,.61-1.35,.76-.04,0-.08,.01-.12,.01h0c-1.26,.67-2.76,.98-4.71,.98Zm-6.83-1.51c.65,.56,1.95,.67,2.86,.75l.51,.04c1.13,.11,2.3,.22,3.47,.22,1.9,0,3.34-.3,4.55-.96l.08-.04,.09,.02c.84-.17,.99-.39,1.01-.46,0-.02,0-.04,0-.06-.61,.38-1.44,.59-2.08,.74l-.19,.05c-.6,.15-1.25,.26-2.06,.35-.78,.05-1.38,.07-1.96,.08h-.23c-1.42,0-2.9-.14-4.81-.45-.42-.07-.83-.16-1.25-.29Z"/>
    </g>
  </g>
  <path class="cls-1" d="M25.32,32.55c-.65,0-1.21-.03-1.72-.08h-.55s-.46,0-.46,0c-1.01,.04-2.13,0-3.18-.1-8.18-.52-12.69-3.34-13.8-8.62-.03-.15,.01-.31,.12-.44,.2-.24,.55-.25,.74-.02,.05,.06,.1,.13,.15,.19l.09,.11c2.43,2.46,6.3,3.76,9.75,4.7,.95,.26,1.89,.44,2.85,.55,.18,0,.38,0,.57,0,1.59,0,3.19-.23,5.03-.72,1.77-.47,3.32-.71,4.75-.71,1.2,0,2.31,.17,3.29,.51,1.21,.42,2.5,.63,3.82,.63,4.1,0,8.62-2.05,12.39-5.62,.26-.25,.77-.13,.87,.22,.57,2.04-2.02,4.48-3.47,5.49-4.3,3.53-9.57,3.82-14.18,3.82h0c-.8,0-1.6-.01-2.41-.02h-.11c-.3,0-.6,.01-.9,.01h-.09c-.54,0-1.11,.02-1.69,.04-.62,.02-1.25,.05-1.88,.05Zm-1.7-.58c.52,.05,1.07,.08,1.7,.08s1.25-.02,1.86-.05c.59-.02,1.16-.04,1.71-.04h.09c.29,0,.59,0,.89-.01h.11c.81,0,1.61,.02,2.41,.02,4.52,0,9.69-.29,13.82-3.68l.05-.04c1.53-1.06,3.75-3.33,3.3-4.96-3.91,3.67-8.55,5.77-12.78,5.77-1.38,0-2.72-.22-3.99-.66-.93-.32-1.98-.48-3.13-.48-1.38,0-2.9,.23-4.62,.69-2.11,.57-3.92,.8-5.77,.73-1.01-.11-1.96-.29-2.94-.56-3.52-.96-7.46-2.29-9.99-4.85l-.1-.12c-.06-.07-.11-.13-.16-.2,1.08,5.08,5.44,7.78,13.37,8.28,1.04,.1,2.1,.13,3.13,.1h.46s.58,0,.58,0Z"/>
</svg>