<?xml version="1.0" encoding="UTF-8"?>
<svg id="Layer_1" data-name="Layer 1" xmlns="http://www.w3.org/2000/svg" viewBox="0 0 39 64">
  <defs>
    <style>
      .cls-1 {
        fill: #fff;
      }
    </style>
  </defs>
  <path class="cls-1" d="M18.93,16.62v-.37c-.04-.99,.22-2.01,.74-2.96l.38-.69,.11,.97v.03c-.09,.71-.14,1.3,.07,2,.02,.07,.05,.15,.08,.22l.09,.25-.25,.08c-.33,.1-.62,.21-.87,.32l-.34,.15Zm.66-1.8c-.09,.34-.15,.69-.16,1.04,.1-.04,.21-.08,.32-.12h0c-.1-.32-.14-.62-.16-.92Z"/>
  <path class="cls-1" d="M28.01,16.97l-1.43-.55c-.39-.15-.72-.26-1.03-.34-.23-.1-.42-.2-.63-.34-1.11-1.05-1.63-2.52-1.44-3.96,.1-.79,.81-1.24,1.48-1.67,.38-.24,.74-.47,.97-.74,.14-.17,.24-.34,.3-.52l.6-1.77-.11,1.87c-.03,.48-.25,.95-.66,1.39-.16,.16-.32,.32-.49,.47-.16,.15-.32,.29-.46,.45-.31,.33-.64,.92-.64,1.44,0,.67,.17,1.19,.56,1.82,.26,.42,.69,.71,1.13,1,.23,.15,.46,.31,.68,.49l1.18,.98Zm-3.13-6.21c-.46,.31-.85,.63-.91,1.09-.05,.34-.04,.69,0,1.03,0-.06,0-.12,0-.19,0-.7,.41-1.4,.77-1.79,.05-.05,.09-.1,.14-.14Z"/>
  <path class="cls-1" d="M24.24,42.34c-2.81,0-5.39-1.29-7.09-3.54l-.14-.19,.17-.15c1.17-1.03,1.94-2.2,2.29-3.48l.08-.28,.26,.11h.06s.06,.02,.06,.02c1,.43,2.05,.64,3.13,.64,3.59,0,7.17-2.44,8.7-5.94l.22-.49,.24,.48c.61,1.24,.92,2.56,.92,3.92,0,4.91-3.99,8.9-8.9,8.9Zm-6.55-3.66c1.61,2.01,3.98,3.16,6.55,3.16,4.63,0,8.4-3.77,8.4-8.4,0-1.11-.22-2.19-.65-3.21-1.72,3.41-5.32,5.75-8.92,5.75-1.1,0-2.17-.21-3.18-.62-.38,1.22-1.12,2.33-2.2,3.32Zm2.38,0c-.2,0-.37-.12-.44-.31-.02-.05-.03-.1-.04-.16-.1-.29,0-.57,.22-.75,.06-.08,.12-.13,.2-.18,.34-.25,.63-.21,.8,0,.09,.11,.13,.27,.1,.44-.05,.29-.13,.57-.44,.82-.12,.09-.26,.15-.39,.15Zm.37-1.06s-.04,0-.07,.03c-.05,.04-.09,.06-.14,.08l-.1,.11c-.07,.05-.09,.11-.09,.13,.02,.05,.03,.1,.04,.14,0,.02,0,.04,.01,.06,0,0,.03-.02,.06-.04,.17-.13,.21-.26,.26-.51h.02Zm2.76,1.05c-.21,0-.44-.15-.44-.48,0-.42,.37-.71,.67-.71,.21,0,.44,.15,.44,.48,0,.42-.37,.71-.67,.71Zm5.94-1.16c-.21,0-.44-.15-.44-.48,0-.38,.36-.68,.67-.68,.21,0,.44,.15,.44,.48,0,.38-.36,.68-.66,.68Zm-8.03-.44c-.19,0-.3-.08-.36-.15-.08-.08-.12-.2-.12-.33,0-.32,.26-.68,.62-.68,.19,0,.3,.08,.36,.15,.08,.08,.12,.2,.12,.33,0,.32-.26,.68-.62,.68Zm8.04-1.04c-.16,0-.31-.08-.39-.2-.18-.27-.05-.55,.01-.69,.17-.38,.74-.48,.96-.17,.08,.12,.11,.27,.06,.43,0,.17-.07,.33-.2,.44-.09,.08-.18,.12-.26,.16-.06,.02-.12,.04-.18,.04Zm1.82-1.06c-.15,0-.29-.05-.43-.16-.32-.26-.39-.65-.2-1.05,.04-.21,.16-.42,.33-.55,.35-.27,.77-.26,1.02,0,.15,.16,.22,.4,.19,.68-.03,.38-.38,1.08-.92,1.08Zm.25-1.46c-.07,0-.15,.04-.24,.1-.06,.05-.13,.16-.14,.25l-.03,.09c-.1,.2-.09,.36,.05,.47,.04,.04,.08,.05,.11,.05,.17,0,.39-.38,.42-.62,.01-.13-.01-.24-.06-.29-.03-.03-.06-.04-.11-.04Z"/>
  <path class="cls-1" d="M18.11,43.72c-9.6-.23-12.92-3.15-13.06-3.28-2.34-1.99-3.15-5.75-2.41-11.18,.55-4,1.78-7.48,1.8-7.51l.48,.14s-.77,3.66-.93,7.69c1.23-3.05,4.23-5.17,7.64-5.17,.33,0,.68,.03,1.09,.08l.3,.04-.1,.29c-.62,1.86,.46,4.27,1.48,6.16,1.04,1.94,2.97,3.41,4.92,3.75l.28,.05-.08,.27c-1.06,3.5-4.23,5.85-7.89,5.85-2.49,0-4.77-1.11-6.31-2.93,3,4.21,12.71,5.24,12.81,5.25l-.03,.5ZM3.78,25.9c-1.02,4.39-1.87,11.22,1.6,14.17,.03,.03,2.17,1.89,7.86,2.75-3.61-.93-8.07-2.74-9.08-6.08-.14-.47-.26-.97-.36-1.53l.48-.12c1.05,3.18,4,5.31,7.35,5.31s6.26-2.09,7.33-5.23c-2-.46-3.93-1.98-4.99-3.95-1.01-1.89-2.09-4.28-1.6-6.26-.27-.03-.51-.04-.74-.04-3.85,0-7.15,2.88-7.67,6.7l-.5-.03c-.04-1.99,.12-4,.32-5.68Zm10.18,12.99c-.25,0-.38-.11-.45-.19-.11-.14-.14-.32-.09-.55,.03-.16,.1-.3,.21-.46,.1-.45,.42-.88,.83-.88,.11,0,.28,.04,.45,.21,.06,.06,.12,.14,.16,.22,.07,.08,.11,.19,.11,.31v.02s0,.07,0,.07c.02,.43-.27,.91-.69,1.12-.18,.09-.36,.14-.52,.14Zm-.06-.51s.21,0,.36-.08c.25-.12,.43-.41,.41-.66v-.03s0-.06,0-.06l-.04-.08s-.05-.08-.08-.12c-.02-.02-.06-.06-.1-.06-.1,0-.3,.24-.35,.53l-.05,.11c-.09,.12-.14,.22-.16,.32-.02,.08,0,.12,0,.13h0Zm-1.86-1.23c-.33,0-.62-.13-.79-.36-.19-.24-.24-.57-.14-.92,.06-.25,.28-.51,.6-.52h0s.08,0,.12,.02c.17-.18,.43-.38,.73-.38,.14,0,.34,.04,.53,.25,.25,.27,.33,.62,.23,.97-.12,.42-.47,.77-.89,.89-.13,.04-.26,.06-.39,.06Zm-.34-1.3s-.09,.08-.11,.15c-.05,.2-.04,.37,.06,.49,.12,.16,.37,.21,.65,.13,.26-.08,.48-.3,.55-.55,.04-.13,.04-.32-.12-.5-.07-.08-.12-.09-.16-.09-.13,0-.32,.14-.47,.36l-.2,.27-.19-.26Zm-3.4,1.24c-.1,0-.19-.03-.28-.09-.11-.08-.17-.2-.19-.33-.02-.14,.02-.3,.1-.42,.14-.37,.69-.52,.93-.25,.07,.08,.14,.21,.11,.43-.02,.16-.08,.29-.19,.41-.08,.09-.25,.25-.48,.25Zm7.45-.49c-.21,0-.44-.15-.44-.48,0-.42,.37-.71,.67-.71,.21,0,.44,.15,.44,.48,0,.42-.36,.71-.67,.71Zm-9.81-.42c-.11,0-.21-.04-.29-.11-.21-.19-.27-.37-.29-.54-.07-.12-.09-.25-.1-.34-.03-.27,.16-.54,.36-.63,.09-.04,.31-.14,.55-.14,.32,0,.55,.17,.62,.47,.1,.4-.07,.81-.45,1.13-.04,.04-.2,.16-.4,.16Zm.23-1.26c-.11,0-.25,.04-.34,.09-.03,.02-.08,.08-.08,.12,0,.04,.01,.12,.03,.14l.08,.07v.1c0,.1,0,.16,.1,.25,0-.02,.02-.03,.05-.05,.14-.11,.35-.35,.29-.63-.01-.04-.02-.08-.13-.08Zm8.29-.08c-.19,0-.3-.08-.36-.15-.08-.08-.12-.2-.12-.33,0-.32,.26-.68,.62-.68,.19,0,.3,.08,.36,.15,.08,.08,.12,.2,.12,.33,0,.32-.26,.68-.62,.68Zm-1.34-.64c-.19,0-.3-.08-.36-.15-.08-.08-.12-.2-.12-.33,0-.32,.26-.68,.62-.68,.19,0,.3,.08,.36,.15,.08,.08,.12,.2,.12,.33,0,.32-.26,.68-.62,.68Zm-1.88-1.39c-.15,0-.29-.07-.38-.19-.22-.3-.3-.67-.21-1.02,0-.02,0-.05,0-.09,.04-.24,.17-.38,.28-.49,.06-.06,.14-.1,.23-.13,.04-.03,.07-.05,.11-.07,.23-.12,.48-.08,.61,.09,.08,.1,.12,.24,.11,.38,.24,.44,0,1.02-.37,1.36-.11,.1-.26,.16-.4,.16Zm.27-1.54s0,0,0,0c-.03,.01-.05,.03-.07,.05l-.1,.05c-.14,.11-.17,.15-.18,.22v.05s0,.05,0,.05c-.07,.22-.03,.44,.11,.63,0,0,.02-.02,.04-.04,.24-.22,.39-.58,.25-.78l-.07-.09,.02-.11s0-.02,0-.03Zm-.3-1.41c-.1,0-.19-.03-.27-.08-.22-.15-.22-.4-.23-.5,0-.16,.06-.32,.19-.45,.28-.29,.74-.25,.87,.06,.13,.19,.12,.43-.03,.65-.15,.21-.35,.32-.53,.32Zm-1.03-1.6c-.19,0-.3-.08-.36-.15-.08-.09-.12-.2-.12-.33,0-.32,.26-.68,.62-.68,.19,0,.3,.08,.36,.15,.08,.08,.12,.2,.12,.33,0,.32-.26,.68-.62,.68Z"/>
  <path class="cls-1" d="M19.92,43.72l-.03-.5c.12-.01,11.87-1.27,13.5-6.63,1.66-5.46-.26-14.62-.28-14.71l.48-.14c.2,.57,4.94,13.98-.62,18.7-.13,.12-3.44,3.04-13.05,3.27Zm14.34-17.75c.37,3.18,.59,7.54-.39,10.77-1.02,3.34-5.48,5.14-9.08,6.08,5.69-.85,7.83-2.72,7.85-2.74,3.46-2.94,2.63-9.71,1.62-14.1Z"/>
  <path class="cls-1" d="M22.93,35.59c-5.61,0-10.17-4.56-10.17-10.17,0-.94,.13-1.88,.4-2.8l.05-.19h.2c2.06,.11,4.14,.16,6.17,.16,6.56,0,11.04-.51,12.66-.73l.2-.03,.07,.19c.39,1.11,.59,2.25,.59,3.4,0,5.61-4.56,10.17-10.17,10.17Zm-9.34-12.65c-.22,.82-.33,1.65-.33,2.48,0,5.33,4.34,9.67,9.67,9.67s9.67-4.34,9.67-9.67c0-1.03-.17-2.05-.5-3.04-1.78,.23-6.19,.71-12.52,.71-1.97,0-3.99-.05-5.99-.14Zm4.37,7.82c-.06,0-.13-.01-.19-.03-.15-.01-.27-.1-.34-.24-.11-.21-.14-.4-.09-.59,0-.08,.02-.21,.07-.35,.09-.23,.33-.41,.59-.41,.22,0,.39,.13,.45,.34,.03,.04,.06,.08,.09,.14,.04,.08,.08,.15,.09,.27,.03,.26-.09,.45-.17,.59-.1,.17-.29,.28-.49,.28Zm-.1-.53h.02l.08,.04s0,0,0,0c.04,.02,.05-.01,.07-.04,.07-.12,.11-.19,.1-.27,0-.03,0-.04-.04-.1,0-.01-.02-.04-.03-.05h-.02s-.04-.04-.04-.04l-.03-.09s-.07,.02-.08,.06c-.03,.09-.05,.16-.05,.24-.02,.09-.02,.15,.03,.26Zm-2.55-.74c-.11,0-.21-.04-.29-.1-.04-.03-.08-.07-.12-.12-.19-.16-.21-.4-.22-.49-.04-.16,.03-.37,.12-.49,.2-.27,.61-.33,.82-.14h0s.02,.01,.03,.02h0c.16,0,.3,.07,.37,.2,.09,.16,.08,.39-.04,.6-.04,.15-.17,.31-.32,.38,0,.01-.03,.04-.07,.06-.09,.05-.19,.08-.29,.08Zm-.02-.96s-.06,.02-.08,.05c-.03,.04-.04,.09-.04,.11,.02,.15,.04,.18,.05,.19l.06,.06s.03,.04,.06,.06l.06-.08c.06-.04,.1-.08,.13-.15,.02-.03,.03-.06,.04-.08l-.07,.02-.08-.09h-.07l-.06-.09Zm6.01,.87c-.21,0-.44-.15-.44-.48,0-.39,.36-.69,.67-.69,.21,0,.44,.15,.44,.48,0,.39-.36,.69-.67,.69Zm6.98-.03c-.21,0-.44-.15-.44-.48v-.08c0-.37,.37-.66,.67-.66,.21,0,.44,.15,.44,.48v.08c0,.37-.36,.66-.67,.66Zm2.01-2.02c-.38,0-.56-.17-.65-.31-.26-.39-.1-1.01,.03-1.31,.13-.3,.48-.45,.75-.34,.03-.02,.05-.03,.08-.05,.26-.18,.69-.05,.76,.26,.1,.41,.06,.99-.24,1.38-.18,.23-.43,.36-.73,.37h0Zm-.07-1.5h0s-.06,0-.09,.08c-.12,.27-.18,.67-.07,.83,.02,.02,.05,.08,.21,.08,.16,0,.28-.06,.36-.18,.19-.24,.21-.67,.15-.95-.05,.08-.12,.12-.19,.16l-.19,.12-.17-.15Zm-14.66,1.28c-.14,0-.27-.06-.35-.17-.08-.1-.12-.22-.11-.34-.04-.05-.07-.12-.08-.18-.03-.13,0-.27,.07-.41,.01-.14,.08-.28,.19-.4,.3-.31,.76-.25,.88,.12,.02,.07,.04,.13,.06,.19,.1,.11,.14,.27,.11,.44-.05,.3-.33,.64-.6,.74-.06,.02-.11,.03-.17,.03Zm.13-1.21c-.05,.03-.11,.11-.11,.14v.08l-.04,.09s-.04,.09-.04,.1l.1,.06v.08s.01,.06,.01,.06l-.02,.07c.1-.02,.27-.28,.24-.36l-.06-.05-.02-.07c-.02-.07-.04-.13-.06-.2Zm12.32,1.1c-.26,0-.46-.2-.48-.47,0-.09-.02-.16,0-.23,0,0,0,0,0-.02,0-.04,0-.08,.02-.12,.06-.23,.19-.4,.36-.47,.06-.04,.15-.07,.24-.07h.07c.26,.02,.45,.19,.49,.45,.05,.33-.17,.79-.56,.91-.05,.02-.1,.02-.15,.02Zm-.14-.53l.16,.02c.06-.02,.14-.1,.18-.2,.04-.09,.03-.16,.02-.17h-.08s-.08,.08-.1,.14h0s0,.07,0,.07l.02,.07-.2,.07h0Zm-5.8-.48c-.19,0-.3-.08-.36-.15-.08-.08-.12-.2-.12-.33,0-.32,.26-.68,.62-.68,.19,0,.3,.08,.36,.15,.08,.08,.12,.2,.12,.33,0,.32-.26,.68-.62,.68Z"/>
  <path class="cls-1" d="M32.11,22.37l-.19-.53,.91-.08,.06,.5s-.2,.03-.59,.08l-.2,.03Z"/>
  <path class="cls-1" d="M13.58,22.94h-.2c-2.81-.14-5.64-.37-8.41-.68l.05-.5s3.37,.29,8.45,.43h.34s-.11,.33-.11,.33c-.01,.04-.03,.09-.04,.14l-.08,.29Z"/>
  <path class="cls-1" d="M18.49,57.77c-.68,0-.78-.26-.78-.41v-13.42l.32,.1c.1,.03,.2,.05,.3,.07l.04,.26,.03-.25c.19,.03,.38,.02,.57,0l.29-.05v13.3c0,.15-.1,.41-.78,.41Zm-.28-.53c.12,.03,.44,.03,.56,0v-12.62c-.14,0-.28,0-.42-.02h-.09s-.03-.02-.04-.02v12.66Z"/>
  <path class="cls-1" d="M19.27,60.68c-2.11,0-4-.02-5.77-.07h-.34c-2.42-.07-5.15-.14-7.25-.63-.2-.05-.66-.16-.65-.5,0-.15,.02-.54,2.2-.9,.98-.16,2.06-.28,3.11-.39,1.22-.13,2.48-.26,3.6-.47,.44-.06,.8-.12,1.12-.21,.3-.08,.62-.19,.91-.31,.64-.21,.88-.4,.97-.52l.06-.08,.11-.02,.39-.18-.09,.44c-.06,.79-1.43,1.19-2.75,1.48-.31,.07-.63,.12-.94,.18l-.23,.04c-.63,.12-1.3,.21-1.95,.3-.46,.06-.91,.13-1.36,.2-.66,.08-1.31,.15-1.95,.24-.39,0-.8,.06-1.11,.12,.38,.06,.78,.1,1.18,.14,3.26,.29,6.64,.33,9.51,.33,1.16,0,2.31,0,3.45-.02h.29c2.62-.02,4.81-.07,7.01-.25,1.08-.09,2.13-.18,3.11-.36,.06-.01,.11-.02,.16-.03-.1-.02-.22-.04-.37-.05-1.23-.14-2.46-.26-3.69-.39-1.43-.15-2.85-.3-4.27-.46h-.01c-.5,0-1.15-.13-1.73-.25l-.36-.07c-1.18-.31-2.44-.75-2.56-1.98l-.12-1.24,.59,1.1c.27,.5,.79,.89,1.42,1.08,.73,.22,1.51,.38,2.24,.46l.09,.02s.09,.02,.13,.03c2.15,.26,4.62,.56,7.06,.76l.37,.03c1.11,.09,2.49,.2,3.13,.59,.29,.18,.28,.38,.26,.49-.31,1.13-10.92,1.33-11.02,1.33-1.31,.01-2.62,.02-3.93,.02Zm-13.34-1.21s.06,.02,.1,.03c.13,.03,.27,.06,.41,.09-.03-.05-.05-.11-.04-.18,0-.03,.01-.06,.02-.09-.2,.05-.37,.11-.49,.16Zm26.88-.49c.06,.06,.1,.14,.1,.22,0,.11-.04,.19-.12,.26,.4-.07,.7-.15,.86-.23-.21-.11-.5-.19-.84-.26Z"/>
  <path class="cls-1" d="M16.04,60.24h-.39c-.36-.01-.72-.02-1.08-.03-.14,0-.34,0-.58-.01-4.9-.1-5.98-.35-6.21-.74l-.03-.06-.05-.19,.09-.05,.04-.11,.44,.06c.38,.15,1.06,.23,2.08,.27,1.63,.17,3.43,.28,5.71,.36v.5Z"/>
  <path class="cls-1" d="M19.1,22.77s0,0,0,0c-1.87,0-3.77-.03-5.65-.08h-.33s.1-.32,.1-.32c.08-.24,.16-.49,.27-.75-3.11,.07-5.96,.23-8.47,.46l-.07-.5s3.04-.54,8.88-.71c.47-.94,1.07-1.79,1.78-2.53h0s0-.01,0-.01c-.28-.44-.49-.92-.62-1.42-.32-1.26-.14-2.37,.52-3.23,.12-.28,.26-.54,.42-.8,.06-.76,.46-1.34,1.19-1.73,.57-.31,1.42-.16,2.08,.01l.08,.02c.55,.14,.99,.14,1.38,0,.23-.11,.46-.27,.68-.47,.13-.15,.28-.33,.41-.54,.15-.47,.43-.92,.82-1.32,.4-.4,.9-.62,1.5-.67,.38-.03,.72-.21,.95-.49,.1-.17,.17-.32,.22-.46,.05-.23,.04-.57-.28-.89-.12-.12-.26-.27-.34-.47-.41-.95-.02-1.77,1.09-2.33,.1-.3,.25-.58,.47-.85,.16-.2,.5-.17,.62,.03,.06,.11,.06,.24,0,.36-.58,1.02,.24,1.88,1.11,2.8,.41,.43,.79,.83,1.02,1.25,.07,.13,.13,.28,.18,.46,1.03,1.36,1.5,2.36,1.48,3.12-.02,.6-.12,1.05-.35,1.51-.11,.23-.14,.42-.07,.6,.17,.46,.92,.77,1.46,1,.22,.09,.41,.17,.55,.25,.67,.37,1.16,1.02,1.37,1.77,.18,.66,.12,1.35-.18,1.91,.05,.21,.07,.43,.06,.69-.03,.51-.3,1.06-.8,1.63-.23,.26-.45,.46-.67,.62l-.02,.03c.13,.25,.25,.51,.37,.81l.56,.05-.04,.5s-.11,0-.31-.02l.08,.22-.33,.02c-4.16,.3-8.59,.46-13.17,.46Zm-5.3-.57c1.76,.04,3.54,.07,5.29,.07h0c4.45,0,8.75-.15,12.79-.43-.13-.31-.25-.59-.38-.85-.09,.04-.19,.08-.29,.11-.34,.08-.74,.04-1.11-.02-.15-.02-.29-.05-.44-.06-.06,.04-.12,.08-.19,.12-.35,.23-.71,.47-1.19,.47-.22,0-.44-.05-.67-.15l-.13-.06c-.36-.02-.69-.1-1.01-.18-.34-.08-.66-.16-1-.17h0c-.29,0-.53,.08-.77,.17-.39,.14-.84,.25-1.25,.11-.1-.04-.2-.07-.29-.11-.15,.07-.31,.14-.48,.18h-.04s-.04,.01-.04,.01c-.62-.02-1.23-.04-1.82-.06h-.07c-.69-.22-1.35-.62-1.89-1.13-1.14-.05-2.17-.57-2.91-1.48-.69,.72-1.26,1.55-1.7,2.48l-.12,.23c-.12,.26-.21,.5-.3,.74Zm11.63-1.64c.46,.01,.81,.1,1.16,.18,.33,.08,.63,.15,.96,.17l.15,.05,.1,.04c.56,.24,.94,.02,1.39-.28,.09-.06,.18-.12,.27-.17l.06-.04h.08c.19,0,.38,.04,.57,.07,.33,.05,.65,.09,.91,.03,.06-.01,.11-.03,.17-.06-.02-.03-.04-.06-.06-.09,0,0,0-.01-.01-.02-.16,.05-.33,.07-.52,.07h-.41s.1-.33,.1-.33c-.1-.02-.22-.05-.33-.05-.26,0-.48,.16-.81,.42-.12,.07-.18,.1-.24,.14l-.09,.08c-.46,.2-1.34-.07-1.84-.25l-.14-.05c-.26-.09-.49-.2-.7-.34l.05,.06-.96,.16c-.17,0-.3,.03-.42,.06-.56,.08-.95,.05-1.38-.06-.02,0-.03,0-.05-.01l.78,.53c.1-.03,.2-.06,.3-.1,.26-.09,.56-.2,.9-.2Zm-4.47,.31c.52,.01,1.06,.03,1.61,.05,.06-.02,.11-.04,.16-.06l-.41-.02c-.29-.01-.58-.05-.88-.12l-.07-.03c-1.17-.7-2.02-1.85-2.38-3.16,0,0,0,0,0,0,.16,.67,.47,1.33,.9,1.91l1.07,1.42Zm1.93-.28l.43,.16c.09,.04,.19,.07,.29,.11,.16,.06,.32,.06,.49,.02l-1.32-.43c-.33-.11-.64-.27-.93-.48,.18,.15,.38,.28,.6,.39l.43,.23h0Zm-2.06,.26s.08,0,.12,0l-1.4-1.07s-.06-.04-.08-.06c-.82-.68-1.14-1.74-1.26-2.64-.01,0-.03,.02-.04,.03,0,.66,.11,1.25,.32,1.75l.28,.65-.62-.33c-.57-.3-.99-.6-1.36-.98-.05,.05-.11,.1-.16,.15-.05,.05-.12,.12-.19,.21,.66,.73,1.54,1.14,2.51,1.16h.1s.07,.07,.07,.07c.48,.48,1.09,.85,1.72,1.05Zm4.7-1.98c.12,0,.23,.06,.3,.16,.29,.44,.7,.75,1.26,.94l.14,.05c.41,.15,1.11,.37,1.43,.28l.02-.02c.11-.09,.2-.13,.29-.18,.29-.23,.62-.51,1.08-.51,.18,0,.37,.04,.57,.14,.11,.05,.19,.13,.23,.24,.03,0,.05,0,.08,0-.11-.16-.22-.32-.35-.48-.16,.03-.29,.05-.42,.06-.12,.02-.26,.03-.41,.04-.15,.02-.29-.08-.34-.21-.06-.15-.02-.35,.1-.47l.26-.16s.09-.04,.14-.06l-.58-.63-.06,.03-.21-.18c-1.14,.72-2.67,.99-3.54,.59-.08-.04-.15-.1-.19-.17l-.25-.45,.51,.08c.84,.14,1.72-.12,2.54-.71h.02c-1.21-.79-2.59-1.29-4.03-1.46l-.4-.05c-.43-.03-.87-.04-1.3,0l-.25,.02-.08-.09c-.07-.08-.14-.17-.21-.27l-.04-.11c-.1-.76-.01-1.54,.07-2.29l.12-1.06,.37,.94c.26,.66,.66,1.35,1.19,2.04-.38-.61-.71-1.31-.98-2.08-.05-.14-.09-.28-.14-.41l-.25-.81,.64,.53c.14-.98,.46-1.55,1.18-2.08,.17-.13,.37-.24,.59-.36,.24-.13,.45-.25,.62-.37v-1.17c-.31,.29-.7,.46-1.12,.49-.48,.04-.88,.22-1.19,.53-.34,.34-.58,.73-.73,1.18-.18,.29-.34,.5-.51,.68-.26,.25-.54,.43-.83,.57-.52,.2-1.05,.2-1.7,.03l-.08-.02c-.58-.15-1.29-.29-1.72-.06-.39,.21-.66,.48-.8,.82,.24-.4,.68-.62,1.28-.65l.9-.04-.75,.5c-.19,.13-.33,.29-.41,.48-.23,.53-.23,1.13,0,1.83,.5-.98,1.24-1.79,2.08-2.3v-.1s.25-.08,.25-.08c.21,0,.43-.02,.64-.06l.17-.03h0s.48-.49,.48-.49l-.37,.66c.04,.08,.06,.17,.05,.27-.02,.3-.06,.59-.11,.87,.1,.77,.38,1.5,.8,2.07,.02,0,.04,0,.06,0h.1s.06,.49,.06,.49h0c-.85,.1-1.67,.31-2.44,.62,.08,1.32,.71,2.55,1.7,3.39-.32-.41-.57-.92-.79-1.58-.04-.1-.02-.22,.05-.32,.15-.21,.49-.2,.59,.02,.17,.37,.38,.69,.6,.97-.15-.36-.25-.74-.26-1.13,0-.1,.03-.19,.1-.26,.2-.2,.58-.09,.6,.2,.07,1,.79,1.89,1.72,2.13,.37,.1,.77,.1,1.16,.06,.12-.04,.3-.07,.48-.07h.07c-.08-.13-.15-.26-.21-.39-.05-.12-.04-.25,.04-.36,.08-.12,.22-.2,.36-.2Zm6.14,1.34s.02,.03,.02,.04c.18-.14,.37-.31,.56-.53,.15-.18,.28-.35,.38-.52-.34,.49-.83,.88-.96,.98,0,0,0,0-.01,0h0s0,.02,0,.02Zm-.77-1.33l.1,.1c.14,.13,.26,.27,.37,.42,.06-.1,.11-.2,.16-.29l.11-.19c.08-.15,.16-.3,.23-.45l.07-.14h.16c.16-.1,.33-.22,.48-.36l.27-.26v-.04s.04-.1,.04-.1c.27-.46,.33-1.05,.18-1.63-.17-.62-.58-1.16-1.13-1.47-.13-.07-.31-.15-.5-.23-.67-.28-1.49-.63-1.74-1.29-.11-.31-.08-.64,.09-1,.2-.4,.29-.77,.3-1.3,.01-.4-.16-.87-.4-1.32,.02,.48-.09,.97-.31,1.48-.22,.49-.52,.79-.84,1.1l-.17,.17s-.02,.14,0,.21c.15,.42,.74,.91,.93,.92,.23,.02,.4,.17,.44,.4l.04,.24,.11,.05c.14,.06,.28,.12,.42,.18,.61,.25,1.25,.52,1.77,.98,.76,.67,.78,1.34,.65,1.78l-.32,1.12-.17-1.15c-.07-.45-.42-.91-.7-1.16-.05-.05-.11-.1-.17-.16,0,0,0,0-.01-.01l-.07,.1c.75,.69,.93,1.54,.52,2.4-.05,.1-.1,.19-.16,.27l-.05,.05c-.2,.15-.42,.29-.65,.43l.11,.08-.14-.07c-.06,.03-.12,.07-.18,.1h0s0,0,0,0c.01,.02,.03,.04,.04,.06l.14-.04Zm-13.86-1.15c.23,.25,.48,.47,.78,.67-.09-.35-.13-.72-.14-1.12-.18,.12-.37,.25-.55,.38l-.09,.07Zm12.7,.08l.68,.53c.39-.2,.64-.44,.73-.68,.17-.45-.03-.86-.23-1.12-.26,.5-.66,.93-1.18,1.28Zm-13.56-4.4c-.08,.15-.16,.3-.22,.46l-.03,.06c-.58,.74-.73,1.71-.45,2.83,.12,.46,.31,.9,.58,1.31l.17-.15,.04,.07h0c.09-.09,.19-.18,.28-.27l.19-.17c-.72-1.12-.97-2.48-.67-3.67l.12-.47Zm12.72,3.67c.08,.04,.17,.09,.25,.15,.38-.3,.65-.64,.76-.97,.24-.68,.13-1.33-.34-1.97l-.32-.44s-.08-.03-.11-.04l-.06-.03c-.21-.16-.45-.28-.72-.42-.21-.08-.44-.16-.69-.21l-.13-.03c-.37-.08-.73-.18-1-.34,.07,.08,.16,.15,.27,.21,.33,.2,.67,.32,1,.44,.65,.23,1.32,.47,1.85,1.29,.22,.33,.32,.69,.3,1.05h-.5c-.02-.35-.15-.7-.38-.97-.18-.22-.41-.4-.67-.53,.28,.24,.5,.55,.59,.99,.13,.61,.06,1.2-.19,1.71l.09,.14Zm-12.46-2.04c.03,.7,.23,1.41,.6,2.05,.16-.11,.31-.22,.47-.32,.04-.63,.2-1.27,.47-1.87h.03c.09-.2,.39-.29,.57-.17,.23-.66,.64-1.28,1.24-1.9l.32-.33s-.05,0-.08,0l-.06,.05c-.94,.53-1.75,1.5-2.22,2.66l-.22,.54-.24-.53c-.07-.16-.14-.31-.19-.46,0,.08-.02,.17-.07,.24-.08,.11-.21,.18-.33,.18h0c-.11,0-.21-.05-.28-.14Zm11.84,1.7s.03,.02,.05,.03c.23-.41,.29-.91,.18-1.44-.15-.7-.77-.98-1.44-1.26-.03,.06-.06,.11-.1,.16,.24,.1,.47,.21,.7,.33,.39,.22,.66,.59,.76,1.03,.09,.39,.03,.8-.15,1.15Zm-10.14-.79c-.05,.21-.09,.42-.12,.63,.04-.03,.09-.05,.13-.08-.01-.19-.01-.37-.01-.55Zm12.3-1c.13,.48,.11,.97-.07,1.47-.01,.03-.02,.06-.03,.09,.06-.1,.12-.2,.17-.3,.03-.06,.05-.13,.06-.2l.08-.31c-.07-.09-.09-.21-.05-.33h0s0,0,0,0l-.03-.1c-.03-.11-.08-.21-.14-.32Zm-6.17,.35c1.09,.15,2.14,.47,3.11,.95-.3-.4-.72-.67-1.21-.98-.66-.42-1.14-.99-1.39-1.59l-.16-.08,.13,.03s-.03-.09-.05-.13c-.29-.42-.38-.91-.27-1.41,.12-.53,.5-.82,.84-1.08,.13-.1,.26-.2,.38-.31,.87-.85,1.16-1.71,1.33-2.84v-.02c-.02-.1-.05-.18-.09-.26-.09-.19-.19-.36-.29-.54,.02,.43-.24,.9-.41,1.15,.23,1.05-.69,1.56-1.37,1.93-.2,.11-.39,.21-.53,.32-.62,.46-.88,.93-.99,1.81-.04,.31-.04,.63,.02,.97l.04,.23c.19,.44,.41,.86,.66,1.26l.09,.22c.04,.12,.09,.23,.14,.35,0,0,0,.02,.01,.03Zm1.36-1.17c.21,.26,.47,.49,.77,.69,.64,.41,1.17,.75,1.54,1.36,.03-.16,.03-.32,0-.48-.07-.3-.25-.55-.52-.7-.22-.12-.45-.23-.69-.33-.23-.1-.45-.2-.67-.31l-.43-.23Zm-5.37-1.1l-.06,.1c-.12,.2-.21,.44-.28,.68-.37,.65-.57,1.34-.61,2.05,.54-.2,1.1-.36,1.68-.47-.4-.61-.66-1.35-.75-2.14v-.03s0-.03,0-.03c0-.05,.02-.1,.03-.15Zm2.03,2.12s.04,.05,.06,.08c.27-.02,.54-.03,.81-.02-.34-.45-.63-.9-.87-1.34-.04,.43-.05,.87,0,1.28Zm3.07-1.42l.86,.16c.11,.02,.22,.03,.32,.03,.02,0,.05-.03,.06-.06l-.06-.02c-.61-.28-1.87-.85-1.49-1.81l.02-.05-.07,.02c-.02,.05-.04,.11-.06,.17-.09,.37-.02,.72,.21,1.04l.04,.07c.04,.15,.11,.29,.18,.43Zm-8.28-1.25c-.06,.06-.11,.12-.15,.2-.02,.05-.05,.12-.07,.19-.03,.14-.04,.31-.02,.49,.01,.09,.02,.18,.03,.26-.02-.41,.05-.79,.2-1.15Zm8.4-.09c0,.27,.3,.51,.7,.73-.22-.22-.35-.48-.38-.75-.11,.01-.22,.02-.32,.02Zm1.15-.19c.17,.22,.8,.37,1.01,.42,.06,.01,.11,.02,.14,.03,.07,.02,.13,.03,.2,.05-.05-.08-.09-.16-.12-.24-.14-.4,0-.63,.11-.74l.17-.17c.3-.29,.56-.54,.74-.95,.2-.44,.28-.86,.27-1.26-.02,.15-.05,.3-.08,.46-.24,1.08-1.19,2.01-2.45,2.4Zm-.78-.74l.21,.14-.05,.11-.21,.08-.35,.09c.17,0,.35-.02,.56-.06l.27-.05c.09-.02,.19-.05,.28-.09l.62-1.07c.35-.59,.66-1.33,.37-2.27-.03-.1-.07-.2-.11-.3-.17,1.03-.46,1.93-1.25,2.78l.36-.3-.5,1.03-.23-.11,.16,.19-.16-.19Zm.23-7.6v.28c0,.44,.16,.93,.53,1.55,.25,.41,.52,.7,.78,.98,.51,.54,.98,1.06,1.06,2.21,.05,.83-.24,1.53-.88,2.06l-.82,.68c.83-.34,1.62-1.01,1.82-1.93,.11-.51,.15-.98,.13-1.38l-.03-.47s-.02-.03-.03-.04l-.04-.08c-.05-.16-.1-.29-.16-.4-.19-.36-.56-.74-.94-1.14-.63-.66-1.37-1.43-1.44-2.32h0Zm-.61,.34c-.78,.58-.52,1.19-.42,1.42,.05,.11,.15,.22,.24,.31,.38,.39,.53,.88,.41,1.38l-.46,1.97c.39-.29,.59-.6,.45-1.08l-.03-.12,.07-.1c.26-.37,.41-.74,.38-.97v-.09q-.05-.32-.23-.62c-.06-.07-.16-.16-.26-.24-.51-.49-.56-1.21-.15-1.86Zm.23,.74c-.05,.26,.01,.53,.25,.75,.06,.05,.12,.1,.18,.16-.19-.33-.33-.63-.43-.92Z"/>
  <polygon class="cls-1" points="29.06 18 28.89 17.82 27.11 16.45 29.61 17.62 29.21 17.84 29.06 18"/>
</svg>