<?xml version="1.0" encoding="UTF-8"?>
<svg id="Layer_1" data-name="Layer 1" xmlns="http://www.w3.org/2000/svg" viewBox="0 0 54 58">
  <defs>
    <style>
      .cls-1 {
        fill: #fff;
      }
    </style>
  </defs>
  <g>
    <g>
      <path class="cls-1" d="M23.47,54.95c-3.49,0-6.41-.18-9.2-.57-.26-.04-.54-.07-.82-.1-1.34-.14-2.86-.31-3.53-1.38h-.08s-.04-.11-.04-.11c-.1-.16-.19-.33-.27-.49-1.74-6.36-2.06-7.75-2.77-10.81l-.28-1.2c-.24-1.02-.49-2.03-.73-3.01-.61-2.48-1.18-4.83-1.41-6.58-.06-.24-.13-.48-.21-.72-.12-.36-.28-.58-.62-.85-.18-.14-.39-.35-.39-.68,0-.27,.08-.49,.23-.65,.16-.17,.4-.25,.7-.25,.27,0,.53,.07,.72,.13,.84-.04,1.69,.08,2.51,.19,.4,.06,.81,.11,1.21,.15,1.62,.15,3.2,.24,4.96,.34,3.46,.18,6.9,.27,10.41,.36,7.9,.19,14.93-.09,21.72-.87,.51-.06,.85,.21,.9,.66,.05,.46-.25,1.02-.81,1.14h-.03s-.05,.09-.07,.13c-.03,.06-.06,.11-.08,.14-.14,.33-.23,.69-.31,1.03-.04,.18-.08,.37-.12,.56-.04,.2-.08,.41-.13,.61-.2,1.58-.62,3.56-1.05,5.66-.2,.96-.41,1.95-.61,2.96l-.23,1.16c-.56,2.85-.84,4.28-2.18,9.94l.02,.07-.03,.06c-.11,.33-.24,.68-.45,1.02l-.09,.15-.07-.02c-1.04,1.04-2.73,1.17-4.24,1.28-.29,.02-.58,.04-.84,.07-3.31,.34-6.68,.4-9.94,.45h-.09c-.55,0-1.11,.01-1.66,.01Zm-13.26-2.55l.09,.16c.51,.94,1.88,1.08,3.21,1.22,.29,.03,.57,.06,.84,.1,2.77,.39,5.67,.57,9.13,.57,.55,0,1.1,0,1.65-.01h.09c3.25-.05,6.6-.1,9.89-.44,.27-.03,.56-.05,.85-.07,1.46-.11,3.11-.23,4-1.23l.11-.12c.11-.21,.19-.42,.28-.67l-.04-.06,.04-.05c1.35-5.7,1.63-7.13,2.19-9.98l.23-1.16c.2-1.01,.41-2.01,.61-2.97,.44-2.09,.85-4.06,1.05-5.65,.05-.22,.09-.42,.13-.62,.04-.2,.08-.39,.13-.58,.09-.36,.18-.74,.33-1.1,.02-.04,.06-.12,.11-.2,.04-.07,.08-.14,.11-.2l.05-.11,.27-.06c.27-.06,.44-.36,.41-.6-.02-.18-.13-.25-.34-.22-6.81,.78-13.86,1.07-21.79,.88-3.51-.08-6.96-.18-10.42-.36-1.76-.09-3.35-.18-4.98-.34-.41-.04-.82-.1-1.23-.15-.81-.11-1.65-.23-2.46-.19h-.05s-.05-.01-.05-.01c-.22-.08-.43-.12-.6-.12-.11,0-.26,.02-.34,.1-.06,.06-.09,.16-.09,.29,0,.1,.05,.18,.2,.29,.36,.28,.62,.56,.79,1.09,.08,.25,.15,.51,.22,.76,.23,1.78,.8,4.11,1.41,6.58,.24,.98,.49,1.99,.73,3.02l.28,1.2c.71,3.05,1.03,4.44,2.75,10.75,.04,.08,.1,.18,.16,.29h.05Zm13.06,1.6c-2.22,0-4.17-.08-5.96-.24-.33-.03-.7-.05-1.08-.08-2.18-.14-4.88-.31-6.19-1.92l-.05-.11c-.42-2.36-1.06-4.88-1.67-7.31-.37-1.47-.72-2.86-1.03-4.22-.87-3.85-1.51-6.42-2.25-9.4l-.18-.73c-.04-.25-.08-.54-.19-.79l-.03-.04v-.44s.33,.1,.33,.1c1.99,.63,4.38,.71,6.48,.78,.58,.02,1.15,.04,1.69,.07,3.68,.19,7.37,.29,11.16,.39,7.25,.18,13.79-.08,20.12-.79l.34-.04-.39,1.82c-.67,3.11-1.19,5.56-1.93,9.45-.25,1.34-.55,2.7-.86,4.15-.53,2.43-1.07,4.95-1.4,7.32v.08s-.06,.06-.06,.06c-1.19,1.28-3.46,1.4-5.28,1.51-.38,.02-.75,.04-1.07,.07-2.26,.21-4.57,.24-6.8,.27-.54,0-1.07,.01-1.61,.02-.7,.01-1.39,.02-2.09,.02Zm-12.79-2.5c1.18,1.39,3.73,1.55,5.79,1.68,.39,.02,.75,.05,1.09,.08,1.77,.16,3.71,.24,5.92,.24,.69,0,1.39,0,2.08-.02,.54,0,1.07-.02,1.61-.02,2.22-.03,4.52-.06,6.76-.27,.33-.03,.7-.05,1.09-.07,1.71-.1,3.82-.22,4.89-1.29,.33-2.37,.87-4.87,1.39-7.28,.31-1.44,.61-2.8,.86-4.13,.74-3.89,1.26-6.35,1.93-9.46l.24-1.14c-6.25,.68-12.71,.92-19.85,.75-3.79-.09-7.49-.2-11.17-.39-.54-.03-1.11-.05-1.68-.06-1.98-.06-4.21-.13-6.16-.67,.04,.16,.06,.32,.08,.46l.18,.71c.74,2.98,1.38,5.55,2.26,9.41,.31,1.36,.65,2.74,1.02,4.21,.61,2.42,1.24,4.91,1.66,7.27Z"/>
      <g>
        <path class="cls-1" d="M25.39,38.2h0c-9.14,0-16.58-.89-18.64-1.16l-.17-.02-.04-.17c-.23-.95-.44-1.85-.65-2.72l-.09-.36,.37,.05c.08,.01,8.54,1.25,19.25,1.25,6.59,0,12.66-.46,18.04-1.37l.36-.06-.08,.36c-.19,.88-.37,1.77-.56,2.71l-.03,.17-.17,.03c-5.28,.85-11.2,1.29-17.59,1.29Zm-18.41-1.64c2.27,.3,9.53,1.14,18.41,1.14,6.3,0,12.13-.42,17.34-1.25,.15-.76,.3-1.48,.45-2.19-5.32,.87-11.3,1.31-17.76,1.31-9.49,0-17.22-.97-18.96-1.21,.17,.71,.35,1.43,.53,2.2Z"/>
        <path class="cls-1" d="M25.33,49.46c-6.54,0-12.2-.45-15.79-.83l-.18-.02-.04-.17c-.31-1.35-.65-2.71-.99-4.06-.35-1.41-.69-2.75-.99-4.06l-.08-.35,.35,.04c2.59,.32,9.51,1.06,17.77,1.06,6.09,0,11.76-.4,16.84-1.18l.35-.05-.13,.67c-.25,1.34-.55,2.7-.86,4.14-.26,1.21-.53,2.44-.77,3.66l-.04,.18-.18,.02c-4.67,.63-9.81,.95-15.28,.95Zm-15.56-1.31c3.59,.37,9.15,.81,15.56,.81,5.37,0,10.43-.31,15.03-.92,.23-1.17,.49-2.34,.74-3.49,.31-1.43,.6-2.78,.85-4.1-5.01,.75-10.58,1.13-16.56,1.13-7.94,0-14.64-.68-17.48-1.02,.28,1.2,.58,2.42,.91,3.7,.32,1.29,.65,2.6,.95,3.9Z"/>
      </g>
    </g>
    <g>
      <path class="cls-1" d="M23.88,28.83h0c-.65,0-1.3,0-1.96-.02-.66,0-1.32-.02-2-.02-3.01,0-6.19-.19-8.93-.54h-.07s-.05-.05-.05-.05c-.19-.03-.42-.06-.65-.09-1.12-.15-2.52-.34-2.89-1.5l-.02-.08,.03-.08c.1-.3,.22-.59,.34-.88l.11-.26,.25,.14c.82,.47,2.21,.07,2.32-1.16,.05-.58-.24-1.17-.72-1.44l-.26-.14,.19-.23s.06-.08,.1-.11l.25-.29,.18,.25c.24,.34,.67,.53,1.17,.53,.59,0,1.15-.27,1.46-.72,.37-.53,.44-1.24,.18-1.89l-.17-.43,.46,.09c.11,.02,.17,.03,.23,.05l.07,.02,.05,.05c.39,.46,.88,.92,1.48,1.4l.46,.37-.59,.07c-.19,.02-.37,.1-.53,.21l-.1,.04c-.17,.03-.29,.17-.37,.29-.2,.32-.28,.83-.19,1.17,.09,.32,.35,.52,.69,.52,.58-.03,1.05-.39,1.25-.91,.09-.24,.12-.5,.08-.73l-.11-.57,.49,.32c1.88,1.21,4.04,1.95,6.08,2.08,1.93,.12,4.21-.64,5.83-1.92l.19-.15,.16,.18c1.34,1.59,2.26,3.51,2.66,5.56,0,.7-1.24,.74-3.43,.76-.48,0-.93,0-1.3,.03-.72,.04-1.48,.05-2.38,.05Zm-12.77-1.07c2.71,.34,5.84,.53,8.81,.53,.68,0,1.34,0,2.01,.02,.65,0,1.3,.02,1.95,.02h0c.9,0,1.65-.02,2.36-.05,.37-.02,.83-.02,1.31-.03,.93,0,2.63-.02,2.93-.24-.37-1.85-1.19-3.6-2.38-5.07-.55,.41-1.17,.77-1.82,1.05,.04,.03,.09,.06,.13,.09,.34-.27,.72-.37,1.06-.29h.04c.19,0,.36,.04,.51,.13,.52,.32,.74,.96,.55,1.64-.17,.59-.66,1.19-1.39,1.19-.69-.03-1.2-.32-1.4-.78-.06-.13-.09-.27-.09-.42-.16,0-.3-.06-.42-.16-.25-.21-.41-.58-.28-.92-.96,.28-1.94,.4-2.85,.34-1.98-.12-4.06-.8-5.92-1.91-.02,.17-.06,.34-.12,.5-.28,.7-.92,1.18-1.64,1.22h-.08c-.44,0-.81-.21-1.03-.55-.17,.42-.53,.9-1.01,1.08-.34,.13-.67,.03-.9-.24-.21-.26-.31-.67-.24-1.01,.04-.21,.13-.39,.26-.55-.27,.02-.54,0-.78-.07,.15,.32,.21,.68,.18,1.04-.14,1.53-1.73,2.1-2.82,1.67-.07,.17-.13,.34-.2,.52,.32,.79,1.45,.95,2.46,1.08,.24,.03,.47,.06,.68,.1,.05,0,.09,.02,.13,.05Zm15.2-2.96l-.1,.48c-.04,.19-.03,.36,.03,.49,.17,.41,.69,.47,.91,.48h0c.5,0,.82-.41,.94-.82,.1-.36,.07-.83-.32-1.07-.07-.04-.15-.06-.25-.06h-.04s-.1,0-.1,0c-.23-.07-.53,.06-.78,.32l-.19,.19-.18-.2c-.1-.11-.21-.19-.32-.24-.15-.07-.35,.1-.43,.26-.07,.13,.01,.3,.12,.39,.07,.06,.16,.05,.28,0l.45-.2Zm-13.88-1.39c-.32,0-.67,.18-.75,.59-.04,.2,.02,.45,.14,.6,.1,.12,.19,.12,.21,.12,.04,0,.08,0,.12-.02,.36-.14,.64-.54,.75-.86,.06-.17,.04-.29,0-.35-.02-.02-.04-.05-.11-.05h-.05s-.09,0-.09,0c-.07-.02-.14-.03-.22-.03Zm.36-.47c.14,0,.26,.04,.36,.11,.04-.32,.14-.64,.29-.88,.17-.26,.39-.44,.64-.5,.07-.05,.15-.09,.23-.13-.29-.25-.54-.49-.78-.72,.06,.58-.08,1.16-.41,1.63-.13,.19-.3,.35-.49,.49,.03,0,.06,.01,.09,.02,.02,0,.04,0,.06,0Z"/>
      <path class="cls-1" d="M34.38,15.25c-.53,0-1.1-.32-1.38-.79-.21-.36-.23-.74-.05-1.09,.02-.05,.02-.07,.02-.07-.05,.03-.12,.06-.16,.13l-.02,.08-.45,1.19-.03-1.27c-.01-.61-.08-1.14-.21-1.62-.03-.18-.06-.33-.09-.48l-.07-.36,.36,.06c1.01,.17,2,.48,2.96,.91l.12,.05,.02,.13c.03,.18,.08,.36,.12,.53,.18,.71,.38,1.52-.32,2.24-.22,.22-.5,.34-.82,.34Zm-1.41-2.41c.19,0,.35,.09,.44,.23,.05,.09,.12,.28-.02,.54-.12,.23-.05,.45,.04,.59,.29,.48,1.06,.72,1.42,.36,.51-.52,.37-1.07,.2-1.77-.04-.14-.07-.29-.1-.43-.77-.34-1.56-.59-2.36-.75,0,.04,.01,.08,.02,.12,.09,.34,.15,.73,.19,1.15,.06-.02,.12-.03,.19-.03Z"/>
      <path class="cls-1" d="M36.38,28.62h0c-.53,0-1.07-.02-1.6-.04-.22,0-.44-.01-.66-.02-1.16-.02-2.35-.04-3.29-.69l-.08-.06-.02-.1c-.34-1.66-.98-3.2-1.9-4.57-.12-.23-.24-.44-.37-.64l-.11-.18,.15-.14c1.86-1.67,3.12-3.96,3.56-6.47,.09-.4,.16-.81,.21-1.31l.12-1.24,.37,1.19c.23,.73,.97,1.24,1.64,1.09,.61-.14,1.05-.55,1.36-1.26,.03-.06,.04-.12,.06-.18l.13-.48,.31,.38c.09,.11,.2,.18,.35,.22l.35,.1-.21,.29c-.13,.18-.19,.4-.16,.57,.02,.11,.07,.19,.15,.25,.11,.08,.24,.09,.4,.02l.39-.16-.05,.42c-.05,.37,.03,.71,.24,.99,.27,.37,.85,.33,1.3,0,.27-.2,.48-.47,.63-.78l.17-.38,.25,.33c.26,.34,.46,.63,.64,.92l.33,.53-.61-.16c-.36-.09-.82,.12-1.1,.51-.18,.26-.22,.57-.11,.85,.11,.28,.35,.47,.66,.53,.55,.11,.94-.43,1.03-.94l.14-.79,.34,.72c.76,1.63,1.14,3.37,1.14,5.17,0,1.47-.27,2.93-.81,4.35l-.05,.08c-.08,.08-.17,.16-.26,.23l-.06,.04c-1.34,.54-2.87,.78-4.96,.78Zm-5.18-1.1c.8,.51,1.88,.53,2.93,.55,.23,0,.45,0,.67,.02,.52,.02,1.05,.04,1.58,.04h0c2.01,0,3.47-.22,4.74-.73,.05-.04,.1-.08,.14-.13,.5-1.34,.76-2.72,.76-4.12,0-1.52-.29-2.99-.85-4.39-.28,.49-.77,.84-1.4,.72-.48-.1-.85-.4-1.03-.84-.17-.43-.11-.93,.16-1.33,.02-.04,.05-.07,.08-.1-.63,.31-1.32,.21-1.69-.29-.21-.29-.33-.63-.34-1-.19,.02-.37-.05-.52-.16-.19-.14-.31-.34-.35-.58-.03-.22,0-.46,.1-.68,0,0,0,0,0,0-.37,.79-.93,1.27-1.66,1.45-.06,.01-.12,.02-.18,.03,.24,.25,.35,.62,.32,1.03-.06,.8-.49,1.72-1.31,1.87-.54,.1-1.01-.14-1.29-.61-.04-.07-.08-.14-.1-.21-.64,1.66-1.65,3.17-2.95,4.38,.09,.16,.18,.31,.27,.47,.92,1.38,1.58,2.94,1.94,4.63Zm2.22-11.42c-.1,0-.2,.01-.3,.04-.04,0-.08,.05-.1,.12l-.03,.07-.06,.04c-.19,.14-.37,.35-.51,.6-.17,.3-.15,.72,.04,1.04,.1,.17,.35,.45,.77,.38,.6-.11,.87-.91,.9-1.41,.02-.27-.05-.5-.19-.65-.13-.14-.31-.21-.54-.21Zm6.46,.31c-.07,.1-.14,.2-.22,.29,.11-.05,.23-.09,.35-.11-.04-.06-.08-.12-.13-.18Zm-7.21-1.17c-.03,.2-.07,.4-.12,.58-.02,.08-.03,.17-.05,.25,.03-.02,.05-.05,.08-.07,.09-.18,.23-.3,.41-.35,.03,0,.06-.02,.1-.02-.16-.11-.3-.24-.42-.4Zm5.5,5.76c-.15,0-.38-.06-.6-.33-.26-.32-.29-.72-.07-1.02,.22-.31,.58-.41,1.05-.27,.14,.04,.25,.13,.3,.26,.06,.12,.06,.26,.02,.41,.05,.43-.1,.75-.42,.89-.09,.04-.19,.06-.29,.06Zm-.01-1.18c-.12,0-.19,.04-.25,.12-.12,.17,.01,.36,.06,.41,.07,.08,.17,.18,.3,.12,.11-.05,.15-.19,.11-.41v-.07s.02-.07,.02-.07c.02-.04,.02-.07,.02-.08-.09-.02-.17-.03-.24-.03Zm-2.13,.83c-.58,0-1.21-.43-1.47-1.01-.2-.45-.14-.91,.16-1.26,.25-.29,.6-.5,.94-.59,.46-.3,.86-.34,1.19-.13,.29,.17,.48,.51,.54,.98,.11,.88-.33,1.89-1.22,2.01-.05,0-.1,0-.15,0Zm.38-2.62c-.14,0-.3,.07-.5,.2l-.09,.04c-.26,.06-.53,.22-.72,.45-.22,.25-.17,.53-.08,.72,.19,.43,.69,.77,1.1,.71,.62-.08,.86-.89,.79-1.45-.03-.21-.1-.49-.3-.61-.06-.04-.13-.06-.2-.06Z"/>
      <path class="cls-1" d="M30.13,11.95c-.42,0-.65-.2-.78-.37-.14-.2-.22-.47-.22-.78,0-.8,.5-1.69,1.16-1.69,.13,0,.25,.03,.37,.09,.04,0,.08-.02,.12-.06l.24-.24,.16,.29c.18,.32,.34,.67,.5,1.05l.04,.09-.03,.09c-.35,.98-.87,1.51-1.52,1.53h-.04Zm.16-2.34c-.32,0-.66,.61-.66,1.19,0,.2,.04,.37,.13,.48,.08,.11,.2,.17,.37,.17v.25l.03-.25c.53-.02,.86-.66,1.03-1.1-.1-.24-.2-.46-.31-.68-.15,.05-.3,.04-.43-.02-.05-.03-.1-.04-.15-.04Z"/>
      <path class="cls-1" d="M19.2,10.31h0c-.56,0-1.16-.38-1.38-.86-.19-.42-.16-.93,.08-1.31,.27-.42,.75-.62,1.26-.5,.03,0,.07-.02,.12-.08l.07-.09h.12s0,0,0,0c.47,0,.8,.23,.94,.63,.22,.62-.03,1.57-.54,1.99-.18,.15-.41,.23-.67,.23Zm-.33-2.21c-.31,0-.48,.19-.55,.31-.15,.24-.17,.56-.05,.83,.14,.3,.57,.57,.93,.57h0c.14,0,.26-.04,.35-.12,.35-.29,.54-1.01,.39-1.44-.07-.18-.18-.28-.36-.3-.16,.14-.35,.2-.54,.16-.06-.01-.12-.02-.18-.02Z"/>
      <path class="cls-1" d="M12.21,12.38l.1-.45c.2-.91,.51-1.78,.95-2.59l.41-.78,.06,.88-.14,.08,.06,.03h.08c.02,.09,.09,.17,.2,.25l.09,.06,.02,.11c.03,.18,.04,.34,.03,.49-.01,.51-.25,1-.69,1.41-.08,.07-.5,.26-.75,.36l-.43,.16Zm1.25-2.33c-.22,.49-.41,.99-.55,1.51,.08-.04,.15-.07,.16-.08,.21-.2,.49-.56,.5-1.04,0-.09,0-.19-.01-.29-.04-.03-.07-.06-.1-.1Z"/>
      <path class="cls-1" d="M12.68,16.66h-.28s-.04-.19-.04-.19c-.2-.81-.29-1.61-.29-2.39,0-.07,0-.13,0-.2v-.24s.13-.07,.13-.07c.18-.12,.35-.18,.54-.18,.52,0,.97,.45,1.14,.64,.45,.51,.52,1.27,.18,1.85-.29,.5-.79,.78-1.37,.78Zm-.11-2.72s0,.09,0,.14c0,.68,.08,1.38,.23,2.08,.35-.04,.64-.22,.82-.53,.23-.4,.19-.92-.12-1.26-.24-.28-.65-.57-.93-.43Z"/>
      <path class="cls-1" d="M22.25,24.25c-4.46,0-8.36-2.85-9.71-7.1l-.09-.27,.28-.05c.64-.11,1.22-.55,1.52-1.17,.3-.61,.18-1.38-.3-1.92-.4-.46-1.03-.67-1.47-.46l-.4,.18,.06-.56c0-.08,.02-.15,.03-.23l.03-.18,.28-.05c.62-.12,1.21-.62,1.55-1.36,.02-.04,.03-.09,.05-.14l.13-.43,.28,.22c.26,.2,.74,.17,.92-.06,.11-.14,.14-.33,.06-.48-.04-.08-.12-.18-.3-.18h-.6l.39-.43c.24-.24,.39-.55,.39-.82v-.3s.3,.05,.3,.05c.44,.08,.9-.03,1.33-.3,.13-.08,.25-.17,.37-.28l.19-.18,.18-.31c.38-.66,.41-1.51,.07-2.26l-.1-.22,.22-.11c.25-.12,.52-.23,.79-.33l.4-.14-.08,.49c-.04,.45,.22,.88,.58,.99,.27,.08,.65-.06,1.04-.39,.21-.18,.39-.42,.51-.7l.16-.38,.26,.32c.11,.13,.26,.21,.43,.23l.37,.04,.35-.35c.15-.15,.28-.34,.38-.55l.08-.16,.17,.02c.89,.1,1.76,.32,2.59,.65l.28,.11-.17,.26c-.08,.13-.15,.27-.2,.43-.18,.57,.03,1.2,.51,1.57,.18,.14,.36,.21,.52,.21,.55,0,.94-.77,1.09-1.1l.13-.29,.35,.26c.08,.06,.15,.11,.22,.17l.18,.15-.14,.19c-.21,.29-.3,.6-.25,.92l.04,.11,.11,.32h-.34c-.27,.01-.59,.3-.69,.64-.06,.18-.07,.42,.16,.6,.43,.32,1.07-.03,1.35-.63l.1-.21,.22,.08c.2,.08,.4,.11,.6,.11h1.51l-1.39,.49c-.52,.18-.99,.81-1.15,1.53-.12,.57-.02,1.06,.29,1.35,.25,.23,.49,.35,.74,.35,.48,0,1.01-.46,1.47-1.26l.28-.5,.17,.55c.32,1,.48,2.04,.48,3.08,0,5.61-4.57,10.18-10.18,10.18Zm-9.14-7c1.35,3.9,5,6.5,9.14,6.5,5.34,0,9.68-4.34,9.68-9.68,0-.81-.1-1.62-.3-2.41-.37,.5-.91,1.04-1.6,1.04-.37,0-.74-.16-1.08-.48-.44-.41-.6-1.07-.44-1.82,.07-.31,.18-.6,.33-.86-.27,.17-.58,.25-.86,.21,.12,.24,.19,.62-.03,1.12-.34,.77-1.1,1.42-1.93,1.67-.97,.29-1.77-.23-1.88-1.2-.08-.73,.21-1.45,.78-1.93,.48-.4,1.01-.57,1.46-.47,.07-.03,.13-.04,.2-.04h.08c.15,.03,.3,.07,.43,.12-.05-.19-.05-.41,.02-.63,.14-.43,.48-.78,.85-.92-.01-.13-.01-.26,0-.39-.54,.67-1.24,.79-1.9,.29-.32-.24-.55-.57-.67-.93-.08,.28-.26,.56-.52,.8-.61,.57-1.73,1.2-2.77,1.01-.47-.08-.83-.37-1.01-.82-.25-.6-.14-1.43,.25-1.97,.04-.06,.09-.11,.13-.16,0,0-.02-.01-.03-.02-.13,.23-.3,.43-.49,.59-.35,.3-.98,.65-1.51,.49-.5-.16-.87-.66-.93-1.2-.06,.02-.11,.05-.17,.07,.21,.58,.24,1.21,.1,1.78,.17-.06,.35-.09,.53-.09,.07-.05,.14-.08,.22-.1,1.01-.21,1.75,.3,1.91,1.28,.17,1.06-.38,2.45-1.48,2.82-.49,.16-1.04,.1-1.49-.12,.22,.27,.35,.63,.32,.98-.07,.78-.65,1.62-1.48,1.62-.24,0-.48-.07-.71-.22-.14-.09-.22-.23-.23-.4-.14-.19-.21-.41-.21-.65,0-.79,.52-1.73,1.36-1.88,.1-.02,.19-.01,.27,.01-.26-.32-.42-.71-.42-1.14,0-.12,0-.24,.03-.36-.4,.21-.82,.31-1.24,.29-.04,.19-.12,.39-.24,.57,.15,.08,.27,.2,.35,.36,.16,.32,.11,.71-.12,1.01-.28,.37-.87,.5-1.33,.32-.31,.65-.77,1.14-1.31,1.42,.42,.08,.84,.33,1.15,.69,.61,.69,.76,1.69,.38,2.48-.33,.67-.92,1.17-1.61,1.37Zm4.21-6.53h-.03c-.56,.1-.95,.81-.95,1.39,0,.15,.05,.29,.15,.4l.08,.09-.02,.12c.14,.1,.29,.15,.44,.15,.52,0,.93-.6,.98-1.16,.03-.33-.19-.71-.49-.84l-.09-.04-.07-.1h0Zm8.81-1.33c-.27,0-.58,.14-.88,.38-.45,.38-.67,.92-.6,1.49,.08,.67,.58,.98,1.24,.78,.68-.21,1.33-.77,1.61-1.4,.12-.28,.13-.52,.02-.72-.14-.27-.49-.47-.93-.54l-.09,.06h-.15c-.07-.03-.14-.04-.21-.04Zm-8.23-1.44l-.14,.28c-.14,.28-.21,.58-.21,.88,0,1,1.12,1.58,1.92,1.31,.82-.27,1.28-1.42,1.15-2.26-.05-.34-.25-.91-.97-.91-.11,0-.22,.01-.35,.04l-.08,.08-.16,.03c-.39,.03-.69,.12-.95,.36l-.22,.2Zm4.59-2.82l-.37,.26c-.16,.11-.28,.22-.36,.34-.29,.41-.37,1.05-.19,1.49,.12,.29,.33,.47,.63,.52,.87,.15,1.84-.41,2.35-.89,.3-.28,.45-.61,.41-.88-.04-.21-.19-.38-.46-.49l-.07-.05c-.36-.33-.93-.48-1.49-.38l-.46,.07Zm2.25-.08c.26,.12,.46,.3,.58,.51,.01-.1,.04-.21,.07-.31,.03-.1,.07-.19,.11-.28-.65-.24-1.33-.4-2.03-.49-.01,.02-.03,.04-.04,.07,.5,.03,.96,.21,1.3,.51Z"/>
      <path class="cls-1" d="M22.59,7.57c-.39,0-.61-.16-.72-.3-.21-.25-.27-.63-.17-1.1,.11-.59,.58-.94,1.26-.94s1.39,.37,1.65,.87l.33,.02-.15,.29c-.22,.62-1.75,1.14-2.11,1.16h-.08Zm.36-1.84c-.25,0-.68,.07-.77,.53-.06,.31-.04,.56,.07,.69,.07,.08,.18,.12,.34,.12h.06c.28-.02,1.21-.39,1.55-.69-.01-.02-.03-.04-.04-.06-.17-.33-.7-.6-1.21-.6Z"/>
      <path class="cls-1" d="M16.13,8.35h0c-.09,0-.17,0-.26-.02-.45-.08-1.01-.4-1.15-.92l-.04-.13,.09-.1c.74-.8,1.58-1.47,2.51-1.99l.22-.12,.12,.22c.41,.77,.37,1.63-.11,2.32-.31,.45-.85,.74-1.39,.74Zm-.88-.95c.12,.21,.4,.38,.7,.43,.06,.01,.12,.02,.18,.02h0c.38,0,.75-.2,.98-.52,.33-.47,.39-1.03,.19-1.57-.75,.45-1.43,1-2.05,1.64Z"/>
    </g>
    <path class="cls-1" d="M16.04,8.76h0c-.66,0-1.16-.38-1.35-1.03-.18-.17-.31-.38-.38-.64-.29-1.1,.47-2.28,1.35-2.74,.29-.15,.62-.24,.93-.24,.83,0,1.54,.54,1.76,1.35,.29,1.08-.18,2.25-1.17,2.92-.36,.24-.76,.37-1.15,.37Zm.55-4.15c-.24,0-.48,.06-.7,.18-.71,.38-1.32,1.34-1.1,2.17,.05,.18,.14,.32,.27,.43l.06,.05,.02,.08c.16,.63,.63,.73,.89,.73h0c.28,0,.59-.1,.87-.29,.81-.55,1.2-1.5,.96-2.37-.16-.6-.66-.99-1.28-.99Z"/>
    <path class="cls-1" d="M18.95,10.48c-.65,0-1.54-.49-1.54-1.3,0-.46,.28-.94,.75-1.29,.02-.05,.05-.09,.08-.13,.5-.6,1.62-.77,2.18-.27,.56,.5,.51,1.28,.22,1.84-.37,.7-.98,1.13-1.65,1.15h-.04Zm.59-2.8c-.35,0-.72,.16-.92,.41l-.13,.19c-.37,.25-.59,.6-.59,.91,0,.46,.62,.8,1.04,.8v.25l.02-.25c.49-.01,.94-.34,1.23-.88,.19-.37,.24-.92-.11-1.23-.18-.16-.4-.19-.55-.19Z"/>
    <path class="cls-1" d="M20.39,6.34c-.05,0-.12,0-.18-.01l-.08-.02c-.4-.01-.71-.17-.89-.46-.21-.34-.2-.76,.02-1.17,.36-.64,1.13-.96,1.69-.67,.38,.2,.6,.58,.61,1.02v.06c.02,.22-.04,.43-.19,.64-.2,.38-.57,.61-.99,.61Zm.1-1.95c-.28,0-.6,.22-.78,.53-.06,.11-.19,.41-.03,.66,.11,.18,.33,.22,.5,.22h.08c.07,.03,.11,.03,.14,.03,.31,0,.49-.24,.56-.38,.1-.14,.13-.24,.13-.33,0-.22-.04-.51-.35-.68-.08-.04-.16-.06-.24-.06Z"/>
    <path class="cls-1" d="M22.98,8.24c-.28,0-.51-.09-.69-.26-.41-.2-.68-.52-.77-.91-.1-.47,0-.99,.29-1.41,.26-.38,.62-.63,1.04-.7,.17-.03,.34-.03,.5,0,.74-.06,1.67,.31,1.86,1.23,.08,.4-.02,.81-.28,1.17-.33,.45-.9,.77-1.46,.83-.05,0-.11,0-.17,0-.05,.02-.08,.02-.12,.03-.07,0-.14,.01-.21,.01Zm.11-2.8c-.05,0-.11,0-.16,.01-.28,.05-.53,.22-.71,.48-.21,.3-.29,.7-.22,1.03,.07,.31,.33,.49,.53,.58l.08,.06c.11,.12,.27,.16,.5,.12l.15-.03c.05,0,.1,0,.15,0,.42-.04,.86-.29,1.11-.63,.12-.17,.26-.44,.19-.77-.13-.64-.8-.88-1.35-.82h-.04s-.04,0-.04,0c-.06-.01-.13-.02-.2-.02Z"/>
    <path class="cls-1" d="M22.11,4.91c-.18,0-.36-.09-.47-.24-.12-.15-.15-.34-.1-.53,.11-.38,.47-.93,.94-.93,.16,0,.32,.07,.46,.19h.01c.18,.13,.28,.36,.25,.63-.03,.3-.23,.64-.6,.73-.08,.02-.13,.04-.2,.08-.09,.05-.19,.08-.29,.08Zm.37-1.2c-.16,0-.39,.31-.46,.56-.01,.04,0,.07,.02,.09,.03,.04,.07,.05,.12,.03,.11-.06,.21-.1,.33-.12,.13-.03,.2-.17,.21-.29,0-.09-.02-.14-.03-.15l-.11-.09s-.06-.03-.09-.03Z"/>
    <path class="cls-1" d="M26.94,7.37c-.28,0-.53-.09-.76-.27-.3-.23-.46-.53-.47-.88-.01-.4,.19-.83,.55-1.13,.08-.07,.19-.14,.32-.21,.33-.33,.82-.44,1.23-.26,.35,.15,.6,.42,.71,.77,.11,.36,.06,.77-.16,1.11-.33,.53-.89,.87-1.41,.87Zm.45-2.34c-.17,0-.34,.08-.48,.22l-.07,.05c-.12,.06-.21,.12-.26,.17-.24,.21-.38,.48-.38,.74,0,.2,.1,.37,.27,.5,.44,.34,1.1,.09,1.45-.47,.14-.22,.18-.48,.11-.7-.06-.2-.22-.37-.43-.46-.07-.03-.15-.05-.22-.05Z"/>
    <path class="cls-1" d="M25.52,12.89c-.36,0-.68-.14-.93-.4-.3-.32-.46-.8-.44-1.3,.05-.84,.71-1.75,1.61-1.75h.1s0,0,.02,0c.44-.05,.85,.09,1.13,.41,.28,.32,.41,.79,.35,1.24-.1,.75-.7,1.63-1.61,1.78-.08,.01-.16,.02-.23,.02Zm.25-2.95c-.61,0-1.08,.67-1.11,1.27-.02,.36,.09,.71,.3,.93,.19,.2,.43,.27,.72,.23,.65-.1,1.12-.77,1.2-1.35,.04-.31-.04-.63-.23-.85-.12-.13-.35-.29-.69-.25l-.12,.02h-.07Z"/>
    <path class="cls-1" d="M28.13,9.63h-.02c-.12,0-.22-.04-.31-.11-.04-.02-.08-.04-.12-.07-.29-.22-.4-.55-.28-.89,.16-.48,.73-.78,1.2-.62,.18,.06,.31,.19,.4,.37,.1,.22,.11,.5,.01,.74-.15,.37-.48,.59-.88,.59Zm.18-1.25c-.2,0-.38,.17-.43,.33-.04,.13,0,.25,.11,.34l.06,.02,.08,.06c.2,0,.34-.1,.42-.28,.04-.11,.04-.25,0-.34-.03-.07-.08-.09-.11-.1-.04-.01-.08-.02-.13-.02Z"/>
    <path class="cls-1" d="M29.95,12.33c-.46,0-.73-.18-.87-.34-.22-.24-.32-.59-.28-1.02-.05-.51,.21-1.17,.64-1.64,.33-.36,.71-.55,1.08-.55,.23,0,.58,.08,.9,.46,.14,.17,.25,.38,.32,.63,0,.04,.02,.07,.02,.11,.12,.54-.02,1.16-.39,1.63-.34,.44-.84,.7-1.37,.71h-.05Zm.57-3.05c-.23,0-.48,.14-.71,.39-.34,.37-.55,.89-.51,1.3-.02,.32,.03,.54,.15,.68,.11,.12,.27,.18,.5,.18v.25l.04-.25c.38-.01,.73-.2,.99-.52,.28-.36,.39-.82,.29-1.23l.23-.13-.24,.07c-.05-.19-.12-.33-.22-.45-.15-.19-.33-.28-.51-.28Z"/>
    <path class="cls-1" d="M29.68,8.53c-.3,0-.56-.12-.75-.36-.06-.07-.11-.16-.16-.28-.09-.18-.12-.33-.12-.48v-.09c0-.22,.03-.37,.08-.5,.01-.04,.04-.09,.06-.14,.15-.41,.44-.69,.81-.79,.6-.14,1.1,.32,1.27,.79,.19,.52,.07,1.26-.47,1.61-.23,.15-.48,.23-.71,.23Zm-.46-.82c.04,.08,.06,.11,.09,.14,.2,.23,.51,.23,.81,.03,.31-.2,.39-.69,.27-1.02-.1-.27-.37-.55-.68-.47-.26,.06-.4,.31-.47,.5-.02,.05-.04,.07-.04,.1-.03,.09-.04,.19-.04,.32l-.26,.11h.25c0,.08,.02,.15,.05,.23l.03,.07Z"/>
    <path class="cls-1" d="M33.99,15.59h0c-.78,0-1.39-.42-1.57-1.09-.02-.06-.03-.13-.04-.2-.21-.37-.21-.81,0-1.26,.07-.14,.16-.28,.27-.41-.32-.49-.35-1.16-.05-1.67,.12-.21,.29-.34,.49-.39,.2-.14,.42-.22,.65-.23h.07c.42,0,.81,.2,1.08,.55,.23,.3,.34,.67,.3,1.03,.07,.03,.13,.06,.2,.1,.52,.3,.8,.81,.79,1.44-.02,.76-.48,1.54-1.13,1.88-.31,.17-.69,.26-1.05,.26Zm-.18-4.75c-.19,0-.33,.06-.46,.16l-.11,.05c-.06,0-.13,.04-.21,.17-.22,.38-.17,.93,.13,1.26l.16,.18-.17,.17c-.15,.15-.25,.29-.32,.43-.15,.31-.15,.6,0,.83l.04,.11c0,.06,.02,.12,.03,.18,.18,.65,.82,.72,1.09,.72h0c.29,0,.58-.07,.82-.2,.49-.26,.86-.87,.87-1.45,0-.31-.08-.73-.54-.99-.09-.05-.19-.09-.29-.12l-.23-.07,.06-.24c.07-.31,0-.6-.17-.82-.18-.23-.43-.36-.69-.36Z"/>
    <path class="cls-1" d="M36.86,15.72h-.09c-.22-.03-.39-.15-.48-.32-.08-.16-.09-.36-.02-.54-.03-.21,.02-.42,.14-.58,.15-.19,.39-.31,.67-.32,.23,0,.42,.13,.51,.29,.2,.42,.19,.79-.05,1.1-.18,.23-.43,.37-.68,.37Zm.25-1.25c-.14,0-.25,.05-.3,.12-.04,.06-.06,.12-.04,.21l.04,.11-.05,.09c-.04,.07-.04,.14-.02,.17,.01,.03,.05,.04,.1,.05h.03c.1,0,.21-.06,.29-.17,.08-.1,.15-.26,0-.58h-.03Z"/>
    <path class="cls-1" d="M37.09,14.31h0c-.26,0-.5-.1-.68-.3-.05-.05-.11-.12-.16-.2-.21-.19-.34-.46-.37-.75-.03-.3,.06-.59,.25-.8,.24-.28,.53-.39,.83-.3,.17-.02,.33,0,.48,.09,.19-.02,.38,.04,.55,.15,.35,.24,.33,.76,.28,1.05-.08,.57-.63,1.06-1.18,1.06Zm-.32-1.88c-.08,0-.17,.05-.26,.16-.1,.11-.14,.27-.13,.43,.02,.17,.1,.34,.22,.44l.06,.06c.03,.06,.07,.1,.11,.14,.34,.35,.95-.03,1.02-.48,.04-.27,.01-.51-.08-.56-.08-.06-.18-.08-.27-.06l-.11,.02-.09-.06c-.08-.06-.15-.08-.24-.06l-.07,.02-.07-.03s-.06-.02-.09-.02Z"/>
    <path class="cls-1" d="M38.35,17.21h0c-.16,0-.32-.04-.47-.11-.58-.28-.84-.89-.67-1.64,.18-.81,.85-1.66,1.67-1.68h0c.43,0,.83,.21,1.08,.56,.25,.35,.33,.76,.21,1.14-.11,.36-.36,.72-.65,.97-.32,.48-.74,.75-1.18,.75Zm.56-2.93c-.56,.01-1.08,.67-1.21,1.29-.05,.24-.12,.84,.4,1.09,.34,.17,.74-.04,1.03-.49l.05-.06c.24-.19,.44-.49,.52-.76,.07-.23,.02-.48-.14-.7-.16-.22-.41-.36-.66-.36Z"/>
    <path class="cls-1" d="M12.48,12.39h0c-.65,0-1.13-.51-1.14-1.21-.12-.57,.13-1.35,.61-1.84,.48-.49,.96-.66,1.41-.5,.47,.16,.86,.59,.93,1.04,.16,.89-.33,2.08-1.3,2.42-.18,.06-.35,.09-.51,.09Zm.55-3.11c-.21,0-.46,.14-.72,.41-.36,.37-.56,.98-.47,1.43,.01,.4,.21,.76,.65,.76,.11,0,.22-.02,.34-.06,.72-.25,1.09-1.18,.97-1.86-.05-.27-.31-.55-.6-.65-.06-.02-.11-.03-.17-.03Z"/>
    <path class="cls-1" d="M12.99,16.81h0c-.25,0-.48-.1-.67-.29-.67-.66-.78-1.94-.24-2.79,.27-.42,.61-.51,.84-.51,.27,0,.56,.12,.82,.34,.2,.08,.37,.21,.51,.39,.47,.6,.32,1.48-.03,2.05-.25,.41-.73,.81-1.24,.81Zm-.07-3.09c-.16,0-.3,.09-.42,.28-.41,.64-.32,1.68,.17,2.17,.34,.34,.89-.05,1.12-.43,.27-.43,.37-1.08,.06-1.48-.09-.12-.2-.2-.33-.24l-.09-.05c-.17-.15-.36-.24-.52-.24Z"/>
    <path class="cls-1" d="M16.94,12.99c-.21,0-.4-.08-.53-.21-.09-.1-.2-.27-.18-.54,0-.1,.02-.2,.05-.29,0-.05,0-.1,0-.15,.09-.4,.5-.83,.99-.83,.12,0,.24,.03,.35,.08,.22,.11,.36,.29,.41,.53,.07,.4-.15,.87-.41,1.13-.17,.18-.43,.29-.69,.29Zm.34-1.54c-.23,0-.46,.24-.51,.45v.04s0,.09,0,.09c-.02,.08-.04,.15-.04,.23,0,.08,.01,.14,.04,.17,.09,.09,.37,.05,.5-.08,.16-.17,.31-.49,.27-.7-.01-.08-.05-.13-.13-.17-.04-.02-.09-.03-.13-.03Z"/>
    <path class="cls-1" d="M15.03,11.27h0c-.17,0-.33-.11-.39-.27-.07-.17-.02-.37,.14-.51,.12-.2,.48-.24,.64-.06,.07,.08,.1,.18,.09,.29,0,.09-.02,.19-.08,.29-.1,.16-.24,.25-.41,.25Z"/>
    <path class="cls-1" d="M14.77,9.98h-.04c-.06,0-.11-.02-.14-.04-.24,0-.44-.07-.58-.22-.09-.1-.19-.27-.17-.56,.04-.47,.43-.81,.91-.81,.19,0,.38,.05,.54,.16,.26,.17,.36,.47,.27,.8-.09,.33-.4,.67-.79,.67Zm-.15-.54l.16,.04c.12,0,.26-.15,.3-.31,.03-.11,.01-.19-.06-.24-.24-.15-.65-.09-.68,.27,0,.06,0,.14,.04,.18,.03,.04,.1,.06,.18,.06h.06Z"/>
    <path class="cls-1" d="M11.22,23.15h0c-.34,0-.63-.1-.85-.3-.61-.54-.51-1.47-.08-2.07,.16-.22,.35-.37,.58-.47,.27-.2,.59-.31,.92-.31,.58,0,1.05,.33,1.26,.89,.31,.81-.22,1.64-.88,2-.29,.16-.64,.25-.95,.25Zm.56-2.64c-.22,0-.45,.08-.64,.22l-.06,.03c-.15,.06-.28,.16-.39,.31-.3,.41-.38,1.05,0,1.4,.13,.12,.3,.17,.52,.17h0c.23,0,.49-.07,.71-.19,.47-.26,.86-.83,.65-1.38-.14-.36-.43-.57-.79-.57Z"/>
    <path class="cls-1" d="M12.03,24.8h0c-.17,0-.32-.05-.44-.14-.36-.29-.21-.85-.02-1.13,.1-.15,.29-.25,.46-.25h.04c.16-.05,.32-.04,.47,.01,.19,.08,.33,.22,.39,.41,.07,.23,.01,.51-.16,.75-.15,.21-.45,.36-.74,.36Zm-.05-1.04c-.09,.19-.15,.44-.07,.51,.02,.02,.07,.03,.12,.03h0c.14,0,.28-.07,.33-.14,.08-.11,.11-.24,.09-.32,0-.03-.03-.06-.09-.09-.08,0-.12,0-.16,.02l-.07,.03-.14-.04Z"/>
    <path class="cls-1" d="M14.31,24.35c-.45,0-.74-.28-.78-.73-.28-.47-.2-1.09,.2-1.49,.27-.28,.71-.41,1.12-.34,.02,0,.03,0,.05,0,.08,0,.18,.01,.29,.05,.42,.15,.7,.52,.69,.93,0,.47-.28,.93-.69,1.19-.23,.23-.51,.37-.81,.39h-.07Zm.31-2.08c-.21,0-.4,.08-.53,.21-.25,.25-.29,.64-.1,.92l.04,.06v.07c0,.29,.15,.32,.29,.32v.25l.04-.25c.18-.01,.35-.1,.5-.25l.05-.04c.28-.16,.47-.48,.47-.79,0-.23-.19-.38-.35-.44-.04-.02-.09-.02-.17-.02l-.08-.02h0c-.06,0-.11,0-.16,0Z"/>
    <path class="cls-1" d="M8.91,25.98h0c-.6,0-1.09-.41-1.22-1.03-.07-.33-.02-.71,.15-1.06,.02-.06,.06-.13,.1-.2l.1-.14c.29-.39,.67-.62,1.08-.66,.53-.06,.96,.15,1.21,.55,.23,.37,.23,.84,.03,1.27-.08,.39-.29,.74-.59,.98-.25,.2-.55,.31-.85,.31Zm.37-2.61s-.07,0-.11,0c-.27,.03-.52,.19-.72,.45l-.06,.08c-.05,.08-.07,.12-.09,.17-.12,.27-.16,.54-.12,.77,.08,.39,.36,.63,.73,.63h0c.19,0,.37-.07,.54-.2,.21-.17,.36-.43,.41-.71l.02-.07c.14-.28,.15-.58,0-.81-.12-.2-.34-.31-.61-.31Z"/>
    <path class="cls-1" d="M25.72,25.28c-.14,0-.32-.07-.4-.24-.12-.24-.11-.43-.01-.59,.18-.29,.69-.36,.89-.11,.09,.11,.11,.26,.08,.42,0,.21-.15,.4-.38,.48-.09,.03-.13,.03-.17,.03Z"/>
    <path class="cls-1" d="M27.31,26.61c-.1,0-.21-.01-.32-.04-.1-.03-.16-.04-.21-.06-.06-.03-.09-.04-.12-.06-.44-.22-.67-.67-.57-1.16,.05-.26,.19-.49,.4-.68,.1-.17,.23-.3,.38-.39,.34-.21,.86-.16,1.16,.11,.34,.31,.51,.82,.43,1.3-.07,.42-.32,.75-.69,.9-.14,.06-.3,.09-.47,.09Zm.07-2.03c-.09,0-.17,.02-.24,.06-.09,.06-.17,.14-.24,.26l-.06,.07c-.1,.08-.23,.22-.27,.42-.08,.38,.21,.57,.33,.63,.09,.04,.12,.05,.16,.06,.26,.06,.37,.04,.51-.02,.28-.12,.37-.38,.39-.52,.05-.31-.05-.65-.27-.84-.08-.07-.2-.11-.32-.11Z"/>
    <path class="cls-1" d="M33.41,18.82h0c-.64,0-1.11-.42-1.15-1.02,0-.05,0-.12,0-.18,0-.2,.03-.37,.1-.54,.15-.53,.57-1.13,1.25-1.15h0c.38,0,.67,.18,.85,.5,.19,.2,.3,.5,.3,.85,0,.46-.18,.93-.45,1.18-.23,.22-.56,.35-.89,.35Zm.22-2.39c-.42,.01-.7,.45-.81,.82-.05,.12-.07,.22-.06,.33,0,.09,0,.13,0,.17,.03,.42,.37,.56,.65,.56h0c.21,0,.41-.08,.55-.21,.17-.16,.29-.51,.29-.82,0-.23-.06-.41-.18-.52l-.05-.07c-.09-.18-.22-.26-.39-.26Z"/>
    <path class="cls-1" d="M35.61,17.84h0c-.23,0-.42-.11-.54-.3-.2-.15-.33-.37-.36-.6-.03-.24,.03-.46,.19-.66,.41-.51,1.2-.47,1.53,.02,.17,.26,.2,.6,.07,.91-.15,.36-.53,.63-.89,.63Zm.06-1.45c-.14,0-.27,.07-.38,.2-.07,.09-.1,.18-.09,.28,.02,.11,.09,.23,.2,.3l.05,.04,.03,.06c.03,.06,.06,.08,.12,.08h0c.14,0,.35-.14,.43-.32,.09-.21,.04-.36-.02-.45-.08-.12-.21-.19-.35-.19Z"/>
    <path class="cls-1" d="M35.9,20.19c-.33,0-.61-.16-.78-.43-.34-.55-.06-1.31,.42-1.62,.13-.08,.47-.28,.84-.28,.23,0,.43,.08,.58,.23,.34,.33,.43,.85,.23,1.34-.19,.47-.59,.77-1.01,.77h0s-.08,0-.13,0c-.05,0-.1,0-.15,0Zm.48-1.84c-.16,0-.37,.08-.56,.2-.27,.18-.45,.65-.27,.94,.1,.16,.27,.22,.46,.18h.04s.05,0,.05,0c.03,0,.05,0,.08,0h0c.22,0,.44-.18,.55-.46,.1-.24,.12-.57-.12-.8-.06-.06-.13-.08-.23-.08Z"/>
    <path class="cls-1" d="M39.91,19.18h0c-.14,0-.26-.03-.37-.09-.31-.17-.48-.49-.47-.86-.02-.13-.02-.25,.02-.38,.16-.49,.51-.8,.97-.85,.48-.05,.94,.19,1.08,.6,.15,.42,0,.92-.37,1.24-.18,.16-.52,.34-.86,.34Zm.28-1.69s-.05,0-.08,0c-.33,.04-.48,.29-.55,.5-.02,.05-.02,.1,0,.15v.04s0,.04,0,.04c0,.09,0,.32,.22,.44,.15,.08,.49-.05,.66-.19,.21-.18,.31-.47,.23-.7-.07-.2-.3-.27-.48-.27Z"/>
    <path class="cls-1" d="M38.19,20.56h-.12s-.09-.04-.14-.08c-.17-.1-.26-.29-.21-.5,.06-.23,.29-.41,.51-.41,.15,0,.28,.08,.35,.21,.03,.05,.06,.11,.07,.17,.04,.14,0,.29-.08,.41-.09,.12-.24,.2-.39,.2Z"/>
  </g>
  <path class="cls-1" d="M23.05,35.17c-6.24,0-11.78-.48-16.46-1.42l-.15-.03-1.09-4.13,.36,.03c.11,0,11.47,1.06,23.38,1.06h0c5.57,0,10.41-.23,14.39-.68l.34-.04-.76,3.76-.17,.03c-.09,.01-9.21,1.42-19.83,1.42Zm-16.21-1.88c4.61,.92,10.07,1.38,16.21,1.38,9.78,0,18.28-1.2,19.58-1.39l.55-2.74c-3.93,.42-8.68,.64-14.1,.64h0c-10.74,0-21.05-.85-23.07-1.03l.83,3.14Z"/>
  <path class="cls-1" d="M23.49,41.17c-5.83,0-11.08-.37-15.62-1.11l-.18-.03-.41-3,.33,.05c.09,.01,9.01,1.25,19.15,1.25h0c5.95,0,11.16-.42,15.47-1.25l.38-.07-.7,3.03-.17,.02c-.08,.01-8.33,1.11-18.24,1.11Zm-15.36-1.57c4.47,.71,9.64,1.07,15.36,1.07,9.09,0,16.77-.93,18-1.08l.45-1.94c-4.27,.79-9.37,1.19-15.19,1.19h0c-9.09,0-17.19-.99-18.89-1.21l.27,1.98Z"/>
  <path class="cls-1" d="M23.66,53.64c-2.77,0-11.91-.15-13.18-2.02l-.04-.08-.72-3.03,.36,.05c.06,0,6.18,.87,14.65,.87h0c5.33,0,10.45-.34,15.21-1l.34-.05-.55,3.18c-.04,.06-1.14,1.5-4.28,1.63-.88,.04-1.75,.09-2.67,.15-2.33,.14-4.96,.3-9.12,.3Zm-12.74-2.27c.81,1.06,5.91,1.77,12.74,1.77,4.14,0,6.77-.16,9.09-.3,.93-.06,1.8-.11,2.68-.15,2.58-.11,3.66-1.16,3.86-1.39l.38-2.34c-4.69,.63-9.72,.96-14.94,.96h0c-7.33,0-12.91-.64-14.35-.83l.54,2.28Z"/>
</svg>