<?xml version="1.0" encoding="UTF-8"?>
<svg id="Layer_1" data-name="Layer 1" xmlns="http://www.w3.org/2000/svg" viewBox="0 0 59 52">
  <defs>
    <style>
      .cls-1 {
        fill: #fff;
      }
    </style>
  </defs>
  <path class="cls-1" d="M15.16,47.67h0c-3.2,0-5.87-1.35-7.03-3.53-.14,.01-.28-.02-.4-.11C3.43,41.13-.16,36.02,2.62,30.37c.91-1.85,3.06-2.98,4.79-3.89l.37-.19c3.34-1.76,6.89-3.69,10.39-6.08l1.69-1.15c2.84-1.93,5.77-3.93,8.57-6.01l.75-.56c2.43-1.81,4.94-3.68,7.7-5.08,2.33-1.19,4.85-2.35,7.71-2.35,.47,0,.94,.03,1.41,.09,2.47,.31,4.24,1.53,4.77,3.27,.72-.19,1.4-.28,2.02-.28,2.13,0,3.36,1.12,3.48,3.16,2.93,5.02-.95,12.19-4.1,15.54-2.52,2.69-5.69,4.96-8.17,6.65-1.76,1.2-5.22,3.4-8.57,4.68-3.69,1.4-6.77,3.47-9.75,5.46-2.64,1.77-5.56,3.47-9.06,3.94-.48,.06-.97,.1-1.45,.1Zm-6.79-4.16l.11,.23c1,2.09,3.62,3.43,6.68,3.43h0c.46,0,.92-.03,1.38-.09,3.4-.45,6.26-2.12,8.85-3.86,3-2.01,6.11-4.09,9.85-5.52,3.3-1.26,6.73-3.44,8.47-4.62,2.46-1.67,5.6-3.93,8.08-6.58,3.06-3.26,6.85-10.22,4-15l-.03-.12c-.08-1.82-1.09-2.74-2.98-2.74-.66,0-1.4,.12-2.19,.35l-.41,.13c-.11,.04-.21,.08-.32,.12l-.12,.05c-.34,.32-.67,.66-.97,1.02,.37-.18,.77-.34,1.21-.48,2.04-1.11,3.67-.89,4.69,.69,.69,.65,1.11,1.79,1.27,3.42,.03,.34,.05,.69,.05,1.11,.15,2.08-.31,4.18-1.38,6.22l-.02,.07c-.03,.08-.08,.15-.14,.22-3.32,6.02-11.14,10.59-16.85,13.92-.63,.37-1.23,.72-1.8,1.05-.81,.48-1.66,.87-2.48,1.25-.98,.45-1.98,.91-2.91,1.52-1.02,.67-2.04,1.4-3.02,2.1-1.41,1-2.86,2.03-4.37,2.95-2.26,1.37-4.53,2.03-6.93,2.03-1.46,0-2.97-.24-4.61-.74-2.54-.77-2.93-3.47-3.25-5.64,0-.04-.01-.08-.02-.12-.24,.93-.29,1.82-.14,2.64l.14,.77-.56-.54c-1.26-1.21-2.55-2.46-3.56-3.98-2.13-3.24-1.43-7.7,1.56-9.95,1.44-1.09,3.15-1.88,4.81-2.65,.69-.32,1.37-.64,2.03-.98,1.74-.89,3.4-2.04,5-3.14,.42-.29,.85-.59,1.27-.88,4.31-2.93,8.69-6.03,13.38-9.47,2.31-1.69,4.85-3.15,7.76-4.46,1.48-.66,3.34-1.06,4.97-1.06,1.76,0,4.12,.44,5.38,2.51l.02-.04c-.64-2.34-3.51-2.88-4.37-2.99-.45-.06-.9-.09-1.34-.09-2.75,0-5.11,1.08-7.48,2.29-2.72,1.39-5.21,3.24-7.62,5.04l-.75,.56c-2.81,2.09-5.75,4.09-8.59,6.02l-1.69,1.15c-3.52,2.4-7.08,4.33-10.44,6.11l-.37,.19c-1.66,.87-3.74,1.96-4.58,3.67-2.64,5.37,.82,10.25,4.94,13.03,.07,.05,.09,.02,.14,0l.23-.11Zm-.07-4.5c.17,0,.31,.12,.34,.3,.03,.2,.06,.4,.09,.61,.32,2.13,.67,4.55,2.91,5.23,1.59,.48,3.05,.72,4.46,.72,2.3,0,4.48-.64,6.67-1.96,1.49-.9,2.94-1.93,4.34-2.93,.99-.7,2.01-1.43,3.04-2.11,.95-.62,1.98-1.1,2.97-1.55,.81-.37,1.65-.76,2.44-1.22,.57-.34,1.17-.69,1.8-1.06,5.67-3.31,13.44-7.85,16.68-13.77l.05-.07,.27,.04-.22-.12,.03-.07c1.04-1.99,1.48-3.99,1.34-6,0-.42-.01-.76-.05-1.08-.15-1.51-.53-2.55-1.16-3.16-.95-1.44-2.23-1.56-4.12-.55-.9,.3-1.62,.64-2.22,1.07l-1.14,.81,.79-1.15c.52-.76,1.12-1.46,1.79-2.09l.1-.08,.17-.07s.03-.01,.05-.02c-1.16-1.7-3.25-2.07-4.83-2.07s-3.35,.38-4.76,1.02c-2.88,1.29-5.39,2.74-7.67,4.4-4.7,3.44-9.09,6.54-13.4,9.48-.42,.29-.84,.58-1.27,.87-1.61,1.12-3.28,2.27-5.05,3.18-.66,.34-1.35,.66-2.05,.99-1.63,.76-3.31,1.55-4.72,2.6-2.79,2.09-3.44,6.25-1.45,9.27,.84,1.28,1.88,2.33,2.98,3.4-.05-.81,.07-1.66,.34-2.55,.05-.18,.26-.33,.45-.33Z"/>
  <path class="cls-1" d="M15.16,47.67h0c-3.2,0-5.87-1.35-7.03-3.53-.14,.01-.28-.02-.4-.11C3.43,41.13-.16,36.02,2.62,30.37c.91-1.85,3.06-2.98,4.79-3.89l.37-.19c3.34-1.76,6.89-3.69,10.39-6.08l1.69-1.15c2.84-1.93,5.77-3.93,8.57-6.01l.75-.56c2.43-1.81,4.94-3.68,7.7-5.08,2.33-1.19,4.85-2.35,7.71-2.35,.47,0,.94,.03,1.41,.09,2.47,.31,4.24,1.53,4.77,3.27,.72-.19,1.4-.28,2.02-.28,2.13,0,3.36,1.12,3.48,3.16,2.93,5.02-.95,12.19-4.1,15.54-2.52,2.69-5.69,4.96-8.17,6.65-1.76,1.2-5.22,3.4-8.57,4.68-3.69,1.4-6.77,3.47-9.75,5.46-2.64,1.77-5.56,3.47-9.06,3.94-.48,.06-.97,.1-1.45,.1Zm-6.79-4.16l.11,.23c1,2.09,3.62,3.43,6.68,3.43h0c.46,0,.92-.03,1.38-.09,3.4-.45,6.26-2.12,8.85-3.86,3-2.01,6.11-4.09,9.85-5.52,3.3-1.26,6.73-3.44,8.47-4.62,2.46-1.67,5.6-3.93,8.08-6.58,3.06-3.26,6.85-10.22,4-15l-.03-.12c-.08-1.82-1.09-2.74-2.98-2.74-.66,0-1.4,.12-2.19,.35l-.53,.16,.24-.5c-.64-2.34-3.51-2.88-4.37-2.99-.45-.06-.9-.09-1.34-.09-2.75,0-5.11,1.08-7.48,2.29-2.72,1.39-5.21,3.24-7.62,5.04l-.75,.56c-2.81,2.09-5.75,4.09-8.59,6.02l-1.69,1.15c-3.52,2.4-7.08,4.33-10.44,6.11l-.37,.19c-1.66,.87-3.74,1.96-4.58,3.67-2.64,5.37,.82,10.25,4.94,13.03,.07,.05,.09,.02,.14,0l.23-.11Zm2.83,.24c-.12,0-.23-.08-.33-.16-1.96-1.69-1.96-4.31-1.08-6.27-.06-.04-.12-.09-.17-.15-.29-.36-.34-.77-.35-1.13-.35-.33-.72-.85-.83-1.37l-.05-.24c-.05-.24-.11-.48-.11-.74,0-.26,.03-.5,.06-.74v-.07c-.28-2.95,2.47-4.79,4.9-6.41,.32-.21,.63-.42,.93-.63,2.28-1.58,4.6-2.78,6.56-3.74,1.79-.88,3.49-1.92,5.13-2.93,.27-.17,.54-.34,.82-.5-.12,.07-.25,.14-.37,.2-1.09,.59-2.17,1.17-3.26,1.75-1.61,.86-3.22,1.72-4.82,2.6-1.63,.89-4.38,2.77-6.01,3.89-1.57,1.07-1.57,1.07-1.69,1.07h-.16l-.14-.3,.12-.14c3.12-3.51,7.51-5.73,11.75-7.88,1.09-.55,2.22-1.12,3.28-1.7,3.03-1.63,5.74-3.56,8.49-5.55,2.38-1.73,5.01-3.44,8.06-4.25,.3-.08,.56,.09,.6,.38,.03,.21-.06,.45-.24,.6,2.24-.54,3.66-.02,4.09,1.47,.64-.58,1.2-1,1.77-1.34l1.35-.81-1.04,1.19c-.78,.9-1.38,1.81-1.84,2.8l.07,.17-.15,.16-.55,.48c-.63,.55-1.17,1.03-1.64,1.38l-1.66,1.25c-2.83,2.15-5.75,4.36-8.79,6.31-2.37,1.52-4.96,2.69-7.47,3.82-1.14,.51-2.31,1.04-3.45,1.6-.67,.33-1.52,.69-2.41,1.06-3.39,1.43-7.91,3.33-9.22,6.27,.33-.3,.68-.56,1.05-.77l.06-.03h.24s.07,.14,.07,.14c.07,.16,.02,.22-.29,.58-.6,.69-2.18,2.53-2.19,3.64-.01,1.04,0,1.42,.36,2.47,.07,.21,.18,.41,.29,.62,.16,.3,.33,.61,.4,.96,.02,.09,.05,.18,.07,.27,.08,.27,.13,.44,.02,.58l-.07,.1h-.15Zm-1.42-4.62c-.19,1.26,.04,2.65,1.07,3.75-.06-.28-.2-.54-.35-.82-.12-.22-.24-.44-.33-.69-.34-.97-.39-1.42-.39-2.24ZM43.87,9.63c-.71,0-1.58,.18-2.58,.53-1.79,.63-3.42,1.83-4.85,2.89-2.7,1.99-5.43,3.64-7.75,5-.86,.5-1.71,1.02-2.55,1.54-1.65,1.02-3.36,2.07-5.17,2.96-1.95,.95-4.24,2.14-6.5,3.7-.3,.21-.62,.42-.94,.63-2.31,1.54-4.93,3.3-4.67,6.01v.13c-.04,.23-.08,.44-.07,.66,0,.21,.05,.42,.1,.65,.02,.08,.04,.17,.05,.25,.07,.37,.37,.83,.75,1.17l.08,.07v.11c0,.4,.04,.69,.24,.93,.04,.04,.06,.05,.09,.05l.32-.04,.13-.76c.64-3.8,5.95-6.04,9.83-7.67,.89-.37,1.73-.73,2.39-1.05,1.14-.56,2.32-1.09,3.46-1.61,2.49-1.13,5.07-2.29,7.41-3.79,3.02-1.93,5.94-4.15,8.76-6.29l1.66-1.25c.45-.34,1.01-.83,1.61-1.36l.45-.39c0-.07,.02-.16,.06-.25,.24-.53,.53-1.04,.86-1.54-.2,.17-.41,.36-.64,.57l-.35,.33-.07-.47c-.16-1.14-.85-1.7-2.11-1.7Zm-14.24,6.56c-1.29,.85-2.62,1.66-4.01,2.41-1.07,.58-2.2,1.15-3.29,1.7-3.41,1.73-6.91,3.5-9.75,5.95,1.71-1.17,3.95-2.68,5.42-3.48,1.6-.87,3.21-1.74,4.82-2.6,1.09-.58,2.18-1.17,3.26-1.75,1.21-.65,2.39-1.42,3.55-2.23Zm10.37-6.03c-2.82,1.16-5.36,3.02-7.84,4.83-1.27,.93-2.58,1.88-3.92,2.74,.06-.04,.13-.07,.19-.11,2.31-1.35,5.03-2.99,7.71-4.97,1.1-.82,2.42-1.79,3.86-2.49Zm2.03-1.31c-1.85,.49-3.54,1.33-5.12,2.3,1.59-.93,3.25-1.71,5.04-2.18,.02,0,.04-.03,.06-.06,.01-.02,.02-.04,.02-.06ZM18.52,43.46c-.2,0-.33-.09-.39-.16-.09-.09-.13-.22-.13-.36,0-.36,.3-.76,.71-.76,.21,0,.33,.08,.4,.16,.09,.09,.13,.22,.13,.36,0,.36-.3,.76-.71,.76Zm-2.94-1.08c-.43,0-.76-.24-.86-.62-.12-.46,.02-1.11,.49-1.41,.2-.13,.63-.24,.88-.01l.05,.05c.28-.03,.55,.12,.67,.38,.12,.26,.08,.57-.12,.8-.03,.03-.06,.06-.08,.08-.07,.22-.21,.41-.38,.53-.19,.13-.42,.2-.66,.2Zm.12-1.7c-.06,0-.14,.03-.22,.08-.26,.16-.35,.58-.28,.87,.05,.21,.26,.25,.37,.25,.13,0,.27-.04,.37-.11,.09-.06,.16-.18,.2-.32l.02-.07,.1-.1s.03-.03,.05-.04c.1-.12,.07-.22,.05-.27-.02-.05-.07-.1-.14-.1l-.15,.05-.17-.09-.12-.11s-.05-.04-.08-.04Zm4.65,1.47c-.12,0-.22-.04-.3-.12-.07-.07-.1-.17-.1-.27,0-.25,.21-.53,.5-.53,.15,0,.25,.07,.3,.12,.07,.07,.1,.17,.1,.27,0,.25-.21,.53-.5,.53Zm2.99-1.33c-.06,0-.12,0-.18-.03-.14-.04-.26-.13-.33-.27-.09-.16-.11-.35-.06-.51,.05-.16,.11-.28,.2-.42,.25-.38,.92-.42,1.16-.04,.22,.35,.06,.79-.22,1.02-.14,.11-.31,.26-.57,.26Zm.25-1.06c-.08,0-.17,.04-.21,.1-.07,.1-.11,.19-.14,.3-.02,.05,.02,.14,.04,.15,.12,0,.19-.04,.28-.12,.14-.11,.21-.28,.14-.38-.02-.04-.06-.05-.12-.05Zm-16.95,.56c-.19,0-.31-.08-.37-.15-.08-.09-.13-.21-.13-.34,0-.34,.28-.71,.66-.71,.19,0,.31,.08,.37,.15,.08,.09,.13,.21,.13,.34,0,.34-.28,.71-.66,.71Zm7.88-2.14h-.13l-.08-.1c-.15-.21,.35-2.1,.36-2.12,.8-2.34,2.92-3.38,4.97-4.38l.32-.16c2.56-1.26,5.22-2.41,7.8-3.53,1.18-.51,2.36-1.02,3.53-1.54,.22-.1,.45,.02,.51,.23,.05,.19-.04,.39-.22,.48-2.06,1.09-4.24,2.02-6.35,2.92-.78,.33-1.56,.66-2.33,1-2.59,1.14-6.25,3.84-8.17,7.07l-.07,.12h-.15Zm6.01-6.48c-.12,.06-.23,.11-.35,.17l-.32,.16c-1.96,.96-3.99,1.95-4.71,4.09-.02,.06-.08,.32-.15,.63,1.49-2.05,3.59-3.83,5.54-5.05Zm-15.49,4.93c-.15,0-.28-.07-.36-.19-.06-.09-.1-.21-.1-.33,0-.31,.21-.64,.57-.64v.5s-.07,.08-.07,.14c0,.03,0,.04,0,.05l-.05,.47Zm13.48-.6c-.21,0-.43-.14-.46-.44-.07-.15-.06-.33,.02-.47l.07-.12c.2-.31,.66-.34,.88-.12,.09,.09,.13,.22,.12,.36v.18c-.03,.36-.36,.61-.64,.61Zm-10.8-.23c-.11,0-.21-.04-.27-.11-.06-.07-.09-.15-.09-.25,0-.22,.18-.47,.45-.47,.11,0,.21,.04,.27,.11,.06,.06,.1,.15,.1,.25,0,.22-.18,.47-.45,.47Zm29.3-1.67c-.18,0-.34-.07-.46-.21-.13-.15-.19-.35-.17-.57v-.09c.04-.25,.28-.5,.55-.54h.08c.07-.02,.11-.03,.15-.03,.27,0,.48,.15,.56,.4,.11,.31,0,.68-.27,.88-.14,.11-.29,.17-.45,.17Zm.15-.94s-.03,0-.05,0l-.1,.02s-.12,.08-.12,.11v.08c-.02,.08,0,.15,.03,.19,.05,.06,.13,.05,.22-.02,.1-.08,.13-.23,.1-.32-.01-.04-.03-.06-.09-.06Zm-31.37-.36c-.18,0-.29-.08-.35-.14-.08-.08-.12-.19-.12-.32,0-.31,.26-.65,.61-.65,.18,0,.29,.08,.35,.14,.08,.08,.12,.19,.12,.32,0,.31-.26,.65-.61,.65Zm24.54-.29c-.15,0-.28-.08-.34-.21-.03-.07-.05-.12-.06-.19-.03-.16,0-.31,.1-.42,.18-.22,.56-.24,.72-.04,.08,.1,.11,.23,.09,.38,0,.05-.02,.12-.06,.2-.07,.16-.26,.29-.45,.29Zm-23.03-1.22c-.18,0-.29-.08-.35-.14-.08-.08-.12-.19-.12-.32,0-.31,.26-.65,.61-.65,.18,0,.29,.08,.35,.14,.08,.08,.12,.19,.12,.32,0,.31-.26,.65-.61,.65Zm25.82-1.64c-.2,0-.32-.08-.38-.15-.08-.09-.13-.21-.13-.35,0-.34,.29-.73,.68-.73,.2,0,.32,.08,.38,.15,.08,.09,.13,.21,.13,.35,0,.34-.29,.73-.68,.73Zm10.38-.21c-.19,0-.31-.08-.37-.15-.08-.09-.13-.21-.13-.34,0-.33,.28-.71,.66-.71,.19,0,.31,.08,.37,.15,.08,.09,.13,.2,.13,.34,0,.33-.28,.71-.66,.71Zm-6.51-.83c-.2,0-.32-.08-.38-.15-.08-.09-.13-.21-.13-.35,0-.35,.29-.73,.68-.73,.2,0,.32,.08,.38,.15,.08,.09,.13,.21,.13,.35,0,.35-.29,.74-.68,.74Zm-2.42-.23c-.16,0-.26-.07-.31-.13-.07-.07-.11-.17-.11-.28,0-.27,.22-.56,.53-.56,.16,0,.26,.07,.31,.13,.07,.07,.11,.17,.11,.28,0,.27-.22,.56-.53,.56Zm.5-3.36h-.18l-.06-.18c-.1-.33,1.94-2.13,1.96-2.15,.9-.6,1.82-1.28,2.76-2.05-.08,.05-.17,.08-.27,.08-.18,0-.29-.08-.35-.14-.08-.08-.12-.19-.12-.32,0-.31,.26-.65,.61-.65,.18,0,.29,.08,.35,.14,.08,.08,.12,.19,.12,.32,0,.16-.07,.32-.18,.45,.8-.66,1.61-1.39,2.43-2.17-.16,.13-.44,.14-.59-.02-.07-.07-.1-.17-.1-.27,0-.25,.2-.52,.49-.52,.12,0,.22,.04,.3,.12,.07,.07,.1,.17,.1,.27,0,.12-.05,.26-.14,.36,1.02-.98,2.05-2.05,3.1-3.21,1.65-1.83,3.11-3.07,5.3-3.64h.11c.19-.01,.34,.12,.37,.31,.03,.19-.05,.44-.28,.53-2.54,.95-4.24,2.73-6.04,4.62-.35,.37-.71,.75-1.08,1.12-.4,.4-.74,.79-1.1,1.21-1.31,1.5-2.8,3.19-7.37,5.77l-.06,.03h-.07Zm6.67-5.62c-1.6,1.47-3.16,2.71-4.68,3.71-.06,.04-.28,.26-.54,.52,2.86-1.76,4.15-3.04,5.22-4.23Zm4.58,4.9c-.21,0-.33-.09-.4-.16-.09-.09-.13-.22-.13-.36,0-.36,.31-.77,.72-.77,.21,0,.33,.09,.4,.16,.09,.09,.13,.22,.13,.36,0,.36-.31,.77-.72,.77Zm-2.4-.1c-.16,0-.31-.09-.4-.23-.1-.16-.1-.35-.02-.52l.06-.11c.19-.37,.78-.48,1-.14,.09,.13,.11,.29,.06,.45-.05,.18-.19,.35-.36,.43l-.06,.03c-.12,.06-.2,.08-.28,.08Zm6.55-.9c-.22,0-.35-.09-.42-.17-.09-.1-.14-.23-.14-.38,0-.39,.33-.82,.76-.82,.22,0,.35,.09,.42,.17,.09,.1,.14,.23,.14,.38,0,.39-.33,.82-.76,.82Zm.2-.87c-.09,0-.17,.09-.22,.16-.05,.1-.05,.18-.04,.2,.15,0,.23-.08,.27-.16,.05-.1,.05-.18,.04-.2h-.05Zm-3.97-2.07c-.31,0-.59-.14-.78-.4-.19-.25-.26-.58-.2-.89,.06-.31,.25-.59,.53-.75h.02c.05-.06,.09-.1,.13-.13,.46-.33,.98-.35,1.31-.04,.47,.44,.48,1.18,.03,1.7-.27,.31-.67,.5-1.03,.5Zm.43-1.93c-.13,0-.29,.06-.44,.17-.03,.02-.06,.06-.09,.09l-.08,.06c-.17,.1-.27,.25-.31,.42-.03,.17,0,.35,.11,.49,.24,.32,.73,.21,1.03-.13,.24-.27,.32-.72,0-1.01-.07-.06-.14-.09-.23-.09Zm1.68,.55c-.17,0-.27-.07-.33-.13-.07-.08-.11-.18-.11-.3,0-.28,.23-.6,.56-.6,.17,0,.27,.07,.33,.13,.07,.08,.11,.18,.11,.3,0,.28-.23,.6-.56,.6Zm4.44-.53c-.16,0-.31-.08-.4-.22-.1-.15-.11-.36-.03-.53l.03-.06c.09-.36,.49-.56,.77-.48-.1-.15-.12-.33-.07-.49h.26s-.24-.07-.24-.07c.12-.36,.56-.61,.87-.47,.06,0,.11,.03,.15,.05,.19,.1,.31,.27,.33,.47,.03,.23-.08,.49-.28,.66-.19,.17-.5,.23-.7,.12,0,0,0,0-.01,0,.02,.06,.04,.13,.04,.22,0,.34-.17,.6-.48,.74-.08,.04-.16,.06-.24,.06Zm.98-1.87h0c-.05,0-.16,.07-.19,.17l-.02,.07s.02,.07,.04,.1c.03,.03,.05,.04,.11,.08,.05,0,.1-.03,.12-.05,.08-.08,.13-.17,.12-.24,0-.03-.01-.06-.07-.09l-.12-.03Zm-5.17,.83c-.21,0-.33-.09-.4-.16-.09-.09-.13-.22-.13-.36,0-.37,.31-.78,.72-.78,.21,0,.33,.09,.4,.16,.09,.09,.13,.22,.13,.36,0,.37-.31,.78-.72,.78Zm3.98-1.88c-.18,0-.29-.08-.35-.14-.08-.08-.12-.19-.12-.32,0-.31,.26-.66,.62-.66,.18,0,.29,.08,.35,.14,.08,.08,.12,.19,.12,.32,0,.31-.26,.66-.62,.66Zm-1.65-.57v-.5s.06-.06,.06-.12c0-.01,0-.02,0-.02l.02-.48c.15,0,.28,.06,.37,.17,.07,.09,.11,.2,.11,.33,0,.3-.21,.62-.56,.62Zm3.23-1.13c-.21,0-.34-.09-.41-.16-.09-.09-.14-.22-.14-.37,0-.37,.31-.79,.73-.79,.21,0,.34,.09,.41,.16,.09,.1,.14,.22,.14,.37,0,.37-.31,.79-.73,.79Zm-2.69-2.44c-.16,0-.25-.07-.31-.12-.07-.07-.1-.17-.1-.28,0-.26,.21-.55,.52-.55,.16,0,.25,.07,.31,.12,.07,.07,.1,.17,.1,.28,0,.26-.21,.55-.52,.55Z"/>
  <path class="cls-1" d="M9.66,29.28l1.3-1.42c.17-.19,.34-.37,.52-.54l.05-.04c1.35-.77,2.92-1.21,4.3-1.21,.71,0,1.37,.12,1.96,.34l.19,.08v.26c-.04,.15-.16,.26-.31,.26-.55-.1-1.07-.15-1.59-.15-1.67,0-3.42,.51-4.8,1.4l-1.62,1.04Z"/>
  <path class="cls-1" d="M16.75,24.54c-.16,0-.3-.11-.34-.26-.05-.18,.04-.38,.2-.47,1.73-.97,4.08-1.27,7.09-.88,.16,.02,.28,.16,.27,.33-.01,.18-.16,.33-.34,.33h0c-.36-.02-.7-.03-1.04-.03-1.96,0-3.88,.33-5.71,.97l-.14,.03Z"/>
  <path class="cls-1" d="M9.87,36.88c-.05,0-.11-.01-.16-.03-.67-.29-.93-1.26-1-1.61-.04-.08-.07-.16-.08-.25-.1-.09-.17-.19-.23-.29-.34-.58-.42-1.09-.23-1.52,.1-.23,.44-.26,.57-.07,.06,.09,.08,.2,.04,.31-.02,.07-.03,.15-.02,.25,.22-.83,.69-1.53,1.13-2.14,.13-.18,.44-.16,.54,.03,.06,.1,.05,.22-.01,.32-.26,.42-.57,1-.75,1.64,.09-.07,.18-.14,.26-.21l.07-.06,.15-.02c.13,0,.25,.08,.3,.2,.05,.12,.03,.27-.07,.37-.11,.11-.23,.21-.34,.32-.12,.11-.25,.21-.35,.33-.04,.04-.07,.09-.1,.13,.03,.01,.07,.02,.1,.03,.2,.06,.41,.13,.61,.26,.14,.09,.19,.25,.15,.42-.06,.19-.23,.33-.41,.33h0c-.09,0-.17-.02-.26-.04,.1,.2,.24,.39,.41,.57,.12,.12,.15,.3,.08,.47-.07,.17-.23,.27-.39,.27Z"/>
  <path class="cls-1" d="M21.48,21.89c-.15,0-.28-.1-.33-.25-.05-.16,.01-.33,.15-.42,1.7-1.13,3.9-1.78,6.02-1.78,1.51,0,2.94,.33,4.14,.95,.14,.07,.21,.23,.17,.38-.04,.16-.18,.28-.34,.28l-.14-.03c-2.56-1.14-5.61-.89-9.53,.83l-.15,.03Z"/>
  <path class="cls-1" d="M26.09,18.49l1.65-1.04c.42-.26,.83-.53,1.24-.81l.08-.04c2.18-.55,4.32-.31,6.12,.68,.13,.07,.19,.22,.16,.37-.04,.16-.17,.26-.33,.26h-.06l-.08-.03c-.95-.46-1.96-.68-3.09-.68s-2.34,.22-3.82,.69l-1.86,.59Z"/>
  <path class="cls-1" d="M30.44,15.62l1.92-1.39c.47-.34,.94-.68,1.41-1.01l.08-.04c.71-.19,1.42-.28,2.11-.28,1.1,0,2.65,.24,3.79,1.37,.1,.09,.13,.24,.07,.37-.06,.14-.18,.23-.32,.23h-.09l-.11-.07c-.81-.64-1.84-.97-3.07-.97-1.13,0-2.42,.3-3.63,.83l-2.16,.96Z"/>
  <path class="cls-1" d="M36.47,12.47c-.16,0-.3-.1-.36-.26-.07-.18,0-.4,.14-.53,1.21-.99,2.97-1.61,4.6-1.61,1.07,0,2.02,.27,2.76,.78,.12,.08,.17,.24,.13,.39-.05,.17-.2,.29-.37,.29h-.06l-.09-.04c-.61-.32-1.26-.47-2-.47-1.55,0-3.17,.72-4.56,1.4-.07,.03-.13,.05-.2,.05Zm3.67-1.85c-.99,.11-2,.45-2.84,.95,.9-.41,1.86-.78,2.84-.95Z"/>
</svg>