<svg version="1.1" xmlns="http://www.w3.org/2000/svg" xmlns:xlink="http://www.w3.org/1999/xlink" x="0px" y="0px" viewBox="0 0 256 256" enable-background="new 0 0 256 256" xml:space="preserve">
<metadata fill="#ffffff"> Svg Vector Icons : http://www.onlinewebfonts.com/icon </metadata>
<g><g><g><path fill="#ffffff" d="M125.7,9.5c-4.8,3.8-11.5,13.9-17.5,26.5c-3.7,7.6-8,18.6-7.5,19c0.2,0.2,2.4,0,5-0.5c14.3-2.4,30.4-2.4,44.6,0c2.6,0.5,4.8,0.7,5,0.6c0.3-0.4-1.9-6.6-4.4-12.4c-6.3-14.9-15-28.8-20.6-33.3C129.2,8.7,128.2,8,128,8S126.8,8.6,125.7,9.5z"/><path fill="#ffffff" d="M115.3,61.6c-6.1,0.8-11,1.7-13.8,2.4l-1.9,0.5v4.1c0,3.5,0.1,4.1,0.8,3.8c0.4-0.2,3.2-0.7,6.3-1.3c14.5-2.7,28.4-2.7,42.9,0c3.1,0.6,5.8,1.2,6.3,1.3c0.7,0.3,0.8-0.4,0.8-3.8v-4.1l-1.9-0.5C145.1,61.4,125.7,60.3,115.3,61.6z"/><path fill="#ffffff" d="M118.8,77.4c-8.6,1-11,1.4-14.9,2.1l-4.5,0.9v61.4v61.4H128h28.5v-61.4V80.4l-4.7-0.9c-2.6-0.5-6.3-1.1-8.3-1.4C139.7,77.6,121.9,77.1,118.8,77.4z M151.1,151.7c0.8,0.8,1.3,1.8,1.3,2.8c0,1-0.5,2-1.3,2.8l-1.2,1.3H128h-21.9l-1.2-1.3c-0.8-0.8-1.3-1.8-1.3-2.8c0-1,0.5-2,1.3-2.8l1.2-1.3H128h21.9L151.1,151.7z M151.1,167.9c0.8,0.8,1.3,1.8,1.3,2.8c0,1-0.5,2-1.3,2.8l-1.2,1.3H128h-21.9l-1.2-1.3c-0.8-0.8-1.3-1.8-1.3-2.8c0-1,0.5-2,1.3-2.8l1.2-1.3H128h21.9L151.1,167.9z M151.1,184.2c0.8,0.8,1.3,1.8,1.3,2.8s-0.5,2-1.3,2.8l-1.2,1.3H128h-21.9l-1.2-1.3c-0.8-0.8-1.3-1.8-1.3-2.8s0.5-2,1.3-2.8l1.2-1.3H128h21.9L151.1,184.2z"/><path fill="#ffffff" d="M87.9,116.3c-7,14.4-16.8,29.1-25.7,38.6c-1.4,1.5-2.3,2.7-2.1,2.7c0.2,0,3.4-0.9,7.1-2c7.2-2.1,17.9-4.8,21.9-5.3l2.4-0.4v-20c0-11-0.1-20-0.1-20C91.2,109.7,89.7,112.6,87.9,116.3z"/><path fill="#ffffff" d="M164.6,129.6v20.2l2.4,0.4c5.6,0.8,23.4,5.3,28.3,7.2c0.6,0.2-0.4-1.1-2.1-3c-8.9-9.6-19.3-25.4-26.2-39.8l-2.4-5.1L164.6,129.6z"/><path fill="#ffffff" d="M88.1,158.4c-18.3,3.9-33.3,9.3-50.2,17.8c-8.6,4.4-20,11-23.6,13.8l-1.4,1.1H42h29v-2.6c0-2.2,0.3-2.8,1.5-4.1c1.8-1.8,3.6-1.7,5.5,0.4c1.1,1.2,1.1,1.7,1.1,10.4c0,9.1,0,9.2-1.3,10.4c-1.6,1.7-4,1.7-5.6,0c-1-1-1.3-1.7-1.3-3.8v-2.5H40.5H10v6.1v6.1h37.1h37.1l0.3-1.1c0.5-1.6,3.6-4.8,5.3-5.5l1.5-0.6v-23.1V158l-1.1,0.1C89.6,158.1,88.6,158.2,88.1,158.4z"/><path fill="#ffffff" d="M164.6,181v23.1l1.5,0.6c1.7,0.7,4.8,3.9,5.3,5.5l0.3,1.1h37.1H246v-6.1v-6.1h-30.5H185v2.5c0,2.1-0.3,2.8-1.3,3.8c-1.6,1.7-4,1.7-5.6,0c-1.3-1.2-1.3-1.3-1.3-10.4v-9.3l1.5-1.5c1.2-1.2,1.8-1.5,3-1.2c2.3,0.6,3.7,2.5,3.7,5.4v2.5h29.1h29.1l-1.8-1.3c-11.2-8.3-33.6-19.4-50.7-25.1c-5.7-1.9-19.7-5.6-24.2-6.4l-1.9-0.4L164.6,181L164.6,181z"/><path fill="#ffffff" d="M92.7,212.7c-1.2,1.2-1.3,1.6-1.3,6.9c0,5.3,0.1,5.7,1.3,6.9l1.2,1.3H128h34.1l1.2-1.3c1.2-1.2,1.3-1.6,1.3-6.9c0-5.3-0.1-5.7-1.3-6.9l-1.2-1.3H128H93.9L92.7,212.7z"/><path fill="#ffffff" d="M102.6,236.2c0,0.2,0.9,2.9,1.9,6.1l1.9,5.7H128h21.7l1.6-5.2c0.9-2.8,1.8-5.6,2-6.1c0.3-0.8-1.2-0.9-25.2-0.9C114,235.8,102.6,236,102.6,236.2z"/></g></g></g>
</svg>